<svg width="114" height="193" viewBox="0 0 114 193" fill="none" xmlns="http://www.w3.org/2000/svg">
<g clip-path="url(#clip0_10_9)">
<path d="M76.7001 10.6358C76.9501 7.20179 78.8973 1.88277 83.3663 0.804034C88.973 -0.547185 93.4569 5.99988 93.6584 6.30596C97.0082 11.345 95.255 16.8544 95.061 17.4255C94.923 17.8324 92.6064 24.4392 87.9248 25.0327C82.43 25.7307 76.1741 17.8174 76.6964 10.6358H76.7001Z" fill="#DF4942"/>
<path d="M82.9 19.1799C80.8744 17.056 81.1206 14.1669 81.1467 13.9131C81.4041 11.3674 83.2581 8.06778 85.8246 8.06031C88.4694 8.05285 90.0362 11.5429 90.1518 11.8042C90.3234 12.1961 91.3306 14.6298 90.1518 17.1866C89.4206 18.7768 87.6114 20.9156 85.4739 20.6991C84.2317 20.5722 83.3998 19.7024 82.9 19.1761V19.1799Z" fill="#E6E1C8"/>
<path d="M36.9643 10.6358C36.7144 7.20179 34.7671 1.88277 30.2981 0.804034C24.6914 -0.547185 20.2075 5.99988 20.0061 6.30596C16.6562 11.345 18.4095 16.8544 18.6034 17.4255C18.7415 17.8324 21.058 24.4392 25.7396 25.0327C31.2345 25.7307 37.4903 17.8174 36.968 10.6358H36.9643Z" fill="#DF4942"/>
<path d="M30.7642 19.1799C32.7898 17.056 32.5436 14.1669 32.5175 13.9131C32.2601 11.3674 30.4061 8.06778 27.8396 8.06031C25.1948 8.05285 23.6281 11.5429 23.5124 11.8042C23.3408 12.1961 22.3336 14.6298 23.5124 17.1866C24.2436 18.7768 26.0528 20.9156 28.1903 20.6991C29.4325 20.5722 30.2644 19.7024 30.7642 19.1761V19.1799Z" fill="#E6E1C8"/>
<path d="M109.248 105.624C103.022 80.0556 101.518 77.0471 99.1569 69.5258C97.1574 63.1579 91.2112 52.1204 91.2112 52.1204C91.2112 52.1204 93.1883 43.9795 92.7891 36.9024C92.5579 32.7853 92.0431 25.2155 87.257 17.3956C85.459 14.458 80.7139 7.6534 71.7126 3.4243C65.7029 0.602421 60.2268 0.0686525 57 0.00146484C53.7732 0.0686525 48.2971 0.602421 42.2874 3.42804C33.2861 7.65713 28.541 14.4617 26.743 17.3993C21.9569 25.2192 21.4421 32.7891 21.2109 36.9062C20.8117 43.9833 22.7888 52.1242 22.7888 52.1242C22.7888 52.1242 16.8426 63.1616 14.8431 69.5295C12.4818 77.0508 10.9785 80.0593 4.75248 105.628C-0.343196 126.549 -0.656547 133.403 0.660273 144.462C1.74581 153.57 4.37572 159.938 6.19241 164.234C10.9897 175.593 15.6936 179.4 17.2567 180.58C17.5439 180.796 17.8423 181.02 18.152 181.244C15.9846 182.27 14.5037 183.525 13.9814 184.536C12.9071 186.63 12.6944 192.001 12.6944 192.001H39.4188V176.38C40.605 174.171 40.6162 172.502 43.3394 170.031C46.3013 167.344 49.6959 166.224 50.9792 165.813C53.3778 165.048 55.4892 164.817 57 164.761C58.5071 164.82 60.6222 165.048 63.0208 165.813C64.3041 166.224 67.6987 167.344 70.6606 170.031C73.3838 172.502 73.395 174.171 74.5812 176.38V192.001H101.306C101.306 192.001 101.089 186.63 100.019 184.536C99.5001 183.521 98.0191 182.267 95.848 181.244C96.1577 181.02 96.4561 180.796 96.7433 180.58C98.3064 179.404 103.01 175.593 107.808 164.234C109.624 159.938 112.258 153.57 113.34 144.462C114.657 133.403 114.343 126.549 109.248 105.628V105.624Z" fill="#DF4942"/>
<path d="M85.0487 77.9205C82.6053 74.7701 78.5578 69.6863 71.209 66.8532C65.2293 64.5501 59.809 63.4714 56.8024 63.8447C53.7957 63.4751 48.3717 64.5501 42.3919 66.8532C35.0394 69.6863 30.9957 74.7701 28.5523 77.9205C18.1632 91.3244 18.5363 107.226 18.6929 113.933C18.8795 121.932 19.1518 133.373 27.034 143.944C29.3618 147.064 34.5731 153.854 44.0967 156.885C49.2782 158.535 53.8777 159.382 56.7986 159.106C59.7232 159.386 64.319 158.535 69.5005 156.885C79.0241 153.854 84.2355 147.064 86.5632 143.944C94.4492 133.373 94.7178 121.936 94.9043 113.933C95.061 107.226 95.4378 91.3244 85.045 77.9205H85.0487Z" fill="#E6E1C8"/>
<path d="M60.5998 92.6421C60.3089 92.6421 60.0664 92.4182 60.044 92.127L59.0555 79.4846C59.0331 79.1747 59.2606 78.906 59.5703 78.8836C59.8799 78.8612 60.1485 79.0889 60.1709 79.3987L61.1594 92.0412C61.1818 92.351 60.9542 92.6197 60.6446 92.6421C60.6297 92.6421 60.6148 92.6421 60.5998 92.6421Z" fill="#DF4942"/>
<path d="M69.7691 89.9509C69.5192 89.9509 69.2879 89.7792 69.2245 89.5254L66.7662 79.5779C66.6916 79.2792 66.8744 78.9732 67.1765 78.8985C67.4749 78.8239 67.7808 79.0068 67.8554 79.3091L70.3138 89.2566C70.3884 89.5552 70.2056 89.8613 69.9034 89.936C69.8587 89.9472 69.8139 89.9509 69.7691 89.9509Z" fill="#DF4942"/>
<path d="M75.9949 83.7546C75.7674 83.7546 75.551 83.6128 75.4689 83.3851L72.9024 76.2744C72.798 75.9833 72.9472 75.6623 73.2382 75.5577C73.5292 75.4532 73.85 75.6025 73.9544 75.8937L76.5209 83.0044C76.6254 83.2955 76.4761 83.6165 76.1852 83.721C76.1218 83.7434 76.0583 83.7546 75.9949 83.7546Z" fill="#DF4942"/>
<path d="M53.0682 92.6421C53.3591 92.6421 53.6016 92.4182 53.624 92.127L54.6125 79.4846C54.6349 79.1747 54.4074 78.906 54.0977 78.8836C53.7881 78.8612 53.5195 79.0889 53.4971 79.3987L52.5086 92.0412C52.4862 92.351 52.7138 92.6197 53.0234 92.6421C53.0383 92.6421 53.0532 92.6421 53.0682 92.6421Z" fill="#DF4942"/>
<path d="M43.8989 89.9509C44.1489 89.9509 44.3802 89.7792 44.4436 89.5254L46.9019 79.5779C46.9765 79.2792 46.7937 78.9732 46.4915 78.8985C46.1931 78.8239 45.8872 79.0068 45.8126 79.3091L43.3543 89.2566C43.2797 89.5552 43.4625 89.8613 43.7647 89.936C43.8094 89.9472 43.8542 89.9509 43.8989 89.9509Z" fill="#DF4942"/>
<path d="M37.6692 83.7546C37.8967 83.7546 38.1131 83.6128 38.1951 83.3851L40.7616 76.2744C40.8661 75.9833 40.7169 75.6623 40.4259 75.5577C40.1349 75.4532 39.8141 75.6025 39.7097 75.8937L37.1432 83.0044C37.0387 83.2955 37.1879 83.6165 37.4789 83.721C37.5423 83.7434 37.6057 83.7546 37.6692 83.7546Z" fill="#DF4942"/>
<path d="M99.0786 101.376L84.4817 70.0371C82.8515 78.4841 79.9381 86.681 75.872 94.2583C75.0961 95.7028 74.2754 97.1399 73.4771 98.5844C68.65 99.8087 65.0801 104.18 65.0801 109.39C65.0801 115.546 70.0676 120.536 76.219 120.536C80.1769 120.536 83.6461 118.468 85.6232 115.359C91.1889 111.929 95.8705 107.072 99.0786 101.376Z" fill="#DF4942"/>
<path d="M14.5857 101.376L29.1826 70.0371C30.8128 78.4841 33.7262 86.681 37.7923 94.2583C38.5682 95.7028 39.3889 97.1399 40.1872 98.5844C45.0143 99.8087 48.5843 104.18 48.5843 109.39C48.5843 115.546 43.5968 120.536 37.4454 120.536C33.4875 120.536 30.0182 118.468 28.0411 115.359C22.4754 111.929 17.7938 107.072 14.5857 101.376Z" fill="#DF4942"/>
<path d="M56.7127 52.6765C65.0999 52.6765 71.899 46.794 71.899 39.5376C71.899 32.2812 65.0999 26.3987 56.7127 26.3987C48.3255 26.3987 41.5264 32.2812 41.5264 39.5376C41.5264 46.794 48.3255 52.6765 56.7127 52.6765Z" fill="#E6E1C8"/>
<path d="M74.488 33.3005C76.1238 33.3005 77.4499 31.9736 77.4499 30.3368C77.4499 28.6999 76.1238 27.373 74.488 27.373C72.8522 27.373 71.5261 28.6999 71.5261 30.3368C71.5261 31.9736 72.8522 33.3005 74.488 33.3005Z" fill="#38372F"/>
<path d="M39.1763 33.3005C40.8121 33.3005 42.1382 31.9736 42.1382 30.3368C42.1382 28.6999 40.8121 27.373 39.1763 27.373C37.5404 27.373 36.2144 28.6999 36.2144 30.3368C36.2144 31.9736 37.5404 33.3005 39.1763 33.3005Z" fill="#38372F"/>
<path d="M68.0791 39.0076C67.7882 38.9031 67.4674 39.0561 67.3666 39.3473C65.8596 43.5988 61.924 46.5028 57.4588 46.7416V39.2913L62.8417 32.4307H50.8859L56.336 39.3771V46.7454C51.8483 46.5326 47.8829 43.6249 46.3647 39.3622C46.2602 39.071 45.9394 38.918 45.6485 39.0225C45.3575 39.127 45.2045 39.448 45.309 39.7392C47.0436 44.614 51.6879 47.8876 56.8582 47.8876C62.0285 47.8876 66.684 44.6066 68.4149 39.7243C68.5193 39.4331 68.3664 39.1121 68.0754 39.0076H68.0791Z" fill="#38372F"/>
</g>
<defs>
<clipPath id="clip0_10_9">
<rect width="114" height="192" fill="white" transform="translate(0 0.00146484)"/>
</clipPath>
</defs>
</svg>
