<svg width="289" height="314" viewBox="0 0 289 314" fill="none" xmlns="http://www.w3.org/2000/svg">
<g clip-path="url(#clip0_32_27)">
<path d="M194.884 40.9232C194.01 40.2639 192.767 40.4383 192.107 41.3132L192.099 41.3313C190.791 43.0585 189.46 44.7495 188.07 46.3777C186.673 47.9975 185.241 49.5753 183.742 51.0819C180.743 54.0886 177.54 56.847 174.149 59.3051C170.51 61.9411 166.66 64.2562 162.666 66.059C162.655 66.0222 162.645 65.9963 162.634 65.9594C162.358 64.9782 162.175 63.7797 162.053 62.4893C161.781 59.95 161.734 57.3732 161.872 54.79C161.999 52.2074 162.367 49.6262 162.903 47.0638C163.448 44.5053 164.208 41.985 165.147 39.5204L165.159 39.4932C165.507 38.5814 165.137 37.5328 164.253 37.0572C163.296 36.5396 162.098 36.8943 161.576 37.8495C160.218 40.3541 159.033 42.9655 158.064 45.6746C157.106 48.3831 156.323 51.1718 155.795 54.0272C155.258 56.8787 154.923 59.7846 154.843 62.7196C154.791 64.1658 154.784 65.7064 155.012 67.423C155.072 67.8454 155.146 68.2846 155.245 68.729C154.187 69.0094 153.118 69.2529 152.048 69.448C150.093 69.7942 148.153 70.0071 146.204 70.0396C144.255 70.061 142.303 69.9525 140.387 69.6455C136.555 69.0578 132.862 67.7737 129.639 65.7646C123.283 61.8163 118.555 54.498 118.468 46.4159L118.465 46.2969C118.457 45.3927 117.822 44.5847 116.9 44.3872C115.834 44.1605 114.786 44.8419 114.559 45.9078C114.433 46.5021 114.303 47.1055 114.204 47.7115C114.135 48.3201 114.043 48.9346 114.004 49.5503C113.994 50.1621 113.951 50.7869 113.976 51.4033C114.012 52.019 114.005 52.6484 114.085 53.2615C114.326 55.7342 114.972 58.1656 115.926 60.4775C117.835 65.0856 121.049 69.2245 125.152 72.2655C125.951 72.8652 126.784 73.421 127.64 73.938C127.265 74.5867 126.827 75.2081 126.337 75.8017C125.053 77.3575 123.396 78.6727 121.504 79.5602L121.456 79.5828C120.63 79.9733 120.154 80.8948 120.372 81.8243C120.617 82.8889 121.684 83.5502 122.744 83.3028C125.374 82.6942 127.884 81.466 130.063 79.7474C131.219 78.839 132.282 77.7837 133.222 76.6055C135.068 77.2851 136.964 77.814 138.887 78.178C143.772 79.11 148.844 79.0557 153.657 78.1295C156.066 77.6728 158.421 77.0318 160.693 76.2058C162.972 75.3928 165.174 74.4187 167.28 73.3068C171.511 71.1017 175.376 68.3642 178.93 65.3382C182.467 62.2779 185.676 58.8683 188.477 55.1759C189.871 53.3246 191.169 51.4104 192.339 49.42C193.516 47.4379 194.588 45.4002 195.509 43.3029C195.867 42.4809 195.634 41.4861 194.884 40.9232Z" fill="#38372F"/>
<path d="M219.894 185.987L220.166 186.179L219.98 185.949C219.921 185.972 219.887 185.989 219.887 185.989L219.894 185.987Z" fill="#DF4942"/>
<path d="M243.394 182.227C252.37 175.369 244.933 159.958 244.933 159.958L244.916 159.973C244.012 162.929 241.629 170.51 240.259 172.629C237.868 176.33 231.97 181.385 228.909 182.923C226.246 184.258 220.682 185.848 219.946 186.052L220.143 186.255L221.481 187.096C224.146 187.393 235.522 188.247 243.398 182.229L243.394 182.227Z" fill="#E6E1C8"/>
<path d="M117.003 71.6482C128.161 76.434 131.24 82.5999 132.513 95.0391C133.786 107.478 135.582 132.03 138.398 136.759C141.214 141.489 150.246 150.208 158.059 153.559L218.688 179.563C224.269 181.957 235.211 198.543 226.596 218.629C217.981 238.716 204.642 243.124 197.2 239.933L112.272 203.506C103.464 199.728 93.3184 190.531 94.6484 179.208C95.983 167.887 97.8581 116.284 97.8581 116.284L65.9269 88.0579L70.6242 67.61L91.2261 74.2435C91.2261 74.2435 106.587 67.1808 117.003 71.6482Z" fill="#E6E1C8"/>
<path d="M218.688 179.563L158.059 153.559C150.246 150.208 141.214 141.489 138.398 136.759C135.582 132.03 133.783 107.472 132.513 95.0391C131.24 82.5999 128.161 76.434 117.003 71.6482C106.587 67.1808 91.2261 74.2435 91.2261 74.2435L70.6242 67.61L69.4339 72.7968L95.6745 84.0518C95.6745 84.0518 102.803 78.2281 109.652 81.1656C116.5 84.1031 120.457 89.2732 120.779 94.8194C121.103 100.361 123.606 143.133 126.445 153.618C129.272 164.06 134.152 180.769 143.679 187.771C143.679 187.771 155.084 196.468 165.61 200.303C175.691 204.701 181.274 206.453 189.006 206.645C196.738 206.836 202.8 204.698 209.509 199.852C213.908 196.68 219.979 189.036 223.412 183.755C221.757 181.603 220.062 180.147 218.685 179.557L218.688 179.563Z" fill="#DF4942"/>
<path d="M70.6243 67.61L67.8142 79.847L82.5503 71.455L70.6243 67.61Z" fill="#38372F"/>
<path d="M101.939 92.0126C103.927 92.865 106.229 91.9448 107.081 89.9572C107.934 87.9695 107.014 85.6672 105.026 84.8147C103.039 83.9623 100.737 84.8825 99.8841 86.8702C99.0316 88.8578 99.9517 91.1601 101.939 92.0126Z" fill="#38372F"/>
<path d="M74.7758 95.9162C78.5835 96.8847 82.6652 96.5773 86.2939 95.0893C87.173 94.7267 86.6249 93.3554 85.7459 93.718C82.3261 95.1187 78.5542 95.3661 74.9748 94.4525C74.5829 94.3541 74.1941 94.7233 74.1403 95.0862C74.0774 95.5201 74.3884 95.8197 74.7738 95.9207L74.7758 95.9162Z" fill="#38372F"/>
<path d="M123.722 89.9446C123.722 89.9446 135.097 84.6776 142.501 86.572C149.906 88.4619 155.578 102.777 155.578 102.777C155.578 102.777 145.482 105.361 137.613 103.053C129.742 100.749 123.722 89.9446 123.722 89.9446Z" fill="#DF4942"/>
<path d="M132.252 93.7482C132.252 93.7482 137.44 91.348 140.816 92.2117C144.192 93.0754 146.778 99.6034 146.778 99.6034C146.778 99.6034 142.173 100.78 138.584 99.728C134.994 98.6761 132.245 93.7508 132.245 93.7508L132.252 93.7482Z" fill="#E6E1C8"/>
<path d="M161.064 169.555C161.01 169.532 160.958 169.504 160.907 169.46L148.751 160.216C148.427 159.97 148.365 159.504 148.611 159.181C148.857 158.857 149.318 158.793 149.646 159.04L161.802 168.285C162.125 168.531 162.188 168.997 161.942 169.32C161.733 169.595 161.368 169.685 161.064 169.555Z" fill="#E6E1C8"/>
<path d="M156.615 182.616C156.547 182.587 156.483 182.549 156.42 182.495L143.474 171.282C143.165 171.016 143.133 170.552 143.4 170.243C143.666 169.934 144.132 169.898 144.439 170.169L157.385 181.381C157.694 181.648 157.726 182.112 157.459 182.421C157.244 182.672 156.9 182.738 156.61 182.614L156.615 182.616Z" fill="#E6E1C8"/>
<path d="M184.898 177.762C184.857 177.745 184.821 177.729 184.784 177.703L172.04 169.38C171.696 169.157 171.603 168.699 171.826 168.355C172.049 168.011 172.506 167.918 172.85 168.141L185.595 176.464C185.939 176.686 186.031 177.144 185.809 177.488C185.608 177.794 185.224 177.902 184.898 177.762Z" fill="#E6E1C8"/>
<path d="M183.536 188.31C183.5 188.295 183.468 188.281 183.436 188.256L169.288 179.407C168.942 179.189 168.837 178.736 169.055 178.39C169.273 178.044 169.73 177.94 170.071 178.156L184.219 187.006C184.565 187.224 184.671 187.677 184.452 188.023C184.254 188.334 183.866 188.452 183.536 188.31Z" fill="#E6E1C8"/>
<path d="M177.616 195.177C177.584 195.164 177.557 195.152 177.528 195.134L167.049 188.914C166.699 188.705 166.582 188.253 166.791 187.903C167 187.553 167.457 187.438 167.802 187.645L178.281 193.865C178.631 194.074 178.748 194.526 178.539 194.876C178.348 195.196 177.951 195.321 177.612 195.176L177.616 195.177Z" fill="#E6E1C8"/>
<path d="M194.87 177.778L204.188 183.12" stroke="#E6E1C8" stroke-width="3" stroke-miterlimit="10" stroke-linecap="round"/>
<path d="M200.063 194.536C200.008 194.512 199.952 194.483 199.905 194.441L191.674 188.129C191.353 187.879 191.288 187.417 191.538 187.096C191.789 186.774 192.251 186.71 192.572 186.96L200.803 193.272C201.126 193.518 201.189 193.984 200.939 194.306C200.73 194.581 200.366 194.666 200.063 194.536Z" fill="#E6E1C8"/>
<path d="M220.877 187.068C220.877 187.068 221.09 187.084 221.472 187.092L220.167 186.174L220.872 187.066L220.877 187.068Z" fill="#DF4942"/>
<path d="M240.255 172.627C241.624 170.508 244.007 162.928 244.911 159.971L216.42 182.476L219.941 186.05C220.679 185.841 226.242 184.256 228.904 182.921C231.97 181.385 237.868 176.33 240.255 172.627Z" fill="#DF4942"/>
<path d="M209.099 239.681L191.897 232.304L168.644 286.518L185.845 293.896L209.099 239.681Z" fill="#E6E1C8"/>
<path d="M185.847 293.892L168.646 286.514L162.095 301.788L179.296 309.166L185.847 293.892Z" fill="#38372F"/>
<path d="M188.159 230.7L170.958 223.322L147.704 277.537L164.905 284.915L188.159 230.7Z" fill="#E6E1C8"/>
<path d="M164.907 284.91L147.706 277.532L141.155 292.806L158.356 300.184L164.907 284.91Z" fill="#38372F"/>
<path d="M126.18 204.117L108.979 196.739L85.7259 250.954L102.927 258.331L126.18 204.117Z" fill="#E6E1C8"/>
<path d="M102.929 258.327L85.7278 250.949L79.1766 266.223L96.3777 273.601L102.929 258.327Z" fill="#38372F"/>
<path d="M77.5018 200.068L107.35 200.537L107.643 181.823L67.6488 181.193C65.0359 181.15 62.525 182.206 60.7225 184.097C58.9201 185.988 57.9931 188.549 58.1611 191.156L59.9182 218.172C64.6602 217.95 74.5581 217.414 78.612 217.197L77.4972 200.066L77.5018 200.068Z" fill="#E6E1C8"/>
<path d="M79.7139 234.07L78.6146 217.203C74.5608 217.42 64.6628 217.956 59.9208 218.178L61.0343 235.287L79.7139 234.07Z" fill="#38372F"/>
</g>
<defs>
<clipPath id="clip0_32_27">
<rect width="205.345" height="252.732" fill="white" transform="translate(99.623) rotate(23.2151)"/>
</clipPath>
</defs>
</svg>
