<svg width="1366" height="291" viewBox="0 0 1366 291" fill="none" xmlns="http://www.w3.org/2000/svg">
<path d="M0 291.788L1366 291.788V188.493C1212.7 137.779 868.67 74.7881 703.841 74.7881C539.011 74.7881 164.672 132.975 0 188.493V291.788Z" fill="#1C6EB8"/>
<path d="M337.983 91.5203C348.674 88.8431 353.748 70.723 349.315 51.0478C344.883 31.3726 332.623 17.5929 321.932 20.2701C311.24 22.9472 306.167 41.0673 310.599 60.7425C315.031 80.4177 327.292 94.1974 337.983 91.5203Z" fill="#2EAC94"/>
<path d="M342.125 57.4904C341.686 57.3549 341.237 57.6347 341.123 58.1167C340.77 59.6026 340.247 60.9786 339.57 62.2109C338.807 63.5952 337.87 64.7663 336.78 65.6897C335.701 66.6029 334.191 67.2337 333.32 67.5447L329.28 49.6125C330.049 49.3123 331.404 48.683 332.39 47.6408C333.333 46.6465 334.121 45.3713 334.729 43.8477C335.255 42.5304 335.638 41.0444 335.864 39.4417C335.932 38.9526 335.624 38.4834 335.177 38.3984C334.73 38.3134 334.308 38.642 334.239 39.1312C334.034 40.5838 333.694 41.9178 333.221 43.0955C332.696 44.405 332.031 45.4933 331.241 46.3267C330.535 47.0684 329.538 47.5671 328.881 47.8394L325.979 34.9593C325.87 34.4738 325.424 34.1693 324.983 34.2796C324.543 34.3899 324.274 34.8734 324.383 35.3589L329.034 56.0036C328.335 56.0561 327.349 56.0538 326.486 55.7534C325.425 55.3836 324.364 54.7312 323.34 53.8058C322.418 52.9773 321.542 51.9479 320.739 50.7478C320.469 50.3434 319.952 50.2498 319.589 50.5377C319.226 50.8257 319.148 51.3916 319.421 51.7953C320.306 53.1233 321.279 54.2661 322.314 55.1926C323.506 56.2654 324.754 57.0308 326.02 57.4719C327.242 57.8981 328.594 57.8645 329.438 57.7795L333.479 75.7187C332.543 75.8452 331.058 75.957 329.797 75.6743C328.429 75.3663 327.094 74.7678 325.821 73.8899C324.692 73.1134 323.637 72.1287 322.688 70.9689C322.381 70.596 321.861 70.5591 321.526 70.8845C321.192 71.2134 321.169 71.7842 321.472 72.1579C322.525 73.4479 323.701 74.5396 324.963 75.4093C326.407 76.4041 327.93 77.0858 329.493 77.4378C331.056 77.7898 332.84 77.6291 333.87 77.4829L341.504 111.37C341.613 111.856 342.059 112.16 342.5 112.05C342.94 111.939 343.209 111.456 343.1 110.97L333.713 69.3046C333.713 69.3046 333.726 69.3014 333.732 69.2998C334.682 68.9653 336.478 68.2406 337.797 67.1223C339.043 66.067 340.115 64.7355 340.978 63.1629C341.737 61.7872 342.319 60.2516 342.709 58.6039C342.824 58.1255 342.56 57.6267 342.118 57.492L342.125 57.4904Z" fill="#38372F"/>
<g clip-path="url(#clip0_2_2)">
<path d="M388.753 49.2526L386.811 49.5254L394.342 105.482L396.285 105.21L388.753 49.2526Z" fill="#38372F"/>
<path d="M384.041 21.6263L374.452 47.9868L400.243 44.3647L384.041 21.6263Z" fill="#DF4942"/>
<path d="M386.377 38.9854L371.449 66.0957L407.919 60.9739L386.377 38.9854Z" fill="#2EAC94"/>
<path d="M388.617 55.627L368.398 86.765L416.316 80.0355L388.617 55.627Z" fill="#DF4942"/>
</g>
<g clip-path="url(#clip1_2_2)">
<path d="M501.799 84.4679L495.94 65.6356C495.94 65.6356 496.784 61.9082 496.752 59.5587C496.721 57.209 495.929 56.1026 495.929 56.1026L498.616 56.6846L495.988 51.3208L499.152 51.5294L496.505 46.0199L498.956 46.2625L496.067 40.3926L499.549 23.1434C499.549 23.1434 498.074 23.5096 497.161 24.1418C496.248 24.774 494.423 27.1904 494.423 27.1904L494.129 18.9032L489.495 17.6269C489.495 17.6269 489.251 22.6034 488.042 25.2078C487.663 26.0236 485.851 26.5341 484.484 27.4419C483.044 28.3971 481.964 33.1691 481.478 36.6129C480.992 40.0567 480.844 44.1102 476.33 47.7541C471.816 51.3981 459.713 49.7354 453.288 50.623C452.431 50.7406 451.674 50.9299 451 51.1762C449.634 50.5119 447.862 49.9347 446.258 50.2878C443.063 50.9923 439.07 54.3486 439.07 54.3486L440.227 54.9203C440.227 54.9203 438.362 55.9084 436.835 56.9658C435.45 57.9233 433.396 60.6732 433.396 60.6732L434.898 61.2073C434.898 61.2073 432.591 62.5334 430.879 65.1731C429.863 66.7383 428.412 70.0758 428.412 70.0758L430.028 69.8746C430.028 69.8746 429.219 71.6094 428.851 73.5961C428.482 75.5829 428.92 79.1014 428.92 79.1014C428.92 79.1014 431.635 77.845 432.443 76.9264C433.251 76.0079 434.654 74.9149 434.654 74.9149L434.866 76.6247C434.866 76.6247 437.621 74.434 438.376 73.3851C439.655 71.6082 440.227 69.4228 440.227 69.4228L440.628 71.823C440.628 71.823 442.894 70.0236 443.976 68.2402C444.387 67.5628 445.081 66.286 445.87 64.8056C446.493 67.6128 447.686 69.9382 447.537 71.6658C447.323 74.1445 445.056 93.731 445.056 93.731L447.483 96.4231L460.808 94.7641C460.808 94.7641 460.969 93.1666 460.023 91.9222C459.618 91.3903 458.8 90.8329 457.916 90.4738L461.358 77.6444C461.358 77.6444 464.994 76.4102 466.887 74.8088C468.78 73.2056 470.209 71.0448 470.209 71.0448C470.209 71.0448 473.881 71.1391 476.288 71.5752C478.695 72.0113 483.84 71.3305 483.84 71.3305L492.411 90.8275L506.093 89.1239C506.093 89.1239 506.254 87.5264 505.309 86.2821C504.69 85.4699 503.11 84.6004 501.801 84.4695L501.799 84.4679Z" fill="#E6E1C8"/>
<path d="M481.117 33.9499C478.479 34.753 475.816 38.225 475.816 38.225L482.43 39.2383L483.344 33.6727C483.344 33.6727 482.872 33.4156 481.117 33.9499Z" fill="#2EAC94"/>
<path d="M490.293 27.449C490.648 26.3147 491.355 23.0316 491.709 18.2349L489.495 17.625C489.495 17.625 489.251 22.6015 488.042 25.2059C487.663 26.0218 485.851 26.5322 484.484 27.44C483.044 28.3953 481.964 33.1673 481.478 36.6111C480.992 40.0548 480.843 44.1083 476.329 47.7523C471.815 51.3963 459.713 49.7336 453.288 50.6212C452.444 50.7372 451.695 50.9235 451.028 51.1636C452.091 53.0469 453.633 55.5444 455.072 57.0175C457.911 59.9195 461.146 61.5141 468.048 61.7758C474.95 62.0375 484.076 58.0859 485.533 51.2239C486.757 45.448 486.49 34.8751 487.31 31.5213C488.132 28.1671 489.892 28.7332 490.295 27.4488L490.293 27.449Z" fill="#2EAC94"/>
<path d="M489.018 30.8465C489.105 31.5495 488.604 32.189 487.899 32.2766C487.195 32.3643 486.552 31.8656 486.464 31.1645C486.377 30.4633 486.878 29.822 487.583 29.7344C488.287 29.6467 488.93 30.1453 489.018 30.8465Z" fill="#38372F"/>
<path d="M500.751 89.7634C500.617 89.78 500.489 89.6973 500.455 89.5647C500.243 88.7768 499.954 87.9345 499.001 87.0818C498.442 86.5818 496.834 85.7613 496.818 85.7524L496.748 85.7173L496.708 85.6492C496.581 85.4368 493.626 80.2726 495.312 66.0824C495.33 65.9341 495.465 65.8278 495.614 65.844C495.763 65.8619 495.872 65.9963 495.854 66.1465C494.288 79.3174 496.81 84.6725 497.141 85.3087C497.478 85.4822 498.819 86.1916 499.364 86.6789C500.426 87.631 500.756 88.5961 500.978 89.4247C501.016 89.5696 500.93 89.7191 500.785 89.7573C500.772 89.7589 500.76 89.7623 500.747 89.7638L500.751 89.7634Z" fill="#D6AD49"/>
<path d="M455.346 95.3856L455.34 95.3863C455.19 95.4014 455.056 95.294 455.041 95.1443C454.984 94.5999 454.829 94.192 454.146 93.4792C453.195 92.4892 451.885 92.3895 451.872 92.3875L451.533 92.3639L451.628 92.0398L456.593 75.1775L456.736 75.136C456.766 75.1267 459.807 74.2186 461.484 72.8595C463.248 71.4294 464.175 69.1979 464.183 69.1749C464.24 69.0365 464.4 68.9691 464.539 69.0248C464.678 69.0805 464.745 69.2401 464.689 69.3785C464.65 69.4747 463.704 71.7579 461.828 73.2804C460.261 74.5528 457.674 75.4117 457.034 75.6119L452.242 91.8886C452.751 91.984 453.744 92.2676 454.542 93.1012C455.235 93.8219 455.507 94.3412 455.587 95.0836C455.602 95.2314 455.497 95.3632 455.349 95.3816L455.346 95.3856Z" fill="#D6AD49"/>
<path d="M469.106 52.4493C469.106 52.4493 469.09 52.4513 469.083 52.4522L464.397 52.6284C464.246 52.6345 464.119 52.5169 464.115 52.3677C464.109 52.2169 464.228 52.0908 464.377 52.0868L469.063 51.9106C469.214 51.9045 469.341 52.022 469.345 52.1712C469.35 52.3131 469.245 52.4337 469.106 52.4511L469.106 52.4493Z" fill="#E6E1C8"/>
<path d="M470.19 55.409L464.453 56.1233C464.303 56.142 464.167 56.0366 464.148 55.8874C464.13 55.7381 464.236 55.6026 464.386 55.584L470.123 54.8697C470.272 54.851 470.408 54.9564 470.427 55.1056C470.446 55.2549 470.34 55.3904 470.19 55.409Z" fill="#E6E1C8"/>
<path d="M470.087 58.6772C470.087 58.6772 470.081 58.6779 470.078 58.6783L466.34 59.0233C466.189 59.0365 466.056 58.9271 466.043 58.7772C466.03 58.6273 466.139 58.4877 466.29 58.4816L470.029 58.1367C470.179 58.1234 470.312 58.2329 470.325 58.3828C470.338 58.5291 470.233 58.659 470.087 58.6772Z" fill="#E6E1C8"/>
<path d="M472.561 53.1128C472.426 53.1297 472.298 53.0452 472.263 52.9108C472.226 52.7656 472.314 52.6177 472.46 52.5813L476.225 51.6287C476.373 51.592 476.52 51.6797 476.556 51.8249C476.592 51.97 476.504 52.1179 476.359 52.1543L472.593 53.107C472.582 53.1083 472.57 53.1117 472.559 53.1131L472.561 53.1128Z" fill="#E6E1C8"/>
<path d="M472.971 56.4029C472.835 56.4198 472.707 56.3353 472.672 56.2009C472.636 56.0557 472.724 55.9078 472.869 55.8696L476.839 54.8623C476.985 54.8259 477.133 54.9133 477.171 55.0583C477.208 55.2035 477.12 55.3514 476.974 55.3896L473.005 56.3968C472.994 56.3982 472.981 56.4016 472.971 56.4029Z" fill="#E6E1C8"/>
<path d="M460.124 53.3631C460.104 53.3655 460.086 53.366 460.066 53.3649L456.757 53.0648C456.607 53.0506 456.497 52.9182 456.509 52.7688C456.524 52.6191 456.657 52.5094 456.807 52.5218L460.115 52.8219C460.266 52.836 460.376 52.9684 460.361 53.1181C460.35 53.2473 460.249 53.3475 460.124 53.3631Z" fill="#E6E1C8"/>
<path d="M461.549 57.4271C461.524 57.4302 461.496 57.43 461.47 57.4259L458.234 56.8867C458.086 56.8613 457.984 56.7224 458.01 56.5732C458.035 56.4258 458.175 56.3244 458.325 56.3496L461.561 56.8888C461.709 56.9142 461.81 57.0531 461.785 57.2023C461.765 57.3234 461.666 57.4124 461.549 57.4271Z" fill="#E6E1C8"/>
<path d="M489.078 21.3904L489.493 17.625L493.023 18.5969L489.078 21.3904Z" fill="#38372F"/>
</g>
<g clip-path="url(#clip2_2_2)">
<path d="M544.033 74.4719C543.792 72.6114 544.151 72.2007 544.092 68.5739C544.039 65.3221 544.014 63.6967 543.421 61.7351C543.347 61.4898 543.268 61.2527 543.184 61.0197L542.267 64.0577L540.42 60.5322L538.768 64.4009L535.878 61.0016L533.696 64.8984L532.905 62.8934C531.959 66.6778 531.485 68.6348 531.458 69.8118C531.363 74.0013 534.164 77.2109 534.601 77.6969C539.182 82.8031 546.484 81.5481 546.995 81.4528C544.901 78.5921 544.249 76.1439 544.033 74.4707L544.033 74.4719Z" fill="#DF4942"/>
<path d="M535.879 61.0015L538.769 64.4008L540.421 60.5322L542.268 64.0577L543.186 61.0197C542.068 57.9037 540.2 55.9604 539.711 55.4708C538.867 54.6253 536.303 52.126 532.406 51.5837C529.61 51.1948 526.848 52.4969 526.848 52.4969C526.848 52.4969 528.526 52.993 530.69 54.5142C531.56 55.1259 532.873 56.0485 533.448 57.5584C533.962 58.906 533.625 60.0318 533.083 62.1977C533.023 62.4372 532.965 62.669 532.909 62.8943L533.7 64.8993L535.882 61.0025L535.879 61.0015Z" fill="#E6E1C8"/>
<path d="M567.33 68.9725C566.104 71.5647 564.297 74.2378 564.297 74.2378L564.936 80.7556C564.936 80.7556 566.1 81.4391 566.177 82.2292L566.277 83.2518L568.741 83.0102C568.741 83.0102 568.882 82.1774 568.584 81.409C568.285 80.6408 567.196 80.4147 567.196 80.4147L567.212 79.0553L567.33 68.9725Z" fill="#DF4942"/>
<path d="M564.903 80.4261L564.296 74.2367C564.296 74.2367 566.103 71.5636 567.329 68.9714L567.369 65.5749L561.746 72.1078L563.745 79.3941L564.842 83.3901L566.275 83.2496L566.174 82.2269C565.983 81.1617 564.901 80.425 564.901 80.425L564.903 80.4261Z" fill="#E6E1C8"/>
<path d="M563.504 74.063C563.504 74.063 567.885 67.5853 567.634 65.0175L566.6 54.4775L556.623 55.0641C556.623 55.0641 556.82 57.1048 556.248 58.491C555.677 59.8772 550.824 63.0111 546.638 66.6121C542.453 70.213 541.466 74.2312 541.892 78.5756C542.318 82.92 546.748 85.1659 546.748 85.1659L565.509 83.3259L565.384 82.0544C565.307 81.2644 564.144 80.5809 564.144 80.5809L563.504 74.063Z" fill="#DF4942"/>
<path d="M569.478 38.7858C568.572 38.3459 565.815 41.6887 565.021 42.6873C563.8 42.5106 561.456 42.2066 560.391 42.3111C559.326 42.4155 557.085 43.1692 555.923 43.5796C554.949 42.7557 551.596 40.0123 550.793 40.6186C549.964 41.245 552.542 48.3188 553.177 50.0162C552.865 51.1584 552.66 52.1395 552.706 52.611C552.745 53.0054 553.155 53.5354 553.795 54.1045C554.938 53.3567 556.041 52.8906 557.37 53.6156C557.439 53.654 557.509 53.6949 557.578 53.7371C557.599 53.7501 557.619 53.7633 557.64 53.7763C557.692 53.8089 557.743 53.8429 557.793 53.8781C557.813 53.8924 557.834 53.9054 557.855 53.9198C557.923 53.9684 557.991 54.0182 558.058 54.0706C558.06 54.0718 558.062 54.0728 558.064 54.0751C558.13 54.1264 558.196 54.1802 558.261 54.2354C558.281 54.2523 558.302 54.2704 558.323 54.2883C558.372 54.33 558.42 54.3731 558.469 54.416C558.489 54.4341 558.51 54.4522 558.53 54.4715C558.596 54.5317 558.66 54.5932 558.725 54.6572C559.111 55.7824 559.646 57.0161 559.905 57.3739C560.343 57.9802 561.23 58.4887 561.972 58.4159C562.714 58.343 563.485 57.6721 563.798 56.9921C563.982 56.5909 564.267 55.2767 564.427 54.0979C564.478 54.0225 564.53 53.9497 564.582 53.8779C564.599 53.855 564.615 53.8332 564.632 53.8115C564.67 53.76 564.71 53.7084 564.749 53.658C564.766 53.6363 564.783 53.6146 564.8 53.594C564.853 53.5272 564.908 53.4616 564.963 53.3985C564.964 53.3971 564.966 53.3956 564.967 53.393C565.023 53.3285 565.08 53.2663 565.138 53.2054C565.155 53.1875 565.173 53.1694 565.19 53.1526C565.233 53.1082 565.277 53.0649 565.32 53.023C565.338 53.0062 565.355 52.9894 565.373 52.9726C565.433 52.9178 565.493 52.8628 565.554 52.8129C566.717 51.8435 567.889 52.0865 569.156 52.5978C569.673 51.9152 569.972 51.3156 569.934 50.9213C569.888 50.4497 569.494 49.5275 568.967 48.4675C569.259 46.6791 570.415 39.2391 569.481 38.7856L569.478 38.7858Z" fill="#DF4942"/>
<path d="M561.889 57.5973L563.367 54.9604L559.929 55.2976L561.889 57.5973Z" fill="#38372F"/>
<path d="M565.314 51.3792C565.852 51.3265 566.245 50.8431 566.191 50.2997C566.138 49.7562 565.659 49.3583 565.121 49.4111C564.583 49.4638 564.19 49.9472 564.244 50.4907C564.297 51.0342 564.776 51.432 565.314 51.3792Z" fill="#38372F"/>
<path d="M557.323 52.1632C557.861 52.1104 558.254 51.6271 558.2 51.0836C558.147 50.5401 557.668 50.1423 557.13 50.195C556.592 50.2478 556.199 50.7311 556.253 51.2746C556.306 51.8181 556.785 52.2159 557.323 52.1632Z" fill="#38372F"/>
<path d="M565.553 52.8141C565.117 53.181 564.749 53.6265 564.426 54.0991C564.266 55.2779 563.981 56.5921 563.796 56.9933C565.788 56.0254 568.007 54.1109 569.154 52.5991C567.887 52.0878 566.714 51.8448 565.552 52.8143L565.553 52.8141Z" fill="#E6E1C8"/>
<path d="M568.483 41.4647C567.971 41.2172 566.234 43.4752 566.234 43.4752L568.206 46.3089C568.206 46.3089 568.994 41.7123 568.484 41.4646L568.483 41.4647Z" fill="#E6E1C8"/>
<path d="M558.722 54.6586C557.382 53.1233 555.372 52.8168 553.793 54.1058C555.212 55.366 557.76 56.813 559.902 57.3753C559.644 57.0176 559.109 55.7839 558.722 54.6586Z" fill="#E6E1C8"/>
<path d="M554.886 44.5881C554.886 44.5881 552.742 42.7109 552.289 43.0529C551.836 43.3951 553.503 47.7509 553.503 47.7509L554.887 44.588L554.886 44.5881Z" fill="#E6E1C8"/>
<path d="M554.19 63.5967C554.141 63.6015 554.091 63.5863 554.051 63.5525C553.974 63.4847 553.965 63.3663 554.032 63.2881L555.836 61.1693C555.903 61.0911 556.02 61.0821 556.098 61.1499C556.175 61.2177 556.184 61.3361 556.117 61.4142L554.313 63.5331C554.281 63.5715 554.237 63.5921 554.19 63.5967Z" fill="#E6E1C8"/>
<path d="M555.055 66.9723C555.022 66.9756 554.988 66.9701 554.955 66.9545C554.864 66.9082 554.826 66.7964 554.87 66.7029L556.555 63.2328C556.601 63.1404 556.712 63.102 556.804 63.1469C556.896 63.1932 556.934 63.305 556.89 63.3985L555.204 66.8685C555.175 66.9292 555.118 66.9662 555.055 66.9723Z" fill="#E6E1C8"/>
<path d="M549.514 67.5157C549.469 67.5202 549.42 67.5073 549.381 67.4772C549.3 67.4136 549.286 67.2956 549.349 67.2141L551.532 64.3936C551.595 64.3121 551.712 64.2981 551.793 64.3618C551.874 64.4255 551.888 64.5434 551.825 64.6249L549.642 67.4454C549.61 67.4875 549.562 67.511 549.514 67.5157Z" fill="#E6E1C8"/>
<path d="M550.902 69.123C550.858 69.1274 550.811 69.1157 550.773 69.0855C550.691 69.0232 550.675 68.9054 550.736 68.8228L553.181 65.5358C553.242 65.4532 553.359 65.4367 553.44 65.499C553.522 65.5613 553.539 65.679 553.477 65.7617L551.033 69.0487C551 69.0921 550.953 69.1181 550.902 69.123Z" fill="#E6E1C8"/>
<path d="M552.433 70.6222C552.397 70.6257 552.359 70.6194 552.325 70.6001C552.236 70.5499 552.202 70.4363 552.252 70.3448L553.155 68.6848C553.205 68.5946 553.317 68.561 553.408 68.6111C553.497 68.6614 553.531 68.7749 553.481 68.8664L552.578 70.5264C552.547 70.5821 552.492 70.6164 552.433 70.6222Z" fill="#E6E1C8"/>
<path d="M545.275 71.3242C545.232 71.3284 545.188 71.3177 545.15 71.29C545.067 71.2303 545.047 71.1129 545.106 71.028L546.995 68.3394C547.054 68.2558 547.17 68.2356 547.254 68.2952C547.337 68.3549 547.357 68.4722 547.298 68.5571L545.409 71.2457C545.377 71.2916 545.328 71.319 545.277 71.3241L545.275 71.3242Z" fill="#E6E1C8"/>
<path d="M546.513 72.9726C546.479 72.976 546.443 72.9694 546.411 72.9525C546.319 72.905 546.283 72.793 546.329 72.7006L547.68 70.0132C547.727 69.9207 547.839 69.8846 547.929 69.931C548.021 69.9785 548.057 70.0906 548.011 70.183L546.66 72.8703C546.63 72.9298 546.574 72.9655 546.512 72.9715L546.513 72.9726Z" fill="#E6E1C8"/>
<path d="M547.99 74.6917C547.949 74.6957 547.907 74.686 547.87 74.662C547.785 74.605 547.76 74.4894 547.817 74.4021L549.22 72.2448C549.276 72.1576 549.391 72.1338 549.477 72.1919C549.562 72.2489 549.587 72.3645 549.53 72.4518L548.127 74.6091C548.094 74.6588 548.044 74.6876 547.99 74.6929L547.99 74.6917Z" fill="#E6E1C8"/>
</g>
<g clip-path="url(#clip3_2_2)">
<path d="M637.82 67.2779L635.542 68.5062L634.122 66.341C633.121 64.8138 632.802 62.9769 633.238 61.2525L633.598 59.8264C634.02 58.1614 635.778 57.1709 637.525 57.6136L638.976 57.9806C640.724 58.4233 641.799 60.1314 641.379 61.7963L641.018 63.2224C640.582 64.9468 639.427 66.4115 637.821 67.2765L637.82 67.2779Z" fill="#2EAC94"/>
<path d="M639.125 57.7717L638.734 57.6732L639.286 56.2528L638.072 55.9455L637.883 57.457L637.492 57.3585C635.527 56.8614 633.55 57.9753 633.076 59.8468L632.863 60.686L641.612 62.9014L641.825 62.0621C642.299 60.1907 641.089 58.2688 639.124 57.7718L639.125 57.7717Z" fill="#38372F"/>
<path d="M635.768 58.6187C636.277 58.5845 636.226 57.7922 635.715 57.8264C635.204 57.8606 635.257 58.6529 635.768 58.6187Z" fill="#E6E1C8"/>
<path d="M634.92 60.7129C635.43 60.6788 635.378 59.8864 634.867 59.9206C634.356 59.9548 634.409 60.7471 634.92 60.7129Z" fill="#E6E1C8"/>
<path d="M636.378 59.7505C636.888 59.7164 636.836 58.924 636.325 58.9582C635.814 58.9924 635.867 59.7847 636.378 59.7505Z" fill="#E6E1C8"/>
<path d="M638.143 59.0764C638.652 59.0423 638.601 58.2499 638.09 58.2842C637.579 58.3184 637.632 59.1107 638.143 59.0764Z" fill="#E6E1C8"/>
<path d="M637.562 61.1526C638.071 61.1185 638.02 60.3261 637.509 60.3603C636.998 60.3945 637.051 61.1868 637.562 61.1526Z" fill="#E6E1C8"/>
<path d="M639.357 60.6211C639.867 60.587 639.815 59.7946 639.304 59.8288C638.794 59.863 638.847 60.6553 639.357 60.6211Z" fill="#E6E1C8"/>
<path d="M640.245 59.7381C640.755 59.7039 640.703 58.9116 640.192 58.9458C639.681 58.98 639.734 59.7723 640.245 59.7381Z" fill="#E6E1C8"/>
<path d="M639.914 61.6677C639.92 62.2084 640.771 62.1514 640.706 61.6146C640.68 61.1004 639.873 61.1558 639.914 61.6677Z" fill="#E6E1C8"/>
<path d="M637.617 74.7976C636.696 74.3751 635.656 74.5642 635.656 74.5642C635.656 74.5642 635.943 73.9414 636.069 73.0164C636.201 72.0513 635.909 70.9554 635.607 70.189C635.367 69.5843 634.762 68.4894 633.453 67.5359C633.318 67.4375 633.095 67.2747 632.821 67.1074C632.713 66.5735 632.595 66.0415 632.473 65.5191C632.532 65.539 632.589 65.5591 632.644 65.5753C633.308 65.7908 633.999 65.9793 634.734 66.0919C635.012 66.1343 635.296 66.1657 635.584 66.1822C635.898 66.4211 636.295 66.5537 636.719 66.5253C637.65 66.463 638.354 65.6571 638.292 64.7262C638.229 63.7952 637.424 63.0905 636.493 63.1528C636.138 63.1766 635.817 63.3082 635.559 63.5138C635.502 63.4938 635.446 63.475 635.389 63.4536C634.892 63.2614 634.391 63.0032 633.891 62.7116C633.763 62.638 633.652 62.5711 633.538 62.5019C633.424 62.4312 633.313 62.3577 633.205 62.2814C632.986 62.1303 632.777 61.9679 632.577 61.7982C632.176 61.4563 631.81 61.0816 631.484 60.6804C631.42 60.6024 631.342 60.5214 631.264 60.4523C631.197 60.3932 631.126 60.3409 631.052 60.2928C630.808 59.5027 630.649 59.0265 630.649 59.0265C630.649 59.0265 633.679 57.6882 635.018 55.1513C636.573 52.2047 636.504 48.5259 636.504 48.5259L624.014 49.3625C623.977 49.1368 623.904 48.9096 623.779 48.6885C623.199 47.6715 621.865 47.3696 620.883 47.5428C619.687 47.7529 619.038 48.6625 618.86 48.9119C618.177 49.8688 617.814 51.3973 618.546 52.6349C618.656 52.8211 619.208 53.7564 620.218 53.9328C620.304 53.9483 620.39 53.9558 620.474 53.9595C620.003 54.9354 619.51 56.0494 619.032 57.2792C618.788 56.6071 618.421 55.8398 617.86 55.0709C616.445 53.1323 614.832 52.0878 613.692 51.6004C612.228 50.9743 610.319 50.4867 608.186 50.9399C606.04 51.3967 604.729 52.787 604.153 53.4158C602.634 55.0681 602.149 56.8912 601.979 57.8682C601.785 58.9887 601.46 60.8768 602.448 62.511C603.548 64.3288 605.537 65.5074 605.537 65.5074C605.537 65.5074 604.449 67.16 604.005 69.2867C603.546 71.4808 604.5 73.4013 604.854 74.1137C605.07 74.5502 605.906 76.0275 607.745 77.3063C609.455 78.4969 611.093 78.7149 612.314 78.905C613.373 79.0701 615.468 78.9591 617.14 78.847L638.855 77.3926C638.855 77.3926 638.949 76.4181 638.626 75.7951C638.51 75.572 638.202 75.0674 637.617 74.7989L637.617 74.7976Z" fill="#DF4942"/>
<path d="M627.789 54.0969C627.631 54.1791 627.482 54.2726 627.344 54.3814L627.342 54.3815C626.622 54.9457 626.185 55.8438 626.25 56.8249C626.356 58.4002 627.718 59.5916 629.293 59.4861C629.518 59.471 629.958 59.4867 630.773 59.0633C632.348 58.2443 633.908 57.1357 634.979 55.2176C636.605 52.3101 636.501 48.5275 636.501 48.5275L627.789 54.0969Z" fill="#E6E1C8"/>
<path d="M633.368 48.7373L636.175 51.9077C636.175 51.9077 636.369 51.339 636.454 50.4552C636.54 49.5714 636.502 48.5287 636.502 48.5287L633.368 48.7386L633.368 48.7373Z" fill="#38372F"/>
<path d="M629.39 53.315C629.9 53.0625 630.109 52.4441 629.857 51.9338C629.604 51.4234 628.986 51.2145 628.476 51.467C627.966 51.7196 627.757 52.338 628.009 52.8483C628.262 53.3586 628.88 53.5676 629.39 53.315Z" fill="#38372F"/>
<path d="M634.451 55.3286C633.781 55.4809 633.033 55.1967 632.621 54.65C632.468 54.4467 632.138 54.6678 632.292 54.8723C632.82 55.5731 633.729 55.8955 634.581 55.7019C634.685 55.6776 634.736 55.5416 634.703 55.4483C634.665 55.3381 634.555 55.303 634.449 55.326L634.451 55.3286Z" fill="#38372F"/>
<path d="M609.125 66.6213C608.633 66.6543 607.99 66.6363 607.279 66.4585C606.728 66.3203 606.196 66.1039 605.703 65.8146C605.609 65.7585 605.577 65.6373 605.632 65.5435C605.688 65.4495 605.809 65.4175 605.903 65.4723C606.364 65.7425 606.859 65.9454 607.374 66.0741C608.528 66.3615 609.487 66.2018 609.846 66.1207C610.191 66.0419 611.107 65.8334 611.993 65.0551C612.449 64.6545 613.059 63.9597 613.369 62.9282C613.521 62.422 613.776 61.5746 613.426 60.5873C613.078 59.6066 612.344 59.0827 612.044 58.9025C611.082 58.325 610.32 58.3694 609.849 58.507C609.649 58.5655 609.181 58.703 608.855 59.1479C608.614 59.4785 608.551 59.8341 608.542 60.0735C608.538 60.1826 608.444 60.2684 608.336 60.2637C608.227 60.2591 608.141 60.1667 608.146 60.0576C608.158 59.7636 608.235 59.3248 608.536 58.9133C608.941 58.361 609.5 58.1962 609.738 58.1259C610.284 57.9659 611.163 57.9097 612.248 58.5613C612.585 58.7628 613.409 59.3509 613.8 60.4535C614.194 61.5625 613.904 62.5237 613.749 63.0407C613.412 64.1629 612.75 64.9168 612.256 65.3519C611.294 66.1962 610.271 66.4292 609.936 66.506C609.771 66.5436 609.491 66.5955 609.126 66.6199L609.125 66.6213Z" fill="#E6E1C8"/>
<path d="M605.331 60.8576C605.319 60.8584 605.308 60.8592 605.295 60.856C605.187 60.8434 605.109 60.7452 605.122 60.6356L605.41 58.1651C605.422 58.0568 605.52 57.9773 605.63 57.9912C605.738 58.0038 605.816 58.102 605.804 58.2116L605.516 60.6821C605.505 60.7783 605.426 60.8513 605.333 60.8575L605.331 60.8576Z" fill="#E6E1C8"/>
<path d="M603.106 60.1591C603.095 60.1598 603.085 60.1605 603.073 60.1586C602.963 60.1474 602.884 60.0506 602.895 59.9411L603.112 57.7473C603.123 57.6378 603.22 57.5584 603.329 57.5696C603.439 57.5808 603.518 57.6777 603.507 57.7872L603.29 59.9809C603.281 60.0784 603.201 60.1527 603.106 60.1591Z" fill="#E6E1C8"/>
<path d="M603.936 55.8365C603.896 55.8391 603.854 55.83 603.817 55.8073C603.724 55.7485 603.696 55.627 603.754 55.5343L605.038 53.4813C605.095 53.3886 605.218 53.3604 605.31 53.4179C605.403 53.4767 605.431 53.5982 605.374 53.6909L604.09 55.7439C604.055 55.8006 603.996 55.8324 603.934 55.8366L603.936 55.8365Z" fill="#E6E1C8"/>
<path d="M605.726 56.3823C605.68 56.3854 605.632 56.3728 605.592 56.3409C605.506 56.2738 605.489 56.1488 605.557 56.0621L607.004 54.1798C607.072 54.0931 607.196 54.0768 607.283 54.1439C607.37 54.211 607.386 54.336 607.319 54.4227L605.871 56.305C605.835 56.3525 605.782 56.3786 605.726 56.3823Z" fill="#E6E1C8"/>
<path d="M607.549 56.9261C607.491 56.93 607.43 56.9075 607.388 56.8612C607.315 56.7799 607.321 56.6548 607.403 56.5804L608.629 55.4769C608.711 55.4038 608.836 55.41 608.91 55.4913C608.983 55.5726 608.977 55.6977 608.896 55.7721L607.669 56.8756C607.635 56.907 607.593 56.9231 607.549 56.9261Z" fill="#E6E1C8"/>
<path d="M608.346 52.5739C608.255 52.58 608.169 52.5221 608.143 52.431C608.112 52.3257 608.174 52.2154 608.279 52.1858L610.328 51.595C610.433 51.564 610.543 51.6256 610.573 51.7311C610.604 51.8364 610.542 51.9467 610.437 51.9763L608.388 52.5671C608.374 52.5708 608.361 52.573 608.346 52.5739Z" fill="#E6E1C8"/>
<path d="M609.167 54.0935C609.068 54.1001 608.977 54.0319 608.958 53.931C608.939 53.8236 609.01 53.7193 609.118 53.7002L610.649 53.4186C610.756 53.3981 610.861 53.4707 610.88 53.5782C610.899 53.6857 610.828 53.7899 610.72 53.8091L609.189 54.0907C609.181 54.0912 609.173 54.0917 609.166 54.0922L609.167 54.0935Z" fill="#E6E1C8"/>
<path d="M617.756 62.5017C617.733 62.5032 617.709 62.5009 617.686 62.4944C617.581 62.463 617.522 62.3529 617.553 62.2474L618.756 58.2235C618.787 58.1179 618.898 58.0587 619.003 58.0902C619.108 58.1216 619.167 58.2317 619.136 58.3373L617.933 62.3612C617.908 62.4424 617.837 62.4976 617.756 62.503L617.756 62.5017Z" fill="#E6E1C8"/>
<path d="M616.512 69.0525C616.5 69.0533 616.488 69.0541 616.475 69.051C616.366 69.0383 616.288 68.9388 616.301 68.8305L616.84 64.3245C616.852 64.2162 616.952 64.1379 617.06 64.1506C617.168 64.1632 617.247 64.2627 617.234 64.371L616.695 68.8771C616.683 68.9734 616.604 69.045 616.512 69.0512L616.512 69.0525Z" fill="#E6E1C8"/>
<path d="M616.984 74.5427C616.883 74.5495 616.79 74.4761 616.776 74.3737L616.293 71.0939C616.277 70.985 616.352 70.8844 616.461 70.8691C616.572 70.8538 616.671 70.9281 616.686 71.0371L617.168 74.3168C617.185 74.4258 617.109 74.5264 617 74.5416C616.995 74.542 616.99 74.5424 616.984 74.5427Z" fill="#E6E1C8"/>
<path d="M619.074 64.1496C619.054 64.151 619.033 64.1497 619.013 64.1445C618.906 64.1184 618.842 64.01 618.868 63.9035L619.74 60.427C619.766 60.3204 619.874 60.2561 619.981 60.2822C620.087 60.3082 620.151 60.4166 620.125 60.5232L619.254 63.9997C619.232 64.0847 619.159 64.144 619.074 64.1496Z" fill="#E6E1C8"/>
<path d="M618.152 71.0915C618.142 71.0922 618.131 71.0929 618.12 71.091C618.011 71.0811 617.93 70.9843 617.94 70.8749L618.265 67.3303C618.275 67.2208 618.372 67.1414 618.481 67.15C618.59 67.1599 618.671 67.2566 618.661 67.3661L618.336 70.9107C618.327 71.0095 618.247 71.0838 618.152 71.0902L618.152 71.0915Z" fill="#E6E1C8"/>
<path d="M621.413 63.0951C621.393 63.0964 621.373 63.0951 621.352 63.0899C621.245 63.0639 621.181 62.9554 621.207 62.8489L621.92 59.972C621.946 59.8654 622.054 59.8011 622.161 59.8272C622.267 59.8532 622.332 59.9616 622.305 60.0682L621.593 62.9451C621.572 63.0314 621.497 63.0894 621.413 63.0951Z" fill="#E6E1C8"/>
<path d="M620.197 68.5843C620.185 68.5851 620.172 68.586 620.16 68.5828C620.052 68.5689 619.974 68.4707 619.987 68.3623L620.395 65.023C620.409 64.9133 620.507 64.8377 620.615 64.8504C620.724 64.8643 620.802 64.9626 620.788 65.0709L620.381 68.4102C620.368 68.5065 620.29 68.5781 620.197 68.5843Z" fill="#E6E1C8"/>
<path d="M620.279 73.5832C620.279 73.5832 620.271 73.5837 620.268 73.5839C620.158 73.5847 620.069 73.4978 620.068 73.3877L620.04 70.7634C620.039 70.6534 620.129 70.5664 620.236 70.5632C620.346 70.5625 620.435 70.6494 620.436 70.7594L620.464 73.3838C620.466 73.4897 620.383 73.5775 620.279 73.5845L620.279 73.5832Z" fill="#E6E1C8"/>
</g>
<g clip-path="url(#clip4_2_2)">
<path d="M689.29 5.41954C689.354 4.09402 690.054 2.02589 691.768 1.5673C693.919 0.992777 695.711 3.47224 695.792 3.58823C697.133 5.49757 696.509 7.63718 696.44 7.85908C696.391 8.01717 695.56 10.585 693.76 10.8587C691.646 11.1805 689.156 8.19165 689.289 5.41958L689.29 5.41954Z" fill="#DF4942"/>
<path d="M691.765 8.65203C690.963 7.85318 691.03 6.73766 691.038 6.63962C691.112 5.6563 691.796 4.36713 692.786 4.33958C693.807 4.31128 694.445 5.64092 694.492 5.74048C694.562 5.88984 694.974 6.81785 694.544 7.81433C694.277 8.43402 693.599 9.27549 692.772 9.21263C692.292 9.17567 691.963 8.84857 691.765 8.65059L691.765 8.65203Z" fill="#E6E1C8"/>
<path d="M673.959 5.80151C673.829 4.48079 673.027 2.4501 671.292 2.07743C669.116 1.61071 667.448 4.17638 667.374 4.29625C666.13 6.26999 666.859 8.37589 666.939 8.59406C666.996 8.7495 667.954 11.2728 669.766 11.4565C671.893 11.6726 674.23 8.56351 673.96 5.80148L673.959 5.80151Z" fill="#DF4942"/>
<path d="M671.648 9.15329C672.41 8.3155 672.287 7.20471 672.274 7.10717C672.151 6.12881 671.404 4.87528 670.413 4.89707C669.393 4.91962 668.822 6.27938 668.78 6.38117C668.717 6.53382 668.352 7.4812 668.831 8.45502C669.129 9.06066 669.847 9.86734 670.67 9.76338C671.148 9.70254 671.461 9.35944 671.648 9.15186L671.648 9.15329Z" fill="#E6E1C8"/>
<path d="M702.76 41.7055C700.113 31.9138 699.504 30.7691 698.521 27.8939C697.688 25.4596 695.288 21.264 695.288 21.264C695.288 21.264 695.972 18.1084 695.75 15.3854C695.622 13.8013 695.35 10.8896 693.429 7.92266C692.707 6.8081 690.81 4.23191 687.297 2.68899C684.951 1.6595 682.833 1.50648 681.587 1.51161C680.343 1.56852 678.235 1.82682 675.943 2.9733C672.511 4.68928 670.745 7.3567 670.08 8.50583C668.308 11.5648 668.182 14.4864 668.132 16.0749C668.046 18.8056 668.887 21.9232 668.887 21.9232C668.887 21.9232 666.699 26.2331 665.989 28.7058C665.15 31.6265 664.598 32.8001 662.442 42.7115C660.676 50.8214 660.621 53.4649 661.235 57.7136C661.742 61.2123 662.818 63.6406 663.56 65.2785C665.52 69.6087 667.371 71.0305 667.986 71.4699C668.099 71.5505 668.216 71.634 668.338 71.7173C667.511 72.1336 666.952 72.6311 666.76 73.0258C666.366 73.843 666.335 75.9146 666.335 75.9146L676.647 75.6577L676.497 69.6389C676.933 68.7761 676.921 68.1331 677.948 67.1549C679.065 66.0909 680.365 65.6268 680.856 65.4563C681.774 65.1384 682.586 65.0289 683.169 64.9928C683.751 65.0014 684.569 65.0687 685.502 65.3405C686.001 65.4864 687.322 65.8852 688.49 66.8922C689.565 67.8181 689.585 68.4609 690.064 69.3009L690.214 75.3196L700.525 75.0627C700.525 75.0627 700.39 72.9953 699.957 72.1988C699.747 71.8126 699.164 71.3436 698.316 70.9704C698.434 70.8811 698.547 70.7919 698.655 70.7058C699.247 70.2377 701.026 68.7241 702.768 64.3016C703.427 62.6288 704.382 60.15 704.712 56.6304C705.114 52.3564 704.928 49.7189 702.761 41.7069L702.76 41.7055Z" fill="#DF4942"/>
<path d="M693.158 31.2639C692.185 30.0735 690.574 28.1536 687.711 27.1327C685.382 26.3028 683.28 25.9393 682.124 26.112C680.96 25.9986 678.878 26.4649 676.592 27.4097C673.783 28.572 672.271 30.5697 671.359 31.807C667.479 37.0713 667.775 43.1944 667.9 45.7773C668.049 48.8575 668.264 53.2629 671.407 57.2601C672.335 58.44 674.411 61.006 678.114 62.0822C680.13 62.6681 681.912 62.9503 683.037 62.8158C684.168 62.8956 685.933 62.5235 687.916 61.838C691.562 60.5786 693.508 57.9125 694.376 56.6878C697.317 52.5391 697.311 48.1299 697.306 45.0447C697.302 42.4588 697.295 36.3285 693.156 31.2639L693.158 31.2639Z" fill="#E6E1C8"/>
<path d="M683.865 37.1711C683.753 37.1739 683.657 37.09 683.646 36.978L683.143 32.1164C683.132 31.9972 683.217 31.8915 683.336 31.8799C683.455 31.8683 683.561 31.9534 683.573 32.0726L684.076 36.9342C684.087 37.0534 684.002 37.1591 683.883 37.1707C683.877 37.1708 683.871 37.171 683.865 37.1711Z" fill="#DF4942"/>
<path d="M687.378 36.0461C687.281 36.0485 687.19 35.9846 687.163 35.8874L686.119 32.0783C686.088 31.964 686.155 31.8443 686.271 31.8126C686.386 31.781 686.505 31.8485 686.537 31.9643L687.581 35.7734C687.613 35.8877 687.545 36.0074 687.429 36.0391C687.412 36.0438 687.395 36.0457 687.378 36.0461Z" fill="#DF4942"/>
<path d="M689.72 33.5988C689.632 33.601 689.548 33.5484 689.514 33.4615L688.455 30.7464C688.412 30.6352 688.467 30.5101 688.578 30.4671C688.689 30.424 688.814 30.4784 688.857 30.5896L689.916 33.3047C689.959 33.4158 689.905 33.541 689.793 33.584C689.769 33.5933 689.745 33.5982 689.72 33.5988Z" fill="#DF4942"/>
<path d="M680.959 37.2436C681.072 37.2408 681.163 37.1522 681.169 37.0398L681.429 32.1592C681.435 32.0396 681.344 31.9382 681.225 31.9326C681.105 31.9269 681.003 32.0172 680.998 32.1368L680.738 37.0174C680.732 37.137 680.822 37.2384 680.942 37.244C680.948 37.2439 680.954 37.2437 680.959 37.2436Z" fill="#DF4942"/>
<path d="M677.396 36.2949C677.492 36.2925 677.58 36.2241 677.602 36.1257L678.455 32.2693C678.481 32.1535 678.407 32.0374 678.29 32.0115C678.174 31.9856 678.058 32.059 678.032 32.1762L677.179 36.0326C677.153 36.1484 677.226 36.2646 677.344 36.2904C677.361 36.2943 677.378 36.2953 677.396 36.2949Z" fill="#DF4942"/>
<path d="M674.933 33.9672C675.02 33.965 675.102 33.9083 675.132 33.8198L676.054 31.0554C676.091 30.9422 676.031 30.8199 675.917 30.7825C675.804 30.745 675.682 30.8056 675.644 30.9188L674.722 33.6832C674.685 33.7964 674.745 33.9186 674.859 33.9561C674.883 33.9641 674.908 33.9678 674.933 33.9672Z" fill="#DF4942"/>
<path d="M698.796 40.1666L692.863 28.2319C692.315 31.5022 691.27 34.6885 689.774 37.6471C689.488 38.2111 689.185 38.7727 688.891 39.3369C687.04 39.855 685.705 41.5735 685.755 43.5812C685.814 45.9527 687.786 47.8276 690.16 47.7685C691.687 47.7304 693.006 46.9003 693.739 45.6833C695.853 44.3081 697.613 42.3921 698.796 40.1666Z" fill="#DF4942"/>
<path d="M666.195 40.9788L671.526 28.7635C672.236 32.0024 673.439 35.1326 675.081 38.0131C675.394 38.5622 675.725 39.108 676.046 39.6569C677.921 40.0822 679.34 41.732 679.39 43.7397C679.449 46.1112 677.573 48.082 675.199 48.1412C673.672 48.1792 672.314 47.4158 671.521 46.2368C669.341 44.9686 667.488 43.1426 666.195 40.9788Z" fill="#DF4942"/>
<path d="M681.982 21.8098C685.218 21.7292 687.785 19.3973 687.715 16.6015C687.646 13.8056 684.966 11.6044 681.73 11.6851C678.494 11.7657 675.927 14.0976 675.996 16.8934C676.066 19.6893 678.746 21.8905 681.982 21.8098Z" fill="#E6E1C8"/>
<path d="M688.654 14.1736C689.286 14.1578 689.785 13.6338 689.769 13.0032C689.753 12.3725 689.229 11.874 688.598 11.8897C687.966 11.9055 687.467 12.4295 687.483 13.0601C687.499 13.6908 688.023 14.1893 688.654 14.1736Z" fill="#38372F"/>
<path d="M675.03 14.5129C675.661 14.4972 676.16 13.9732 676.144 13.3425C676.128 12.7119 675.604 12.2134 674.973 12.2291C674.342 12.2448 673.843 12.7688 673.858 13.3995C673.874 14.0301 674.399 14.5286 675.03 14.5129Z" fill="#38372F"/>
<path d="M686.236 16.434C686.123 16.3965 686.001 16.4586 685.965 16.5717C685.424 18.2243 683.933 19.381 682.213 19.516L682.141 16.6454L684.152 13.9503L679.539 14.0652L681.709 16.6893L681.78 19.5282C680.046 19.4894 678.488 18.4072 677.861 16.7794C677.818 16.6682 677.693 16.6123 677.582 16.6554C677.471 16.6985 677.415 16.8236 677.458 16.9348C678.174 18.7964 679.997 20.013 681.992 19.9633C683.987 19.9136 685.752 18.6047 686.373 16.7069C686.41 16.5937 686.348 16.4715 686.235 16.434L686.236 16.434Z" fill="#38372F"/>
</g>
<g clip-path="url(#clip5_2_2)">
<path d="M762.639 62.9848C762.407 67.6747 760.41 71.3873 758.379 71.287C756.348 71.1866 757.315 67.4232 757.547 62.7333C757.779 58.0434 756.702 54.1789 758.733 54.2792C760.764 54.3796 762.869 58.2948 762.637 62.9847L762.639 62.9848Z" fill="#DF4942"/>
<path d="M731.677 61.4553C731.445 66.1452 733.066 70.0365 735.097 70.1369C737.128 70.2372 736.536 66.3967 736.768 61.7068C737 57.0169 738.452 53.2774 736.421 53.1771C734.39 53.0767 731.908 56.7653 731.677 61.4553Z" fill="#DF4942"/>
<path d="M749.283 75.9013L743.306 75.6059C737.64 75.326 733.278 70.4534 733.561 64.7251L733.695 61.9975C734.061 54.598 740.288 48.8929 747.605 49.2543C754.921 49.6158 760.556 55.9069 760.19 63.3064L760.055 66.0341C759.772 71.764 754.949 76.1812 749.285 75.9013L749.283 75.9013Z" fill="#2EAC94"/>
<path d="M747.313 59.0671C754.72 59.4331 760.993 54.3003 761.324 47.6027C761.655 40.9051 755.918 35.179 748.511 34.813C741.103 34.4471 734.83 39.5799 734.499 46.2774C734.168 52.975 739.905 58.7012 747.313 59.0671Z" fill="#2EAC94"/>
<path d="M746.711 71.2384C751.814 71.4904 756.187 66.9089 756.478 61.0051C756.77 55.1014 752.87 50.1111 747.767 49.859C742.665 49.6069 738.292 54.1885 738 60.0923C737.709 65.996 741.609 70.9863 746.711 71.2384Z" fill="#E6E1C8"/>
<path d="M753.521 38.6212C751.5 38.5213 749.626 39.2992 748.225 40.6381C746.962 39.1676 745.174 38.2088 743.153 38.109C739.08 37.9077 735.605 41.2653 735.39 45.6102C735.175 49.9551 738.303 53.6389 742.376 53.8401C744.397 53.94 746.27 53.1621 747.672 51.8232C748.935 53.2937 750.722 54.2525 752.744 54.3523C756.817 54.5536 760.292 51.196 760.507 46.8511C760.722 42.5062 757.594 38.8224 753.521 38.6212Z" fill="#E6E1C8"/>
<path d="M753.419 40.6782C750.994 40.5584 748.857 42.1478 748.036 44.4498C747.447 42.0781 745.477 40.2858 743.051 40.166C740.044 40.0174 737.477 42.497 737.319 45.7054C737.16 48.9138 739.47 51.6343 742.478 51.7829C744.903 51.9027 747.04 50.3133 747.86 48.0113C748.45 50.3829 750.42 52.1752 752.845 52.2951C755.853 52.4437 758.419 49.9641 758.578 46.7557C758.736 43.5473 756.427 40.8268 753.419 40.6782Z" fill="#DF4942"/>
<path d="M752.019 49.3414C753.58 49.4185 754.911 48.1815 754.99 46.5785C755.069 44.9754 753.867 43.6134 752.305 43.5362C750.744 43.459 749.413 44.696 749.334 46.2991C749.255 47.9021 750.457 49.2642 752.019 49.3414Z" fill="#E6E1C8"/>
<path d="M743.59 48.9248C745.151 49.002 746.482 47.765 746.561 46.162C746.64 44.5589 745.438 43.1969 743.876 43.1197C742.315 43.0425 740.984 44.2795 740.905 45.8826C740.826 47.4856 742.028 48.8477 743.59 48.9248Z" fill="#E6E1C8"/>
<path d="M751.34 47.7914C752.099 47.8289 752.745 47.237 752.783 46.4694C752.821 45.7017 752.236 45.049 751.477 45.0115C750.718 44.974 750.072 45.5659 750.034 46.3336C749.996 47.1012 750.581 47.7539 751.34 47.7914Z" fill="#38372F"/>
<path d="M744.416 47.4494C745.175 47.4869 745.821 46.895 745.859 46.1273C745.897 45.3597 745.313 44.707 744.554 44.6695C743.795 44.632 743.148 45.2239 743.111 45.9915C743.073 46.7592 743.657 47.4119 744.416 47.4494Z" fill="#38372F"/>
<path d="M749.99 50.7017L747.599 53.2604L745.473 50.4785L747.863 47.9197L749.99 50.7017Z" fill="#38372F"/>
<path d="M747.273 59.8717L746.012 56.6833L748.842 56.8231L747.273 59.8717Z" fill="#2EAC94"/>
<path d="M751.409 60.076L750.148 56.8877L752.978 57.0275L751.409 60.076Z" fill="#2EAC94"/>
<path d="M749.192 64.5861L747.93 61.3977L750.761 61.5376L749.192 64.5861Z" fill="#2EAC94"/>
<path d="M744.9 64.3739L746.468 61.3253L743.639 61.1855L744.9 64.3739Z" fill="#2EAC94"/>
<path d="M743.138 59.6676L744.707 56.619L741.878 56.4792L743.138 59.6676Z" fill="#2EAC94"/>
</g>
<g clip-path="url(#clip6_2_2)">
<path d="M790.281 45.9075C790.281 45.9075 790.441 47.6866 790.986 49.9594C791.562 48.9378 792.518 47.2456 793.122 46.1779L790.281 45.9075Z" fill="#38372F"/>
<path d="M811.738 71.3397C811.162 71.2849 810.618 71.44 810.141 71.7568C809.961 66.6722 806.296 61.4228 801.244 59.7977C801.105 59.7534 800.968 59.7152 800.831 59.6814L799.537 54.244C800.671 54.5012 801.919 54.555 803.128 54.1468C806.856 52.8859 808.422 47.36 808.422 47.36L798.72 51.0012C799.991 50.2041 801.382 48.9885 802.347 47.1704C804.584 42.9619 803.234 37.1701 803.234 37.1701L796.545 50.4689L787.821 49.6383C787.217 50.7072 786.261 52.3976 785.685 53.4189C786.295 55.9619 787.441 58.6565 789.333 60.6342C790.06 61.3938 791.471 62.3308 792.469 62.6978L789.886 80.6981C789.886 80.6981 789.54 80.646 788.959 81.1509C788.377 81.6557 788.724 82.9483 788.724 82.9483L792.08 83.2677L793.469 78.2704C793.971 79.2939 794.575 80.2206 795.261 81.0191C794.863 81.0522 794.54 81.1131 794.334 81.2118C793.569 81.5795 793.421 83.3955 793.421 83.3955L801.511 84.1657L801.51 84.1448C806.074 84.3384 808.285 82.1762 809.317 78.8154C809.885 79.6471 810.671 80.2008 811.547 80.2843C813.343 80.4552 814.842 78.5919 814.894 76.1223C814.947 73.6527 813.533 71.5121 811.738 71.3412L811.738 71.3397Z" fill="#E6E1C8"/>
<path d="M798.663 50.5749C798.784 49.9633 798.515 49.3134 798.063 49.1233C797.611 48.9332 797.146 49.2749 797.025 49.8865C796.904 50.4981 797.173 51.148 797.626 51.3381C798.078 51.5282 798.543 51.1865 798.663 50.5749Z" fill="#38372F"/>
<path d="M792.731 54.3862C792.644 54.378 792.575 54.2782 792.573 54.1598C792.571 54.037 792.643 53.9403 792.733 53.9429C793.101 53.9543 793.308 53.9001 793.505 53.8169C793.67 53.7469 793.946 53.6312 794.153 53.4321C794.367 53.2264 794.54 52.9545 794.665 52.625C794.706 52.518 794.803 52.48 794.883 52.5408C794.963 52.6016 794.995 52.7362 794.954 52.8432C794.805 53.2325 794.601 53.5546 794.346 53.7994C794.1 54.0361 793.783 54.17 793.612 54.2425C793.415 54.3258 793.173 54.4003 792.738 54.3884C792.736 54.3882 792.733 54.3879 792.731 54.3877L792.731 54.3862Z" fill="#38372F"/>
</g>
<g clip-path="url(#clip7_2_2)">
<path d="M868.951 24.1142C868.697 24.0162 868.412 24.1432 868.314 24.3981L868.314 24.403C868.119 24.9067 867.916 25.4032 867.695 25.8887C867.472 26.3727 867.237 26.849 866.982 27.3128C866.47 28.2391 865.893 29.1198 865.251 29.9415C864.561 30.8228 863.799 31.6416 862.968 32.3476C862.963 32.3395 862.959 32.334 862.954 32.326C862.821 32.1097 862.696 31.8351 862.579 31.5342C862.341 30.9443 862.154 30.3301 862.011 29.7016C861.865 29.074 861.777 28.4302 861.731 27.7794C861.687 27.1289 861.696 26.4728 861.753 25.8178L861.754 25.8105C861.775 25.5681 861.615 25.3422 861.371 25.2889C861.107 25.2305 860.846 25.3976 860.786 25.6623C860.632 26.3557 860.527 27.0627 860.48 27.7784C860.436 28.4931 860.439 29.2152 860.507 29.9356C860.573 30.6558 860.691 31.3752 860.872 32.084C860.958 32.4341 861.061 32.8038 861.233 33.1995C861.276 33.2966 861.324 33.3967 861.378 33.4965C861.144 33.6362 860.905 33.7679 860.663 33.8881C860.22 34.1051 859.771 34.2892 859.308 34.4306C858.843 34.5695 858.37 34.6774 857.891 34.7352C856.936 34.8572 855.966 34.8029 855.06 34.5424C853.273 34.0323 851.645 32.6029 851.073 30.672L851.064 30.6437C851.001 30.4276 850.794 30.2775 850.56 30.2935C850.29 30.3123 850.086 30.5474 850.105 30.8184C850.115 30.9695 850.125 31.123 850.143 31.275C850.168 31.4256 850.188 31.5791 850.221 31.7293C850.26 31.8767 850.292 32.0293 850.34 32.1753C850.391 32.3204 850.432 32.4717 850.493 32.6132C850.719 33.1892 851.039 33.7275 851.424 34.2161C852.194 35.1895 853.244 35.9608 854.431 36.4081C854.662 36.497 854.899 36.5731 855.139 36.6383C855.094 36.8194 855.031 36.9984 854.955 37.1743C854.754 37.6352 854.448 38.064 854.056 38.4065L854.047 38.4151C853.876 38.5654 853.825 38.8188 853.94 39.0266C854.071 39.2649 854.371 39.3502 854.608 39.2182C855.194 38.892 855.71 38.4255 856.113 37.8642C856.328 37.5672 856.51 37.2414 856.654 36.8946C857.141 36.9308 857.63 36.9275 858.114 36.8828C859.344 36.7711 860.552 36.4102 861.639 35.8581C862.183 35.5834 862.702 35.2683 863.188 34.9145C863.677 34.5634 864.137 34.1789 864.564 33.7679C865.424 32.9493 866.161 32.0282 866.804 31.0593C867.44 30.0833 867.974 29.0461 868.392 27.9692C868.599 27.4299 868.778 26.8822 868.922 26.3249C869.068 25.7692 869.185 25.2074 869.262 24.6416C869.292 24.4201 869.169 24.1976 868.951 24.1142Z" fill="#38372F"/>
<path d="M884.808 57.1615L884.886 57.1888L884.826 57.1465C884.813 57.156 884.806 57.1626 884.806 57.1626L884.808 57.1615Z" fill="#DF4942"/>
<path d="M890.165 54.6488C891.841 52.3894 889.015 49.2067 889.015 49.2067L889.012 49.2113C888.998 49.9818 888.945 51.9618 888.762 52.5636C888.443 53.6147 887.379 55.2305 886.752 55.8091C886.207 56.3115 884.987 57.0742 884.825 57.1737L884.886 57.2087L885.262 57.3186C885.919 57.2068 888.695 56.6312 890.166 54.6489L890.165 54.6488Z" fill="#E6E1C8"/>
<path d="M852.442 36.8193C855.434 37.2008 856.589 38.4672 857.741 41.3608C858.892 44.2544 860.994 50.0146 861.989 50.9548C862.983 51.8949 865.735 53.3648 867.829 53.632L884.082 55.7049C885.578 55.8958 889.322 59.1199 888.632 64.5243C887.943 69.9286 885.058 71.9 883.063 71.6456L860.296 68.7418C857.934 68.4407 854.885 66.9327 854.431 64.1281C853.978 61.3236 850.911 48.8289 850.911 48.8289L841.361 44.2551L841.09 39.0328L846.462 39.2093C846.462 39.2093 849.65 36.4632 852.442 36.8193Z" fill="#E6E1C8"/>
<path d="M884.082 55.7049L867.829 53.632C865.735 53.3648 862.983 51.8949 861.989 50.9548C860.994 50.0146 858.891 44.253 857.741 41.3608C856.589 38.4672 855.434 37.2008 852.442 36.8193C849.65 36.4632 846.462 39.2093 846.462 39.2093L841.09 39.0328L841.159 40.3574L848.193 41.2546C848.193 41.2546 849.499 39.3701 851.335 39.6043C853.171 39.8384 854.468 40.806 854.923 42.113C855.378 43.4187 858.89 53.4969 860.282 55.8147C861.669 58.1231 863.973 61.7925 866.725 62.817C866.725 62.817 870.042 64.1188 872.817 64.3156C875.525 64.6783 876.978 64.715 878.838 64.2306C880.697 63.7461 882 62.818 883.272 61.1966C884.107 60.1345 885.036 57.8863 885.496 56.3854C884.954 55.9833 884.45 55.7506 884.081 55.7036L884.082 55.7049Z" fill="#DF4942"/>
<path d="M841.09 39.0328L841.252 42.158L844.2 39.1362L841.09 39.0328Z" fill="#38372F"/>
<path d="M850.232 42.7325C850.765 42.8005 851.252 42.422 851.32 41.8873C851.388 41.3525 851.012 40.8638 850.479 40.7959C849.946 40.7279 849.459 41.1064 849.391 41.6412C849.322 42.176 849.699 42.6646 850.232 42.7325Z" fill="#38372F"/>
<path d="M844.01 45.5311C844.985 45.5021 845.939 45.1484 846.705 44.5429C846.89 44.3958 846.666 44.1047 846.48 44.2519C845.759 44.8221 844.875 45.1402 843.958 45.1668C843.857 45.1701 843.79 45.2852 843.801 45.3758C843.816 45.4842 843.911 45.5346 844.01 45.5324L844.01 45.5311Z" fill="#38372F"/>
<path d="M855.294 40.743C855.294 40.743 857.652 38.7005 859.549 38.6467C861.447 38.5916 863.777 41.6331 863.777 41.6331C863.777 41.6331 861.541 42.9447 859.505 42.9313C857.468 42.9191 855.294 40.743 855.294 40.743Z" fill="#DF4942"/>
<path d="M857.59 41.0693C857.59 41.0693 858.666 40.1383 859.531 40.1137C860.396 40.0891 861.459 41.4761 861.459 41.4761C861.459 41.4761 860.439 42.0739 859.51 42.068C858.581 42.0621 857.589 41.0704 857.589 41.0704L857.59 41.0693Z" fill="#E6E1C8"/>
<path d="M869.637 57.259C869.622 57.2572 869.608 57.2541 869.593 57.2472L866.059 55.8657C865.965 55.829 865.919 55.7215 865.955 55.6272C865.992 55.5328 866.098 55.4857 866.193 55.5226L869.726 56.9041C869.82 56.9408 869.867 57.0483 869.83 57.1426C869.799 57.2228 869.718 57.2694 869.637 57.259Z" fill="#E6E1C8"/>
<path d="M869.464 60.6943C869.446 60.692 869.428 60.6872 869.409 60.6787L865.553 58.8797C865.461 58.837 865.422 58.728 865.464 58.6357C865.507 58.5433 865.616 58.5027 865.708 58.5466L869.564 60.3456C869.656 60.3883 869.695 60.4972 869.652 60.5896C869.618 60.6645 869.54 60.704 869.463 60.6941L869.464 60.6943Z" fill="#E6E1C8"/>
<path d="M875.889 57.591C875.878 57.5896 875.868 57.5884 875.857 57.5845L872.246 56.4642C872.149 56.4345 872.096 56.3311 872.125 56.2334C872.155 56.1357 872.258 56.082 872.356 56.1117L875.967 57.2321C876.064 57.2618 876.117 57.3652 876.088 57.4629C876.06 57.5498 875.976 57.6022 875.889 57.591Z" fill="#E6E1C8"/>
<path d="M876.282 60.2121C876.272 60.2109 876.264 60.2098 876.254 60.2061L872.272 59.0558C872.175 59.0273 872.119 58.926 872.147 58.8282C872.176 58.7303 872.278 58.674 872.374 58.7024L876.356 59.8527C876.454 59.8812 876.51 59.9825 876.481 60.0803C876.455 60.1686 876.371 60.2234 876.282 60.2121Z" fill="#E6E1C8"/>
<path d="M875.336 62.264C875.327 62.2629 875.32 62.2619 875.312 62.2596L872.385 61.4878C872.287 61.4617 872.229 61.3614 872.255 61.2632C872.281 61.165 872.382 61.1062 872.479 61.1321L875.405 61.9039C875.503 61.93 875.562 62.0303 875.536 62.1285C875.512 62.2183 875.426 62.2754 875.335 62.2638L875.336 62.264Z" fill="#E6E1C8"/>
<path d="M878.272 56.9109L880.861 57.5518" stroke="#E6E1C8" stroke-width="3" stroke-miterlimit="10" stroke-linecap="round"/>
<path d="M880.654 60.5703C880.639 60.5685 880.623 60.5653 880.61 60.5585L878.213 59.6105C878.12 59.5725 878.073 59.4663 878.111 59.3721C878.149 59.2779 878.254 59.2308 878.348 59.2687L880.744 60.2168C880.838 60.2535 880.885 60.361 880.847 60.4552C880.816 60.5354 880.735 60.5807 880.654 60.5703Z" fill="#E6E1C8"/>
<path d="M885.116 57.3531C885.116 57.3531 885.168 57.3423 885.26 57.3182L884.886 57.1875L885.115 57.3529L885.116 57.3531Z" fill="#DF4942"/>
<path d="M888.761 52.5633C888.944 51.9615 888.996 49.9816 889.011 49.211L883.739 56.5585L884.823 57.1734C884.986 57.0727 886.206 56.3112 886.751 55.8088C887.379 55.2303 888.443 53.6146 888.761 52.5633Z" fill="#DF4942"/>
<path d="M885.887 70.7693L881.276 70.1812L879.416 84.7681L884.027 85.3562L885.887 70.7693Z" fill="#E6E1C8"/>
<path d="M884.027 85.355L879.416 84.7668L878.892 88.8764L883.503 89.4645L884.027 85.355Z" fill="#38372F"/>
<path d="M880.274 70.0532L875.663 69.4651L873.803 84.052L878.414 84.6401L880.274 70.0532Z" fill="#E6E1C8"/>
<path d="M878.414 84.6389L873.803 84.0508L873.278 88.1604L877.89 88.7485L878.414 84.6389Z" fill="#38372F"/>
<path d="M863.659 67.9343L859.048 67.3462L857.188 81.9331L861.799 82.5212L863.659 67.9343Z" fill="#E6E1C8"/>
<path d="M861.799 82.52L857.188 81.9319L856.664 86.0415L861.275 86.6296L861.799 82.52Z" fill="#38372F"/>
<path d="M851.757 70.3028L858.918 68.368L857.713 63.8633L848.117 66.4557C847.49 66.6245 846.963 67.0498 846.661 67.6266C846.359 68.2033 846.312 68.8806 846.53 69.4938L848.79 75.8475C849.908 75.4689 852.235 74.6616 853.189 74.3314L851.755 70.3027L851.757 70.3028Z" fill="#E6E1C8"/>
<path d="M854.602 78.2995L853.19 74.3329C852.236 74.6631 849.909 75.4704 848.791 75.849L850.223 79.8726L854.602 78.2995Z" fill="#38372F"/>
</g>
<g clip-path="url(#clip8_2_2)">
<path d="M937.214 41.753L935.255 41.551L931.458 97.7136L933.416 97.9156L937.214 41.753Z" fill="#38372F"/>
<path d="M938.114 13.7863L923.45 37.0852L949.451 39.7676L938.114 13.7863Z" fill="#DF4942"/>
<path d="M936.936 31.209L916.889 53.9527L953.656 57.7457L936.936 31.209Z" fill="#2EAC94"/>
<path d="M935.806 47.9117L909.77 73.2957L958.078 78.2793L935.806 47.9117Z" fill="#DF4942"/>
</g>
<path d="M986.332 83.8194C997.203 86.0068 1008.42 71.694 1011.39 51.8508C1014.35 32.0076 1007.95 14.1482 997.074 11.9607C986.203 9.77328 974.985 24.0861 972.018 43.9293C969.052 63.7725 975.46 81.6319 986.332 83.8194Z" fill="#2EAC94"/>
<path d="M1002.41 54.6088C1002.05 54.2956 1001.53 54.356 1001.25 54.7458C1000.39 55.9467 999.412 56.9741 998.342 57.804C997.136 58.7347 995.847 59.3964 994.504 59.7659C993.176 60.1309 991.55 60.0522 990.631 59.9587L993.335 41.8734C994.155 41.9325 995.637 41.9457 996.926 41.4227C998.157 40.9249 999.346 40.1042 1000.46 38.9791C1001.42 38.0065 1002.31 36.8186 1003.09 35.4562C1003.33 35.0401 1003.22 34.4794 1002.83 34.2084C1002.45 33.9374 1001.94 34.0543 1001.7 34.4703C1000.99 35.7048 1000.19 36.7729 999.33 37.6411C998.373 38.6072 997.365 39.3109 996.333 39.7282C995.412 40.0984 994.309 40.1213 993.602 40.0851L995.544 27.0951C995.617 26.6054 995.313 26.1349 994.865 26.0447C994.417 25.9546 993.994 26.2789 993.921 26.7685L990.808 47.5895C990.141 47.3346 989.229 46.9062 988.537 46.2589C987.686 45.4628 986.938 44.4094 986.321 43.123C985.764 41.9694 985.323 40.6525 985.01 39.2116C984.905 38.7264 984.46 38.4175 984.02 38.5226C983.579 38.6277 983.303 39.1095 983.411 39.5953C983.755 41.1886 984.245 42.6505 984.871 43.9424C985.591 45.4359 986.472 46.6732 987.487 47.623C988.466 48.5401 989.731 49.0942 990.544 49.382L987.839 67.4744C986.926 67.1848 985.509 66.6438 984.442 65.8407C983.286 64.9684 982.263 63.8453 981.399 62.4944C980.631 61.2984 980.008 59.9449 979.545 58.4775C979.395 58.0051 978.926 57.7461 978.499 57.8977C978.071 58.0529 977.844 58.5629 977.991 59.0346C978.503 60.6654 979.201 62.1691 980.057 63.5074C981.038 65.0389 982.204 66.3188 983.526 67.3158C984.848 68.3128 986.56 68.9386 987.567 69.2508L982.457 103.427C982.384 103.917 982.688 104.387 983.136 104.478C983.584 104.568 984.007 104.243 984.08 103.754L990.362 61.7322C990.362 61.7322 990.375 61.7348 990.382 61.7361C991.382 61.8424 993.307 61.9592 994.932 61.5113C996.466 61.089 997.939 60.34 999.304 59.2807C1000.5 58.3558 1001.59 57.2083 1002.55 55.8763C1002.83 55.4901 1002.76 54.9214 1002.4 54.6075L1002.41 54.6088Z" fill="#38372F"/>
<defs>
<clipPath id="clip0_2_2">
<rect width="48.3884" height="84.4752" fill="white" transform="matrix(0.990282 -0.139072 0.133385 0.991064 360.084 24.9907)"/>
</clipPath>
<clipPath id="clip1_2_2">
<rect width="77" height="73" fill="white" transform="translate(422.307 25.9902) rotate(-7.09717)"/>
</clipPath>
<clipPath id="clip2_2_2">
<rect width="44" height="44" fill="white" transform="translate(525.915 42.9983) rotate(-5.60181)"/>
</clipPath>
<clipPath id="clip3_2_2">
<rect width="40" height="31" fill="white" transform="translate(601.018 48.8574) rotate(-3.83178)"/>
</clipPath>
<clipPath id="clip4_2_2">
<rect width="44" height="74" fill="white" transform="translate(659.594 2.05957) rotate(-1.42721)"/>
</clipPath>
<clipPath id="clip5_2_2">
<rect width="31" height="41" fill="white" transform="translate(733.031 34.0483) rotate(2.82835)"/>
</clipPath>
<clipPath id="clip6_2_2">
<rect width="30.5596" height="47.0748" fill="white" transform="matrix(0.995499 0.0947764 -0.0213065 0.999773 790.578 32)"/>
</clipPath>
<clipPath id="clip7_2_2">
<rect width="51" height="63" fill="white" transform="translate(843.41 20.8418) rotate(7.26845)"/>
</clipPath>
<clipPath id="clip8_2_2">
<rect width="48.5647" height="84.2197" fill="white" transform="matrix(0.994721 0.102619 -0.0674561 0.997722 913.962 11.2947)"/>
</clipPath>
</defs>
</svg>
