<svg width="299" height="1374" viewBox="0 0 299 1374" fill="none" xmlns="http://www.w3.org/2000/svg">
<g filter="url(#filter0_dd_2_2)">
<path d="M294.824 1366L294.824 0L191.529 -4.51518e-06C140.816 153.304 77.8243 497.33 77.8243 662.159C77.8243 826.989 136.011 1201.33 191.529 1366L294.824 1366Z" fill="#1C6EB8"/>
<path d="M94.5565 1028.02C91.8794 1017.33 73.7593 1012.25 54.0841 1016.68C34.4089 1021.12 20.6292 1033.38 23.3063 1044.07C25.9835 1054.76 44.1036 1059.83 63.7788 1055.4C83.454 1050.97 97.2336 1038.71 94.5565 1028.02Z" fill="#2EAC94"/>
<path d="M60.5268 1023.88C60.3913 1024.31 60.6711 1024.76 61.1531 1024.88C62.6389 1025.23 64.0149 1025.75 65.2473 1026.43C66.6316 1027.19 67.8027 1028.13 68.7261 1029.22C69.6393 1030.3 70.2701 1031.81 70.5811 1032.68L52.6489 1036.72C52.3487 1035.95 51.7194 1034.6 50.6772 1033.61C49.6829 1032.67 48.4077 1031.88 46.8841 1031.27C45.5668 1030.75 44.0807 1030.36 42.4781 1030.14C41.989 1030.07 41.5197 1030.38 41.4348 1030.82C41.3498 1031.27 41.6784 1031.69 42.1676 1031.76C43.6202 1031.97 44.9542 1032.31 46.1319 1032.78C47.4413 1033.3 48.5296 1033.97 49.363 1034.76C50.1048 1035.47 50.6035 1036.46 50.8757 1037.12L37.9957 1040.02C37.5102 1040.13 37.2056 1040.58 37.3159 1041.02C37.4262 1041.46 37.9098 1041.73 38.3953 1041.62L59.04 1036.97C59.0925 1037.67 59.0902 1038.65 58.7898 1039.51C58.4199 1040.58 57.7675 1041.64 56.8422 1042.66C56.0137 1043.58 54.9843 1044.46 53.7842 1045.26C53.3797 1045.53 53.2861 1046.05 53.5741 1046.41C53.8621 1046.77 54.428 1046.85 54.8316 1046.58C56.1597 1045.69 57.3025 1044.72 58.229 1043.69C59.3018 1042.49 60.0671 1041.25 60.5083 1039.98C60.9344 1038.76 60.9008 1037.41 60.8159 1036.56L78.7551 1032.52C78.8816 1033.46 78.9934 1034.94 78.7107 1036.2C78.4027 1037.57 77.8042 1038.91 76.9263 1040.18C76.1498 1041.31 75.1651 1042.36 74.0053 1043.31C73.6323 1043.62 73.5955 1044.14 73.9209 1044.47C74.2498 1044.81 74.8205 1044.83 75.1943 1044.53C76.4843 1043.48 77.576 1042.3 78.4457 1041.04C79.4405 1039.59 80.1222 1038.07 80.4742 1036.51C80.8262 1034.94 80.6655 1033.16 80.5193 1032.13L114.406 1024.5C114.892 1024.39 115.196 1023.94 115.086 1023.5C114.976 1023.06 114.492 1022.79 114.007 1022.9L72.3409 1032.29C72.3409 1032.29 72.3377 1032.27 72.3362 1032.27C72.0017 1031.32 71.277 1029.52 70.1587 1028.2C69.1034 1026.96 67.7719 1025.88 66.1993 1025.02C64.8236 1024.26 63.288 1023.68 61.6403 1023.29C61.1619 1023.18 60.6631 1023.44 60.5284 1023.88L60.5268 1023.88Z" fill="#38372F"/>
<g clip-path="url(#clip0_2_2)">
<path d="M52.2887 977.247L52.5615 979.189L108.519 971.658L108.246 969.715L52.2887 977.247Z" fill="#38372F"/>
<path d="M24.6626 981.959L51.023 991.548L47.401 965.757L24.6626 981.959Z" fill="#DF4942"/>
<path d="M42.0216 979.623L69.1319 994.551L64.0102 958.081L42.0216 979.623Z" fill="#2EAC94"/>
<path d="M58.6632 977.383L89.8011 997.602L83.0716 949.683L58.6632 977.383Z" fill="#DF4942"/>
</g>
<g clip-path="url(#clip1_2_2)">
<path d="M87.5042 864.201L68.6718 870.06C68.6718 870.06 64.9444 869.216 62.595 869.248C60.2453 869.279 59.1389 870.071 59.1389 870.071L59.7208 867.384L54.357 870.012L54.5657 866.848L49.0562 869.495L49.2988 867.044L43.4289 869.933L26.1796 866.451C26.1796 866.451 26.5458 867.926 27.1781 868.839C27.8103 869.752 30.2266 871.577 30.2266 871.577L21.9394 871.871L20.6631 876.505C20.6631 876.505 25.6396 876.749 28.244 877.958C29.0599 878.337 29.5703 880.149 30.4781 881.516C31.4334 882.956 36.2054 884.036 39.6492 884.522C43.0929 885.008 47.1464 885.156 50.7904 889.67C54.4344 894.184 52.7717 906.287 53.6593 912.712C53.7768 913.569 53.9661 914.326 54.2125 915C53.5482 916.366 52.9709 918.138 53.3241 919.742C54.0286 922.937 57.3849 926.93 57.3849 926.93L57.9565 925.773C57.9565 925.773 58.9446 927.638 60.0021 929.165C60.9596 930.55 63.7094 932.604 63.7094 932.604L64.2436 931.102C64.2436 931.102 65.5697 933.409 68.2094 935.121C69.7745 936.137 73.112 937.588 73.112 937.588L72.9108 935.972C72.9108 935.972 74.6456 936.781 76.6324 937.149C78.6191 937.518 82.1377 937.08 82.1377 937.08C82.1377 937.08 80.8813 934.365 79.9627 933.557C79.0441 932.749 77.9511 931.346 77.9511 931.346L79.661 931.134C79.661 931.134 77.4703 928.379 76.4213 927.624C74.6445 926.345 72.459 925.773 72.459 925.773L74.8593 925.372C74.8593 925.372 73.0599 923.106 71.2765 922.024C70.5991 921.613 69.3223 920.919 67.8418 920.13C70.6491 919.507 72.9744 918.314 74.702 918.463C77.1808 918.677 96.7673 920.944 96.7673 920.944L99.4593 918.517L97.8003 905.192C97.8003 905.192 96.2028 905.031 94.9585 905.977C94.4265 906.382 93.8692 907.2 93.5101 908.084L80.6807 904.642C80.6807 904.642 79.4464 901.006 77.845 899.113C76.2419 897.22 74.0811 895.791 74.0811 895.791C74.0811 895.791 74.1753 892.119 74.6114 889.712C75.0475 887.305 74.3668 882.16 74.3668 882.16L93.8637 873.589L92.1602 859.907C92.1602 859.907 90.5627 859.746 89.3183 860.691C88.5061 861.31 87.6367 862.89 87.5057 864.199L87.5042 864.201Z" fill="#E6E1C8"/>
<path d="M36.9863 884.883C37.7894 887.521 41.2614 890.184 41.2614 890.184L42.2747 883.57L36.7091 882.656C36.7091 882.656 36.452 883.128 36.9863 884.883Z" fill="#2EAC94"/>
<path d="M30.4851 875.707C29.3508 875.352 26.0677 874.645 21.271 874.291L20.6612 876.505C20.6612 876.505 25.6377 876.749 28.2421 877.958C29.0579 878.337 29.5684 880.149 30.4762 881.516C31.4314 882.956 36.2034 884.036 39.6472 884.522C43.091 885.009 47.1445 885.157 50.7884 889.671C54.4324 894.185 52.7697 906.287 53.6573 912.712C53.7733 913.556 53.9597 914.305 54.1997 914.972C56.083 913.909 58.5805 912.367 60.0536 910.928C62.9556 908.089 64.5502 904.854 64.812 897.952C65.0737 891.05 61.122 881.924 54.2601 880.467C48.4841 879.243 37.9113 879.51 34.5574 878.69C31.2033 877.868 31.7693 876.109 30.4849 875.706L30.4851 875.707Z" fill="#2EAC94"/>
<path d="M33.8828 876.982C34.5858 876.895 35.2252 877.396 35.3129 878.101C35.4006 878.805 34.9019 879.448 34.2007 879.536C33.4995 879.623 32.8583 879.121 32.7706 878.417C32.6829 877.713 33.1816 877.07 33.8828 876.982Z" fill="#38372F"/>
<path d="M92.7996 865.249C92.8163 865.383 92.7336 865.511 92.601 865.546C91.813 865.757 90.9707 866.046 90.1181 866.999C89.6181 867.558 88.7976 869.166 88.7886 869.182L88.7536 869.252L88.6855 869.292C88.4731 869.419 83.3088 872.374 69.1187 870.688C68.9704 870.67 68.864 870.535 68.8802 870.386C68.8982 870.237 69.0326 870.129 69.1827 870.147C82.3537 871.712 87.7087 869.19 88.345 868.859C88.5184 868.522 89.2279 867.181 89.7151 866.637C90.6673 865.574 91.6323 865.244 92.4609 865.022C92.6059 864.984 92.7554 865.07 92.7936 865.215C92.7951 865.228 92.7985 865.24 92.8001 865.253L92.7996 865.249Z" fill="#D6AD49"/>
<path d="M98.4219 910.654L98.4226 910.66C98.4376 910.81 98.3302 910.945 98.1805 910.959C97.6362 911.016 97.2283 911.172 96.5155 911.854C95.5255 912.805 95.4258 914.115 95.4238 914.129L95.4002 914.467L95.0761 914.372L78.2138 909.407L78.1722 909.264C78.163 909.234 77.2549 906.193 75.8958 904.516C74.4656 902.752 72.2341 901.825 72.2112 901.817C72.0727 901.761 72.0053 901.6 72.061 901.461C72.1168 901.322 72.2763 901.255 72.4148 901.311C72.511 901.35 74.7942 902.296 76.3167 904.172C77.589 905.739 78.4479 908.326 78.6482 908.966L94.9248 913.758C95.0203 913.249 95.3039 912.257 96.1374 911.458C96.8581 910.765 97.3775 910.493 98.1198 910.413C98.2677 910.399 98.3994 910.503 98.4178 910.651L98.4219 910.654Z" fill="#D6AD49"/>
<path d="M55.4855 896.894C55.4855 896.894 55.4875 896.91 55.4884 896.917L55.6646 901.603C55.6707 901.754 55.5532 901.881 55.404 901.885C55.2532 901.891 55.1271 901.772 55.123 901.623L54.9468 896.937C54.9407 896.786 55.0583 896.659 55.2075 896.655C55.3493 896.65 55.47 896.755 55.4873 896.894L55.4855 896.894Z" fill="#E6E1C8"/>
<path d="M58.4453 895.81L59.1596 901.547C59.1782 901.697 59.0728 901.833 58.9236 901.852C58.7744 901.87 58.6389 901.764 58.6202 901.614L57.9059 895.877C57.8873 895.728 57.9927 895.592 58.1419 895.573C58.2911 895.554 58.4266 895.66 58.4453 895.81Z" fill="#E6E1C8"/>
<path d="M61.7136 895.913C61.7136 895.913 61.7143 895.919 61.7147 895.922L62.0596 899.66C62.0729 899.811 61.9635 899.944 61.8136 899.957C61.6637 899.97 61.5241 899.861 61.518 899.71L61.1731 895.971C61.1598 895.821 61.2692 895.688 61.4192 895.675C61.5655 895.662 61.6954 895.767 61.7136 895.913Z" fill="#E6E1C8"/>
<path d="M56.149 893.439C56.1658 893.574 56.0813 893.702 55.9469 893.737C55.8017 893.774 55.6539 893.686 55.6174 893.54L54.6648 889.775C54.6282 889.627 54.7158 889.48 54.861 889.444C55.0062 889.408 55.1541 889.496 55.1905 889.641L56.1431 893.407C56.1445 893.418 56.1478 893.43 56.1492 893.441L56.149 893.439Z" fill="#E6E1C8"/>
<path d="M59.4392 893.029C59.456 893.165 59.3715 893.293 59.2371 893.328C59.092 893.364 58.9441 893.276 58.9059 893.131L57.8986 889.161C57.8622 889.015 57.9496 888.867 58.0945 888.829C58.2397 888.792 58.3876 888.88 58.4258 889.026L59.4331 892.995C59.4344 893.006 59.4378 893.019 59.4392 893.029Z" fill="#E6E1C8"/>
<path d="M56.3993 905.876C56.4018 905.896 56.4022 905.914 56.4011 905.934L56.101 909.243C56.0869 909.393 55.9545 909.503 55.805 909.491C55.6554 909.476 55.5457 909.343 55.558 909.193L55.8581 905.885C55.8723 905.734 56.0046 905.624 56.1543 905.639C56.2836 905.65 56.3838 905.751 56.3993 905.876Z" fill="#E6E1C8"/>
<path d="M60.4633 904.451C60.4665 904.476 60.4662 904.504 60.4622 904.53L59.923 907.766C59.8976 907.914 59.7587 908.016 59.6095 907.99C59.462 907.964 59.3607 907.825 59.3858 907.675L59.9251 904.439C59.9504 904.291 60.0893 904.189 60.2386 904.215C60.3597 904.235 60.4487 904.334 60.4633 904.451Z" fill="#E6E1C8"/>
<path d="M24.4268 876.922L20.6614 876.507L21.6332 872.977L24.4268 876.922Z" fill="#38372F"/>
</g>
<g clip-path="url(#clip2_2_2)">
<path d="M77.5081 821.967C75.6476 822.208 75.2368 821.849 71.61 821.908C68.3582 821.961 66.7328 821.986 64.7712 822.579C64.526 822.652 64.2888 822.732 64.0559 822.815L67.0939 823.733L63.5684 825.58L67.437 827.232L64.0377 830.122L67.9345 832.304L65.9295 833.095C69.7139 834.041 71.6709 834.515 72.8479 834.541C77.0374 834.636 80.2471 831.836 80.733 831.399C85.8393 826.818 84.5842 819.515 84.4889 819.005C81.6283 821.099 79.18 821.751 77.5068 821.967L77.5081 821.967Z" fill="#DF4942"/>
<path d="M64.0376 830.121L67.437 827.231L63.5683 825.579L67.0938 823.732L64.0558 822.814C60.9398 823.932 58.9965 825.8 58.5069 826.289C57.6614 827.133 55.1622 829.697 54.6199 833.594C54.2309 836.39 55.5331 839.152 55.5331 839.152C55.5331 839.152 56.0292 837.474 57.5503 835.31C58.162 834.44 59.0847 833.127 60.5945 832.552C61.9421 832.038 63.068 832.375 65.2338 832.917C65.4733 832.977 65.7051 833.035 65.9304 833.091L67.9354 832.3L64.0386 830.118L64.0376 830.121Z" fill="#E6E1C8"/>
<path d="M72.0087 798.67C74.6009 799.896 77.2739 801.703 77.2739 801.703L83.7918 801.064C83.7918 801.064 84.4753 799.9 85.2653 799.823L86.2879 799.723L86.0463 797.259C86.0463 797.259 85.2136 797.118 84.4452 797.416C83.6769 797.715 83.4508 798.804 83.4508 798.804L82.0914 798.788L72.0087 798.67Z" fill="#DF4942"/>
<path d="M83.4623 801.097L77.2729 801.704C77.2729 801.704 74.5998 799.897 72.0076 798.671L68.611 798.631L75.1439 804.254L82.4303 802.255L86.4263 801.158L86.2857 799.725L85.2631 799.826C84.1979 800.017 83.4611 801.099 83.4611 801.099L83.4623 801.097Z" fill="#E6E1C8"/>
<path d="M77.0993 802.496C77.0993 802.496 70.6216 798.115 68.0538 798.366L57.5137 799.4L58.1004 809.377C58.1004 809.377 60.1411 809.18 61.5273 809.752C62.9135 810.323 66.0474 815.176 69.6484 819.362C73.2492 823.547 77.2675 824.534 81.6119 824.108C85.9563 823.682 88.2022 819.252 88.2022 819.252L86.3621 800.491L85.0906 800.616C84.3006 800.693 83.6171 801.856 83.6171 801.856L77.0993 802.496Z" fill="#DF4942"/>
<path d="M41.822 796.522C41.382 797.428 44.7248 800.185 45.7234 800.979C45.5467 802.2 45.2428 804.544 45.3472 805.609C45.4517 806.674 46.2054 808.915 46.6157 810.077C45.7919 811.052 43.0484 814.404 43.6547 815.208C44.2811 816.036 51.3549 813.458 53.0524 812.823C54.1946 813.135 55.1756 813.34 55.6472 813.294C56.0415 813.256 56.5716 812.846 57.1406 812.206C56.3929 811.062 55.9267 809.959 56.6518 808.63C56.6902 808.561 56.731 808.491 56.7733 808.422C56.7863 808.401 56.7994 808.381 56.8124 808.36C56.845 808.308 56.879 808.258 56.9142 808.207C56.9286 808.187 56.9416 808.166 56.9559 808.146C57.0045 808.077 57.0543 808.009 57.1068 807.942C57.1079 807.941 57.1089 807.938 57.1113 807.936C57.1626 807.871 57.2164 807.804 57.2715 807.739C57.2884 807.719 57.3065 807.699 57.3245 807.677C57.3661 807.628 57.4092 807.58 57.4521 807.531C57.4702 807.511 57.4883 807.491 57.5077 807.47C57.5678 807.404 57.6293 807.34 57.6933 807.275C58.8185 806.889 60.0523 806.354 60.41 806.095C61.0164 805.657 61.5248 804.77 61.452 804.028C61.3792 803.286 60.7082 802.515 60.0282 802.203C59.627 802.018 58.3128 801.733 57.134 801.573C57.0586 801.522 56.9858 801.471 56.9141 801.418C56.8911 801.402 56.8694 801.385 56.8477 801.369C56.7962 801.33 56.7445 801.29 56.6942 801.251C56.6724 801.234 56.6507 801.218 56.6301 801.2C56.5634 801.147 56.4977 801.092 56.4346 801.037C56.4332 801.036 56.4317 801.034 56.4291 801.033C56.3646 800.977 56.3025 800.92 56.2416 800.862C56.2236 800.846 56.2055 800.827 56.1887 800.81C56.1443 800.768 56.1011 800.723 56.0592 800.68C56.0423 800.662 56.0256 800.645 56.0087 800.627C55.9539 800.568 55.899 800.507 55.849 800.446C54.8796 799.283 55.1226 798.111 55.6339 796.844C54.9514 796.327 54.3518 796.028 53.9574 796.066C53.4859 796.113 52.5636 796.506 51.5036 797.033C49.7152 796.741 42.2752 795.585 41.8217 796.52L41.822 796.522Z" fill="#DF4942"/>
<path d="M60.6336 804.111L57.9966 802.633L58.3339 806.071L60.6336 804.111Z" fill="#38372F"/>
<path d="M54.4155 800.686C54.3628 800.148 53.8794 799.755 53.3359 799.809C52.7924 799.862 52.3946 800.341 52.4473 800.879C52.5001 801.417 52.9834 801.81 53.5269 801.756C54.0704 801.703 54.4683 801.224 54.4155 800.686Z" fill="#38372F"/>
<path d="M55.1993 808.677C55.1466 808.139 54.6632 807.746 54.1197 807.8C53.5762 807.853 53.1784 808.332 53.2311 808.87C53.2839 809.408 53.7672 809.801 54.3107 809.747C54.8542 809.694 55.2521 809.215 55.1993 808.677Z" fill="#38372F"/>
<path d="M55.8504 800.447C56.2173 800.883 56.6628 801.251 57.1353 801.574C58.3142 801.734 59.6284 802.019 60.0295 802.204C59.0617 800.212 57.1471 797.993 55.6354 796.846C55.1241 798.113 54.8811 799.285 55.8505 800.448L55.8504 800.447Z" fill="#E6E1C8"/>
<path d="M44.5007 797.517C44.2532 798.029 46.5112 799.766 46.5112 799.766L49.3449 797.794C49.3449 797.794 44.7483 797.006 44.5006 797.516L44.5007 797.517Z" fill="#E6E1C8"/>
<path d="M57.6948 807.278C56.1594 808.618 55.8529 810.628 57.142 812.207C58.4021 810.788 59.8491 808.24 60.4115 806.098C60.0538 806.356 58.82 806.891 57.6948 807.278Z" fill="#E6E1C8"/>
<path d="M47.6243 811.114C47.6243 811.114 45.747 813.258 46.0891 813.711C46.4312 814.164 50.787 812.497 50.787 812.497L47.6241 811.113L47.6243 811.114Z" fill="#E6E1C8"/>
<path d="M66.6328 811.81C66.6377 811.859 66.6225 811.909 66.5886 811.949C66.5209 812.026 66.4024 812.035 66.3243 811.968L64.2054 810.164C64.1272 810.097 64.1183 809.98 64.186 809.902C64.2538 809.825 64.3722 809.816 64.4504 809.883L66.5693 811.687C66.6076 811.719 66.6282 811.763 66.6328 811.81Z" fill="#E6E1C8"/>
<path d="M70.0085 810.945C70.0117 810.978 70.0063 811.012 69.9906 811.044C69.9443 811.136 69.8325 811.174 69.739 811.13L66.269 809.444C66.1766 809.399 66.1381 809.288 66.183 809.196C66.2293 809.104 66.3411 809.066 66.4346 809.11L69.9047 810.796C69.9653 810.824 70.0023 810.882 70.0085 810.945Z" fill="#E6E1C8"/>
<path d="M70.5519 816.486C70.5564 816.531 70.5436 816.58 70.5135 816.619C70.4498 816.7 70.3319 816.714 70.2503 816.651L67.4299 814.468C67.3483 814.405 67.3344 814.288 67.3981 814.207C67.4617 814.127 67.5797 814.112 67.6612 814.175L70.4817 816.358C70.5237 816.39 70.5472 816.438 70.5519 816.486Z" fill="#E6E1C8"/>
<path d="M72.1592 815.097C72.1635 815.142 72.1518 815.189 72.1216 815.227C72.0593 815.309 71.9416 815.325 71.8589 815.264L68.572 812.819C68.4893 812.758 68.4729 812.641 68.5352 812.559C68.5975 812.477 68.7152 812.461 68.7978 812.522L72.0848 814.967C72.1282 815 72.1542 815.047 72.1592 815.097Z" fill="#E6E1C8"/>
<path d="M73.6583 813.567C73.6618 813.603 73.6555 813.641 73.6363 813.675C73.586 813.764 73.4725 813.798 73.381 813.748L71.721 812.845C71.6307 812.795 71.5971 812.683 71.6472 812.592C71.6975 812.503 71.811 812.469 71.9025 812.519L73.5625 813.422C73.6183 813.453 73.6526 813.508 73.6583 813.567Z" fill="#E6E1C8"/>
<path d="M74.3603 820.725C74.3645 820.768 74.3538 820.812 74.3261 820.85C74.2664 820.933 74.1491 820.953 74.0642 820.894L71.3756 819.005C71.2919 818.946 71.2717 818.83 71.3313 818.746C71.391 818.663 71.5083 818.643 71.5932 818.702L74.2819 820.591C74.3278 820.623 74.3551 820.672 74.3602 820.723L74.3603 820.725Z" fill="#E6E1C8"/>
<path d="M76.0086 819.487C76.012 819.521 76.0054 819.557 75.9885 819.589C75.941 819.681 75.829 819.717 75.7366 819.671L73.0492 818.32C72.9567 818.273 72.9206 818.161 72.967 818.071C73.0145 817.979 73.1266 817.943 73.219 817.989L75.9063 819.34C75.9658 819.37 76.0015 819.426 76.0075 819.488L76.0086 819.487Z" fill="#E6E1C8"/>
<path d="M77.7279 818.011C77.7319 818.051 77.7222 818.093 77.6982 818.13C77.6413 818.215 77.5256 818.24 77.4384 818.183L75.281 816.78C75.1939 816.724 75.1701 816.61 75.2282 816.523C75.2851 816.438 75.4007 816.413 75.488 816.47L77.6454 817.873C77.695 817.906 77.7239 817.956 77.7292 818.01L77.7279 818.011Z" fill="#E6E1C8"/>
</g>
<g clip-path="url(#clip3_2_2)">
<path d="M70.3143 728.18L71.5425 730.458L69.3774 731.878C67.8502 732.879 66.0133 733.198 64.2889 732.762L62.8628 732.402C61.1978 731.98 60.2072 730.222 60.65 728.475L61.017 727.024C61.4597 725.276 63.1677 724.201 64.8326 724.621L66.2588 724.982C67.9831 725.418 69.4479 726.573 70.3128 728.179L70.3143 728.18Z" fill="#2EAC94"/>
<path d="M60.808 726.875L60.7096 727.266L59.2892 726.714L58.9818 727.928L60.4933 728.117L60.3948 728.508C59.8978 730.473 61.0117 732.45 62.8831 732.924L63.7224 733.137L65.9378 724.388L65.0985 724.175C63.2271 723.701 61.3052 724.911 60.8081 726.876L60.808 726.875Z" fill="#38372F"/>
<path d="M61.6549 730.232C61.6208 729.723 60.8284 729.774 60.8626 730.285C60.8969 730.796 61.6891 730.743 61.6549 730.232Z" fill="#E6E1C8"/>
<path d="M63.749 731.08C63.7149 730.57 62.9225 730.622 62.9568 731.133C62.991 731.644 63.7833 731.591 63.749 731.08Z" fill="#E6E1C8"/>
<path d="M62.7866 729.622C62.7525 729.113 61.9601 729.164 61.9944 729.675C62.0286 730.186 62.8209 730.133 62.7866 729.622Z" fill="#E6E1C8"/>
<path d="M62.1127 727.857C62.0786 727.348 61.2862 727.399 61.3204 727.91C61.3546 728.421 62.1469 728.368 62.1127 727.857Z" fill="#E6E1C8"/>
<path d="M64.189 728.438C64.1549 727.929 63.3625 727.98 63.3967 728.491C63.4309 729.002 64.2232 728.949 64.189 728.438Z" fill="#E6E1C8"/>
<path d="M63.6575 726.643C63.6234 726.133 62.831 726.185 62.8652 726.696C62.8994 727.207 63.6917 727.154 63.6575 726.643Z" fill="#E6E1C8"/>
<path d="M62.7743 725.755C62.7402 725.245 61.9478 725.297 61.982 725.808C62.0162 726.319 62.8085 726.266 62.7743 725.755Z" fill="#E6E1C8"/>
<path d="M64.7039 726.086C65.2447 726.08 65.1877 725.229 64.6509 725.294C64.1367 725.32 64.192 726.127 64.7039 726.086Z" fill="#E6E1C8"/>
<path d="M77.834 728.383C77.4115 729.304 77.6005 730.344 77.6005 730.344C77.6005 730.344 76.9778 730.057 76.0528 729.931C75.0877 729.799 73.9917 730.091 73.2254 730.393C72.6207 730.633 71.5258 731.238 70.5723 732.547C70.4739 732.682 70.3111 732.905 70.1437 733.179C69.6098 733.287 69.0779 733.405 68.5555 733.527C68.5754 733.468 68.5955 733.411 68.6117 733.356C68.8271 732.692 69.0157 732.001 69.1282 731.266C69.1707 730.988 69.202 730.704 69.2186 730.416C69.4575 730.102 69.5901 729.705 69.5617 729.281C69.4993 728.35 68.6935 727.646 67.7625 727.708C66.8316 727.771 66.1269 728.576 66.1892 729.507C66.213 729.862 66.3446 730.183 66.5502 730.441C66.5302 730.498 66.5113 730.554 66.49 730.611C66.2978 731.108 66.0395 731.609 65.748 732.109C65.6744 732.237 65.6075 732.348 65.5383 732.462C65.4676 732.576 65.3941 732.687 65.3178 732.795C65.1666 733.014 65.0043 733.223 64.8346 733.423C64.4927 733.824 64.118 734.19 63.7167 734.516C63.6388 734.58 63.5578 734.658 63.4887 734.736C63.4296 734.803 63.3773 734.874 63.3292 734.948C62.539 735.192 62.0629 735.351 62.0629 735.351C62.0629 735.351 60.7246 732.321 58.1877 730.982C55.2411 729.427 51.5623 729.496 51.5623 729.496L52.3989 741.986C52.1732 742.023 51.946 742.096 51.7249 742.221C50.7079 742.801 50.406 744.135 50.5792 745.117C50.7893 746.313 51.6989 746.962 51.9482 747.14C52.9052 747.823 54.4336 748.186 55.6713 747.454C55.8575 747.344 56.7928 746.792 56.9692 745.782C56.9846 745.696 56.9922 745.61 56.9959 745.526C57.9717 745.997 59.0858 746.49 60.3156 746.968C59.6435 747.212 58.8762 747.579 58.1073 748.14C56.1687 749.555 55.1241 751.168 54.6368 752.308C54.0107 753.772 53.5231 755.681 53.9763 757.814C54.4331 759.96 55.8234 761.271 56.4522 761.847C58.1045 763.366 59.9276 763.851 60.9046 764.021C62.0251 764.215 63.9132 764.54 65.5474 763.552C67.3651 762.452 68.5438 760.463 68.5438 760.463C68.5438 760.463 70.1964 761.551 72.3231 761.995C74.5172 762.454 76.4376 761.5 77.1501 761.146C77.5866 760.93 79.0639 760.094 80.3427 758.255C81.5333 756.545 81.7513 754.907 81.9414 753.686C82.1065 752.627 81.9954 750.532 81.8834 748.86L80.429 727.145C80.429 727.145 79.4545 727.051 78.8315 727.374C78.6084 727.49 78.1038 727.798 77.8353 728.383L77.834 728.383Z" fill="#DF4942"/>
<path d="M57.1332 738.211C57.2154 738.369 57.3089 738.518 57.4177 738.656L57.4178 738.658C57.982 739.378 58.8801 739.815 59.8612 739.75C61.4365 739.644 62.6279 738.282 62.5224 736.707C62.5073 736.482 62.5229 736.042 62.0996 735.227C61.2805 733.652 60.172 732.092 58.2539 731.021C55.3463 729.395 51.5637 729.499 51.5637 729.499L57.1332 738.211Z" fill="#E6E1C8"/>
<path d="M51.7736 732.632L54.944 729.825C54.944 729.825 54.3752 729.631 53.4914 729.546C52.6076 729.46 51.565 729.498 51.565 729.498L51.7749 732.632L51.7736 732.632Z" fill="#38372F"/>
<path d="M56.3514 736.61C56.0988 736.1 55.4804 735.891 54.9701 736.143C54.4598 736.396 54.2509 737.014 54.5034 737.524C54.756 738.034 55.3744 738.243 55.8847 737.991C56.395 737.738 56.6039 737.12 56.3514 736.61Z" fill="#38372F"/>
<path d="M58.3648 731.549C58.5171 732.219 58.233 732.967 57.6863 733.379C57.4829 733.532 57.704 733.862 57.9086 733.708C58.6093 733.18 58.9318 732.271 58.7381 731.419C58.7139 731.315 58.5779 731.264 58.4846 731.297C58.3744 731.335 58.3393 731.445 58.3623 731.551L58.3648 731.549Z" fill="#38372F"/>
<path d="M69.6576 756.875C69.6905 757.367 69.6726 758.01 69.4947 758.721C69.3566 759.273 69.1402 759.804 68.8509 760.297C68.7948 760.391 68.6736 760.423 68.5797 760.368C68.4858 760.312 68.4538 760.191 68.5085 760.097C68.7787 759.636 68.9817 759.141 69.1103 758.626C69.3978 757.472 69.2381 756.513 69.157 756.154C69.0782 755.809 68.8696 754.894 68.0913 754.007C67.6907 753.551 66.996 752.941 65.9645 752.631C65.4583 752.479 64.6109 752.225 63.6236 752.574C62.6428 752.923 62.119 753.656 61.9388 753.956C61.3612 754.918 61.4056 755.68 61.5433 756.151C61.6018 756.351 61.7392 756.819 62.1842 757.145C62.5147 757.386 62.8704 757.449 63.1098 757.458C63.2188 757.463 63.3047 757.556 63.3 757.664C63.2953 757.773 63.2029 757.859 63.0938 757.854C62.7999 757.842 62.361 757.765 61.9496 757.464C61.3972 757.06 61.2324 756.5 61.1621 756.262C61.0022 755.716 60.9459 754.837 61.5975 753.752C61.7991 753.415 62.3872 752.591 63.4898 752.2C64.5988 751.806 65.5599 752.096 66.077 752.251C67.1992 752.588 67.9531 753.25 68.3881 753.744C69.2324 754.706 69.4654 755.729 69.5423 756.064C69.5798 756.229 69.6318 756.509 69.6562 756.874L69.6576 756.875Z" fill="#E6E1C8"/>
<path d="M63.8938 760.669C63.8945 760.68 63.8953 760.692 63.8922 760.704C63.8795 760.813 63.7813 760.891 63.6717 760.878L61.2012 760.59C61.093 760.578 61.0134 760.48 61.0273 760.37C61.04 760.262 61.1382 760.183 61.2478 760.196L63.7182 760.484C63.8145 760.495 63.8874 760.573 63.8937 760.667L63.8938 760.669Z" fill="#E6E1C8"/>
<path d="M63.1953 762.894C63.196 762.905 63.1967 762.915 63.1949 762.927C63.1837 763.037 63.0868 763.116 62.9773 763.105L60.7836 762.889C60.6741 762.877 60.5946 762.781 60.6059 762.671C60.6171 762.562 60.7139 762.482 60.8234 762.493L63.0172 762.71C63.1146 762.719 63.189 762.799 63.1953 762.894Z" fill="#E6E1C8"/>
<path d="M58.8727 762.064C58.8754 762.104 58.8662 762.146 58.8435 762.183C58.7848 762.276 58.6633 762.304 58.5706 762.246L56.5175 760.962C56.4248 760.905 56.3967 760.782 56.4542 760.689C56.5129 760.597 56.6344 760.569 56.7271 760.626L58.7802 761.91C58.8369 761.945 58.8687 762.003 58.8728 762.066L58.8727 762.064Z" fill="#E6E1C8"/>
<path d="M59.4186 760.274C59.4217 760.32 59.409 760.368 59.3772 760.408C59.31 760.494 59.1851 760.511 59.0984 760.443L57.2161 758.996C57.1293 758.928 57.113 758.804 57.1802 758.717C57.2473 758.63 57.3722 758.614 57.459 758.681L59.3412 760.129C59.3888 760.165 59.4149 760.218 59.4186 760.274Z" fill="#E6E1C8"/>
<path d="M59.9624 758.451C59.9663 758.509 59.9439 758.57 59.8976 758.612C59.8163 758.685 59.6912 758.679 59.6168 758.597L58.5133 757.371C58.4402 757.289 58.4464 757.164 58.5276 757.09C58.609 757.017 58.7341 757.023 58.8085 757.104L59.912 758.331C59.9434 758.365 59.9595 758.407 59.9624 758.451Z" fill="#E6E1C8"/>
<path d="M55.6102 757.654C55.6163 757.745 55.5584 757.831 55.4673 757.857C55.3619 757.888 55.2517 757.826 55.2221 757.721L54.6312 755.672C54.6003 755.567 54.6619 755.457 54.7673 755.427C54.8727 755.396 54.9829 755.458 55.0125 755.563L55.6034 757.612C55.607 757.626 55.6092 757.639 55.6102 757.654Z" fill="#E6E1C8"/>
<path d="M57.1296 756.833C57.1363 756.932 57.0681 757.023 56.9672 757.042C56.8597 757.061 56.7554 756.99 56.7363 756.882L56.4547 755.351C56.4342 755.244 56.5068 755.139 56.6143 755.12C56.7218 755.101 56.8261 755.172 56.8452 755.28L57.1268 756.811C57.1273 756.819 57.1279 756.827 57.1283 756.834L57.1296 756.833Z" fill="#E6E1C8"/>
<path d="M65.538 748.244C65.5395 748.267 65.5371 748.291 65.5307 748.314C65.4993 748.419 65.3892 748.478 65.2836 748.447L61.2597 747.244C61.1542 747.213 61.095 747.102 61.1265 746.997C61.1579 746.892 61.268 746.833 61.3735 746.864L65.3974 748.067C65.4787 748.092 65.5339 748.163 65.5393 748.244L65.538 748.244Z" fill="#E6E1C8"/>
<path d="M72.0889 749.488C72.0897 749.5 72.0904 749.512 72.0874 749.525C72.0747 749.633 71.9752 749.712 71.8669 749.699L67.3609 749.16C67.2526 749.148 67.1743 749.048 67.1869 748.94C67.1996 748.832 67.2991 748.753 67.4074 748.766L71.9134 749.305C72.0098 749.317 72.0813 749.396 72.0875 749.488L72.0889 749.488Z" fill="#E6E1C8"/>
<path d="M77.579 749.016C77.5858 749.117 77.5124 749.21 77.4099 749.224L74.1302 749.707C74.0212 749.723 73.9207 749.648 73.9054 749.539C73.8901 749.428 73.9643 749.329 74.0734 749.314L77.3531 748.832C77.4621 748.815 77.5626 748.891 77.5779 749C77.5783 749.005 77.5786 749.01 77.579 749.016Z" fill="#E6E1C8"/>
<path d="M67.186 746.926C67.1873 746.946 67.1861 746.967 67.1808 746.987C67.1548 747.094 67.0464 747.158 66.9398 747.132L63.4633 746.26C63.3568 746.234 63.2925 746.126 63.3185 746.019C63.3446 745.913 63.453 745.849 63.5595 745.875L67.036 746.746C67.1211 746.768 67.1804 746.841 67.186 746.926Z" fill="#E6E1C8"/>
<path d="M74.1278 747.848C74.1285 747.858 74.1292 747.869 74.1272 747.88C74.1173 747.989 74.0206 748.07 73.9112 748.06L70.3665 747.735C70.2571 747.725 70.1777 747.628 70.1862 747.519C70.1962 747.41 70.2929 747.329 70.4023 747.339L73.947 747.664C74.0457 747.673 74.1201 747.753 74.1264 747.848L74.1278 747.848Z" fill="#E6E1C8"/>
<path d="M66.1313 744.587C66.1327 744.607 66.1313 744.627 66.1262 744.648C66.1001 744.755 65.9917 744.819 65.8852 744.793L63.0082 744.08C62.9017 744.054 62.8374 743.946 62.8634 743.839C62.8894 743.733 62.9979 743.669 63.1044 743.695L65.9814 744.408C66.0676 744.428 66.1257 744.503 66.1313 744.587Z" fill="#E6E1C8"/>
<path d="M71.6205 745.803C71.6213 745.815 71.6221 745.828 71.619 745.84C71.605 745.948 71.5068 746.026 71.3984 746.013L68.0591 745.605C67.9494 745.591 67.8739 745.493 67.8865 745.385C67.9005 745.276 67.9987 745.198 68.1071 745.212L71.4464 745.619C71.5427 745.632 71.6143 745.71 71.6205 745.803Z" fill="#E6E1C8"/>
<path d="M76.6195 745.721C76.6195 745.721 76.62 745.729 76.6202 745.732C76.6209 745.842 76.534 745.931 76.424 745.932L73.7997 745.96C73.6896 745.961 73.6027 745.871 73.5995 745.764C73.5988 745.654 73.6856 745.565 73.7957 745.564L76.42 745.535C76.526 745.534 76.6138 745.617 76.6208 745.721L76.6195 745.721Z" fill="#E6E1C8"/>
</g>
<g clip-path="url(#clip4_2_2)">
<path d="M8.45592 676.709C7.13039 676.646 5.06227 675.946 4.60367 674.232C4.02915 672.081 6.50861 670.288 6.62461 670.208C8.53395 668.867 10.6736 669.49 10.8955 669.56C11.0535 669.609 13.6214 670.44 13.8951 672.24C14.2168 674.354 11.228 676.843 8.45596 676.711L8.45592 676.709Z" fill="#DF4942"/>
<path d="M11.6883 674.235C10.8894 675.037 9.77392 674.97 9.67587 674.962C8.69256 674.888 7.40339 674.204 7.37584 673.214C7.34754 672.193 8.67717 671.555 8.77673 671.508C8.92609 671.438 9.8541 671.026 10.8506 671.456C11.4703 671.723 12.3117 672.401 12.2489 673.228C12.2119 673.708 11.8848 674.037 11.6868 674.235L11.6883 674.235Z" fill="#E6E1C8"/>
<path d="M8.83789 692.041C7.51717 692.171 5.48648 692.973 5.11381 694.708C4.64709 696.884 7.21276 698.551 7.33262 698.626C9.30637 699.87 11.4123 699.141 11.6304 699.061C11.7859 699.003 14.3092 698.046 14.4928 696.234C14.709 694.107 11.5999 691.769 8.83785 692.04L8.83789 692.041Z" fill="#DF4942"/>
<path d="M12.1894 694.352C11.3516 693.59 10.2408 693.713 10.1433 693.726C9.16494 693.849 7.91141 694.596 7.93321 695.587C7.95576 696.607 9.31552 697.178 9.4173 697.22C9.56996 697.283 10.5173 697.648 11.4912 697.169C12.0968 696.871 12.9035 696.153 12.7995 695.33C12.7387 694.852 12.3956 694.539 12.188 694.352L12.1894 694.352Z" fill="#E6E1C8"/>
<path d="M44.7417 663.24C34.9501 665.887 33.8054 666.496 30.9301 667.479C28.4958 668.312 24.3003 670.712 24.3003 670.712C24.3003 670.712 21.1446 670.028 18.4217 670.25C16.8376 670.378 13.9259 670.65 10.9589 672.571C9.84435 673.293 7.26817 675.19 5.72524 678.703C4.69575 681.049 4.54274 683.167 4.54787 684.413C4.60478 685.657 4.86308 687.765 6.00955 690.057C7.72554 693.489 10.393 695.255 11.5421 695.92C14.6011 697.692 17.5227 697.818 19.1112 697.868C21.8418 697.954 24.9595 697.113 24.9595 697.113C24.9595 697.113 29.2693 699.301 31.7421 700.011C34.6627 700.85 35.8363 701.402 45.7477 703.558C53.8577 705.324 56.5012 705.379 60.7499 704.765C64.2486 704.258 66.6768 703.182 68.3147 702.44C72.645 700.48 74.0667 698.629 74.5061 698.014C74.5868 697.901 74.6702 697.784 74.7535 697.662C75.1699 698.489 75.6673 699.048 76.0621 699.24C76.8792 699.634 78.9508 699.665 78.9508 699.665L78.6939 689.353L72.6751 689.503C71.8123 689.067 71.1694 689.079 70.1911 688.052C69.1272 686.935 68.6631 685.635 68.4925 685.144C68.1746 684.226 68.0652 683.414 68.0291 682.831C68.0376 682.249 68.105 681.431 68.3768 680.498C68.5226 679.999 68.9215 678.678 69.9285 677.51C70.8544 676.435 71.4971 676.415 72.3371 675.936L78.3559 675.786L78.099 665.475C78.099 665.475 76.0315 665.61 75.235 666.043C74.8488 666.253 74.3798 666.836 74.0066 667.684C73.9174 667.566 73.8282 667.453 73.742 667.345C73.274 666.753 71.7604 664.974 67.3379 663.232C65.6651 662.573 63.1862 661.618 59.6667 661.288C55.3927 660.886 52.7552 661.072 44.7432 663.239L44.7417 663.24Z" fill="#DF4942"/>
<path d="M34.3002 672.842C33.1099 673.815 31.19 675.426 30.1691 678.289C29.3392 680.618 28.9757 682.72 29.1484 683.876C29.0349 685.04 29.5013 687.122 30.4461 689.407C31.6084 692.217 33.606 693.729 34.8434 694.641C40.1077 698.521 46.2308 698.224 48.8137 698.1C51.8939 697.951 56.2993 697.736 60.2965 694.593C61.4764 693.665 64.0423 691.589 65.1186 687.885C65.7045 685.87 65.9867 684.087 65.8522 682.963C65.932 681.832 65.5599 680.067 64.8744 678.083C63.615 674.438 60.9489 672.492 59.7242 671.624C55.5755 668.683 51.1663 668.689 48.081 668.694C45.4951 668.698 39.3649 668.705 34.3003 672.844L34.3002 672.842Z" fill="#E6E1C8"/>
<path d="M40.2074 682.134C40.2102 682.247 40.1262 682.342 40.0143 682.354L35.1527 682.857C35.0335 682.868 34.9278 682.783 34.9162 682.664C34.9045 682.545 34.9897 682.439 35.1089 682.427L39.9705 681.924C40.0896 681.913 40.1953 681.998 40.207 682.117C40.2071 682.123 40.2072 682.129 40.2074 682.134Z" fill="#DF4942"/>
<path d="M39.0824 678.622C39.0848 678.719 39.0209 678.81 38.9237 678.837L35.1146 679.881C35.0002 679.912 34.8805 679.845 34.8489 679.729C34.8172 679.614 34.8848 679.495 35.0006 679.463L38.8097 678.419C38.924 678.387 39.0437 678.455 39.0754 678.571C39.0801 678.588 39.082 678.605 39.0824 678.622Z" fill="#DF4942"/>
<path d="M36.6352 676.28C36.6374 676.367 36.5848 676.452 36.4979 676.486L33.7828 677.545C33.6716 677.588 33.5465 677.533 33.5034 677.422C33.4604 677.311 33.5148 677.186 33.626 677.142L36.341 676.084C36.4522 676.041 36.5773 676.095 36.6204 676.207C36.6296 676.231 36.6346 676.255 36.6352 676.28Z" fill="#DF4942"/>
<path d="M40.2798 685.041C40.277 684.928 40.1884 684.837 40.076 684.831L35.1954 684.571C35.0758 684.565 34.9745 684.656 34.9688 684.775C34.9632 684.895 35.0535 684.997 35.1731 685.002L40.0537 685.262C40.1733 685.268 40.2746 685.178 40.2803 685.058C40.2801 685.052 40.28 685.046 40.2798 685.041Z" fill="#DF4942"/>
<path d="M39.331 688.604C39.3286 688.508 39.2602 688.42 39.1618 688.398L35.3054 687.545C35.1897 687.519 35.0735 687.593 35.0476 687.71C35.0217 687.826 35.0952 687.942 35.2124 687.968L39.0687 688.821C39.1845 688.847 39.3007 688.774 39.3265 688.656C39.3304 688.639 39.3314 688.622 39.331 688.604Z" fill="#DF4942"/>
<path d="M37.0036 691.067C37.0014 690.98 36.9447 690.898 36.8562 690.868L34.0918 689.946C33.9786 689.909 33.8563 689.969 33.8189 690.083C33.7814 690.196 33.842 690.318 33.9552 690.356L36.7196 691.278C36.8328 691.315 36.955 691.255 36.9925 691.141C37.0005 691.117 37.0042 691.092 37.0036 691.067Z" fill="#DF4942"/>
<path d="M43.2028 667.204L31.2682 673.137C34.5385 673.685 37.7247 674.73 40.6833 676.226C41.2473 676.512 41.8089 676.815 42.3732 677.109C42.8913 678.96 44.6097 680.295 46.6174 680.245C48.989 680.186 50.8639 678.214 50.8048 675.84C50.7667 674.313 49.9366 672.994 48.7196 672.261C47.3444 670.147 45.4283 668.387 43.2028 667.204Z" fill="#DF4942"/>
<path d="M44.0151 699.805L31.7999 694.474C35.0388 693.764 38.169 692.561 41.0494 690.919C41.5986 690.606 42.1444 690.276 42.6933 689.954C43.1186 688.079 44.7684 686.66 46.7761 686.61C49.1476 686.551 51.1184 688.427 51.1776 690.801C51.2156 692.328 50.4522 693.686 49.2732 694.479C48.005 696.66 46.179 698.513 44.0151 699.805Z" fill="#DF4942"/>
<path d="M24.8462 684.018C24.7656 680.782 22.4337 678.215 19.6378 678.285C16.842 678.354 14.6408 681.034 14.7214 684.27C14.8021 687.506 17.1339 690.073 19.9298 690.004C22.7257 689.934 24.9268 687.254 24.8462 684.018Z" fill="#E6E1C8"/>
<path d="M17.2097 677.345C17.194 676.714 16.67 676.215 16.0393 676.231C15.4087 676.247 14.9101 676.771 14.9259 677.402C14.9416 678.034 15.4656 678.532 16.0963 678.517C16.7269 678.501 17.2254 677.977 17.2097 677.345Z" fill="#38372F"/>
<path d="M17.5492 690.97C17.5335 690.339 17.0095 689.84 16.3788 689.856C15.7481 689.872 15.2496 690.396 15.2653 691.027C15.2811 691.659 15.8051 692.157 16.4357 692.142C17.0664 692.126 17.5649 691.602 17.5492 690.97Z" fill="#38372F"/>
<path d="M19.4704 679.763C19.4329 679.877 19.495 679.999 19.6081 680.035C21.2607 680.576 22.4174 682.066 22.5524 683.787L19.6818 683.859L16.9867 681.847L17.1016 686.46L19.7256 684.291L22.5646 684.22C22.5258 685.954 21.4436 687.512 19.8158 688.138C19.7046 688.182 19.6487 688.307 19.6918 688.418C19.7348 688.529 19.86 688.585 19.9712 688.542C21.8327 687.826 23.0494 686.003 22.9997 684.008C22.95 682.013 21.6411 680.248 19.7433 679.627C19.6301 679.59 19.5079 679.652 19.4704 679.765L19.4704 679.763Z" fill="#38372F"/>
</g>
<g clip-path="url(#clip5_2_2)">
<path d="M66.0211 603.361C70.711 603.593 74.4236 605.59 74.3232 607.621C74.2229 609.652 70.4594 608.685 65.7695 608.453C61.0796 608.221 57.2152 609.298 57.3155 607.267C57.4158 605.236 61.3311 603.131 66.021 603.363L66.0211 603.361Z" fill="#DF4942"/>
<path d="M64.4914 634.324C69.1813 634.555 73.0727 632.934 73.173 630.903C73.2733 628.872 69.4329 629.464 64.7429 629.232C60.053 629 56.3135 627.548 56.2132 629.579C56.1129 631.61 59.8015 634.092 64.4914 634.324Z" fill="#DF4942"/>
<path d="M78.9374 616.717L78.6421 622.694C78.3622 628.36 73.4895 632.722 67.7612 632.439L65.0336 632.305C57.6341 631.939 51.929 625.712 52.2905 618.395C52.6519 611.079 58.9431 605.444 66.3426 605.81L69.0702 605.945C74.8001 606.228 79.2173 611.051 78.9375 616.715L78.9374 616.717Z" fill="#2EAC94"/>
<path d="M62.1034 618.687C62.4693 611.28 57.3365 605.007 50.6389 604.676C43.9414 604.345 38.2152 610.082 37.8493 617.489C37.4833 624.896 42.6161 631.17 49.3137 631.5C56.0113 631.831 61.7374 626.095 62.1034 618.687Z" fill="#2EAC94"/>
<path d="M74.2746 619.289C74.5267 614.186 69.9451 609.813 64.0414 609.521C58.1377 609.23 53.1474 613.13 52.8953 618.232C52.6432 623.335 57.2248 627.708 63.1285 628C69.0322 628.291 74.0225 624.391 74.2746 619.289Z" fill="#E6E1C8"/>
<path d="M41.6572 612.479C41.5573 614.5 42.3352 616.374 43.6741 617.775C42.2036 619.038 41.2448 620.826 41.145 622.847C40.9438 626.92 44.3013 630.396 48.6462 630.61C52.9911 630.825 56.6749 627.697 56.8761 623.624C56.976 621.603 56.1981 619.73 54.8592 618.328C56.3297 617.065 57.2885 615.278 57.3883 613.256C57.5896 609.183 54.232 605.708 49.8871 605.493C45.5422 605.279 41.8584 608.406 41.6572 612.479Z" fill="#E6E1C8"/>
<path d="M43.7144 612.581C43.5945 615.006 45.1839 617.143 47.4859 617.964C45.1143 618.553 43.322 620.523 43.2021 622.949C43.0536 625.956 45.5332 628.523 48.7415 628.681C51.9499 628.84 54.6704 626.53 54.819 623.522C54.9388 621.097 53.3494 618.96 51.0475 618.14C53.4191 617.55 55.2114 615.58 55.3312 613.155C55.4798 610.147 53.0002 607.581 49.7918 607.422C46.5835 607.264 43.8629 609.573 43.7144 612.581Z" fill="#DF4942"/>
<path d="M52.3775 613.981C52.4546 612.419 51.2177 611.089 49.6146 611.01C48.0116 610.931 46.6495 612.133 46.5723 613.694C46.4952 615.256 47.7321 616.587 49.3352 616.666C50.9382 616.745 52.3003 615.543 52.3775 613.981Z" fill="#E6E1C8"/>
<path d="M51.961 622.41C52.0381 620.848 50.8012 619.518 49.1981 619.439C47.5951 619.36 46.233 620.562 46.1558 622.123C46.0787 623.685 47.3156 625.016 48.9187 625.095C50.5217 625.174 51.8838 623.972 51.961 622.41Z" fill="#E6E1C8"/>
<path d="M50.8276 614.66C50.8651 613.901 50.2732 613.255 49.5055 613.217C48.7378 613.179 48.0851 613.764 48.0476 614.523C48.0101 615.282 48.602 615.928 49.3697 615.966C50.1374 616.004 50.7901 615.419 50.8276 614.66Z" fill="#38372F"/>
<path d="M50.4855 621.584C50.523 620.825 49.9311 620.179 49.1635 620.141C48.3958 620.103 47.7431 620.687 47.7056 621.446C47.6681 622.205 48.26 622.852 49.0277 622.889C49.7953 622.927 50.448 622.343 50.4855 621.584Z" fill="#38372F"/>
<path d="M53.7378 616.01L56.2966 618.401L53.5146 620.527L50.9558 618.137L53.7378 616.01Z" fill="#38372F"/>
<path d="M62.9079 618.727L59.7196 619.988L59.8594 617.158L62.9079 618.727Z" fill="#2EAC94"/>
<path d="M63.1123 614.591L59.924 615.852L60.0637 613.022L63.1123 614.591Z" fill="#2EAC94"/>
<path d="M67.6221 616.807L64.4337 618.07L64.5736 615.239L67.6221 616.807Z" fill="#2EAC94"/>
<path d="M67.41 621.101L64.3615 619.532L64.2217 622.361L67.41 621.101Z" fill="#2EAC94"/>
<path d="M62.7037 622.862L59.6552 621.293L59.5154 624.122L62.7037 622.862Z" fill="#2EAC94"/>
</g>
<g clip-path="url(#clip6_2_2)">
<path d="M48.9436 575.719C48.9436 575.719 50.7228 575.559 52.9955 575.014C51.974 574.438 50.2818 573.482 49.2141 572.878L48.9436 575.719Z" fill="#38372F"/>
<path d="M74.376 554.262C74.3211 554.838 74.4763 555.382 74.7931 555.859C69.7085 556.039 64.4591 559.704 62.8339 564.756C62.7897 564.895 62.7514 565.033 62.7177 565.169L57.2802 566.463C57.5375 565.329 57.5912 564.081 57.183 562.872C55.9222 559.144 50.3962 557.578 50.3962 557.578L54.0375 567.28C53.2404 566.009 52.0247 564.618 50.2067 563.653C45.9981 561.416 40.2064 562.766 40.2064 562.766L53.5051 569.455L52.6746 578.179C53.7435 578.783 55.4338 579.739 56.4551 580.315C58.9981 579.705 61.6927 578.559 63.6705 576.667C64.43 575.94 65.367 574.529 65.7341 573.531L83.7343 576.114C83.7343 576.114 83.6822 576.46 84.1871 577.041C84.692 577.623 85.9845 577.276 85.9845 577.276L86.304 573.92L81.3066 572.531C82.3301 572.029 83.2569 571.425 84.0554 570.739C84.0884 571.137 84.1493 571.46 84.248 571.666C84.6157 572.431 86.4317 572.579 86.4317 572.579L87.2019 564.489L87.1811 564.491C87.3747 559.926 85.2125 557.716 81.8517 556.683C82.6833 556.115 83.2371 555.33 83.3205 554.453C83.4915 552.657 81.6282 551.159 79.1585 551.106C76.6889 551.053 74.5484 552.467 74.3774 554.262L74.376 554.262Z" fill="#E6E1C8"/>
<path d="M53.6112 567.337C52.9996 567.216 52.3497 567.485 52.1596 567.937C51.9694 568.389 52.3111 568.854 52.9227 568.975C53.5343 569.096 54.1843 568.827 54.3744 568.374C54.5645 567.922 54.2228 567.457 53.6112 567.337Z" fill="#38372F"/>
<path d="M57.4226 573.269C57.4144 573.356 57.3146 573.425 57.1962 573.427C57.0733 573.429 56.9767 573.357 56.9793 573.267C56.9907 572.899 56.9365 572.692 56.8533 572.494C56.7833 572.329 56.6676 572.054 56.4685 571.847C56.2627 571.633 55.9909 571.46 55.6613 571.335C55.5544 571.294 55.5164 571.197 55.5772 571.117C55.638 571.037 55.7726 571.005 55.8795 571.046C56.2689 571.195 56.591 571.399 56.8358 571.654C57.0725 571.9 57.2064 572.217 57.2789 572.388C57.3621 572.584 57.4367 572.826 57.4248 573.262C57.4246 573.264 57.4243 573.267 57.4241 573.269L57.4226 573.269Z" fill="#38372F"/>
</g>
<g clip-path="url(#clip7_2_2)">
<path d="M27.1506 497.049C27.0526 497.303 27.1796 497.588 27.4345 497.686L27.4394 497.686C27.9431 497.881 28.4396 498.084 28.9251 498.305C29.4091 498.528 29.8854 498.763 30.3492 499.018C31.2755 499.53 32.1562 500.107 32.9779 500.749C33.8592 501.439 34.678 502.201 35.384 503.032C35.3759 503.037 35.3704 503.041 35.3623 503.046C35.1461 503.179 34.8714 503.304 34.5706 503.421C33.9807 503.659 33.3665 503.846 32.738 503.989C32.1104 504.135 31.4666 504.223 30.8158 504.269C30.1653 504.313 29.5092 504.304 28.8542 504.247L28.8469 504.246C28.6045 504.225 28.3786 504.385 28.3252 504.629C28.2668 504.893 28.434 505.154 28.6987 505.214C29.3921 505.368 30.0991 505.473 30.8148 505.52C31.5295 505.564 32.2515 505.561 32.972 505.493C33.6922 505.427 34.4115 505.309 35.1204 505.128C35.4705 505.042 35.8402 504.939 36.2359 504.767C36.333 504.724 36.4331 504.676 36.5328 504.622C36.6726 504.856 36.8043 505.095 36.9244 505.337C37.1415 505.78 37.3256 506.229 37.467 506.692C37.6059 507.157 37.7138 507.63 37.7716 508.109C37.8936 509.064 37.8393 510.034 37.5788 510.94C37.0686 512.727 35.6393 514.355 33.7084 514.927L33.6801 514.936C33.464 514.999 33.3139 515.206 33.3298 515.44C33.3486 515.71 33.5838 515.914 33.8548 515.895C34.0059 515.885 34.1594 515.875 34.3114 515.857C34.4619 515.832 34.6155 515.812 34.7657 515.779C34.9131 515.74 35.0657 515.708 35.2117 515.66C35.3568 515.609 35.5081 515.568 35.6496 515.507C36.2255 515.281 36.7639 514.961 37.2525 514.576C38.2258 513.806 38.9972 512.756 39.4445 511.569C39.5334 511.338 39.6094 511.101 39.6747 510.861C39.8558 510.906 40.0348 510.969 40.2106 511.045C40.6715 511.246 41.1004 511.552 41.4428 511.944L41.4515 511.953C41.6018 512.124 41.8552 512.175 42.063 512.06C42.3013 511.929 42.3866 511.629 42.2546 511.392C41.9284 510.806 41.4619 510.29 40.9006 509.887C40.6036 509.672 40.2778 509.49 39.931 509.346C39.9672 508.859 39.9639 508.37 39.9192 507.886C39.8075 506.656 39.4466 505.448 38.8945 504.361C38.6198 503.817 38.3047 503.298 37.9509 502.812C37.5998 502.323 37.2152 501.863 36.8043 501.436C35.9857 500.576 35.0646 499.839 34.0957 499.196C33.1197 498.56 32.0825 498.026 31.0056 497.608C30.4663 497.401 29.9186 497.222 29.3613 497.078C28.8056 496.932 28.2437 496.815 27.678 496.738C27.4564 496.708 27.234 496.831 27.1506 497.049Z" fill="#38372F"/>
<path d="M60.1977 481.192L60.225 481.114L60.1827 481.174C60.1923 481.187 60.1988 481.194 60.1988 481.194L60.1977 481.192Z" fill="#DF4942"/>
<path d="M57.685 475.836C55.4257 474.159 52.243 476.985 52.243 476.985L52.2475 476.988C53.0181 477.003 54.9981 477.055 55.5999 477.238C56.6509 477.557 58.2667 478.622 58.8454 479.248C59.3477 479.793 60.1105 481.014 60.2099 481.176L60.2449 481.115L60.3549 480.738C60.2431 480.081 59.6674 477.306 57.6852 475.834L57.685 475.836Z" fill="#E6E1C8"/>
<path d="M39.8555 513.558C40.237 510.567 41.5034 509.411 44.397 508.26C47.2906 507.108 53.0509 505.006 53.991 504.012C54.9312 503.017 56.4011 500.265 56.6682 498.171L58.7412 481.918C58.932 480.422 62.1562 476.678 67.5605 477.368C72.9648 478.057 74.9363 480.942 74.6818 482.937L71.7781 505.704C71.4769 508.066 69.9689 511.115 67.1643 511.569C64.3599 512.022 51.8651 515.089 51.8651 515.089L47.2914 524.639L42.0691 524.91L42.2456 519.538C42.2456 519.538 39.4994 516.35 39.8555 513.558Z" fill="#E6E1C8"/>
<path d="M58.7412 481.918L56.6682 498.171C56.4011 500.265 54.9312 503.017 53.991 504.012C53.0509 505.006 47.2892 507.109 44.397 508.26C41.5034 509.411 40.237 510.567 39.8555 513.558C39.4994 516.35 42.2456 519.538 42.2456 519.538L42.0691 524.91L43.3937 524.841L44.2909 517.807C44.2909 517.807 42.4063 516.501 42.6405 514.665C42.8747 512.829 43.8422 511.532 45.1492 511.077C46.455 510.622 56.5332 507.11 58.851 505.718C61.1593 504.331 64.8288 502.027 65.8532 499.275C65.8532 499.275 67.1551 495.958 67.3519 493.183C67.7145 490.475 67.7513 489.022 67.2668 487.162C66.7824 485.303 65.8543 484 64.2328 482.728C63.1708 481.893 60.9226 480.964 59.4216 480.504C59.0195 481.046 58.7869 481.55 58.7398 481.919L58.7412 481.918Z" fill="#DF4942"/>
<path d="M42.0691 524.91L45.1943 524.748L42.1724 521.8L42.0691 524.91Z" fill="#38372F"/>
<path d="M45.7689 515.768C45.8369 515.236 45.4584 514.748 44.9236 514.68C44.3888 514.612 43.9002 514.989 43.8323 515.521C43.7643 516.054 44.1428 516.541 44.6775 516.61C45.2123 516.678 45.701 516.301 45.7689 515.768Z" fill="#38372F"/>
<path d="M48.5675 521.99C48.5384 521.015 48.1848 520.061 47.5793 519.296C47.4321 519.11 47.1411 519.335 47.2883 519.52C47.8585 520.241 48.1765 521.125 48.2031 522.043C48.2064 522.143 48.3216 522.211 48.4122 522.199C48.5205 522.184 48.571 522.089 48.5687 521.99L48.5675 521.99Z" fill="#38372F"/>
<path d="M43.7792 510.706C43.7792 510.706 41.7368 508.348 41.6829 506.451C41.6279 504.553 44.6693 502.223 44.6693 502.223C44.6693 502.223 45.981 504.459 45.9675 506.495C45.9553 508.532 43.7792 510.706 43.7792 510.706Z" fill="#DF4942"/>
<path d="M44.1056 508.41C44.1056 508.41 43.1745 507.334 43.1499 506.469C43.1254 505.604 44.5123 504.541 44.5123 504.541C44.5123 504.541 45.1101 505.561 45.1043 506.49C45.0984 507.419 44.1066 508.411 44.1066 508.411L44.1056 508.41Z" fill="#E6E1C8"/>
<path d="M60.2954 496.363C60.2936 496.378 60.2905 496.392 60.2836 496.407L58.9021 499.941C58.8654 500.035 58.7579 500.081 58.6636 500.045C58.5692 500.008 58.5221 499.902 58.559 499.807L59.9405 496.274C59.9772 496.18 60.0847 496.133 60.179 496.17C60.2592 496.201 60.3058 496.282 60.2954 496.363Z" fill="#E6E1C8"/>
<path d="M63.7306 496.536C63.7282 496.555 63.7235 496.572 63.7149 496.591L61.9159 500.447C61.8733 500.539 61.7643 500.578 61.6719 500.536C61.5796 500.493 61.539 500.384 61.5829 500.292L63.3819 496.436C63.4245 496.344 63.5335 496.305 63.6259 496.348C63.7007 496.382 63.7403 496.46 63.7304 496.538L63.7306 496.536Z" fill="#E6E1C8"/>
<path d="M60.6274 490.111C60.626 490.122 60.6248 490.132 60.6209 490.143L59.5006 493.754C59.4709 493.851 59.3675 493.904 59.2698 493.875C59.1721 493.845 59.1184 493.742 59.1481 493.644L60.2684 490.033C60.2982 489.936 60.4015 489.883 60.4993 489.912C60.5862 489.94 60.6385 490.024 60.6274 490.111Z" fill="#E6E1C8"/>
<path d="M63.2485 489.718C63.2472 489.728 63.2462 489.736 63.2425 489.746L62.0922 493.728C62.0636 493.825 61.9624 493.881 61.8645 493.853C61.7667 493.824 61.7104 493.722 61.7388 493.626L62.8891 489.644C62.9176 489.546 63.0188 489.49 63.1167 489.519C63.205 489.545 63.2598 489.63 63.2485 489.718Z" fill="#E6E1C8"/>
<path d="M65.3002 490.664C65.2991 490.673 65.2982 490.68 65.2959 490.688L64.5241 493.615C64.498 493.713 64.3976 493.772 64.2995 493.745C64.2013 493.719 64.1424 493.618 64.1683 493.522L64.9402 490.595C64.9663 490.497 65.0666 490.438 65.1648 490.465C65.2546 490.488 65.3117 490.574 65.3001 490.666L65.3002 490.664Z" fill="#E6E1C8"/>
<path d="M59.9471 487.729L60.5881 485.139" stroke="#E6E1C8" stroke-width="3" stroke-miterlimit="10" stroke-linecap="round"/>
<path d="M63.6067 485.347C63.6049 485.361 63.6016 485.377 63.5949 485.391L62.6469 487.787C62.6089 487.881 62.5027 487.927 62.4085 487.89C62.3143 487.852 62.2672 487.746 62.3051 487.652L63.2531 485.256C63.2899 485.162 63.3973 485.115 63.4915 485.153C63.5717 485.184 63.6171 485.265 63.6067 485.347Z" fill="#E6E1C8"/>
<path d="M60.3894 480.884C60.3894 480.884 60.3787 480.832 60.3545 480.74L60.2239 481.114L60.3893 480.885L60.3894 480.884Z" fill="#DF4942"/>
<path d="M55.5997 477.239C54.9979 477.057 53.0179 477.004 52.2474 476.989L59.5949 482.261L60.2097 481.177C60.1091 481.015 59.3476 479.794 58.8452 479.249C58.2667 478.622 56.6509 477.557 55.5997 477.239Z" fill="#DF4942"/>
<path d="M73.8055 480.113L73.2174 484.724L87.8043 486.584L88.3924 481.973L73.8055 480.113Z" fill="#E6E1C8"/>
<path d="M88.3912 481.973L87.8031 486.584L91.9127 487.108L92.5008 482.497L88.3912 481.973Z" fill="#38372F"/>
<path d="M73.0896 485.726L72.5015 490.337L87.0884 492.198L87.6765 487.586L73.0896 485.726Z" fill="#E6E1C8"/>
<path d="M87.6753 487.586L87.0872 492.198L91.1967 492.722L91.7849 488.111L87.6753 487.586Z" fill="#38372F"/>
<path d="M70.9704 502.341L70.3823 506.952L84.9692 508.812L85.5574 504.201L70.9704 502.341Z" fill="#E6E1C8"/>
<path d="M85.5561 504.201L84.968 508.812L89.0776 509.336L89.6657 504.725L85.5561 504.201Z" fill="#38372F"/>
<path d="M73.3392 514.243L71.4043 507.082L66.8997 508.287L69.492 517.883C69.6609 518.51 70.0862 519.038 70.6629 519.339C71.2396 519.641 71.9169 519.688 72.5302 519.47L78.8838 517.21C78.5052 516.092 77.698 513.765 77.3678 512.811L73.339 514.245L73.3392 514.243Z" fill="#E6E1C8"/>
<path d="M81.3356 511.399L77.3691 512.81C77.6993 513.764 78.5065 516.091 78.8851 517.209L82.9087 515.777L81.3356 511.399Z" fill="#38372F"/>
</g>
<g clip-path="url(#clip8_2_2)">
<path d="M44.7893 428.786L44.5873 430.745L100.75 434.542L100.952 432.584L44.7893 428.786Z" fill="#38372F"/>
<path d="M16.8225 427.886L40.1215 442.55L42.8039 416.549L16.8225 427.886Z" fill="#DF4942"/>
<path d="M34.2454 429.064L56.989 449.111L60.782 412.344L34.2454 429.064Z" fill="#2EAC94"/>
<path d="M50.948 430.193L76.3319 456.23L81.3156 407.922L50.948 430.193Z" fill="#DF4942"/>
</g>
<path d="M86.8556 379.668C89.0431 368.797 74.7302 357.579 54.887 354.612C35.0438 351.646 17.1844 358.054 14.997 368.926C12.8095 379.797 27.1224 391.015 46.9656 393.982C66.8088 396.948 84.6682 390.54 86.8556 379.668Z" fill="#2EAC94"/>
<path d="M57.6451 363.593C57.3319 363.951 57.3923 364.468 57.7821 364.747C58.983 365.609 60.0103 366.588 60.8403 367.658C61.771 368.864 62.4326 370.153 62.8021 371.496C63.1672 372.824 63.0885 374.45 62.995 375.369L44.9097 372.665C44.9687 371.845 44.9819 370.363 44.459 369.074C43.9611 367.843 43.1404 366.654 42.0153 365.543C41.0428 364.582 39.8548 363.692 38.4924 362.907C38.0764 362.667 37.5156 362.784 37.2446 363.168C36.9736 363.552 37.0905 364.061 37.5065 364.3C38.741 365.013 39.8092 365.808 40.6774 366.67C41.6435 367.627 42.3471 368.635 42.7645 369.667C43.1347 370.588 43.1576 371.691 43.1214 372.398L30.1313 370.456C29.6417 370.383 29.1711 370.687 29.081 371.135C28.9909 371.583 29.3151 372.006 29.8048 372.079L50.6258 375.192C50.3709 375.859 49.9425 376.771 49.2951 377.463C48.499 378.314 47.4456 379.062 46.1593 379.679C45.0056 380.236 43.6887 380.677 42.2478 380.99C41.7626 381.095 41.4537 381.54 41.5588 381.98C41.664 382.421 42.1457 382.697 42.6316 382.589C44.2248 382.245 45.6868 381.755 46.9787 381.129C48.4721 380.409 49.7094 379.528 50.6592 378.513C51.5763 377.534 52.1305 376.269 52.4183 375.456L70.5107 378.161C70.221 379.074 69.6801 380.491 68.877 381.558C68.0046 382.714 66.8815 383.737 65.5307 384.601C64.3346 385.369 62.9811 385.992 61.5138 386.455C61.0413 386.605 60.7824 387.074 60.934 387.501C61.0892 387.929 61.5991 388.156 62.0709 388.009C63.7016 387.497 65.2054 386.799 66.5436 385.943C68.0751 384.962 69.355 383.796 70.352 382.474C71.349 381.152 71.9749 379.44 72.287 378.433L106.464 383.543C106.953 383.616 107.424 383.312 107.514 382.864C107.604 382.416 107.28 381.993 106.79 381.92L64.7684 375.638C64.7684 375.638 64.771 375.625 64.7723 375.618C64.8786 374.618 64.9955 372.693 64.5476 371.068C64.1253 369.534 63.3763 368.061 62.3169 366.696C61.392 365.497 60.2446 364.407 58.9126 363.452C58.5263 363.173 57.9576 363.239 57.6438 363.6L57.6451 363.593Z" fill="#38372F"/>
</g>
<defs>
<filter id="filter0_dd_2_2" x="-0.00012207" y="0" width="298.824" height="1374" filterUnits="userSpaceOnUse" color-interpolation-filters="sRGB">
<feFlood flood-opacity="0" result="BackgroundImageFix"/>
<feColorMatrix in="SourceAlpha" type="matrix" values="0 0 0 0 0 0 0 0 0 0 0 0 0 0 0 0 0 0 127 0" result="hardAlpha"/>
<feOffset dy="4"/>
<feGaussianBlur stdDeviation="2"/>
<feComposite in2="hardAlpha" operator="out"/>
<feColorMatrix type="matrix" values="0 0 0 0 0 0 0 0 0 0 0 0 0 0 0 0 0 0 0.25 0"/>
<feBlend mode="normal" in2="BackgroundImageFix" result="effect1_dropShadow_2_2"/>
<feColorMatrix in="SourceAlpha" type="matrix" values="0 0 0 0 0 0 0 0 0 0 0 0 0 0 0 0 0 0 127 0" result="hardAlpha"/>
<feOffset dy="4"/>
<feGaussianBlur stdDeviation="2"/>
<feComposite in2="hardAlpha" operator="out"/>
<feColorMatrix type="matrix" values="0 0 0 0 0 0 0 0 0 0 0 0 0 0 0 0 0 0 0.25 0"/>
<feBlend mode="normal" in2="effect1_dropShadow_2_2" result="effect2_dropShadow_2_2"/>
<feBlend mode="normal" in="SourceGraphic" in2="effect2_dropShadow_2_2" result="shape"/>
</filter>
<clipPath id="clip0_2_2">
<rect width="48.3884" height="84.4752" fill="white" transform="matrix(-0.139072 -0.990282 0.991064 -0.133385 28.027 1005.92)"/>
</clipPath>
<clipPath id="clip1_2_2">
<rect width="77" height="73" fill="white" transform="translate(29.0265 943.693) rotate(-97.0972)"/>
</clipPath>
<clipPath id="clip2_2_2">
<rect width="44" height="44" fill="white" transform="translate(46.0344 840.085) rotate(-95.6018)"/>
</clipPath>
<clipPath id="clip3_2_2">
<rect width="40" height="31" fill="white" transform="translate(51.8937 764.982) rotate(-93.8318)"/>
</clipPath>
<clipPath id="clip4_2_2">
<rect width="44" height="74" fill="white" transform="translate(5.09583 706.406) rotate(-91.4272)"/>
</clipPath>
<clipPath id="clip5_2_2">
<rect width="31" height="41" fill="white" transform="translate(37.0845 632.969) rotate(-87.1716)"/>
</clipPath>
<clipPath id="clip6_2_2">
<rect width="30.5596" height="47.0748" fill="white" transform="matrix(0.0947765 -0.995499 0.999773 0.0213065 35.0363 575.422)"/>
</clipPath>
<clipPath id="clip7_2_2">
<rect width="51" height="63" fill="white" transform="translate(23.8781 522.59) rotate(-82.7315)"/>
</clipPath>
<clipPath id="clip8_2_2">
<rect width="48.5647" height="84.2197" fill="white" transform="matrix(0.102619 -0.994721 0.997722 0.0674562 14.3309 452.038)"/>
</clipPath>
</defs>
</svg>
