<svg width="375" height="182" viewBox="0 0 375 182" fill="none" xmlns="http://www.w3.org/2000/svg">
<path d="M0 181.5L375 181.5V92.203C332.914 75.6101 238.471 55 193.221 55C147.972 55 45.2063 74.0381 0 92.203V181.5Z" fill="#1C6EB8"/>
<path d="M34.3413 69.7032C42.274 67.345 46.6385 53.3234 44.0897 38.3849C41.5408 23.4465 33.0438 13.2482 25.1111 15.6064C17.1783 17.9645 12.8138 31.9862 15.3627 46.9246C17.9115 61.863 26.4085 72.0614 34.3413 69.7032Z" fill="#2EAC94"/>
<path d="M38.589 43.5255C38.2723 43.4344 37.9329 43.6616 37.8322 44.034C37.5204 45.182 37.0881 46.2507 36.5483 47.2139C35.9391 48.2959 35.2108 49.2197 34.3788 49.9582C33.5554 50.6886 32.4259 51.2152 31.7766 51.4784L29.4535 37.8633C30.0276 37.6113 31.0436 37.0903 31.8034 36.2639C32.5298 35.4753 33.1531 34.4761 33.6528 33.2919C34.0852 32.268 34.4192 31.1191 34.6417 29.8853C34.7093 29.5088 34.5002 29.1584 34.1753 29.1062C33.8504 29.054 33.5296 29.3178 33.462 29.6944C33.2596 30.8126 32.9628 31.8439 32.574 32.7594C32.143 33.7772 31.6166 34.6298 31.0077 35.2907C30.4636 35.879 29.715 36.2896 29.2238 36.5171L27.5552 26.7379C27.4923 26.3692 27.176 26.1489 26.8492 26.2461C26.5224 26.3432 26.3082 26.7212 26.3711 27.0899L29.0455 42.7644C28.5308 42.8248 27.8087 42.8514 27.1865 42.6462C26.4217 42.3936 25.6674 41.9246 24.9493 41.2455C24.3031 40.6377 23.6977 39.8747 23.1517 38.9789C22.9683 38.677 22.5928 38.6202 22.3162 38.8512C22.0395 39.0821 21.9621 39.5177 22.1478 39.819C22.75 40.8104 23.4221 41.6575 24.1477 42.3371C24.9837 43.1242 25.8713 43.6743 26.7837 43.9756C27.6645 44.2667 28.6563 44.202 29.2781 44.1126L31.602 57.733C30.9115 57.8569 29.8186 57.9853 28.9045 57.8051C27.913 57.6087 26.9555 57.1889 26.0532 56.5533C25.2531 55.9913 24.515 55.2677 23.8605 54.4069C23.6491 54.1302 23.2686 54.117 23.0117 54.3758C22.7552 54.6373 22.7179 55.075 22.927 55.3524C23.6527 56.3099 24.4763 57.1119 25.3701 57.7416C26.3938 58.4617 27.4856 58.9398 28.6188 59.1643C29.752 59.3888 31.066 59.2143 31.8256 59.0726L36.2156 84.8015C36.2785 85.1701 36.5948 85.3904 36.9216 85.2933C37.2484 85.1961 37.4626 84.8181 37.3997 84.4495L32.0021 52.8147C32.0021 52.8147 32.0115 52.8118 32.0163 52.8104C32.7244 52.527 34.0666 51.9203 35.0736 51.0259C36.0245 50.1819 36.858 49.1314 37.5466 47.9023C38.152 46.827 38.6328 45.6344 38.9779 44.3614C39.0791 43.9917 38.9033 43.6174 38.5842 43.527L38.589 43.5255Z" fill="#38372F"/>
<g clip-path="url(#clip0_35_5)">
<path d="M70.048 39.447L68.6108 39.697L72.5565 76.0089L73.9936 75.7589L70.048 39.447Z" fill="#38372F"/>
<path d="M67.3681 21.5564L59.5597 39.1467L78.6421 35.8274L67.3681 21.5564Z" fill="#DF4942"/>
<path d="M68.5923 32.8212L56.8333 51.0986L83.8168 46.4049L68.5923 32.8212Z" fill="#2EAC94"/>
<path d="M69.7657 43.6201L53.9989 64.7263L89.4527 58.5592L69.7657 43.6201Z" fill="#DF4942"/>
</g>
<g clip-path="url(#clip1_35_5)">
<path d="M147.129 54.4828L142.425 40.6695C142.425 40.6695 142.976 37.896 142.906 36.1589C142.837 34.4216 142.229 33.6189 142.229 33.6189L144.228 33.9964L142.179 30.081L144.523 30.173L142.457 26.1502L144.274 26.2814L142.022 21.9968L144.258 9.17036C144.258 9.17036 143.174 9.47023 142.511 9.95584C141.848 10.4415 140.546 12.2645 140.546 12.2645L140.165 6.14098L136.713 5.28824C136.713 5.28824 136.63 8.97377 135.788 10.9238C135.524 11.5347 134.193 11.948 133.2 12.6463C132.154 13.3812 131.449 16.9319 131.157 19.4886C130.865 22.0452 130.836 25.0462 127.569 27.8302C124.302 30.6143 115.318 29.6229 110.583 30.4059C109.952 30.5097 109.395 30.6646 108.902 30.8601C107.878 30.3957 106.557 30.0036 105.377 30.2964C103.028 30.8804 100.141 33.4414 100.141 33.4414L101.008 33.8414C101.008 33.8414 99.6481 34.609 98.5389 35.4212C97.5338 36.1566 96.0685 38.2309 96.0685 38.2309L97.1901 38.5964C97.1901 38.5964 95.5101 39.6226 94.2956 41.6087C93.5754 42.7863 92.5678 45.2834 92.5678 45.2834L93.7592 45.1027C93.7592 45.1027 93.1949 46.4018 92.9613 47.8785C92.7276 49.3552 93.1209 51.949 93.1209 51.949C93.1209 51.949 95.1045 50.9662 95.684 50.2709C96.2635 49.5756 97.2793 48.7396 97.2793 48.7396L97.4704 50C97.4704 50 99.4648 48.3255 100.003 47.5348C100.913 46.1954 101.293 44.5678 101.293 44.5678L101.637 46.3351C101.637 46.3351 103.278 44.9596 104.043 43.6193C104.333 43.1102 104.821 42.1522 105.376 41.0417C105.892 43.1057 106.821 44.8021 106.744 46.0828C106.634 47.9203 105.344 62.4515 105.344 62.4515L107.192 64.3948L117.015 62.9053C117.015 62.9053 117.102 61.7206 116.378 60.8189C116.068 60.4334 115.452 60.0373 114.791 59.7892L117.084 50.2325C117.084 50.2325 119.749 49.248 121.118 48.0263C122.486 46.8033 123.501 45.177 123.501 45.177C123.501 45.177 126.218 45.1744 128.007 45.4495C129.796 45.7247 133.588 45.1198 133.588 45.1198L140.311 59.3714L150.397 57.8419C150.397 57.8419 150.485 56.6572 149.761 55.7555C149.288 55.167 148.101 54.555 147.131 54.4839L147.129 54.4828Z" fill="#E6E1C8"/>
<path d="M130.838 17.5262C128.903 18.1722 127.001 20.7926 127.001 20.7926L131.913 21.4117L132.479 17.2773C132.479 17.2773 132.125 17.0965 130.838 17.5262Z" fill="#2EAC94"/>
<path d="M137.496 12.5371C137.737 11.6911 138.195 9.249 138.362 5.69427L136.713 5.28682C136.713 5.28682 136.63 8.97235 135.787 10.9224C135.523 11.5333 134.193 11.9465 133.2 12.6449C132.154 13.3797 131.449 16.9305 131.157 19.4872C130.865 22.0438 130.835 25.0448 127.569 27.8288C124.302 30.6129 115.318 29.6214 110.583 30.4045C109.961 30.5069 109.411 30.6595 108.922 30.8501C109.746 32.2221 110.935 34.039 112.029 35.1002C114.186 37.1906 116.61 38.3063 121.72 38.3639C126.83 38.4216 133.502 35.3191 134.444 30.2152C135.236 25.9191 134.83 18.1045 135.37 15.6078C135.912 13.1108 137.225 13.4948 137.498 12.5369L137.496 12.5371Z" fill="#2EAC94"/>
<path d="M136.62 15.0752C136.699 15.5934 136.34 16.0762 135.821 16.155C135.302 16.2337 134.816 15.8775 134.738 15.3606C134.659 14.8437 135.018 14.3596 135.537 14.2809C136.056 14.2022 136.542 14.5583 136.62 15.0752Z" fill="#38372F"/>
<path d="M146.458 58.4202C146.36 58.4351 146.264 58.3765 146.235 58.2791C146.063 57.7005 145.833 57.0832 145.111 56.4713C144.688 56.1125 143.483 55.5373 143.471 55.531L143.418 55.5065L143.387 55.4569C143.289 55.3023 141.002 51.5409 141.969 41.0124C141.98 40.9023 142.078 40.8211 142.188 40.8301C142.299 40.8404 142.381 40.9377 142.371 41.0491C141.473 50.8214 143.444 54.7324 143.701 55.1965C143.953 55.3182 144.959 55.8165 145.371 56.1661C146.176 56.8494 146.439 57.5567 146.62 58.1652C146.651 58.2717 146.59 58.3839 146.483 58.415C146.474 58.4164 146.465 58.4192 146.456 58.4206L146.458 58.4202Z" fill="#D6AD49"/>
<path d="M112.987 63.4727L112.983 63.4733C112.872 63.4874 112.77 63.4106 112.756 63.3002C112.704 62.8987 112.581 62.6001 112.062 62.0863C111.339 61.3728 110.368 61.3249 110.358 61.3236L110.107 61.3128L110.171 61.0713L113.511 48.5018L113.616 48.4682C113.638 48.4608 115.869 47.7293 117.083 46.691C118.36 45.5986 119.001 43.9298 119.007 43.9127C119.046 43.8092 119.163 43.7562 119.267 43.7947C119.371 43.8331 119.424 43.9498 119.385 44.0533C119.358 44.1252 118.703 45.8326 117.346 46.9956C116.212 47.9675 114.316 48.6537 113.846 48.8144L110.622 60.9473C111.001 61.0079 111.74 61.1981 112.348 61.7989C112.874 62.3183 113.086 62.697 113.159 63.2445C113.173 63.3536 113.098 63.4531 112.989 63.4696L112.987 63.4727Z" fill="#D6AD49"/>
<path d="M122.318 31.4451C122.318 31.4451 122.306 31.4469 122.301 31.4477L118.839 31.6703C118.727 31.6778 118.631 31.5933 118.626 31.483C118.618 31.3716 118.703 31.276 118.814 31.2701L122.276 31.0475C122.388 31.04 122.484 31.1245 122.489 31.2348C122.496 31.3396 122.421 31.4309 122.319 31.4464L122.318 31.4451Z" fill="#E6E1C8"/>
<path d="M123.178 33.6128L118.949 34.2541C118.839 34.2708 118.736 34.1955 118.719 34.0855C118.703 33.9755 118.778 33.8732 118.889 33.8564L123.118 33.2152C123.228 33.1984 123.331 33.2737 123.348 33.3837C123.364 33.4937 123.289 33.596 123.178 33.6128Z" fill="#E6E1C8"/>
<path d="M123.167 36.0321C123.167 36.0321 123.163 36.0327 123.16 36.0331L120.402 36.3619C120.291 36.3747 120.19 36.2963 120.178 36.1857C120.165 36.0751 120.243 35.9697 120.355 35.9623L123.113 35.6335C123.224 35.6207 123.324 35.6991 123.337 35.8097C123.349 35.9176 123.274 36.0158 123.167 36.0321Z" fill="#E6E1C8"/>
<path d="M124.887 31.8678C124.787 31.8829 124.691 31.8229 124.662 31.7242C124.632 31.6176 124.695 31.5064 124.802 31.4766L127.568 30.6979C127.676 30.6679 127.787 30.7298 127.816 30.8365C127.846 30.9431 127.784 31.0542 127.677 31.0841L124.911 31.8628C124.903 31.864 124.894 31.8668 124.886 31.868L124.887 31.8678Z" fill="#E6E1C8"/>
<path d="M125.255 34.2931C125.155 34.3083 125.059 34.2483 125.03 34.1496C125 34.0429 125.062 33.9318 125.169 33.9007L128.085 33.0775C128.192 33.0477 128.304 33.1094 128.335 33.2159C128.365 33.3226 128.303 33.4337 128.196 33.4648L125.28 34.288C125.272 34.2892 125.263 34.2919 125.255 34.2931Z" fill="#E6E1C8"/>
<path d="M115.693 32.2979C115.679 32.3001 115.665 32.3008 115.65 32.3003L113.197 32.1436C113.085 32.136 113.002 32.0403 113.008 31.9295C113.016 31.8185 113.112 31.7348 113.223 31.741L115.676 31.8978C115.788 31.9053 115.872 32.001 115.864 32.112C115.858 32.2078 115.785 32.2839 115.693 32.2979Z" fill="#E6E1C8"/>
<path d="M116.827 35.2756C116.808 35.2784 116.788 35.2788 116.769 35.2763L114.365 34.9412C114.255 34.9254 114.177 34.8247 114.193 34.7138C114.209 34.6042 114.31 34.5265 114.421 34.5422L116.825 34.8773C116.935 34.8931 117.013 34.9938 116.997 35.1047C116.985 35.1947 116.914 35.2625 116.827 35.2756Z" fill="#E6E1C8"/>
<path d="M136.479 8.0801L136.711 5.28698L139.341 5.93626L136.479 8.0801Z" fill="#38372F"/>
</g>
<g clip-path="url(#clip2_35_5)">
<path d="M197.671 3.42945C197.743 2.45019 198.299 0.933408 199.575 0.625793C201.176 0.240476 202.457 2.10745 202.514 2.19474C203.471 3.63169 202.97 5.20276 202.915 5.36562C202.875 5.48164 202.214 7.36565 200.877 7.53489C199.308 7.73393 197.521 5.47738 197.67 3.42945H197.671Z" fill="#DF4942"/>
<path d="M199.442 5.86595C198.864 5.2603 198.934 4.43645 198.941 4.36407C199.015 3.63814 199.544 2.6972 200.277 2.69507C201.032 2.69294 201.48 3.68817 201.513 3.76268C201.562 3.87444 201.849 4.56844 201.513 5.29756C201.304 5.751 200.787 6.3609 200.177 6.29917C199.822 6.26298 199.585 6.01497 199.442 5.86489V5.86595Z" fill="#E6E1C8"/>
<path d="M186.324 3.42945C186.253 2.45019 185.697 0.933408 184.42 0.625793C182.819 0.240476 181.539 2.10745 181.481 2.19474C180.525 3.63169 181.025 5.20276 181.081 5.36562C181.12 5.48164 181.782 7.36565 183.119 7.53489C184.688 7.73393 186.474 5.47738 186.325 3.42945H186.324Z" fill="#DF4942"/>
<path d="M184.554 5.86595C185.132 5.2603 185.062 4.43645 185.054 4.36407C184.981 3.63814 184.451 2.6972 183.718 2.69507C182.963 2.69294 182.516 3.68817 182.483 3.76268C182.434 3.87444 182.146 4.56844 182.483 5.29756C182.691 5.751 183.208 6.3609 183.818 6.29917C184.173 6.26298 184.411 6.01497 184.554 5.86489V5.86595Z" fill="#E6E1C8"/>
<path d="M206.966 30.5166C205.188 23.2254 204.759 22.3675 204.084 20.2227C203.513 18.4068 201.815 15.2593 201.815 15.2593C201.815 15.2593 202.38 12.9379 202.266 10.9197C202.2 9.7457 202.053 7.58707 200.686 5.35713C200.173 4.51944 198.818 2.57902 196.247 1.37304C194.531 0.568343 192.967 0.416132 192.046 0.396973C191.124 0.416132 189.56 0.568343 187.844 1.3741C185.274 2.58008 183.919 4.5205 183.405 5.35819C182.038 7.58814 181.891 9.74676 181.825 10.9208C181.711 12.9389 182.276 15.2604 182.276 15.2604C182.276 15.2604 180.578 18.4079 180.007 20.2238C179.333 22.3686 178.903 23.2265 177.125 30.5177C175.67 36.4837 175.581 38.438 175.957 41.5918C176.267 44.189 177.018 46.0049 177.537 47.23C178.907 50.469 180.25 51.5547 180.696 51.8911C180.778 51.9528 180.863 52.0167 180.952 52.0805C180.333 52.3732 179.91 52.7309 179.761 53.0193C179.454 53.6165 179.393 55.1482 179.393 55.1482H187.025V50.6936C187.364 50.0635 187.367 49.5877 188.145 48.883C188.99 48.1167 189.96 47.7973 190.326 47.6802C191.011 47.462 191.614 47.3961 192.046 47.3801C192.476 47.3971 193.08 47.462 193.765 47.6802C194.131 47.7973 195.101 48.1167 195.947 48.883C196.724 49.5877 196.727 50.0635 197.066 50.6936V55.1482H204.698C204.698 55.1482 204.636 53.6165 204.33 53.0193C204.182 52.7298 203.759 52.3722 203.139 52.0805C203.228 52.0167 203.313 51.9528 203.395 51.8911C203.841 51.5558 205.185 50.469 206.555 47.23C207.073 46.0049 207.825 44.189 208.134 41.5918C208.51 38.438 208.421 36.4837 206.966 30.5177V30.5166Z" fill="#DF4942"/>
<path d="M200.055 22.6166C199.358 21.7182 198.202 20.2685 196.103 19.4606C194.396 18.8039 192.848 18.4963 191.989 18.6027C191.131 18.4973 189.582 18.8039 187.874 19.4606C185.774 20.2685 184.62 21.7182 183.922 22.6166C180.955 26.4389 181.062 30.9733 181.106 32.886C181.16 35.1671 181.237 38.4295 183.488 41.4439C184.153 42.3337 185.641 44.2699 188.361 45.1342C189.841 45.6047 191.154 45.8463 191.988 45.7675C192.823 45.8474 194.136 45.6047 195.615 45.1342C198.335 44.2699 199.823 42.3337 200.488 41.4439C202.74 38.4295 202.817 35.1681 202.87 32.886C202.915 30.9733 203.022 26.4389 200.054 22.6166H200.055Z" fill="#E6E1C8"/>
<path d="M193.074 26.8145C192.991 26.8145 192.921 26.7506 192.915 26.6676L192.633 23.0624C192.626 22.9741 192.691 22.8974 192.78 22.8911C192.868 22.8847 192.945 22.9496 192.951 23.0379L193.234 26.6431C193.24 26.7315 193.175 26.8081 193.087 26.8145C193.082 26.8145 193.078 26.8145 193.074 26.8145Z" fill="#DF4942"/>
<path d="M195.692 26.0471C195.621 26.0471 195.555 25.9981 195.537 25.9258L194.835 23.0891C194.813 23.004 194.865 22.9167 194.952 22.8954C195.037 22.8741 195.124 22.9262 195.146 23.0125L195.848 25.8491C195.869 25.9343 195.817 26.0216 195.73 26.0428C195.718 26.046 195.705 26.0471 195.692 26.0471Z" fill="#DF4942"/>
<path d="M197.47 24.2803C197.405 24.2803 197.343 24.2399 197.32 24.1749L196.587 22.1472C196.557 22.0642 196.6 21.9727 196.683 21.9429C196.766 21.913 196.857 21.9556 196.887 22.0387L197.62 24.0664C197.65 24.1494 197.607 24.2409 197.524 24.2707C197.506 24.2771 197.488 24.2803 197.47 24.2803Z" fill="#DF4942"/>
<path d="M190.923 26.8145C191.006 26.8145 191.075 26.7506 191.082 26.6676L191.364 23.0624C191.37 22.9741 191.305 22.8974 191.217 22.8911C191.129 22.8847 191.052 22.9496 191.045 23.0379L190.763 26.6431C190.757 26.7315 190.822 26.8081 190.91 26.8145C190.914 26.8145 190.919 26.8145 190.923 26.8145Z" fill="#DF4942"/>
<path d="M188.304 26.0471C188.376 26.0471 188.442 25.9981 188.46 25.9258L189.162 23.0891C189.183 23.004 189.131 22.9167 189.045 22.8954C188.959 22.8741 188.872 22.9262 188.851 23.0125L188.149 25.8491C188.127 25.9343 188.18 26.0216 188.266 26.0428C188.279 26.046 188.292 26.0471 188.304 26.0471Z" fill="#DF4942"/>
<path d="M186.525 24.2803C186.59 24.2803 186.652 24.2399 186.676 24.1749L187.409 22.1472C187.438 22.0642 187.396 21.9727 187.313 21.9429C187.23 21.913 187.138 21.9556 187.108 22.0387L186.375 24.0664C186.345 24.1494 186.388 24.2409 186.471 24.2707C186.489 24.2771 186.507 24.2803 186.525 24.2803Z" fill="#DF4942"/>
<path d="M204.062 29.3052L199.894 20.3684C199.428 22.7772 198.596 25.1146 197.435 27.2754C197.213 27.6873 196.979 28.0971 196.751 28.509C195.372 28.8581 194.353 30.1046 194.353 31.5905C194.353 33.3457 195.777 34.7688 197.534 34.7688C198.664 34.7688 199.655 34.1791 200.219 33.2925C201.809 32.3143 203.146 30.9295 204.062 29.3052Z" fill="#DF4942"/>
<path d="M179.934 29.3052L184.102 20.3684C184.568 22.7772 185.4 25.1146 186.561 27.2754C186.782 27.6873 187.017 28.0971 187.245 28.509C188.623 28.8581 189.642 30.1046 189.642 31.5905C189.642 33.3457 188.218 34.7688 186.462 34.7688C185.331 34.7688 184.341 34.1791 183.776 33.2925C182.187 32.3143 180.85 30.9295 179.934 29.3052Z" fill="#DF4942"/>
<path d="M191.964 15.418C194.359 15.418 196.3 13.7405 196.3 11.6713C196.3 9.60203 194.359 7.92456 191.964 7.92456C189.569 7.92456 187.627 9.60203 187.627 11.6713C187.627 13.7405 189.569 15.418 191.964 15.418Z" fill="#E6E1C8"/>
<path d="M197.04 9.89268C197.507 9.89268 197.886 9.51429 197.886 9.04753C197.886 8.58078 197.507 8.20239 197.04 8.20239C196.573 8.20239 196.194 8.58078 196.194 9.04753C196.194 9.51429 196.573 9.89268 197.04 9.89268Z" fill="#38372F"/>
<path d="M186.956 9.89268C187.423 9.89268 187.802 9.51429 187.802 9.04753C187.802 8.58078 187.423 8.20239 186.956 8.20239C186.489 8.20239 186.11 8.58078 186.11 9.04753C186.11 9.51429 186.489 9.89268 186.956 9.89268Z" fill="#38372F"/>
<path d="M195.21 11.52C195.126 11.4902 195.035 11.5339 195.006 11.6169C194.576 12.8293 193.452 13.6574 192.177 13.7255V11.6009L193.714 9.64453H190.3L191.856 11.6254V13.7265C190.575 13.6659 189.442 12.8367 189.009 11.6211C188.979 11.5381 188.887 11.4945 188.804 11.5243C188.721 11.5541 188.677 11.6456 188.707 11.7286C189.202 13.1188 190.529 14.0523 192.005 14.0523C193.482 14.0523 194.811 13.1166 195.305 11.7244C195.335 11.6414 195.292 11.5498 195.209 11.52H195.21Z" fill="#38372F"/>
</g>
<g clip-path="url(#clip3_35_5)">
<path d="M252.804 13.917C252.625 13.8256 252.406 13.8976 252.314 14.0778L252.314 14.0813C252.132 14.4373 251.945 14.7874 251.746 15.128C251.545 15.4673 251.336 15.8002 251.113 16.1222C250.667 16.7652 250.175 17.3698 249.64 17.9259C249.066 18.5224 248.443 19.0674 247.778 19.5241C247.775 19.5178 247.772 19.5134 247.769 19.5071C247.688 19.3379 247.616 19.1263 247.553 18.896C247.422 18.4439 247.331 17.9776 247.274 17.5042C247.214 17.0313 247.198 16.5508 247.213 16.0683C247.23 15.5862 247.286 15.1041 247.378 14.6262L247.379 14.6209C247.413 14.4441 247.312 14.2657 247.137 14.2081C246.947 14.1451 246.742 14.2483 246.678 14.4386C246.512 14.9373 246.381 15.4498 246.293 15.9729C246.206 16.4957 246.154 17.0273 246.149 17.5627C246.143 18.0978 246.176 18.6361 246.255 19.1715C246.292 19.4357 246.34 19.7156 246.437 20.0198C246.461 20.0946 246.488 20.1719 246.521 20.2493C246.338 20.3346 246.152 20.4134 245.965 20.4835C245.622 20.6097 245.278 20.7112 244.926 20.7803C244.574 20.8474 244.217 20.891 243.861 20.8973C243.149 20.9148 242.439 20.8015 241.791 20.5412C240.515 20.0305 239.425 18.8553 239.15 17.391L239.146 17.3694C239.115 17.2056 238.975 17.0795 238.801 17.0735C238.601 17.0669 238.433 17.2246 238.426 17.4254C238.423 17.5374 238.418 17.6512 238.42 17.7644C238.427 17.8771 238.43 17.9916 238.443 18.1046C238.46 18.216 238.473 18.3308 238.497 18.4419C238.523 18.5525 238.542 18.667 238.576 18.7757C238.699 19.2167 238.894 19.6372 239.14 20.0259C239.633 20.8006 240.347 21.4477 241.187 21.8667C241.351 21.9497 241.52 22.0236 241.691 22.0897C241.644 22.2196 241.585 22.3466 241.515 22.4703C241.332 22.7943 241.075 23.0868 240.761 23.3092L240.753 23.3148C240.616 23.4125 240.559 23.5952 240.628 23.7569C240.707 23.9422 240.921 24.0277 241.105 23.9484C241.561 23.7527 241.976 23.4483 242.316 23.0658C242.496 22.8634 242.654 22.6373 242.787 22.393C243.143 22.4565 243.503 22.4911 243.863 22.4948C244.776 22.5057 245.693 22.3314 246.534 22.0073C246.955 21.8463 247.361 21.6536 247.746 21.43C248.132 21.2086 248.5 20.9604 248.845 20.6902C249.54 20.1528 250.152 19.5306 250.699 18.8661C251.241 18.196 251.712 17.473 252.101 16.7119C252.294 16.3307 252.468 15.9411 252.616 15.5419C252.765 15.1439 252.894 14.7393 252.994 14.3287C253.032 14.1679 252.958 13.9948 252.804 13.917Z" fill="#38372F"/>
<path d="M261.975 39.4397L262.032 39.4664L261.99 39.4297C261.979 39.436 261.974 39.4404 261.974 39.4404L261.975 39.4397Z" fill="#DF4942"/>
<path d="M266.108 37.9954C267.513 36.4594 265.673 33.9031 265.673 33.9031L265.671 33.9062C265.602 34.4722 265.413 35.9255 265.233 36.3546C264.919 37.104 264.013 38.2127 263.508 38.5912C263.069 38.9197 262.113 39.3888 261.986 39.4497L262.029 39.4801L262.298 39.5895C262.789 39.5569 264.876 39.3432 266.108 37.9956L266.108 37.9954Z" fill="#E6E1C8"/>
<path d="M239.693 22.0189C241.865 22.5259 242.62 23.5454 243.249 25.7622C243.877 27.9791 244.988 32.3776 245.649 33.1449C246.31 33.9121 248.224 35.2021 249.745 35.5572L261.551 38.3125C262.638 38.5662 265.149 41.2224 264.233 45.1479C263.316 49.0733 261.044 50.306 259.595 49.9678L243.058 46.1081C241.343 45.7078 239.212 44.3672 239.09 42.2686C238.969 40.1703 237.657 30.7421 237.657 30.7421L230.974 26.6532L231.17 22.7891L235.111 23.3255C235.111 23.3255 237.665 21.5455 239.693 22.0189Z" fill="#E6E1C8"/>
<path d="M261.551 38.3125L249.745 35.5572C248.224 35.2021 246.31 33.9121 245.649 33.1449C244.988 32.3776 243.877 27.978 243.249 25.7622C242.62 23.5454 241.865 22.5259 239.693 22.0189C237.665 21.5455 235.111 23.3255 235.111 23.3255L231.17 22.7891L231.12 23.7692L236.23 24.9618C236.23 24.9618 237.333 23.6736 238.667 23.9848C240.001 24.2961 240.882 25.1063 241.118 26.1027C241.354 27.0982 243.176 34.7814 244.026 36.5927C244.872 38.3966 246.29 41.2716 248.238 42.2338C248.238 42.2338 250.581 43.4429 252.609 43.7978C254.574 44.2695 255.64 44.4065 257.046 44.1907C258.451 43.9748 259.48 43.3902 260.539 42.2931C261.234 41.5746 262.088 39.9902 262.54 38.9203C262.172 38.5834 261.818 38.374 261.55 38.3115L261.551 38.3125Z" fill="#DF4942"/>
<path d="M231.17 22.789L231.053 25.1015L233.451 23.1004L231.17 22.789Z" fill="#38372F"/>
<path d="M237.618 26.2038C238.005 26.2941 238.393 26.0524 238.483 25.664C238.574 25.2755 238.334 24.8874 237.947 24.7971C237.56 24.7068 237.173 24.9484 237.082 25.3369C236.991 25.7253 237.231 26.1135 237.618 26.2038Z" fill="#38372F"/>
<path d="M232.827 27.7928C233.547 27.8453 234.276 27.6571 234.885 27.2694C235.033 27.1751 234.89 26.9439 234.742 27.0382C234.168 27.4034 233.494 27.5705 232.816 27.5207C232.742 27.5155 232.684 27.5952 232.686 27.6628C232.688 27.7436 232.754 27.7879 232.827 27.7937L232.827 27.7928Z" fill="#38372F"/>
<path d="M241.494 25.1222C241.494 25.1222 243.385 23.7974 244.785 23.9013C246.186 24.0044 247.671 26.4192 247.671 26.4192C247.671 26.4192 245.926 27.2155 244.428 27.0515C242.93 26.8883 241.494 25.1222 241.494 25.1222Z" fill="#DF4942"/>
<path d="M243.16 25.5364C243.16 25.5364 244.022 24.9325 244.661 24.9799C245.299 25.0272 245.976 26.1284 245.976 26.1284C245.976 26.1284 245.181 26.4912 244.497 26.4166C243.814 26.342 243.159 25.537 243.159 25.537L243.16 25.5364Z" fill="#E6E1C8"/>
<path d="M250.802 38.3634C250.791 38.3609 250.781 38.3575 250.77 38.3513L248.274 37.0672C248.208 37.0331 248.181 36.9504 248.216 36.8838C248.25 36.8171 248.331 36.7904 248.399 36.8248L250.894 38.1089C250.961 38.143 250.987 38.2257 250.953 38.2923C250.924 38.349 250.861 38.3771 250.802 38.3634Z" fill="#E6E1C8"/>
<path d="M250.414 40.8787C250.401 40.8756 250.388 40.8707 250.375 40.863L247.673 39.2472C247.609 39.2089 247.588 39.1257 247.627 39.0609C247.665 38.9962 247.748 38.9745 247.812 39.0138L250.514 40.6296C250.579 40.668 250.599 40.7511 250.561 40.8159C250.53 40.8684 250.47 40.8916 250.413 40.8785L250.414 40.8787Z" fill="#E6E1C8"/>
<path d="M255.378 39.0808C255.37 39.0789 255.363 39.0773 255.355 39.0737L252.783 37.9759C252.713 37.9466 252.682 37.8665 252.711 37.7969C252.74 37.7272 252.82 37.6955 252.889 37.7247L255.462 38.8225C255.532 38.8517 255.563 38.9318 255.534 39.0015C255.507 39.0634 255.441 39.0956 255.378 39.0808Z" fill="#E6E1C8"/>
<path d="M255.469 41.0397C255.462 41.0381 255.456 41.0367 255.449 41.0332L252.605 39.8853C252.536 39.857 252.502 39.7782 252.53 39.7083C252.559 39.6385 252.638 39.6048 252.707 39.6329L255.551 40.7808C255.62 40.8092 255.654 40.888 255.626 40.9578C255.6 41.0208 255.533 41.0548 255.469 41.0397Z" fill="#E6E1C8"/>
<path d="M254.617 42.4781C254.611 42.4766 254.606 42.4754 254.6 42.4731L252.504 41.6836C252.434 41.657 252.399 41.5787 252.425 41.5084C252.452 41.4381 252.531 41.4024 252.6 41.4288L254.696 42.2183C254.766 42.2449 254.801 42.3232 254.775 42.3935C254.75 42.4578 254.683 42.4933 254.617 42.4779L254.617 42.4781Z" fill="#E6E1C8"/>
<path d="M257.183 38.7605L259.04 39.4281" stroke="#E6E1C8" stroke-width="3" stroke-miterlimit="10" stroke-linecap="round"/>
<path d="M258.659 41.6341C258.649 41.6317 258.638 41.6281 258.628 41.6221L256.936 40.7431C256.87 40.708 256.843 40.6263 256.878 40.5598C256.913 40.4934 256.995 40.4667 257.061 40.5017L258.753 41.3808C258.819 41.4149 258.846 41.4975 258.811 41.564C258.782 41.6207 258.718 41.6479 258.659 41.6341Z" fill="#E6E1C8"/>
<path d="M262.187 39.6039C262.187 39.6039 262.226 39.5999 262.296 39.5891L262.03 39.4646L262.186 39.6037L262.187 39.6039Z" fill="#DF4942"/>
<path d="M265.232 36.3544C265.412 35.9253 265.601 34.472 265.67 33.906L261.234 38.9149L261.985 39.4495C262.112 39.3877 263.068 38.9195 263.507 38.591C264.013 38.2127 264.919 37.104 265.232 36.3544Z" fill="#DF4942"/>
<path d="M261.74 49.5364L258.391 48.7546L255.918 59.3499L259.267 60.1316L261.74 49.5364Z" fill="#E6E1C8"/>
<path d="M259.267 60.1309L255.918 59.3491L255.221 62.3341L258.571 63.1159L259.267 60.1309Z" fill="#38372F"/>
<path d="M257.663 48.5847L254.313 47.803L251.84 58.3982L255.19 59.1799L257.663 48.5847Z" fill="#E6E1C8"/>
<path d="M255.19 59.1792L251.841 58.3975L251.144 61.3825L254.493 62.1642L255.19 59.1792Z" fill="#38372F"/>
<path d="M245.594 45.7681L242.245 44.9863L239.772 55.5816L243.121 56.3633L245.594 45.7681Z" fill="#E6E1C8"/>
<path d="M243.122 56.3625L239.772 55.5808L239.076 58.5658L242.425 59.3475L243.122 56.3625Z" fill="#38372F"/>
<path d="M236.655 46.6109L242.072 45.7286L241.526 42.322L234.267 43.504C233.793 43.5808 233.372 43.854 233.107 44.2556C232.841 44.6572 232.755 45.1522 232.869 45.62L234.052 50.4673C234.903 50.2732 236.677 49.8552 237.404 49.6843L236.654 46.6107L236.655 46.6109Z" fill="#E6E1C8"/>
<path d="M238.144 52.7116L237.405 49.6854C236.678 49.8563 234.904 50.2743 234.053 50.4684L234.802 53.5381L238.144 52.7116Z" fill="#38372F"/>
</g>
<g clip-path="url(#clip4_35_5)">
<path d="M299.003 31.692L297.554 31.5068L295.203 74.5887L296.651 74.7738L299.003 31.692Z" fill="#38372F"/>
<path d="M299.442 10.2238L288.793 27.896L308.031 30.3542L299.442 10.2238Z" fill="#DF4942"/>
<path d="M298.712 23.5886L284.081 40.7519L311.284 44.2279L298.712 23.5886Z" fill="#2EAC94"/>
<path d="M298.013 36.4013L278.976 55.501L314.719 60.0682L298.013 36.4013Z" fill="#DF4942"/>
</g>
<path d="M343.045 70.6371C351.108 72.5331 358.944 62.0698 360.549 47.2665C362.154 32.4633 356.918 18.9258 348.855 17.0298C340.793 15.1337 332.956 25.5971 331.351 40.4003C329.747 55.2036 334.982 68.741 343.045 70.6371Z" fill="#2EAC94"/>
<path d="M354.021 49.1219C353.749 48.8787 353.37 48.9118 353.176 49.1973C352.577 50.0771 351.887 50.8241 351.124 51.4209C350.264 52.0901 349.334 52.5556 348.357 52.8009C347.391 53.0432 346.192 52.9458 345.513 52.854L346.975 39.3622C347.581 39.4258 348.672 39.4707 349.605 39.1091C350.496 38.765 351.347 38.1779 352.132 37.3608C352.81 36.6545 353.43 35.7851 353.969 34.7824C354.133 34.4763 354.03 34.0532 353.74 33.841C353.449 33.6288 353.078 33.7045 352.914 34.0106C352.426 34.9191 351.872 35.701 351.263 36.3314C350.587 37.0329 349.866 37.5366 349.119 37.8251C348.452 38.0808 347.641 38.0719 347.12 38.0281L348.17 28.3374C348.21 27.9721 347.973 27.6122 347.64 27.5341C347.308 27.456 347.006 27.6891 346.967 28.0544L345.283 43.587C344.785 43.3803 344.101 43.0376 343.573 42.5361C342.924 41.9193 342.343 41.1121 341.851 40.1334C341.408 39.2556 341.045 38.2581 340.773 37.1707C340.682 36.8045 340.345 36.5625 340.024 36.6309C339.703 36.6993 339.514 37.0539 339.608 37.4206C339.907 38.6229 340.31 39.7303 340.808 40.7133C341.381 41.8497 342.066 42.7979 342.84 43.5338C343.588 44.2443 344.534 44.6894 345.141 44.9244L343.678 58.4215C342.998 58.1828 341.939 57.7439 341.131 57.1168C340.255 56.4357 339.47 55.5698 338.794 54.5368C338.195 53.6223 337.697 52.593 337.313 51.4823C337.189 51.1246 336.836 50.9195 336.526 51.0231C336.216 51.1293 336.064 51.5061 336.186 51.8632C336.61 53.0976 337.167 54.2412 337.837 55.2644C338.603 56.4355 339.498 57.4224 340.5 58.2008C341.502 58.9793 342.78 59.4888 343.529 59.7465L340.766 85.2425C340.726 85.6078 340.964 85.9677 341.296 86.0458C341.628 86.1239 341.93 85.8908 341.969 85.5256L345.367 54.177C345.367 54.177 345.377 54.1792 345.382 54.1804C346.121 54.2836 347.541 54.4166 348.723 54.1192C349.84 53.8389 350.901 53.3122 351.875 52.5504C352.729 51.8855 353.499 51.0511 354.162 50.0753C354.356 49.7923 354.291 49.3645 354.017 49.1208L354.021 49.1219Z" fill="#38372F"/>
<defs>
<clipPath id="clip0_35_5">
<rect width="35.9862" height="54.6479" fill="white" transform="matrix(0.985206 -0.171374 0.108024 0.994148 49.6431 24.6396)"/>
</clipPath>
<clipPath id="clip1_35_5">
<rect width="56.9708" height="54.0113" fill="white" transform="translate(87.1841 12.7971) rotate(-8.62243)"/>
</clipPath>
<clipPath id="clip2_35_5">
<rect width="32.5548" height="54.7512" fill="white" transform="translate(175.768 0.396973)"/>
</clipPath>
<clipPath id="clip3_35_5">
<rect width="37.7339" height="46.6125" fill="white" transform="translate(234.254 9.57593) rotate(13.1377)"/>
</clipPath>
<clipPath id="clip4_35_5">
<rect width="36.033" height="64.553" fill="white" transform="matrix(0.991935 0.126749 -0.054504 0.998513 281.573 7.94043)"/>
</clipPath>
</defs>
</svg>
