<svg width="768" height="226" viewBox="0 0 768 226" fill="none" xmlns="http://www.w3.org/2000/svg">
<path d="M0 226L769 226V157C615.696 106.286 563.829 73.9998 399 73.9998C234.171 73.9998 164.672 101.482 0 157V226Z" fill="#1C6EB8"/>
<path d="M77.1259 109.556C87.8033 106.879 92.8705 88.7591 88.4439 69.0839C84.0173 49.4087 71.7731 35.6291 61.0957 38.3062C50.4184 40.9833 45.3512 59.1035 49.7778 78.7787C54.2044 98.4539 66.4486 112.234 77.1259 109.556Z" fill="#2EAC94"/>
<path d="M81.2625 75.5268C80.8246 75.3913 80.3757 75.6711 80.2618 76.1531C79.9092 77.6389 79.387 79.0149 78.7113 80.2473C77.9485 81.6316 77.0132 82.8027 75.9244 83.7261C74.8469 84.6393 73.3388 85.2701 72.4692 85.5811L68.4347 67.6489C69.2023 67.3487 70.5559 66.7194 71.5404 65.6772C72.4819 64.6829 73.2692 63.4077 73.876 61.8841C74.4013 60.5668 74.7843 59.0808 75.0096 57.4781C75.078 56.989 74.7704 56.5197 74.3236 56.4348C73.8769 56.3498 73.4558 56.6784 73.3874 57.1676C73.1821 58.6202 72.8424 59.9542 72.3699 61.1319C71.8462 62.4413 71.1819 63.5296 70.3928 64.363C69.6875 65.1048 68.6918 65.6035 68.0358 65.8757L65.138 52.9957C65.0288 52.5102 64.5831 52.2056 64.1432 52.3159C63.7033 52.4262 63.4349 52.9098 63.5442 53.3953L68.1889 74.04C67.4902 74.0925 66.5064 74.0902 65.6441 73.7898C64.5843 73.4199 63.5249 72.7675 62.5018 71.8422C61.5813 71.0137 60.7065 69.9843 59.9045 68.7842C59.635 68.3797 59.1189 68.2861 58.756 68.5741C58.3932 68.8621 58.3151 69.428 58.5877 69.8316C59.4725 71.1597 60.4435 72.3025 61.477 73.229C62.6679 74.3018 63.9143 75.0671 65.1787 75.5083C66.3993 75.9344 67.7489 75.9008 68.5918 75.8159L72.6279 93.7551C71.6932 93.8816 70.2098 93.9934 68.9507 93.7107C67.585 93.4027 66.2515 92.8042 64.9798 91.9263C63.8521 91.1498 62.7988 90.1651 61.8509 89.0053C61.5447 88.6324 61.0246 88.5955 60.6903 88.9209C60.3568 89.2498 60.3337 89.8205 60.6367 90.1943C61.688 91.4843 62.863 92.576 64.1228 93.4457C65.5656 94.4405 67.0862 95.1222 68.6471 95.4742C70.2079 95.8262 71.9902 95.6655 73.0181 95.5193L80.6421 129.406C80.7514 129.892 81.197 130.196 81.6369 130.086C82.0768 129.976 82.3452 129.492 82.236 129.007L72.8618 87.3409C72.8618 87.3409 72.8745 87.3378 72.8809 87.3362C73.8294 87.0017 75.6228 86.277 76.9405 85.1587C78.1847 84.1034 79.2557 82.7719 80.1175 81.1993C80.8755 79.8236 81.4561 78.288 81.8464 76.6403C81.961 76.1619 81.6973 75.6631 81.2561 75.5284L81.2625 75.5268Z" fill="#38372F"/>
<g clip-path="url(#clip0_35_6)">
<path d="M119.788 58.3964L117.874 58.8125L129.518 114.057L131.432 113.641L119.788 58.3964Z" fill="#38372F"/>
<path d="M113.049 31.1957L105.45 58.1945L130.869 52.6703L113.049 31.1957Z" fill="#DF4942"/>
<path d="M116.661 48.3338L103.801 76.4762L139.744 68.6647L116.661 48.3338Z" fill="#2EAC94"/>
<path d="M120.124 64.7635L102.293 97.3147L149.519 87.0511L120.124 64.7635Z" fill="#DF4942"/>
</g>
<g clip-path="url(#clip1_35_6)">
<path d="M234.076 81.4717L226.5 63.2623C226.5 63.2623 226.995 59.4728 226.746 57.1364C226.498 54.7996 225.607 53.7713 225.607 53.7713L228.337 54.1021L225.223 49.0045L228.393 48.9195L225.248 43.6785L227.711 43.6933L224.291 38.1159L226.162 20.6185C226.162 20.6185 224.727 21.1195 223.876 21.8336C223.026 22.5476 221.432 25.1224 221.432 25.1224L220.372 16.898L215.641 16.0559C215.641 16.0559 215.858 21.0337 214.896 23.7387C214.594 24.5861 212.836 25.2621 211.559 26.2925C210.214 27.3769 209.58 32.2284 209.415 35.7024C209.249 39.1764 209.477 43.2262 205.319 47.2722C201.162 51.3183 188.957 50.7826 182.642 52.2609C181.8 52.4572 181.063 52.7158 180.415 53.0234C178.993 52.4884 177.176 52.0776 175.611 52.5777C172.495 53.5748 168.83 57.2861 168.83 57.2861L170.035 57.7483C170.035 57.7483 168.27 58.9047 166.846 60.099C165.556 61.1805 163.765 64.1087 163.765 64.1087L165.31 64.5015C165.31 64.5015 163.136 66.0354 161.675 68.8222C160.809 70.4746 159.673 73.9321 159.673 73.9321L161.264 73.5822C161.264 73.5822 160.619 75.3844 160.435 77.3968C160.252 79.4091 161.014 82.8721 161.014 82.8721C161.014 82.8721 163.601 81.3697 164.321 80.3804C165.04 79.391 166.335 78.1729 166.335 78.1729L166.706 79.8557C166.706 79.8557 169.246 77.4195 169.901 76.3052C171.01 74.4176 171.376 72.1886 171.376 72.1886L171.998 74.5414C171.998 74.5414 174.088 72.54 175 70.6642C175.347 69.9517 175.919 68.6162 176.568 67.0691C177.448 69.8066 178.852 72.0116 178.863 73.7456C178.879 76.2335 178.434 95.9457 178.434 95.9457L181.1 98.4016L194.215 95.5167C194.215 95.5167 194.227 93.9112 193.17 92.7597C192.717 92.2675 191.852 91.7882 190.938 91.5125L193.177 78.4197C193.177 78.4197 196.684 76.8542 198.421 75.0845C200.157 73.3131 201.38 71.0293 201.38 71.0293C201.38 71.0293 205.045 70.7834 207.482 70.9949C209.919 71.2064 214.979 70.0524 214.979 70.0524L225.317 88.6727L238.784 85.7103C238.784 85.7103 238.796 84.1048 237.739 82.9533C237.048 82.2018 235.394 81.4824 234.078 81.4731L234.076 81.4717Z" fill="#E6E1C8"/>
<path d="M208.809 33.0843C206.257 34.1281 203.926 37.8316 203.926 37.8316L210.606 38.2285L211 32.6022C211 32.6022 210.506 32.3899 208.809 33.0843Z" fill="#2EAC94"/>
<path d="M217.344 25.762C217.593 24.5997 217.992 21.2653 217.901 16.4564L215.64 16.054C215.64 16.054 215.858 21.0318 214.895 23.7368C214.593 24.5842 212.836 25.2602 211.559 26.2906C210.214 27.375 209.58 32.2265 209.414 35.7005C209.249 39.1745 209.476 43.2243 205.319 47.2703C201.162 51.3164 188.957 50.7807 182.642 52.259C181.812 52.4526 181.084 52.7075 180.442 53.0082C181.675 54.785 183.441 57.1292 185.011 58.4628C188.106 61.0896 191.475 62.378 198.371 61.9999C205.268 61.6219 213.989 56.8427 214.804 49.8754C215.489 44.0109 214.244 33.5082 214.751 30.0928C215.259 26.677 217.063 27.0778 217.345 25.7616L217.344 25.762Z" fill="#2EAC94"/>
<path d="M216.388 29.2632C216.541 29.955 216.1 30.6381 215.407 30.7906C214.714 30.9431 214.027 30.5061 213.875 29.816C213.723 29.1259 214.163 28.441 214.857 28.2885C215.55 28.1361 216.237 28.5731 216.388 29.2632Z" fill="#38372F"/>
<path d="M233.523 86.8414C233.391 86.8703 233.256 86.7998 233.209 86.671C232.926 85.906 232.561 85.094 231.532 84.3332C230.929 83.8871 229.253 83.2189 229.236 83.2114L229.163 83.1831L229.117 83.1189C228.971 82.9192 225.55 78.0506 225.916 63.7653C225.92 63.6159 226.045 63.4976 226.195 63.4999C226.345 63.504 226.465 63.6278 226.461 63.7789C226.121 77.0382 229.128 82.1369 229.516 82.7398C229.868 82.8814 231.269 83.4637 231.856 83.8984C233.003 84.7482 233.42 85.6786 233.718 86.4831C233.769 86.6239 233.697 86.7807 233.556 86.8322C233.544 86.8349 233.532 86.8394 233.519 86.8422L233.523 86.8414Z" fill="#D6AD49"/>
<path d="M188.833 96.6411L188.828 96.6423C188.679 96.6712 188.535 96.5767 188.507 96.429C188.4 95.8923 188.207 95.5005 187.462 94.8539C186.424 93.9561 185.109 93.9781 185.096 93.9773L184.757 93.9852L184.822 93.6536L188.204 76.4043L188.343 76.3497C188.372 76.3377 191.316 75.1521 192.861 73.6436C194.485 72.0564 195.201 69.7487 195.207 69.7251C195.25 69.582 195.404 69.5001 195.547 69.5427C195.691 69.5853 195.773 69.738 195.73 69.881C195.699 69.9804 194.969 72.3414 193.242 74.0309C191.8 75.4428 189.303 76.5374 188.684 76.7961L185.419 93.4462C185.935 93.4942 186.949 93.6847 187.822 94.4408C188.578 95.0943 188.897 95.5862 189.045 96.318C189.073 96.4639 188.981 96.6047 188.836 96.6368L188.833 96.6411Z" fill="#D6AD49"/>
<path d="M198.561 52.6157C198.561 52.6157 198.545 52.6192 198.538 52.6207L193.889 53.2298C193.739 53.2498 193.602 53.1445 193.584 52.9963C193.564 52.8467 193.67 52.7102 193.819 52.6923L198.468 52.0833C198.618 52.0632 198.755 52.1685 198.773 52.3168C198.791 52.4575 198.698 52.5873 198.561 52.6174L198.561 52.6157Z" fill="#E6E1C8"/>
<path d="M199.914 55.4623L194.268 56.7044C194.12 56.7368 193.975 56.6445 193.943 56.4976C193.911 56.3507 194.004 56.206 194.151 56.1735L199.797 54.9314C199.945 54.899 200.09 54.9914 200.122 55.1382C200.155 55.2851 200.062 55.4298 199.914 55.4623Z" fill="#E6E1C8"/>
<path d="M200.114 58.726C200.114 58.726 200.109 58.7272 200.105 58.728L196.415 59.4174C196.266 59.4445 196.124 59.3478 196.097 59.1998C196.07 59.0517 196.166 58.9027 196.316 58.8826L200.006 58.1932C200.155 58.1661 200.297 58.2628 200.324 58.4108C200.35 58.5553 200.258 58.6944 200.114 58.726Z" fill="#E6E1C8"/>
<path d="M202.063 52.9566C201.929 52.9859 201.794 52.9136 201.747 52.7831C201.697 52.6419 201.771 52.4865 201.913 52.4367L205.574 51.1397C205.717 51.0896 205.872 51.1633 205.921 51.3045C205.971 51.4457 205.897 51.6011 205.755 51.6508L202.094 52.9478C202.084 52.9502 202.071 52.9547 202.061 52.957L202.063 52.9566Z" fill="#E6E1C8"/>
<path d="M202.775 56.1947C202.642 56.224 202.507 56.1517 202.459 56.0212C202.409 55.88 202.483 55.7246 202.625 55.673L206.484 54.3028C206.626 54.253 206.782 54.3263 206.833 54.4671C206.883 54.6083 206.809 54.7637 206.668 54.8153L202.808 56.1855C202.798 56.1879 202.786 56.1924 202.775 56.1947Z" fill="#E6E1C8"/>
<path d="M189.702 54.3566C189.683 54.3609 189.665 54.363 189.644 54.3638L186.322 54.3711C186.171 54.371 186.049 54.2493 186.048 54.0994C186.048 53.949 186.171 53.8275 186.321 53.8259L189.644 53.8185C189.795 53.8187 189.916 53.9403 189.916 54.0907C189.917 54.2204 189.825 54.3296 189.702 54.3566Z" fill="#E6E1C8"/>
<path d="M191.497 58.2712C191.472 58.2767 191.445 58.279 191.418 58.2774L188.146 58.04C187.997 58.0284 187.883 57.8995 187.894 57.7485C187.906 57.5994 188.036 57.4855 188.187 57.4967L191.459 57.7342C191.609 57.7458 191.723 57.8747 191.711 58.0256C191.703 58.148 191.613 58.2458 191.497 58.2712Z" fill="#E6E1C8"/>
<path d="M215.574 19.8421L215.638 16.0545L219.243 16.6955L215.574 19.8421Z" fill="#38372F"/>
</g>
<g clip-path="url(#clip2_35_6)">
<path d="M258.361 70.7681C258.12 68.9076 258.479 68.4968 258.42 64.87C258.367 61.6182 258.342 59.9929 257.749 58.0312C257.676 57.786 257.596 57.5488 257.513 57.3159L256.595 60.3539L254.748 56.8284L253.096 60.697L250.206 57.2977L248.024 61.1945L247.233 59.1895C246.287 62.9739 245.813 64.9309 245.787 66.1079C245.692 70.2974 248.492 73.5071 248.929 73.993C253.51 79.0993 260.813 77.8442 261.323 77.749C259.229 74.8883 258.577 72.44 258.361 70.7668L258.361 70.7681Z" fill="#DF4942"/>
<path d="M250.207 57.2976L253.097 60.697L254.749 56.8283L256.596 60.3538L257.514 57.3158C256.397 54.1998 254.528 52.2565 254.039 51.7669C253.195 50.9214 250.631 48.4222 246.734 47.8799C243.938 47.4909 241.176 48.7931 241.176 48.7931C241.176 48.7931 242.854 49.2892 245.018 50.8103C245.889 51.422 247.201 52.3447 247.776 53.8545C248.29 55.2021 247.953 56.328 247.411 58.4938C247.351 58.7333 247.293 58.9651 247.237 59.1904L248.028 61.1955L250.21 57.2986L250.207 57.2976Z" fill="#E6E1C8"/>
<path d="M281.659 65.2687C280.432 67.8609 278.625 70.5339 278.625 70.5339L279.264 77.0518C279.264 77.0518 280.428 77.7353 280.505 78.5253L280.606 79.5479L283.069 79.3063C283.069 79.3063 283.21 78.4736 282.912 77.7052C282.613 76.9369 281.524 76.7108 281.524 76.7108L281.54 75.3515L281.659 65.2687Z" fill="#DF4942"/>
<path d="M279.231 76.7223L278.624 70.5329C278.624 70.5329 280.431 67.8598 281.657 65.2676L281.697 61.871L276.074 68.4039L278.073 75.6903L279.17 79.6863L280.603 79.5457L280.502 78.5231C280.311 77.4579 279.229 76.7211 279.229 76.7211L279.231 76.7223Z" fill="#E6E1C8"/>
<path d="M277.832 70.3592C277.832 70.3592 282.214 63.8815 281.962 61.3137L280.928 50.7736L270.951 51.3603C270.951 51.3603 271.148 53.401 270.576 54.7872C270.005 56.1734 265.152 59.3072 260.966 62.9082C256.781 66.5091 255.794 70.5273 256.22 74.8717C256.647 79.2161 261.077 81.4621 261.077 81.4621L279.837 79.622L279.712 78.3505C279.635 77.5605 278.472 76.877 278.472 76.877L277.832 70.3592Z" fill="#DF4942"/>
<path d="M283.806 35.082C282.9 34.642 280.143 37.9848 279.349 38.9834C278.128 38.8067 275.784 38.5028 274.719 38.6072C273.654 38.7117 271.413 39.4654 270.251 39.8758C269.277 39.0519 265.924 36.3084 265.121 36.9147C264.292 37.5411 266.87 44.6149 267.505 46.3124C267.193 47.4546 266.988 48.4356 267.034 48.9072C267.073 49.3015 267.483 49.8316 268.123 50.4006C269.266 49.6529 270.369 49.1867 271.698 49.9118C271.767 49.9502 271.837 49.991 271.906 50.0333C271.927 50.0463 271.947 50.0594 271.968 50.0724C272.02 50.105 272.071 50.139 272.121 50.1742C272.141 50.1886 272.162 50.2016 272.183 50.2159C272.251 50.2645 272.319 50.3143 272.386 50.3668C272.388 50.3679 272.39 50.3689 272.392 50.3713C272.458 50.4226 272.524 50.4764 272.589 50.5316C272.609 50.5484 272.63 50.5665 272.651 50.5845C272.7 50.6262 272.748 50.6692 272.797 50.7121C272.817 50.7302 272.838 50.7483 272.858 50.7677C272.924 50.8278 272.988 50.8893 273.053 50.9533C273.439 52.0785 273.974 53.3123 274.233 53.67C274.671 54.2764 275.558 54.7848 276.3 54.712C277.042 54.6392 277.813 53.9682 278.126 53.2882C278.31 52.887 278.595 51.5728 278.755 50.394C278.806 50.3187 278.858 50.2458 278.91 50.1741C278.927 50.1511 278.943 50.1294 278.96 50.1077C278.998 50.0562 279.038 50.0045 279.077 49.9542C279.094 49.9324 279.111 49.9107 279.128 49.8901C279.181 49.8234 279.236 49.7577 279.291 49.6946C279.292 49.6932 279.294 49.6917 279.295 49.6891C279.351 49.6246 279.408 49.5625 279.466 49.5016C279.483 49.4836 279.501 49.4655 279.518 49.4488C279.561 49.4044 279.605 49.3611 279.648 49.3192C279.666 49.3023 279.683 49.2856 279.701 49.2687C279.761 49.2139 279.821 49.159 279.882 49.109C281.045 48.1396 282.217 48.3826 283.484 48.8939C284.001 48.2114 284.3 47.6118 284.262 47.2174C284.216 46.7459 283.822 45.8236 283.295 44.7636C283.587 42.9753 284.743 35.5352 283.809 35.0817L283.806 35.082Z" fill="#DF4942"/>
<path d="M276.218 53.8935L277.695 51.2565L274.257 51.5938L276.218 53.8935Z" fill="#38372F"/>
<path d="M279.642 47.6754C280.18 47.6226 280.573 47.1393 280.519 46.5958C280.466 46.0523 279.987 45.6545 279.449 45.7072C278.911 45.76 278.519 46.2433 278.572 46.7868C278.625 47.3303 279.104 47.7281 279.642 47.6754Z" fill="#38372F"/>
<path d="M271.651 48.4593C272.189 48.4066 272.582 47.9232 272.528 47.3797C272.475 46.8362 271.996 46.4384 271.458 46.4912C270.92 46.5439 270.528 47.0273 270.581 47.5708C270.634 48.1142 271.113 48.5121 271.651 48.4593Z" fill="#38372F"/>
<path d="M279.881 49.1103C279.445 49.4771 279.077 49.9227 278.754 50.3952C278.594 51.5741 278.309 52.8882 278.125 53.2894C280.117 52.3216 282.335 50.407 283.482 48.8953C282.215 48.384 281.043 48.141 279.88 49.1104L279.881 49.1103Z" fill="#E6E1C8"/>
<path d="M282.811 37.7609C282.3 37.5134 280.562 39.7714 280.562 39.7714L282.534 42.6051C282.534 42.6051 283.323 38.0084 282.812 37.7608L282.811 37.7609Z" fill="#E6E1C8"/>
<path d="M273.051 50.9548C271.71 49.4194 269.7 49.1129 268.122 50.402C269.54 51.6621 272.089 53.1091 274.231 53.6715C273.972 53.3138 273.437 52.08 273.051 50.9548Z" fill="#E6E1C8"/>
<path d="M269.214 40.8843C269.214 40.8843 267.07 39.007 266.617 39.3491C266.164 39.6912 267.831 44.047 267.831 44.047L269.215 40.8842L269.214 40.8843Z" fill="#E6E1C8"/>
<path d="M268.518 59.8928C268.469 59.8977 268.419 59.8825 268.379 59.8486C268.302 59.7809 268.293 59.6624 268.36 59.5843L270.164 57.4654C270.231 57.3873 270.348 57.3783 270.426 57.446C270.503 57.5138 270.512 57.6322 270.446 57.7104L268.641 59.8293C268.609 59.8676 268.565 59.8882 268.518 59.8928Z" fill="#E6E1C8"/>
<path d="M269.384 63.2685C269.35 63.2717 269.316 63.2663 269.284 63.2506C269.192 63.2044 269.154 63.0926 269.198 62.999L270.884 59.529C270.929 59.4366 271.04 59.3981 271.133 59.443C271.224 59.4893 271.262 59.6011 271.218 59.6946L269.533 63.1647C269.504 63.2253 269.446 63.2623 269.384 63.2685Z" fill="#E6E1C8"/>
<path d="M263.842 63.8118C263.797 63.8163 263.748 63.8035 263.709 63.7734C263.628 63.7097 263.614 63.5918 263.677 63.5102L265.86 60.6898C265.923 60.6082 266.04 60.5943 266.121 60.6579C266.202 60.7216 266.216 60.8396 266.153 60.9211L263.97 63.7416C263.938 63.7836 263.89 63.8071 263.842 63.8118Z" fill="#E6E1C8"/>
<path d="M265.231 65.4192C265.186 65.4235 265.139 65.4118 265.101 65.3816C265.019 65.3193 265.003 65.2016 265.064 65.1189L267.509 61.832C267.57 61.7493 267.687 61.7329 267.769 61.7952C267.851 61.8575 267.867 61.9752 267.806 62.0578L265.361 65.3448C265.328 65.3882 265.281 65.4142 265.231 65.4192Z" fill="#E6E1C8"/>
<path d="M266.761 66.9184C266.725 66.9219 266.687 66.9155 266.653 66.8963C266.564 66.846 266.53 66.7325 266.58 66.641L267.483 64.981C267.533 64.8907 267.645 64.8571 267.736 64.9072C267.825 64.9575 267.859 65.071 267.809 65.1625L266.906 66.8225C266.875 66.8783 266.82 66.9126 266.761 66.9184Z" fill="#E6E1C8"/>
<path d="M259.603 67.6203C259.56 67.6246 259.516 67.6138 259.478 67.5861C259.395 67.5264 259.375 67.4091 259.434 67.3242L261.323 64.6356C261.382 64.5519 261.498 64.5317 261.582 64.5913C261.665 64.651 261.685 64.7683 261.626 64.8532L259.737 67.5419C259.705 67.5878 259.656 67.6151 259.605 67.6202L259.603 67.6203Z" fill="#E6E1C8"/>
<path d="M260.841 69.2688C260.807 69.2721 260.772 69.2656 260.739 69.2487C260.647 69.2011 260.611 69.0891 260.657 68.9967L262.008 66.3094C262.055 66.2168 262.167 66.1807 262.257 66.2271C262.349 66.2747 262.385 66.3867 262.339 66.4791L260.988 69.1665C260.958 69.2259 260.902 69.2616 260.84 69.2676L260.841 69.2688Z" fill="#E6E1C8"/>
<path d="M262.318 70.9878C262.277 70.9918 262.235 70.9821 262.198 70.9581C262.113 70.9012 262.088 70.7855 262.145 70.6983L263.548 68.5409C263.604 68.4538 263.719 68.43 263.805 68.4881C263.89 68.545 263.915 68.6606 263.858 68.7479L262.455 70.9053C262.422 70.9549 262.372 70.9838 262.318 70.9891L262.318 70.9878Z" fill="#E6E1C8"/>
</g>
<g clip-path="url(#clip3_35_6)">
<path d="M336.045 66.0931L333.767 67.3213L332.348 65.1562C331.346 63.629 331.027 61.7921 331.463 60.0677L331.824 58.6416C332.245 56.9766 334.004 55.9861 335.75 56.4288L337.202 56.7958C338.95 57.2385 340.024 58.9465 339.604 60.6115L339.243 62.0376C338.807 63.7619 337.652 65.2267 336.046 66.0917L336.045 66.0931Z" fill="#2EAC94"/>
<path d="M337.351 56.5868L336.96 56.4884L337.512 55.068L336.298 54.7606L336.108 56.2721L335.717 56.1737C333.752 55.6766 331.775 56.7905 331.301 58.6619L331.088 59.5012L339.837 61.7166L340.05 60.8773C340.524 59.0059 339.315 57.084 337.349 56.5869L337.351 56.5868Z" fill="#38372F"/>
<path d="M333.993 57.4339C334.503 57.3997 334.451 56.6074 333.94 56.6416C333.429 56.6758 333.482 57.4681 333.993 57.4339Z" fill="#E6E1C8"/>
<path d="M333.145 59.5281C333.655 59.494 333.603 58.7016 333.092 58.7358C332.582 58.77 332.635 59.5623 333.145 59.5281Z" fill="#E6E1C8"/>
<path d="M334.603 58.5657C335.113 58.5316 335.061 57.7392 334.55 57.7734C334.039 57.8076 334.092 58.5999 334.603 58.5657Z" fill="#E6E1C8"/>
<path d="M336.368 57.8916C336.878 57.8575 336.826 57.0651 336.315 57.0993C335.804 57.1336 335.857 57.9258 336.368 57.8916Z" fill="#E6E1C8"/>
<path d="M335.787 59.9678C336.297 59.9337 336.245 59.1413 335.734 59.1755C335.223 59.2097 335.276 60.002 335.787 59.9678Z" fill="#E6E1C8"/>
<path d="M337.583 59.4363C338.092 59.4022 338.04 58.6098 337.53 58.644C337.019 58.6782 337.072 59.4705 337.583 59.4363Z" fill="#E6E1C8"/>
<path d="M338.47 58.5532C338.98 58.5191 338.928 57.7267 338.417 57.761C337.906 57.7952 337.96 58.5875 338.47 58.5532Z" fill="#E6E1C8"/>
<path d="M338.14 60.4828C338.145 61.0236 338.997 60.9666 338.932 60.4298C338.905 59.9156 338.099 59.9709 338.14 60.4828Z" fill="#E6E1C8"/>
<path d="M335.842 73.6128C334.921 73.1903 333.881 73.3794 333.881 73.3794C333.881 73.3794 334.168 72.7566 334.294 71.8316C334.426 70.8665 334.134 69.7705 333.832 69.0042C333.593 68.3995 332.988 67.3046 331.679 66.3511C331.543 66.2527 331.32 66.0899 331.047 65.9225C330.938 65.3887 330.82 64.8567 330.699 64.3343C330.757 64.3542 330.814 64.3743 330.87 64.3905C331.534 64.606 332.224 64.7945 332.96 64.9071C333.237 64.9495 333.521 64.9808 333.809 64.9974C334.123 65.2363 334.521 65.3689 334.944 65.3405C335.875 65.2782 336.58 64.4723 336.517 63.5413C336.455 62.6104 335.649 61.9057 334.719 61.968C334.363 61.9918 334.042 62.1234 333.784 62.329C333.727 62.309 333.671 62.2902 333.614 62.2688C333.117 62.0766 332.616 61.8183 332.117 61.5268C331.988 61.4532 331.878 61.3863 331.763 61.3171C331.65 61.2464 331.539 61.1729 331.43 61.0966C331.212 60.9455 331.002 60.7831 330.802 60.6134C330.402 60.2715 330.036 59.8968 329.709 59.4955C329.646 59.4176 329.567 59.3366 329.49 59.2675C329.422 59.2084 329.351 59.1561 329.277 59.108C329.034 58.3179 328.874 57.8417 328.874 57.8417C328.874 57.8417 331.905 56.5034 333.244 53.9665C334.798 51.0199 334.729 47.3411 334.729 47.3411L322.239 48.1777C322.203 47.952 322.129 47.7248 322.004 47.5037C321.424 46.4867 320.09 46.1848 319.108 46.358C317.912 46.5681 317.263 47.4777 317.085 47.727C316.403 48.684 316.04 50.2124 316.771 51.4501C316.882 51.6363 317.434 52.5716 318.444 52.748C318.53 52.7634 318.615 52.771 318.699 52.7747C318.229 53.7506 317.736 54.8646 317.257 56.0944C317.013 55.4223 316.646 54.655 316.086 53.8861C314.671 51.9475 313.057 50.9029 311.918 50.4156C310.453 49.7895 308.544 49.3019 306.412 49.7551C304.265 50.2119 302.954 51.6022 302.378 52.231C300.859 53.8833 300.374 55.7064 300.205 56.6834C300.011 57.8039 299.685 59.692 300.673 61.3262C301.774 63.1439 303.762 64.3226 303.762 64.3226C303.762 64.3226 302.674 65.9752 302.23 68.1019C301.771 70.296 302.725 72.2164 303.079 72.9289C303.295 73.3654 304.131 74.8427 305.97 76.1215C307.681 77.3121 309.318 77.5301 310.539 77.7202C311.599 77.8853 313.693 77.7742 315.366 77.6622L337.08 76.2078C337.08 76.2078 337.174 75.2333 336.851 74.6103C336.736 74.3872 336.427 73.8826 335.842 73.6141L335.842 73.6128Z" fill="#DF4942"/>
<path d="M326.014 52.9121C325.857 52.9943 325.708 53.0878 325.569 53.1966L325.568 53.1967C324.847 53.7609 324.41 54.659 324.476 55.6401C324.581 57.2154 325.943 58.4068 327.518 58.3013C327.744 58.2862 328.184 58.3018 328.999 57.8785C330.574 57.0595 332.133 55.9509 333.204 54.0328C334.83 51.1252 334.727 47.3427 334.727 47.3427L326.014 52.9121Z" fill="#E6E1C8"/>
<path d="M331.593 47.5525L334.4 50.7229C334.4 50.7229 334.594 50.1541 334.68 49.2704C334.765 48.3866 334.727 47.3439 334.727 47.3439L331.593 47.5538L331.593 47.5525Z" fill="#38372F"/>
<path d="M327.616 52.1302C328.126 51.8777 328.335 51.2592 328.082 50.7489C327.83 50.2386 327.211 50.0297 326.701 50.2822C326.191 50.5348 325.982 51.1532 326.235 51.6635C326.487 52.1738 327.105 52.3827 327.616 52.1302Z" fill="#38372F"/>
<path d="M332.676 54.1438C332.006 54.2961 331.258 54.0119 330.846 53.4652C330.693 53.2619 330.363 53.4829 330.517 53.6875C331.046 54.3882 331.954 54.7107 332.806 54.5171C332.91 54.4928 332.961 54.3568 332.928 54.2635C332.89 54.1533 332.781 54.1182 332.675 54.1412L332.676 54.1438Z" fill="#38372F"/>
<path d="M307.35 65.4365C306.858 65.4695 306.215 65.4515 305.504 65.2736C304.953 65.1355 304.421 64.9191 303.928 64.6298C303.835 64.5737 303.803 64.4525 303.857 64.3587C303.913 64.2647 304.034 64.2327 304.128 64.2875C304.589 64.5577 305.084 64.7606 305.599 64.8893C306.754 65.1767 307.712 65.017 308.071 64.9359C308.416 64.8571 309.332 64.6486 310.218 63.8703C310.674 63.4697 311.284 62.7749 311.594 61.7434C311.746 61.2372 312.001 60.3898 311.651 59.4025C311.303 58.4218 310.569 57.8979 310.269 57.7177C309.308 57.1401 308.545 57.1846 308.075 57.3222C307.874 57.3807 307.406 57.5182 307.081 57.9631C306.839 58.2936 306.777 58.6493 306.767 58.8887C306.763 58.9978 306.669 59.0836 306.561 59.0789C306.452 59.0743 306.367 58.9818 306.371 58.8728C306.383 58.5788 306.46 58.14 306.761 57.7285C307.166 57.1761 307.725 57.0114 307.963 56.941C308.509 56.7811 309.388 56.7249 310.473 57.3764C310.81 57.578 311.634 58.1661 312.025 59.2687C312.419 60.3777 312.129 61.3389 311.974 61.8559C311.637 62.9781 310.976 63.732 310.481 64.167C309.519 65.0114 308.496 65.2443 308.161 65.3212C307.996 65.3588 307.716 65.4107 307.352 65.4351L307.35 65.4365Z" fill="#E6E1C8"/>
<path d="M303.557 59.6728C303.545 59.6736 303.533 59.6744 303.521 59.6712C303.413 59.6586 303.334 59.5604 303.347 59.4508L303.635 56.9803C303.648 56.872 303.746 56.7925 303.855 56.8064C303.964 56.819 304.042 56.9172 304.029 57.0268L303.741 59.4973C303.731 59.5935 303.652 59.6664 303.558 59.6727L303.557 59.6728Z" fill="#E6E1C8"/>
<path d="M301.331 58.9743C301.321 58.975 301.31 58.9757 301.298 58.9738C301.189 58.9626 301.109 58.8658 301.12 58.7563L301.337 56.5625C301.348 56.453 301.445 56.3736 301.554 56.3848C301.664 56.396 301.743 56.4928 301.732 56.6024L301.516 58.7961C301.506 58.8936 301.426 58.9679 301.331 58.9743Z" fill="#E6E1C8"/>
<path d="M302.161 54.6517C302.122 54.6543 302.08 54.6452 302.042 54.6225C301.95 54.5637 301.922 54.4422 301.979 54.3495L303.263 52.2965C303.32 52.2038 303.443 52.1756 303.536 52.2331C303.629 52.2919 303.657 52.4133 303.599 52.5061L302.315 54.5591C302.281 54.6158 302.222 54.6476 302.16 54.6518L302.161 54.6517Z" fill="#E6E1C8"/>
<path d="M303.952 55.1975C303.906 55.2006 303.857 55.1879 303.818 55.1561C303.731 55.0889 303.715 54.964 303.782 54.8773L305.23 52.995C305.297 52.9083 305.422 52.8919 305.508 52.9591C305.595 53.0262 305.611 53.1511 305.544 53.2379L304.096 55.1202C304.06 55.1677 304.007 55.1938 303.952 55.1975Z" fill="#E6E1C8"/>
<path d="M305.774 55.7412C305.716 55.7451 305.655 55.7227 305.614 55.6764C305.541 55.5951 305.547 55.47 305.628 55.3956L306.855 54.2921C306.936 54.219 307.061 54.2252 307.136 54.3064C307.209 54.3878 307.202 54.5129 307.121 54.5873L305.894 55.6908C305.861 55.7222 305.818 55.7383 305.774 55.7412Z" fill="#E6E1C8"/>
<path d="M306.572 51.3891C306.48 51.3952 306.394 51.3373 306.368 51.2462C306.337 51.1408 306.399 51.0306 306.504 51.001L308.553 50.4101C308.659 50.3792 308.769 50.4408 308.798 50.5463C308.829 50.6516 308.768 50.7619 308.662 50.7915L306.614 51.3823C306.599 51.3859 306.586 51.3881 306.572 51.3891Z" fill="#E6E1C8"/>
<path d="M307.392 52.9087C307.293 52.9153 307.202 52.8471 307.183 52.7462C307.164 52.6387 307.236 52.5345 307.343 52.5154L308.874 52.2337C308.982 52.2133 309.086 52.2859 309.105 52.3934C309.124 52.5009 309.053 52.6051 308.945 52.6242L307.414 52.9059C307.406 52.9064 307.398 52.9069 307.392 52.9074L307.392 52.9087Z" fill="#E6E1C8"/>
<path d="M315.981 61.3169C315.959 61.3184 315.935 61.316 315.912 61.3096C315.806 61.2782 315.747 61.1681 315.779 61.0626L316.981 57.0387C317.012 56.9331 317.124 56.8739 317.228 56.9054C317.333 56.9368 317.393 57.0469 317.361 57.1525L316.159 61.1764C316.134 61.2576 316.062 61.3128 315.981 61.3182L315.981 61.3169Z" fill="#E6E1C8"/>
<path d="M314.737 67.8677C314.726 67.8685 314.714 67.8693 314.7 67.8662C314.592 67.8535 314.514 67.754 314.526 67.6457L315.065 63.1397C315.078 63.0314 315.177 62.9531 315.286 62.9657C315.394 62.9784 315.472 63.0779 315.459 63.1862L314.921 67.6922C314.908 67.7886 314.83 67.8602 314.737 67.8663L314.737 67.8677Z" fill="#E6E1C8"/>
<path d="M315.21 73.3579C315.108 73.3647 315.016 73.2913 315.001 73.1888L314.519 69.9091C314.502 69.8002 314.578 69.6996 314.687 69.6843C314.797 69.669 314.896 69.7433 314.911 69.8523L315.394 73.132C315.41 73.241 315.335 73.3416 315.226 73.3568C315.22 73.3572 315.215 73.3575 315.21 73.3579Z" fill="#E6E1C8"/>
<path d="M317.3 62.9648C317.28 62.9661 317.258 62.9649 317.238 62.9596C317.132 62.9336 317.067 62.8252 317.093 62.7186L317.965 59.2421C317.991 59.1356 318.1 59.0713 318.206 59.0974C318.313 59.1234 318.377 59.2318 318.351 59.3383L317.479 62.8148C317.457 62.8999 317.384 62.9592 317.3 62.9648Z" fill="#E6E1C8"/>
<path d="M316.378 69.9067C316.367 69.9074 316.357 69.9081 316.346 69.9062C316.236 69.8963 316.156 69.7995 316.166 69.6901L316.49 66.1454C316.5 66.036 316.597 65.9566 316.706 65.9652C316.816 65.9751 316.896 66.0718 316.887 66.1812L316.562 69.7259C316.552 69.8247 316.473 69.899 316.378 69.9054L316.378 69.9067Z" fill="#E6E1C8"/>
<path d="M319.638 61.9103C319.618 61.9116 319.598 61.9103 319.577 61.9051C319.47 61.8791 319.406 61.7706 319.432 61.6641L320.145 58.7871C320.171 58.6806 320.279 58.6163 320.386 58.6424C320.492 58.6684 320.557 58.7768 320.531 58.8833L319.818 61.7603C319.797 61.8466 319.723 61.9046 319.638 61.9103Z" fill="#E6E1C8"/>
<path d="M318.423 67.3995C318.411 67.4003 318.398 67.4012 318.385 67.398C318.277 67.3841 318.199 67.2858 318.213 67.1775L318.62 63.8382C318.634 63.7285 318.733 63.6529 318.841 63.6656C318.949 63.6795 319.027 63.7778 319.013 63.8861L318.606 67.2254C318.594 67.3217 318.515 67.3933 318.423 67.3995Z" fill="#E6E1C8"/>
<path d="M318.504 72.3984C318.504 72.3984 318.496 72.3989 318.494 72.3991C318.384 72.3998 318.294 72.313 318.294 72.2029L318.265 69.5786C318.264 69.4685 318.354 69.3816 318.461 69.3784C318.571 69.3777 318.661 69.4646 318.661 69.5746L318.69 72.1989C318.692 72.3049 318.609 72.3927 318.504 72.3997L318.504 72.3984Z" fill="#E6E1C8"/>
</g>
<g clip-path="url(#clip4_35_6)">
<path d="M384.939 4.45592C385.003 3.13039 385.703 1.06227 387.417 0.603673C389.568 0.0291536 391.361 2.50861 391.441 2.62461C392.782 4.53395 392.158 6.67355 392.089 6.89546C392.04 7.05355 391.209 9.62139 389.409 9.89507C387.295 10.2168 384.805 7.22803 384.938 4.45596L384.939 4.45592Z" fill="#DF4942"/>
<path d="M387.414 7.68841C386.612 6.88956 386.679 5.77404 386.687 5.67599C386.761 4.69268 387.445 3.40351 388.435 3.37596C389.456 3.34766 390.094 4.67729 390.141 4.77685C390.211 4.92621 390.623 5.85422 390.193 6.85071C389.926 7.4704 389.248 8.31187 388.421 8.249C387.941 8.21205 387.611 7.88495 387.414 7.68697L387.414 7.68841Z" fill="#E6E1C8"/>
<path d="M369.608 4.83789C369.478 3.51717 368.676 1.48648 366.941 1.11381C364.765 0.647086 363.098 3.21276 363.023 3.33262C361.779 5.30637 362.508 7.41227 362.588 7.63044C362.645 7.78588 363.603 10.3092 365.415 10.4928C367.542 10.709 369.879 7.59989 369.609 4.83785L369.608 4.83789Z" fill="#DF4942"/>
<path d="M367.297 8.18967C368.058 7.35188 367.936 6.24109 367.923 6.14355C367.799 5.16518 367.052 3.91166 366.062 3.93345C365.042 3.956 364.471 5.31576 364.428 5.41754C364.366 5.5702 364.001 6.51758 364.48 7.4914C364.777 8.09703 365.496 8.90372 366.319 8.79975C366.797 8.73891 367.109 8.39582 367.297 8.18823L367.297 8.18967Z" fill="#E6E1C8"/>
<path d="M398.409 40.7419C395.762 30.9502 395.153 29.8055 394.169 26.9302C393.337 24.4959 390.937 20.3004 390.937 20.3004C390.937 20.3004 391.621 17.1447 391.399 14.4218C391.271 12.8377 390.999 9.92601 389.078 6.95904C388.356 5.84447 386.459 3.26829 382.946 1.72536C380.6 0.695873 378.482 0.542857 377.236 0.54799C375.992 0.604896 373.884 0.8632 371.592 2.00967C368.16 3.72566 366.394 6.39308 365.729 7.54221C363.957 10.6012 363.831 13.5228 363.781 15.1113C363.695 17.8419 364.536 20.9596 364.536 20.9596C364.536 20.9596 362.348 25.2695 361.637 27.7422C360.799 30.6628 360.247 31.8365 358.091 41.7478C356.325 49.8578 356.27 52.5013 356.884 56.75C357.391 60.2487 358.467 62.677 359.209 64.3148C361.169 68.6451 363.02 70.0668 363.635 70.5063C363.748 70.5869 363.865 70.6703 363.987 70.7537C363.16 71.17 362.601 71.6675 362.409 72.0622C362.015 72.8794 361.984 74.951 361.984 74.951L372.296 74.694L372.146 68.6753C372.582 67.8125 372.57 67.1695 373.597 66.1912C374.714 65.1273 376.013 64.6632 376.505 64.4927C377.423 64.1748 378.235 64.0653 378.818 64.0292C379.4 64.0377 380.218 64.1051 381.151 64.3769C381.65 64.5228 382.97 64.9216 384.139 65.9286C385.214 66.8545 385.234 67.4972 385.713 68.3372L385.863 74.356L396.174 74.0991C396.174 74.0991 396.039 72.0317 395.606 71.2351C395.396 70.8489 394.813 70.3799 393.965 70.0067C394.083 69.9175 394.196 69.8283 394.304 69.7421C394.896 69.2741 396.675 67.7605 398.416 63.338C399.076 61.6652 400.031 59.1863 400.361 55.6668C400.763 51.3928 400.576 48.7553 398.409 40.7433L398.409 40.7419Z" fill="#DF4942"/>
<path d="M388.807 30.3002C387.834 29.1099 386.223 27.19 383.36 26.1691C381.031 25.3392 378.929 24.9757 377.773 25.1484C376.609 25.0349 374.527 25.5013 372.241 26.4461C369.432 27.6084 367.92 29.606 367.008 30.8434C363.128 36.1077 363.424 42.2308 363.549 44.8137C363.698 47.8939 363.913 52.2993 367.056 56.2965C367.984 57.4764 370.06 60.0423 373.764 61.1186C375.779 61.7045 377.561 61.9867 378.686 61.8522C379.817 61.932 381.582 61.5599 383.565 60.8744C387.211 59.615 389.157 56.9489 390.025 55.7242C392.966 51.5755 392.96 47.1663 392.955 44.081C392.951 41.4951 392.944 35.3649 388.805 30.3003L388.807 30.3002Z" fill="#E6E1C8"/>
<path d="M379.514 36.2075C379.402 36.2103 379.306 36.1263 379.295 36.0144L378.792 31.1528C378.781 31.0336 378.866 30.9279 378.985 30.9163C379.104 30.9047 379.21 30.9898 379.222 31.109L379.725 35.9706C379.736 36.0897 379.651 36.1955 379.532 36.2071C379.526 36.2072 379.52 36.2074 379.514 36.2075Z" fill="#DF4942"/>
<path d="M383.026 35.0825C382.93 35.0849 382.839 35.021 382.812 34.9238L381.768 31.1147C381.737 31.0004 381.804 30.8807 381.92 30.849C382.034 30.8174 382.154 30.8849 382.186 31.0007L383.23 34.8098C383.262 34.9241 383.194 35.0438 383.078 35.0755C383.061 35.0802 383.044 35.0821 383.026 35.0825Z" fill="#DF4942"/>
<path d="M385.369 32.6352C385.282 32.6374 385.197 32.5848 385.163 32.4979L384.104 29.7828C384.061 29.6716 384.116 29.5465 384.227 29.5034C384.338 29.4604 384.463 29.5148 384.507 29.626L385.565 32.341C385.608 32.4522 385.554 32.5773 385.442 32.6204C385.418 32.6296 385.394 32.6346 385.369 32.6352Z" fill="#DF4942"/>
<path d="M376.608 36.28C376.721 36.2772 376.812 36.1885 376.818 36.0761L377.078 31.1955C377.084 31.076 376.993 30.9746 376.874 30.9689C376.754 30.9633 376.652 31.0536 376.647 31.1732L376.387 36.0538C376.381 36.1734 376.471 36.2747 376.591 36.2804C376.597 36.2802 376.603 36.2801 376.608 36.28Z" fill="#DF4942"/>
<path d="M373.045 35.3313C373.141 35.3289 373.229 35.2605 373.251 35.1621L374.104 31.3057C374.13 31.1899 374.056 31.0737 373.939 31.0479C373.823 31.022 373.707 31.0954 373.681 31.2126L372.828 35.069C372.802 35.1848 372.875 35.3009 372.993 35.3268C373.01 35.3307 373.027 35.3317 373.045 35.3313Z" fill="#DF4942"/>
<path d="M370.581 33.0036C370.669 33.0014 370.751 32.9447 370.781 32.8562L371.703 30.0918C371.74 29.9786 371.68 29.8563 371.566 29.8189C371.453 29.7814 371.331 29.842 371.293 29.9552L370.371 32.7196C370.334 32.8328 370.394 32.955 370.508 32.9925C370.532 33.0005 370.557 33.0042 370.581 33.0036Z" fill="#DF4942"/>
<path d="M394.445 39.2029L388.512 27.2683C387.964 30.5386 386.919 33.7248 385.423 36.6834C385.137 37.2475 384.834 37.809 384.54 38.3733C382.689 38.8914 381.354 40.6099 381.404 42.6176C381.463 44.9891 383.435 46.864 385.809 46.8049C387.336 46.7668 388.655 45.9367 389.388 44.7197C391.502 43.3445 393.262 41.4284 394.445 39.2029Z" fill="#DF4942"/>
<path d="M361.844 40.0151L367.175 27.7999C367.885 31.0388 369.088 34.169 370.73 37.0494C371.043 37.5986 371.373 38.1444 371.695 38.6933C373.569 39.1186 374.989 40.7684 375.039 42.7761C375.098 45.1476 373.222 47.1184 370.848 47.1776C369.321 47.2156 367.962 46.4522 367.17 45.2732C364.989 44.005 363.136 42.179 361.844 40.0151Z" fill="#DF4942"/>
<path d="M377.631 20.8462C380.867 20.7656 383.434 18.4337 383.364 15.6378C383.295 12.842 380.615 10.6408 377.379 10.7214C374.142 10.8021 371.576 13.1339 371.645 15.9298C371.715 18.7257 374.395 20.9268 377.631 20.8462Z" fill="#E6E1C8"/>
<path d="M384.303 13.2099C384.935 13.1942 385.434 12.6702 385.418 12.0396C385.402 11.4089 384.878 10.9104 384.247 10.9261C383.615 10.9418 383.116 11.4658 383.132 12.0965C383.148 12.7272 383.672 13.2257 384.303 13.2099Z" fill="#38372F"/>
<path d="M370.678 13.5493C371.31 13.5336 371.809 13.0096 371.793 12.3789C371.777 11.7482 371.253 11.2497 370.622 11.2655C369.99 11.2812 369.491 11.8052 369.507 12.4359C369.523 13.0665 370.047 13.565 370.678 13.5493Z" fill="#38372F"/>
<path d="M381.885 15.4704C381.772 15.4329 381.65 15.495 381.614 15.6081C381.073 17.2607 379.583 18.4174 377.862 18.5524L377.79 15.6818L379.802 12.9867L375.188 13.1016L377.358 15.7256L377.429 18.5646C375.695 18.5258 374.137 17.4436 373.51 15.8158C373.467 15.7046 373.342 15.6487 373.231 15.6918C373.12 15.7348 373.064 15.86 373.107 15.9712C373.823 17.8327 375.646 19.0494 377.641 18.9997C379.636 18.95 381.401 17.6411 382.022 15.7433C382.059 15.6301 381.997 15.5079 381.884 15.4704L381.885 15.4704Z" fill="#38372F"/>
</g>
<g clip-path="url(#clip5_35_6)">
<path d="M462.874 62.9362C462.643 67.6261 460.645 71.3387 458.615 71.2384C456.584 71.1381 457.551 67.3746 457.783 62.6847C458.014 57.9948 456.938 54.1303 458.969 54.2307C460.999 54.331 463.104 58.2462 462.873 62.9361L462.874 62.9362Z" fill="#DF4942"/>
<path d="M431.912 61.4067C431.68 66.0966 433.302 69.9879 435.333 70.0883C437.363 70.1886 436.772 66.3481 437.004 61.6582C437.235 56.9683 438.688 53.2288 436.657 53.1285C434.626 53.0281 432.144 56.7168 431.912 61.4067Z" fill="#DF4942"/>
<path d="M449.519 75.8527L443.541 75.5573C437.876 75.2774 433.513 70.4048 433.796 64.6765L433.931 61.9489C434.296 54.5494 440.524 48.8443 447.84 49.2057C455.157 49.5672 460.791 55.8583 460.426 63.2579L460.291 65.9855C460.008 71.7154 455.185 76.1326 449.521 75.8528L449.519 75.8527Z" fill="#2EAC94"/>
<path d="M447.548 59.0185C454.956 59.3845 461.229 54.2517 461.56 47.5541C461.891 40.8565 456.154 35.1304 448.747 34.7644C441.339 34.3985 435.066 39.5313 434.735 46.2289C434.404 52.9264 440.141 58.6526 447.548 59.0185Z" fill="#2EAC94"/>
<path d="M446.947 71.1898C452.05 71.4419 456.422 66.8603 456.714 60.9566C457.006 55.0528 453.106 50.0625 448.003 49.8105C442.901 49.5584 438.528 54.1399 438.236 60.0437C437.944 65.9474 441.844 70.9377 446.947 71.1898Z" fill="#E6E1C8"/>
<path d="M453.756 38.5726C451.735 38.4727 449.862 39.2506 448.46 40.5895C447.197 39.119 445.41 38.1602 443.389 38.0604C439.316 37.8592 435.84 41.2167 435.625 45.5616C435.411 49.9065 438.538 53.5903 442.611 53.7915C444.633 53.8914 446.506 53.1135 447.908 51.7746C449.171 53.2451 450.958 54.2039 452.979 54.3037C457.052 54.505 460.528 51.1474 460.742 46.8025C460.957 42.4576 457.829 38.7738 453.756 38.5726Z" fill="#E6E1C8"/>
<path d="M453.655 40.6296C451.229 40.5098 449.092 42.0992 448.272 44.4012C447.682 42.0296 445.712 40.2373 443.287 40.1174C440.28 39.9689 437.713 42.4484 437.554 45.6568C437.396 48.8652 439.706 51.5857 442.713 51.7343C445.139 51.8541 447.276 50.2647 448.096 47.9628C448.685 50.3344 450.655 52.1267 453.081 52.2465C456.088 52.3951 458.655 49.9155 458.814 46.7071C458.972 43.4987 456.662 40.7782 453.655 40.6296Z" fill="#DF4942"/>
<path d="M452.254 49.2928C453.816 49.3699 455.146 48.133 455.226 46.5299C455.305 44.9269 454.103 43.5648 452.541 43.4876C450.979 43.4105 449.649 44.6474 449.57 46.2505C449.491 47.8535 450.692 49.2156 452.254 49.2928Z" fill="#E6E1C8"/>
<path d="M443.825 48.8763C445.387 48.9534 446.718 47.7165 446.797 46.1134C446.876 44.5104 445.674 43.1483 444.112 43.0711C442.55 42.9939 441.22 44.2309 441.141 45.834C441.062 47.437 442.264 48.7991 443.825 48.8763Z" fill="#E6E1C8"/>
<path d="M451.575 47.7429C452.334 47.7804 452.981 47.1884 453.018 46.4208C453.056 45.6531 452.472 45.0004 451.713 44.9629C450.954 44.9254 450.308 45.5173 450.27 46.285C450.232 47.0526 450.816 47.7054 451.575 47.7429Z" fill="#38372F"/>
<path d="M444.652 47.4008C445.411 47.4383 446.057 46.8464 446.095 46.0787C446.133 45.3111 445.548 44.6584 444.789 44.6209C444.03 44.5834 443.384 45.1753 443.346 45.9429C443.308 46.7106 443.893 47.3633 444.652 47.4008Z" fill="#38372F"/>
<path d="M450.226 50.6531L447.835 53.2119L445.708 50.4299L448.099 47.8711L450.226 50.6531Z" fill="#38372F"/>
<path d="M447.509 59.8231L446.248 56.6348L449.077 56.7746L447.509 59.8231Z" fill="#2EAC94"/>
<path d="M451.645 60.0274L450.384 56.8391L453.213 56.9789L451.645 60.0274Z" fill="#2EAC94"/>
<path d="M449.428 64.5375L448.166 61.3491L450.997 61.489L449.428 64.5375Z" fill="#2EAC94"/>
<path d="M445.135 64.3253L446.704 61.2768L443.874 61.137L445.135 64.3253Z" fill="#2EAC94"/>
<path d="M443.374 59.619L444.943 56.5705L442.113 56.4307L443.374 59.619Z" fill="#2EAC94"/>
</g>
<g clip-path="url(#clip6_35_6)">
<path d="M500.137 45.8523C500.137 45.8523 500.167 47.6383 500.547 49.9445C501.194 48.9673 502.268 47.3485 502.947 46.3273L500.137 45.8523Z" fill="#38372F"/>
<path d="M519.675 72.7678C519.105 72.6715 518.552 72.787 518.054 73.0685C518.242 67.9842 514.97 62.4837 510.055 60.4979C509.92 60.4437 509.785 60.3956 509.652 60.3521L508.756 54.8354C509.867 55.1739 511.106 55.3177 512.339 54.9978C516.144 54.0096 518.102 48.6112 518.102 48.6112L508.176 51.5421C509.499 50.8389 510.973 49.7269 512.065 47.9833C514.596 43.9473 513.67 38.0732 513.67 38.0732L506.047 50.854L497.418 49.3955C496.738 50.418 495.665 52.0349 495.017 53.0119C495.441 55.5923 496.388 58.3626 498.13 60.4719C498.799 61.2819 500.137 62.3184 501.105 62.7567L497.233 80.5233C497.233 80.5233 496.893 80.4463 496.277 80.9079C495.661 81.3694 495.914 82.6837 495.914 82.6837L499.233 83.2447L500.977 78.3607C501.404 79.4178 501.939 80.3858 502.565 81.2318C502.166 81.236 501.839 81.2734 501.627 81.3569C500.839 81.6684 500.56 83.469 500.56 83.469L508.563 84.8215L508.563 84.8006C513.096 85.3235 515.453 83.3266 516.724 80.0491C517.23 80.9196 517.973 81.5286 518.84 81.6752C520.616 81.9754 522.243 80.2252 522.474 77.7659C522.705 75.3065 521.451 73.0695 519.675 72.7693L519.675 72.7678Z" fill="#E6E1C8"/>
<path d="M508.15 51.113C508.314 50.5117 508.093 49.8441 507.656 49.6218C507.219 49.3995 506.732 49.7067 506.568 50.308C506.403 50.9093 506.624 51.5769 507.061 51.7992C507.498 52.0215 507.985 51.7143 508.15 51.113Z" fill="#38372F"/>
<path d="M501.965 54.4858C501.88 54.4713 501.818 54.3668 501.825 54.2486C501.832 54.1259 501.91 54.0346 501.999 54.0437C502.365 54.0817 502.575 54.0426 502.778 53.9739C502.947 53.916 503.23 53.8205 503.451 53.6369C503.679 53.4471 503.871 53.1885 504.019 52.8688C504.068 52.7651 504.167 52.7342 504.243 52.8007C504.318 52.8671 504.34 53.0036 504.291 53.1073C504.114 53.4849 503.888 53.7914 503.617 54.0172C503.354 54.2355 503.029 54.3461 502.854 54.4061C502.652 54.4749 502.405 54.5318 501.973 54.4885C501.971 54.4881 501.967 54.4876 501.965 54.4872L501.965 54.4858Z" fill="#38372F"/>
</g>
<g clip-path="url(#clip7_35_6)">
<path d="M586.356 31.2507C586.12 31.116 585.819 31.1991 585.684 31.4366L585.683 31.4413C585.415 31.9103 585.141 32.3711 584.85 32.8182C584.557 33.2636 584.254 33.6996 583.933 34.1202C583.289 34.96 582.587 35.7449 581.829 36.4616C581.016 37.2303 580.141 37.9266 579.214 38.5008C579.21 38.4921 579.206 38.486 579.202 38.4773C579.103 38.2437 579.02 37.9534 578.95 37.6385C578.802 37.0197 578.709 36.3845 578.661 35.7417C578.611 35.0994 578.619 34.4497 578.67 33.7992C578.724 33.1494 578.831 32.5021 578.985 31.8628L578.987 31.8557C579.043 31.6191 578.919 31.372 578.686 31.2829C578.434 31.1859 578.15 31.3121 578.052 31.565C577.796 32.2277 577.587 32.9112 577.434 33.6119C577.284 34.3121 577.179 35.0265 577.14 35.7491C577.098 36.4711 577.107 37.2 577.18 37.9279C577.213 38.2869 577.26 38.6678 577.371 39.0847C577.399 39.1871 577.431 39.2932 577.47 39.3999C577.218 39.5033 576.962 39.5979 576.705 39.6806C576.234 39.8292 575.763 39.9444 575.283 40.0152C574.804 40.0834 574.319 40.1195 573.838 40.1054C572.875 40.0837 571.924 39.8855 571.066 39.4929C569.375 38.7222 567.978 37.0662 567.701 35.0718L567.697 35.0424C567.666 34.8193 567.484 34.64 567.25 34.621C566.98 34.5994 566.744 34.8015 566.722 35.0722C566.709 35.2232 566.696 35.3765 566.691 35.5294C566.694 35.682 566.691 35.8368 566.7 35.9902C566.717 36.1418 566.726 36.2975 566.752 36.449C566.78 36.6 566.799 36.7558 566.838 36.9047C566.976 37.508 567.212 38.088 567.52 38.6285C568.136 39.7057 569.059 40.6249 570.167 41.244C570.382 41.3665 570.605 41.477 570.832 41.5771C570.761 41.7495 570.672 41.9172 570.57 42.0797C570.303 42.5055 569.937 42.884 569.499 43.1643L569.488 43.1714C569.296 43.2945 569.208 43.5376 569.291 43.7603C569.386 44.0154 569.669 44.1445 569.923 44.0491C570.551 43.814 571.131 43.4295 571.613 42.9346C571.87 42.6728 572.098 42.3778 572.292 42.0563C572.769 42.1647 573.253 42.2343 573.738 42.2623C574.971 42.3351 576.219 42.1581 577.376 41.7741C577.955 41.5835 578.515 41.3492 579.049 41.0718C579.584 40.7975 580.096 40.4857 580.58 40.1431C581.553 39.4618 582.418 38.6607 583.198 37.7983C583.973 36.9281 584.656 35.982 585.229 34.9793C585.514 34.4769 585.773 33.962 585.998 33.4324C586.225 32.9047 586.425 32.3665 586.586 31.8186C586.648 31.6039 586.559 31.3656 586.356 31.2507Z" fill="#38372F"/>
<path d="M597.112 66.2915L597.185 66.3301L597.132 66.2793C597.119 66.287 597.111 66.2924 597.111 66.2924L597.112 66.2915Z" fill="#DF4942"/>
<path d="M602.784 64.605C604.778 62.6207 602.458 59.0524 602.458 59.0524L602.454 59.0565C602.325 59.8163 601.978 61.7663 601.708 62.3341C601.236 63.3259 599.942 64.7651 599.237 65.244C598.623 65.6595 597.302 66.2319 597.127 66.3061L597.182 66.3498L597.539 66.5147C598.205 66.5019 601.035 66.3462 602.785 64.6053L602.784 64.605Z" fill="#E6E1C8"/>
<path d="M568.139 41.3545C571.04 42.1774 571.994 43.6018 572.701 46.6346C573.409 49.6675 574.629 55.6766 575.473 56.7545C576.316 57.8323 578.818 59.6957 580.849 60.2719L596.612 64.7432C598.063 65.1549 601.284 68.9008 599.798 74.1421C598.311 79.3834 595.164 80.9029 593.229 80.3541L571.149 74.0908C568.859 73.4412 566.068 71.4956 566.037 68.6547C566.007 65.8142 564.835 53.0018 564.835 53.0018L556.073 47.0563L556.583 41.8519L561.87 42.8269C561.87 42.8269 565.431 40.5863 568.139 41.3545Z" fill="#E6E1C8"/>
<path d="M596.612 64.7432L580.849 60.2719C578.818 59.6957 576.316 57.8323 575.473 56.7545C574.629 55.6766 573.408 49.666 572.701 46.6346C571.994 43.6018 571.04 42.1774 568.139 41.3545C565.431 40.5863 561.87 42.8269 561.87 42.8269L556.583 41.8519L556.454 43.172L563.276 45.1072C563.276 45.1072 564.848 43.4383 566.629 43.9434C568.41 44.4484 569.548 45.5985 569.803 46.9586C570.059 48.3176 572.03 58.8065 573.061 61.3059C574.088 63.7951 575.82 67.7669 578.389 69.19C578.389 69.19 581.475 70.9714 584.19 71.5795C586.813 72.3415 588.245 72.5944 590.156 72.3924C592.067 72.1904 593.493 71.4667 594.993 70.0529C595.976 69.127 597.23 67.0424 597.909 65.6268C597.433 65.1484 596.969 64.8432 596.611 64.7417L596.612 64.7432Z" fill="#DF4942"/>
<path d="M556.583 41.8517L556.278 44.9663L559.644 42.4174L556.583 41.8517Z" fill="#38372F"/>
<path d="M565.072 46.8724C565.589 47.019 566.127 46.7173 566.274 46.1987C566.421 45.68 566.122 45.1407 565.605 44.9942C565.088 44.8476 564.55 45.1492 564.403 45.6679C564.256 46.1865 564.555 46.7258 565.072 46.8724Z" fill="#38372F"/>
<path d="M558.502 48.7126C559.471 48.8292 560.467 48.6216 561.314 48.137C561.519 48.019 561.341 47.6978 561.136 47.8158C560.338 48.2721 559.416 48.4549 558.505 48.3445C558.405 48.3329 558.321 48.4366 558.32 48.528C558.318 48.6373 558.404 48.7013 558.502 48.7138L558.502 48.7126Z" fill="#38372F"/>
<path d="M570.374 45.6591C570.374 45.6591 573.01 43.9908 574.894 44.2202C576.779 44.4485 578.63 47.8031 578.63 47.8031C578.63 47.8031 576.224 48.7671 574.212 48.4504C572.2 48.1348 570.374 45.6591 570.374 45.6591Z" fill="#DF4942"/>
<path d="M572.596 46.324C572.596 46.324 573.799 45.5636 574.658 45.6682C575.517 45.7728 576.361 47.3026 576.361 47.3026C576.361 47.3026 575.264 47.7418 574.346 47.5976C573.428 47.4534 572.595 46.3249 572.595 46.3249L572.596 46.324Z" fill="#E6E1C8"/>
<path d="M582.096 64.1277C582.082 64.1237 582.068 64.1185 582.054 64.1095L578.766 62.217C578.679 62.1667 578.649 62.0534 578.699 61.9656C578.75 61.8778 578.861 61.8469 578.95 61.8976L582.238 63.7901C582.325 63.8404 582.356 63.9536 582.305 64.0415C582.262 64.1161 582.175 64.1501 582.096 64.1277Z" fill="#E6E1C8"/>
<path d="M581.413 67.499C581.396 67.494 581.379 67.4866 581.362 67.4754L577.817 65.122C577.732 65.0661 577.709 64.9525 577.765 64.8675C577.821 64.7825 577.935 64.7586 578.019 64.8157L581.564 67.1691C581.649 67.225 581.671 67.3386 581.615 67.4235C581.57 67.4925 581.488 67.52 581.412 67.4986L581.413 67.499Z" fill="#E6E1C8"/>
<path d="M588.229 65.3875C588.218 65.3845 588.209 65.3818 588.199 65.3764L584.795 63.7306C584.703 63.6867 584.666 63.5766 584.71 63.4844C584.754 63.3922 584.864 63.3544 584.956 63.3983L588.359 65.0441C588.451 65.0881 588.489 65.1982 588.445 65.2904C588.405 65.3723 588.314 65.4115 588.229 65.3875Z" fill="#E6E1C8"/>
<path d="M588.227 68.0381C588.218 68.0354 588.21 68.0331 588.201 68.028L584.435 66.2973C584.343 66.2546 584.302 66.1461 584.345 66.0536C584.388 65.9611 584.497 65.9206 584.588 65.963L588.354 67.6937C588.446 67.7365 588.487 67.845 588.444 67.9375C588.405 68.0209 588.313 68.0625 588.227 68.0381Z" fill="#E6E1C8"/>
<path d="M586.986 69.9258C586.978 69.9235 586.971 69.9215 586.963 69.9179L584.184 68.7187C584.091 68.6783 584.048 68.5704 584.088 68.4772C584.129 68.384 584.238 68.3408 584.329 68.3809L587.108 69.5801C587.201 69.6205 587.244 69.7284 587.204 69.8216C587.167 69.9069 587.073 69.9505 586.985 69.9255L586.986 69.9258Z" fill="#E6E1C8"/>
<path d="M590.687 65.0701L593.151 66.0896" stroke="#E6E1C8" stroke-width="3" stroke-miterlimit="10" stroke-linecap="round"/>
<path d="M592.497 69.0437C592.483 69.0396 592.468 69.0341 592.455 69.0254L590.227 67.731C590.14 67.6795 590.109 67.5674 590.161 67.4799C590.212 67.3924 590.324 67.3616 590.411 67.4131L592.639 68.7075C592.727 68.7579 592.757 68.8711 592.705 68.9586C592.663 69.0332 592.576 69.066 592.497 69.0437Z" fill="#E6E1C8"/>
<path d="M597.389 66.5271C597.389 66.5271 597.442 66.5243 597.536 66.5141L597.186 66.3291L597.388 66.5268L597.389 66.5271Z" fill="#DF4942"/>
<path d="M601.706 62.3337C601.977 61.7658 602.324 59.8158 602.453 59.056L596.145 65.536L597.126 66.3056C597.301 66.2303 598.622 65.6591 599.236 65.2435C599.942 64.7649 601.236 63.3258 601.706 62.3337Z" fill="#DF4942"/>
<path d="M596.153 79.9084L591.681 78.6399L587.668 92.7868L592.14 94.0554L596.153 79.9084Z" fill="#E6E1C8"/>
<path d="M592.14 94.0542L587.668 92.7856L586.537 96.7713L591.009 98.0398L592.14 94.0542Z" fill="#38372F"/>
<path d="M590.709 78.364L586.237 77.0955L582.224 91.2424L586.696 92.5109L590.709 78.364Z" fill="#E6E1C8"/>
<path d="M586.696 92.5098L582.224 91.2412L581.093 95.2268L585.565 96.4954L586.696 92.5098Z" fill="#38372F"/>
<path d="M574.595 73.7932L570.123 72.5247L566.11 86.6716L570.582 87.9401L574.595 73.7932Z" fill="#E6E1C8"/>
<path d="M570.582 87.939L566.11 86.6704L564.98 90.656L569.452 91.9246L570.582 87.939Z" fill="#38372F"/>
<path d="M562.472 74.3621L569.842 73.5158L569.321 68.8819L559.447 70.0157C558.802 70.0892 558.216 70.4312 557.832 70.9565C557.448 71.4818 557.3 72.1446 557.424 72.7834L558.713 79.4029C559.874 79.195 562.296 78.7435 563.288 78.5591L562.471 74.3618L562.472 74.3621Z" fill="#E6E1C8"/>
<path d="M564.094 82.6933L563.289 78.5607C562.297 78.7452 559.875 79.1967 558.714 79.4045L559.53 83.5965L564.094 82.6933Z" fill="#38372F"/>
</g>
<g clip-path="url(#clip8_35_6)">
<path d="M644.667 55.9824L642.773 55.4546L629.62 110.183L631.514 110.711L644.667 55.9824Z" fill="#38372F"/>
<path d="M650.241 28.5634L631.898 49.0706L657.048 56.0791L650.241 28.5634Z" fill="#DF4942"/>
<path d="M646.161 45.5414L622.611 64.5977L658.174 74.508L646.161 45.5414Z" fill="#2EAC94"/>
<path d="M642.249 61.8176L612.36 82.4714L659.086 95.4926L642.249 61.8176Z" fill="#DF4942"/>
</g>
<path d="M687.562 109.194C698.047 112.765 711 100.017 716.493 80.7222C721.985 61.427 717.938 42.8905 707.453 39.3197C696.968 35.7489 684.015 48.4961 678.522 67.7913C673.029 87.0864 677.076 105.623 687.562 109.194Z" fill="#2EAC94"/>
<path d="M707.243 82.2994C706.929 81.9427 706.409 81.9359 706.082 82.2865C705.075 83.3663 703.972 84.2588 702.806 84.9439C701.492 85.7114 700.13 86.2013 698.753 86.3947C697.39 86.5854 695.79 86.2977 694.892 86.0865L699.898 68.5007C700.703 68.665 702.169 68.8692 703.512 68.5168C704.796 68.1818 706.079 67.5213 707.324 66.5488C708.402 65.7082 709.436 64.6449 710.389 63.3951C710.68 63.0134 710.636 62.4423 710.291 62.124C709.945 61.8058 709.426 61.8561 709.135 62.2378C708.271 63.3701 707.346 64.3268 706.38 65.0767C705.308 65.9113 704.22 66.4792 703.144 66.76C702.184 67.0084 701.088 66.8888 700.393 66.7618L703.989 54.1305C704.124 53.6544 703.884 53.1485 703.452 53.0014C703.02 52.8543 702.559 53.1214 702.423 53.5975L696.66 73.8434C696.032 73.5046 695.184 72.9622 694.581 72.231C693.842 71.3319 693.236 70.1908 692.791 68.8356C692.388 67.6199 692.12 66.257 691.996 64.7879C691.955 64.2932 691.554 63.9295 691.104 63.9769C690.654 64.0244 690.319 64.4666 690.363 64.9623C690.498 66.5866 690.796 68.0995 691.249 69.4613C691.77 71.035 692.483 72.3757 693.366 73.4484C694.218 74.4841 695.399 75.1966 696.167 75.5869L691.159 93.1796C690.292 92.7746 688.959 92.0555 688.005 91.1216C686.972 90.1074 686.104 88.8619 685.422 87.4108C684.816 86.1258 684.373 84.7033 684.104 83.1885C684.016 82.7007 683.584 82.3834 683.142 82.4786C682.698 82.5774 682.408 83.0538 682.492 83.5406C682.789 85.2237 683.287 86.8049 683.963 88.2424C684.738 89.8876 685.728 91.3072 686.908 92.4663C688.089 93.6254 689.704 94.4667 690.661 94.906L681.2 128.139C681.065 128.615 681.305 129.121 681.737 129.268C682.169 129.415 682.63 129.148 682.765 128.672L694.397 87.8106C694.397 87.8106 694.41 87.8148 694.416 87.817C695.393 88.0513 697.285 88.4154 698.952 88.1807C700.525 87.9597 702.08 87.4068 703.569 86.5323C704.875 85.7696 706.103 84.7724 707.22 83.5746C707.545 83.2275 707.554 82.655 707.237 82.2973L707.243 82.2994Z" fill="#38372F"/>
<defs>
<clipPath id="clip0_35_6">
<rect width="48.3284" height="84.4705" fill="white" transform="matrix(0.977189 -0.212372 0.206238 0.978502 89.4385 36.3269)"/>
</clipPath>
<clipPath id="clip1_35_6">
<rect width="77" height="73" fill="white" transform="translate(149.515 30.6006) rotate(-12.4066)"/>
</clipPath>
<clipPath id="clip2_35_6">
<rect width="44" height="44" fill="white" transform="translate(240.243 39.2944) rotate(-5.60181)"/>
</clipPath>
<clipPath id="clip3_35_6">
<rect width="40" height="31" fill="white" transform="translate(299.243 47.6726) rotate(-3.83178)"/>
</clipPath>
<clipPath id="clip4_35_6">
<rect width="44" height="74" fill="white" transform="translate(355.243 1.09595) rotate(-1.42721)"/>
</clipPath>
<clipPath id="clip5_35_6">
<rect width="31" height="41" fill="white" transform="translate(433.266 33.9998) rotate(2.82835)"/>
</clipPath>
<clipPath id="clip6_35_6">
<rect width="30.521" height="47.0742" fill="white" transform="matrix(0.986016 0.166648 -0.093348 0.995634 501.436 32.0024)"/>
</clipPath>
<clipPath id="clip7_35_6">
<rect width="51" height="63" fill="white" transform="translate(561.588 24.2095) rotate(15.8367)"/>
</clipPath>
<clipPath id="clip8_35_6">
<rect width="48.5061" height="84.2137" fill="white" transform="matrix(0.963295 0.268445 -0.233674 0.972315 626.88 22.0535)"/>
</clipPath>
</defs>
</svg>
