<svg width="154" height="157" viewBox="0 0 154 157" fill="none" xmlns="http://www.w3.org/2000/svg">
<g clip-path="url(#clip0_32_65)">
<path d="M110.149 96.11C108.452 91.0925 107.038 90.5054 102.694 81.2409C98.7991 72.935 96.8515 68.782 95.9118 63.0643C95.7952 62.3494 95.6998 61.647 95.6214 60.9548L101.693 67.4889L101.975 56.2132L110.924 63.9226L113.992 51.6448L124.312 58.7491L123.821 52.6663C130.889 61.0548 134.51 65.4106 136.035 68.36C141.466 78.8515 138.386 90.54 137.891 92.3222C132.68 111.07 112.738 117.154 111.336 117.559C113.066 107.655 111.673 100.629 110.145 96.1109L110.149 96.11Z" fill="#DF4942"/>
<path d="M113.994 51.6407L110.927 63.9184L101.978 56.2091L101.695 67.4848L95.6238 60.9506C94.577 51.6367 96.8751 44.3458 97.4998 42.4813C98.5778 39.27 101.94 29.686 111.078 23.3684C117.637 18.8354 126.207 18.632 126.207 18.632C126.207 18.632 122.597 22.0168 119.031 28.6159C117.597 31.2714 115.432 35.2711 115.855 39.8251C116.231 43.8906 118.473 46.3188 122.521 51.1161C122.968 51.6476 123.402 52.1603 123.823 52.6621L124.314 58.745L113.994 51.6407Z" fill="#E6E1C8"/>
<path d="M44.6707 111.728C50.9707 116.742 58.8323 121.22 58.8323 121.22L65.2965 138.542C65.2965 138.542 63.2143 141.748 63.9953 143.85L65.0106 146.567L58.5114 149.079C58.5114 149.079 57.1247 147.15 56.9227 144.826C56.7241 142.502 59.184 140.548 59.184 140.548L57.4612 137.125L44.6707 111.728Z" fill="#DF4942"/>
<path d="M64.9707 137.671L58.8324 121.22C58.8324 121.22 50.9708 116.742 44.6708 111.728L40.363 103.174L62.6116 112.596L66.6047 133.593L68.792 145.107L65.0082 146.571L63.993 143.854C63.1571 140.914 64.9682 137.675 64.9682 137.675L64.9707 137.671Z" fill="#E6E1C8"/>
<path d="M60.6113 119.774C60.6113 119.774 41.5541 108.92 39.0083 102.092C36.4633 95.2684 28.5558 74.0756 28.5558 74.0756L54.4032 62.9057C54.4032 62.9057 56.4345 68.3274 59.5912 71.1103C62.748 73.8932 78.8526 75.6806 93.8497 79.4949C108.847 83.3091 116.311 92.2392 120.621 103.788C124.93 115.337 116.558 126.644 116.558 126.644L67.0371 145.786L65.7752 142.408C64.9917 140.309 67.0764 137.099 67.0764 137.099L60.6122 119.777L60.6113 119.774Z" fill="#DF4942"/>
<path d="M1.8716 37.9704C3.60867 35.7092 14.6893 40.6821 17.9284 42.1994C20.7799 40.2029 26.3073 36.4619 29.1209 35.3754C31.9346 34.2889 38.5078 33.3549 41.9432 32.9212C43.3731 29.5974 48.4217 18.3911 51.1942 18.9104C54.0572 19.4457 56.3261 40.6418 56.8342 45.7472C59.0331 48.2454 60.77 50.4723 61.2371 51.7225C61.6268 52.7703 61.2532 54.6334 60.3448 56.8884C56.5387 56.4448 53.1842 56.663 50.7382 60.1858C50.6098 60.3702 50.4874 60.5639 50.365 60.7577C50.3294 60.8147 50.2947 60.8752 50.2601 60.9357C50.1725 61.0836 50.0858 61.2348 49.9991 61.386C49.9645 61.4465 49.9298 61.507 49.896 61.5709C49.7847 61.78 49.6743 61.9924 49.5691 62.2108C49.5666 62.2152 49.565 62.2229 49.5625 62.2272C49.4598 62.4413 49.3587 62.6622 49.2645 62.8813C49.2324 62.9521 49.2038 63.0219 49.1726 63.0961C49.1014 63.2652 49.0334 63.4333 48.9664 63.6049C48.9386 63.6782 48.91 63.7481 48.8822 63.8213C48.7923 64.0576 48.7067 64.2963 48.622 64.5385C49.0437 67.8784 49.2233 71.6856 49.0174 72.9185C48.6644 75.0138 47.0632 77.4252 45.1021 78.181C43.141 78.9367 40.3702 78.2158 38.7403 76.8893C37.7789 76.1043 35.4302 73.1379 33.571 70.3549C33.352 70.2307 33.1305 70.1108 32.9098 69.9943C32.8394 69.9583 32.7733 69.9248 32.7028 69.8888C32.5408 69.8042 32.3771 69.7273 32.2168 69.6496C32.1473 69.617 32.0778 69.5844 32.0116 69.5509C31.7945 69.4481 31.5758 69.3531 31.358 69.2614C31.3538 69.2589 31.3462 69.2573 31.3419 69.2548C31.1208 69.164 30.9005 69.0767 30.6787 68.9972C30.6118 68.9748 30.5483 68.9516 30.4814 68.9293C30.3188 68.8704 30.1546 68.8193 29.9938 68.7673C29.9278 68.7484 29.8643 68.7252 29.7983 68.7062C29.58 68.6404 29.3601 68.5822 29.1453 68.53C25.0165 67.5474 22.3653 69.6511 19.8089 72.5524C17.6628 71.4813 16.1634 70.3393 15.7738 69.2915C15.3057 68.0379 15.154 65.1999 15.168 61.8493C12.2154 57.6876 0.0915463 40.3017 1.88169 37.9677L1.8716 37.9704Z" fill="#DF4942"/>
<path d="M44.2803 76.0051L37.2965 71.1967L46.3677 67.6916L44.2803 76.0051Z" fill="#38372F"/>
<path d="M26.2805 59.2752C24.8121 59.6685 23.935 61.1988 24.3215 62.6932C24.708 64.1876 26.2118 65.0801 27.6802 64.6868C29.1487 64.2935 30.0258 62.7632 29.6393 61.2688C29.2528 59.7744 27.749 58.8818 26.2805 59.2752Z" fill="#38372F"/>
<path d="M47.3701 51.1243C45.9017 51.5176 45.0246 53.0479 45.4111 54.5423C45.7976 56.0367 47.3014 56.9293 48.7698 56.5359C50.2383 56.1426 51.1154 54.6123 50.7289 53.1179C50.3424 51.6235 48.8386 50.731 47.3701 51.1243Z" fill="#38372F"/>
<path d="M29.1317 68.5336C30.6851 68.9112 32.161 69.573 33.5574 70.3584C35.4209 73.144 37.7663 76.1113 38.7268 76.8928C32.5132 76.966 24.5541 74.9318 19.7911 72.5534C22.3475 69.6521 24.9987 67.5484 29.1275 68.531L29.1317 68.5336Z" fill="#E6E1C8"/>
<path d="M7.69621 43.4953C8.67805 42.2191 15.8484 45.7339 15.8484 45.7339L14.3956 55.4173C14.3956 55.4173 6.71436 44.7714 7.69621 43.4953Z" fill="#E6E1C8"/>
<path d="M48.615 64.5403C50.0873 58.9483 54.7698 55.6238 60.3446 56.8885C58.3331 61.8824 53.7084 68.7797 49.0114 72.9238C49.2197 71.6865 49.041 67.8828 48.6159 64.5438L48.615 64.5403Z" fill="#E6E1C8"/>
<path d="M45.8045 34.1621C45.8045 34.1621 48.8776 26.6855 50.4418 26.9798C52.0093 27.2732 53.2073 40.4238 53.2073 40.4238L45.8054 34.1655L45.8045 34.1621Z" fill="#E6E1C8"/>
<path d="M71.1013 81.4402C71.2289 81.3914 71.3389 81.2888 71.3963 81.1491C71.5093 80.8774 71.3824 80.5676 71.1197 80.455L63.9504 77.3752C63.6835 77.2602 63.379 77.3893 63.2684 77.6567C63.1554 77.9284 63.2822 78.2382 63.545 78.3507L70.7142 81.4305C70.8439 81.4872 70.9796 81.4838 71.1005 81.4368L71.1013 81.4402Z" fill="#E6E1C8"/>
<path d="M73.105 91.0905C73.1931 91.0559 73.2716 90.9983 73.333 90.916C73.5064 90.683 73.4636 90.3507 73.2371 90.1699L64.6939 83.5151C64.4649 83.3387 64.1384 83.3822 63.9607 83.6127C63.7874 83.8457 63.8302 84.178 64.0567 84.3588L72.5999 91.0136C72.7488 91.131 72.9371 91.1501 73.1007 91.088L73.105 91.0905Z" fill="#E6E1C8"/>
<path d="M87.7281 85.4398C87.8489 85.3928 87.954 85.2988 88.0148 85.1727C88.1406 84.9086 88.0297 84.5908 87.771 84.4663L78.7817 80.089C78.5222 79.961 78.2099 80.0739 78.0875 80.3371C77.9617 80.6012 78.0727 80.919 78.3313 81.0436L87.3206 85.4209C87.4529 85.4878 87.6005 85.4886 87.7314 85.4389L87.7281 85.4398Z" fill="#E6E1C8"/>
<path d="M86.2283 91.2732C86.3458 91.2271 86.4484 91.1375 86.5101 91.0149C86.6402 90.7532 86.5359 90.4337 86.2789 90.3014L76.0525 85.074C75.7955 84.9416 75.4814 85.0477 75.3514 85.3093C75.2214 85.5709 75.3256 85.8905 75.5827 86.0228L85.809 91.2502C85.9456 91.3197 86.0974 91.3229 86.2283 91.2732Z" fill="#E6E1C8"/>
<path d="M84.2292 97.0101C84.324 96.9737 84.4109 96.9066 84.4738 96.8166C84.6378 96.5751 84.5782 96.2473 84.3443 96.0795L80.0132 93.0222C79.7759 92.8553 79.4504 92.9169 79.2855 93.1549C79.1215 93.3964 79.1812 93.7242 79.415 93.892L83.7462 96.9493C83.8916 97.053 84.0756 97.0695 84.2292 97.0101Z" fill="#E6E1C8"/>
<path d="M103.12 89.7115C103.234 89.6663 103.332 89.5853 103.394 89.4661C103.529 89.207 103.435 88.8848 103.18 88.7481L95.094 84.3337C94.8428 84.1962 94.5261 84.292 94.3885 84.552C94.2542 84.811 94.3483 85.1333 94.6029 85.2699L102.689 89.6844C102.827 89.7607 102.983 89.7665 103.12 89.7115Z" fill="#E6E1C8"/>
<path d="M102.044 95.4572C102.132 95.4227 102.217 95.3632 102.277 95.2775C102.45 95.0411 102.4 94.7106 102.171 94.5341L95.4404 89.4386C95.2081 89.263 94.8833 89.3135 94.7099 89.5464C94.5375 89.7828 94.587 90.1134 94.816 90.2898L101.547 95.3854C101.695 95.4994 101.883 95.5185 102.044 95.4572Z" fill="#E6E1C8"/>
<path d="M100.459 101.687C100.568 101.647 100.662 101.566 100.724 101.458C100.87 101.203 100.786 100.878 100.536 100.733L94.3316 97.0475C94.0811 96.8988 93.7618 96.9843 93.619 97.2383C93.4729 97.4933 93.5569 97.8183 93.8066 97.9635L100.011 101.649C100.151 101.732 100.319 101.742 100.459 101.687Z" fill="#E6E1C8"/>
</g>
<defs>
<clipPath id="clip0_32_65">
<rect width="125.663" height="127.74" fill="white" transform="matrix(-0.965949 0.258733 -0.250403 -0.968142 153.371 123.671)"/>
</clipPath>
</defs>
</svg>
