<svg width="768" height="226" viewBox="0 0 768 226" fill="none" xmlns="http://www.w3.org/2000/svg">
<path d="M769 0H0V69C153.304 119.713 205.171 152 370 152C534.829 152 604.328 124.518 769 69V0Z" fill="#1C6EB8"/>
<path d="M705.301 110.066C694.623 112.464 689.556 128.699 693.983 146.328C698.409 163.956 710.653 176.302 721.331 173.904C732.008 171.505 737.075 155.27 732.649 137.642C728.222 120.013 715.978 107.667 705.301 110.066Z" fill="#2EAC94"/>
<path d="M701.164 140.555C701.602 140.677 702.051 140.426 702.164 139.994C702.517 138.663 703.039 137.43 703.715 136.326C704.478 135.086 705.413 134.036 706.502 133.209C707.579 132.391 709.087 131.826 709.957 131.547L713.992 147.614C713.224 147.883 711.87 148.446 710.886 149.38C709.944 150.271 709.157 151.414 708.55 152.779C708.025 153.959 707.642 155.29 707.417 156.726C707.348 157.165 707.656 157.585 708.103 157.661C708.549 157.737 708.97 157.443 709.039 157.005C709.244 155.703 709.584 154.508 710.056 153.453C710.58 152.279 711.244 151.304 712.033 150.558C712.739 149.893 713.734 149.446 714.39 149.202L717.288 160.742C717.398 161.177 717.843 161.45 718.283 161.351C718.723 161.253 718.991 160.819 718.882 160.384L714.237 141.887C714.936 141.84 715.92 141.842 716.782 142.112C717.842 142.443 718.901 143.027 719.924 143.857C720.845 144.599 721.72 145.521 722.522 146.596C722.791 146.959 723.307 147.043 723.67 146.785C724.033 146.527 724.111 146.02 723.839 145.658C722.954 144.468 721.983 143.444 720.949 142.614C719.758 141.653 718.512 140.967 717.248 140.572C716.027 140.19 714.677 140.22 713.834 140.296L709.798 124.223C710.733 124.11 712.216 124.01 713.476 124.263C714.841 124.539 716.175 125.075 717.447 125.862C718.574 126.558 719.628 127.44 720.575 128.479C720.882 128.813 721.402 128.846 721.736 128.555C722.069 128.26 722.093 127.748 721.79 127.414C720.738 126.258 719.563 125.28 718.303 124.5C716.861 123.609 715.34 122.998 713.779 122.683C712.218 122.368 710.436 122.512 709.408 122.643L701.784 92.2808C701.675 91.8458 701.229 91.5729 700.789 91.6717C700.349 91.7706 700.081 92.2038 700.19 92.6388L709.564 129.97C709.564 129.97 709.552 129.973 709.545 129.974C708.597 130.274 706.803 130.923 705.486 131.925C704.242 132.871 703.171 134.064 702.309 135.473C701.551 136.705 700.97 138.081 700.58 139.558C700.465 139.986 700.729 140.433 701.17 140.554L701.164 140.555Z" fill="#38372F"/>
<g clip-path="url(#clip0_32_3)">
<path d="M654.596 158.936L656.536 158.692L649.014 108.556L647.074 108.8L654.596 158.936Z" fill="#38372F"/>
<path d="M659.302 183.688L668.879 160.07L643.121 163.316L659.302 183.688Z" fill="#DF4942"/>
<path d="M656.969 168.135L671.878 143.845L635.455 148.434L656.969 168.135Z" fill="#2EAC94"/>
<path d="M654.732 153.225L674.925 125.326L627.069 131.356L654.732 153.225Z" fill="#DF4942"/>
</g>
<g clip-path="url(#clip1_32_3)">
<path d="M537.657 142.96L545.337 161.126C545.337 161.126 544.864 164.918 545.127 167.253C545.387 169.589 546.285 170.612 546.285 170.612L543.553 170.297L546.695 175.376L543.527 175.479L546.701 180.702L544.238 180.702L547.69 186.259L545.919 203.767C545.919 203.767 547.351 203.258 548.198 202.539C549.044 201.82 550.623 199.236 550.623 199.236L551.73 207.455L556.466 208.27C556.466 208.27 556.22 203.293 557.167 200.583C557.464 199.734 559.218 199.048 560.489 198.01C561.828 196.918 562.434 192.063 562.58 188.588C562.725 185.113 562.475 181.065 566.609 176.995C570.743 172.925 582.951 173.391 589.258 171.877C590.098 171.676 590.834 171.413 591.48 171.102C592.905 171.628 594.725 172.029 596.287 171.52C599.397 170.505 603.04 166.773 603.04 166.773L601.833 166.318C601.833 166.318 603.592 165.151 605.008 163.949C606.292 162.86 608.067 159.922 608.067 159.922L606.519 159.538C606.519 159.538 608.684 157.991 610.129 155.196C610.986 153.539 612.102 150.075 612.102 150.075L610.514 150.434C610.514 150.434 611.149 148.628 611.321 146.615C611.492 144.601 610.711 141.143 610.711 141.143C610.711 141.143 608.132 142.66 607.418 143.653C606.704 144.647 605.416 145.872 605.416 145.872L605.036 144.192C605.036 144.192 602.51 146.642 601.861 147.76C600.763 149.654 600.409 151.885 600.409 151.885L599.774 149.536C599.774 149.536 597.695 151.549 596.794 153.43C596.452 154.145 595.887 155.483 595.247 157.034C594.351 154.302 592.935 152.105 592.914 150.371C592.884 147.883 593.216 128.169 593.216 128.169L590.536 125.728L577.438 128.688C577.438 128.688 577.435 130.293 578.498 131.439C578.954 131.928 579.823 132.403 580.738 132.673L578.573 145.779C578.573 145.779 575.075 147.364 573.348 149.144C571.622 150.925 570.412 153.216 570.412 153.216C570.412 153.216 566.749 153.483 564.311 153.285C561.873 153.087 556.819 154.27 556.819 154.27L546.375 135.709L532.926 138.748C532.926 138.748 532.923 140.354 533.986 141.5C534.681 142.247 536.34 142.957 537.655 142.959L537.657 142.96Z" fill="#E6E1C8"/>
<path d="M563.201 191.203C565.747 190.144 568.056 186.427 568.056 186.427L561.374 186.069L561.012 191.697C561.012 191.697 561.507 191.907 563.201 191.203Z" fill="#2EAC94"/>
<path d="M554.708 198.573C554.465 199.737 554.085 203.074 554.203 207.882L556.467 208.272C556.467 208.272 556.221 203.295 557.168 200.585C557.465 199.736 559.218 199.049 560.489 198.012C561.828 196.92 562.435 192.065 562.58 188.59C562.726 185.115 562.475 181.067 566.61 176.997C570.744 172.927 582.951 173.393 589.258 171.879C590.087 171.68 590.813 171.421 591.454 171.117C590.21 169.347 588.431 167.013 586.854 165.689C583.744 163.08 580.368 161.81 573.473 162.228C566.579 162.645 557.885 167.474 557.11 174.446C556.459 180.314 557.763 190.81 557.276 194.228C556.788 197.647 554.981 197.256 554.706 198.574L554.708 198.573Z" fill="#2EAC94"/>
<path d="M555.643 195.067C555.487 194.376 555.923 193.69 556.616 193.534C557.308 193.377 557.997 193.811 558.153 194.5C558.309 195.189 557.873 195.876 557.18 196.033C556.488 196.189 555.799 195.756 555.643 195.067Z" fill="#38372F"/>
<path d="M538.18 137.587C538.311 137.558 538.447 137.627 538.494 137.756C538.783 138.519 539.152 139.329 540.185 140.084C540.79 140.527 542.471 141.185 542.487 141.193L542.561 141.221L542.607 141.285C542.755 141.483 546.203 146.332 545.918 160.62C545.915 160.769 545.791 160.888 545.641 160.887C545.491 160.883 545.37 160.76 545.373 160.609C545.638 147.348 542.601 142.267 542.21 141.666C541.858 141.526 540.454 140.952 539.864 140.521C538.712 139.678 538.29 138.749 537.987 137.947C537.935 137.806 538.006 137.649 538.147 137.597C538.159 137.594 538.171 137.589 538.184 137.587L538.18 137.587Z" fill="#D6AD49"/>
<path d="M582.813 127.533L582.819 127.532C582.967 127.502 583.111 127.596 583.141 127.743C583.251 128.279 583.445 128.67 584.195 129.312C585.238 130.204 586.552 130.174 586.565 130.175L586.905 130.165L586.841 130.497L583.557 147.766L583.419 147.821C583.39 147.833 580.453 149.036 578.917 150.553C577.302 152.149 576.599 154.461 576.593 154.485C576.551 154.628 576.398 154.711 576.254 154.669C576.11 154.627 576.027 154.475 576.069 154.332C576.099 154.232 576.817 151.867 578.533 150.168C579.968 148.748 582.458 147.639 583.076 147.377L586.245 130.708C585.73 130.663 584.714 130.478 583.837 129.727C583.077 129.078 582.755 128.588 582.603 127.857C582.574 127.711 582.665 127.57 582.811 127.537L582.813 127.533Z" fill="#D6AD49"/>
<path d="M573.337 171.613C573.337 171.613 573.353 171.609 573.36 171.608L578.005 170.972C578.155 170.951 578.293 171.056 578.311 171.204C578.332 171.354 578.227 171.491 578.078 171.509L573.433 172.145C573.283 172.166 573.145 172.061 573.127 171.913C573.108 171.772 573.2 171.642 573.336 171.611L573.337 171.613Z" fill="#E6E1C8"/>
<path d="M571.968 168.774L577.607 167.5C577.754 167.466 577.9 167.558 577.933 167.705C577.966 167.851 577.874 167.997 577.726 168.03L572.087 169.304C571.94 169.337 571.794 169.246 571.761 169.099C571.728 168.953 571.82 168.807 571.968 168.774Z" fill="#E6E1C8"/>
<path d="M571.749 165.511C571.749 165.511 571.754 165.51 571.758 165.509L575.444 164.799C575.593 164.771 575.736 164.867 575.763 165.015C575.791 165.163 575.696 165.312 575.546 165.333L571.86 166.044C571.711 166.072 571.568 165.976 571.541 165.828C571.514 165.684 571.605 165.544 571.749 165.511Z" fill="#E6E1C8"/>
<path d="M569.833 171.292C569.966 171.262 570.102 171.334 570.15 171.464C570.2 171.605 570.127 171.761 569.986 171.811L566.332 173.129C566.189 173.18 566.035 173.107 565.984 172.966C565.934 172.825 566.007 172.67 566.148 172.619L569.802 171.301C569.812 171.299 569.824 171.294 569.835 171.292L569.833 171.292Z" fill="#E6E1C8"/>
<path d="M569.103 168.058C569.236 168.028 569.371 168.099 569.419 168.23C569.47 168.371 569.397 168.526 569.256 168.579L565.404 169.971C565.263 170.022 565.107 169.949 565.054 169.809C565.004 169.668 565.077 169.512 565.218 169.46L569.069 168.067C569.08 168.065 569.092 168.06 569.103 168.058Z" fill="#E6E1C8"/>
<path d="M582.185 169.821C582.205 169.817 582.223 169.815 582.243 169.814L585.566 169.788C585.717 169.787 585.839 169.908 585.841 170.058C585.842 170.208 585.72 170.33 585.569 170.333L582.247 170.359C582.096 170.36 581.974 170.239 581.973 170.089C581.972 169.959 582.063 169.849 582.185 169.821Z" fill="#E6E1C8"/>
<path d="M580.368 165.917C580.393 165.912 580.421 165.909 580.447 165.91L583.72 166.129C583.87 166.14 583.985 166.268 583.974 166.419C583.963 166.568 583.834 166.683 583.683 166.673L580.409 166.454C580.26 166.443 580.145 166.315 580.155 166.164C580.163 166.041 580.253 165.943 580.368 165.917Z" fill="#E6E1C8"/>
<path d="M556.512 204.483L556.468 208.271L552.86 207.651L556.512 204.483Z" fill="#38372F"/>
</g>
<g clip-path="url(#clip2_32_3)">
<path d="M497.898 155.214C498.139 157.074 497.781 157.485 497.839 161.112C497.892 164.363 497.917 165.989 498.51 167.95C498.584 168.196 498.663 168.433 498.747 168.666L499.664 165.628L501.512 169.153L503.163 165.285L506.053 168.684L508.235 164.787L509.026 166.792C509.972 163.008 510.447 161.051 510.473 159.874C510.568 155.684 507.767 152.475 507.33 151.989C502.749 146.882 495.447 148.137 494.937 148.233C497.031 151.093 497.682 153.542 497.899 155.215L497.898 155.214Z" fill="#DF4942"/>
<path d="M506.052 168.684L503.162 165.285L501.511 169.153L499.663 165.628L498.746 168.666C499.863 171.782 501.732 173.725 502.221 174.215C503.064 175.06 505.629 177.56 509.525 178.102C512.321 178.491 515.084 177.189 515.084 177.189C515.084 177.189 513.405 176.693 511.241 175.171C510.371 174.56 509.059 173.637 508.483 172.127C507.969 170.78 508.306 169.654 508.848 167.488C508.908 167.248 508.966 167.017 509.022 166.791L508.232 164.786L506.05 168.683L506.052 168.684Z" fill="#E6E1C8"/>
<path d="M474.601 160.713C475.827 158.121 477.634 155.448 477.634 155.448L476.995 148.93C476.995 148.93 475.832 148.246 475.754 147.456L475.654 146.434L473.191 146.675C473.191 146.675 473.05 147.508 473.348 148.276C473.647 149.045 474.735 149.271 474.735 149.271L474.719 150.63L474.601 160.713Z" fill="#DF4942"/>
<path d="M477.029 149.259L477.636 155.449C477.636 155.449 475.828 158.122 474.602 160.714L474.563 164.111L480.185 157.578L478.186 150.291L477.09 146.295L475.657 146.436L475.757 147.459C475.949 148.524 477.03 149.261 477.03 149.261L477.029 149.259Z" fill="#E6E1C8"/>
<path d="M478.427 155.622C478.427 155.622 474.046 162.1 474.298 164.668L475.332 175.208L485.308 174.621C485.308 174.621 485.112 172.581 485.683 171.194C486.254 169.808 491.108 166.674 495.294 163.073C499.478 159.472 500.465 155.454 500.039 151.11C499.613 146.765 495.183 144.519 495.183 144.519L476.422 146.36L476.547 147.631C476.625 148.421 477.788 149.105 477.788 149.105L478.427 155.622Z" fill="#DF4942"/>
<path d="M472.453 190.9C473.359 191.34 476.116 187.997 476.911 186.998C478.131 187.175 480.475 187.479 481.54 187.374C482.605 187.27 484.847 186.516 486.008 186.106C486.983 186.93 490.336 189.673 491.139 189.067C491.967 188.441 489.389 181.367 488.754 179.669C489.066 178.527 489.272 177.546 489.226 177.075C489.187 176.68 488.777 176.15 488.137 175.581C486.993 176.329 485.891 176.795 484.562 176.07C484.492 176.032 484.422 175.991 484.353 175.948C484.332 175.935 484.312 175.922 484.291 175.909C484.24 175.877 484.189 175.843 484.138 175.807C484.118 175.793 484.097 175.78 484.077 175.766C484.009 175.717 483.941 175.667 483.873 175.615C483.872 175.614 483.869 175.613 483.868 175.61C483.802 175.559 483.736 175.505 483.671 175.45C483.65 175.433 483.63 175.415 483.608 175.397C483.559 175.356 483.512 175.312 483.463 175.27C483.442 175.251 483.422 175.233 483.401 175.214C483.336 175.154 483.271 175.092 483.207 175.028C482.82 173.903 482.286 172.669 482.027 172.312C481.588 171.705 480.702 171.197 479.959 171.27C479.217 171.343 478.446 172.013 478.134 172.693C477.95 173.095 477.665 174.409 477.504 175.588C477.453 175.663 477.402 175.736 477.349 175.808C477.333 175.831 477.316 175.852 477.3 175.874C477.262 175.926 477.222 175.977 477.182 176.028C477.166 176.049 477.149 176.071 477.131 176.092C477.078 176.158 477.024 176.224 476.969 176.287C476.968 176.288 476.965 176.29 476.964 176.293C476.909 176.357 476.851 176.419 476.794 176.48C476.777 176.498 476.759 176.516 476.742 176.533C476.699 176.577 476.655 176.621 476.612 176.663C476.593 176.679 476.576 176.696 476.558 176.713C476.499 176.768 476.438 176.823 476.377 176.873C475.215 177.842 474.042 177.599 472.775 177.088C472.258 177.77 471.959 178.37 471.998 178.764C472.044 179.236 472.438 180.158 472.964 181.218C472.672 183.006 471.517 190.446 472.451 190.9L472.453 190.9Z" fill="#DF4942"/>
<path d="M480.042 172.088L478.564 174.725L482.003 174.388L480.042 172.088Z" fill="#38372F"/>
<path d="M476.617 178.306C476.08 178.359 475.687 178.842 475.74 179.386C475.793 179.929 476.273 180.327 476.81 180.274C477.348 180.222 477.741 179.738 477.688 179.195C477.634 178.651 477.155 178.253 476.617 178.306Z" fill="#38372F"/>
<path d="M484.608 177.522C484.07 177.575 483.678 178.058 483.731 178.602C483.784 179.145 484.264 179.543 484.801 179.491C485.339 179.438 485.732 178.954 485.679 178.411C485.625 177.867 485.146 177.47 484.608 177.522Z" fill="#38372F"/>
<path d="M476.378 176.871C476.815 176.504 477.182 176.059 477.505 175.586C477.666 174.407 477.951 173.093 478.135 172.692C476.143 173.66 473.924 175.575 472.778 177.086C474.045 177.598 475.217 177.841 476.38 176.871L476.378 176.871Z" fill="#E6E1C8"/>
<path d="M473.448 188.221C473.96 188.468 475.697 186.21 475.697 186.21L473.725 183.377C473.725 183.377 472.937 187.973 473.447 188.221L473.448 188.221Z" fill="#E6E1C8"/>
<path d="M483.209 175.027C484.549 176.562 486.559 176.869 488.138 175.58C486.719 174.32 484.171 172.873 482.029 172.31C482.288 172.668 482.823 173.902 483.209 175.027Z" fill="#E6E1C8"/>
<path d="M487.046 185.097C487.046 185.097 489.19 186.975 489.642 186.633C490.096 186.29 488.428 181.935 488.428 181.935L487.044 185.097L487.046 185.097Z" fill="#E6E1C8"/>
<path d="M487.742 166.089C487.791 166.084 487.841 166.099 487.88 166.133C487.958 166.201 487.967 166.319 487.9 166.397L486.095 168.516C486.028 168.594 485.911 168.603 485.834 168.536C485.756 168.468 485.747 168.349 485.814 168.271L487.618 166.152C487.651 166.114 487.695 166.093 487.742 166.089Z" fill="#E6E1C8"/>
<path d="M486.876 162.713C486.909 162.71 486.943 162.715 486.976 162.731C487.067 162.777 487.106 162.889 487.061 162.983L485.376 166.453C485.33 166.545 485.22 166.584 485.127 166.539C485.035 166.492 484.997 166.381 485.041 166.287L486.727 162.817C486.756 162.756 486.813 162.719 486.876 162.713Z" fill="#E6E1C8"/>
<path d="M492.417 162.17C492.463 162.165 492.511 162.178 492.55 162.208C492.631 162.272 492.645 162.39 492.582 162.471L490.399 165.292C490.336 165.373 490.22 165.387 490.139 165.324C490.058 165.26 490.044 165.142 490.107 165.06L492.29 162.24C492.322 162.198 492.369 162.174 492.417 162.17Z" fill="#E6E1C8"/>
<path d="M491.029 160.562C491.073 160.558 491.12 160.57 491.158 160.6C491.24 160.662 491.257 160.78 491.195 160.863L488.751 164.15C488.689 164.232 488.573 164.249 488.491 164.186C488.409 164.124 488.392 164.006 488.454 163.924L490.898 160.637C490.931 160.593 490.978 160.567 491.029 160.562Z" fill="#E6E1C8"/>
<path d="M489.499 159.063C489.534 159.06 489.572 159.066 489.606 159.085C489.696 159.136 489.729 159.249 489.68 159.341L488.776 161.001C488.727 161.091 488.614 161.125 488.524 161.074C488.434 161.024 488.401 160.911 488.45 160.819L489.354 159.159C489.384 159.103 489.439 159.069 489.499 159.063Z" fill="#E6E1C8"/>
<path d="M496.656 158.361C496.699 158.357 496.744 158.368 496.781 158.396C496.864 158.455 496.884 158.573 496.826 158.657L494.937 161.346C494.878 161.43 494.762 161.45 494.677 161.39C494.594 161.331 494.574 161.213 494.633 161.128L496.522 158.44C496.555 158.394 496.603 158.366 496.655 158.361L496.656 158.361Z" fill="#E6E1C8"/>
<path d="M495.418 156.713C495.453 156.71 495.488 156.716 495.521 156.733C495.612 156.781 495.648 156.893 495.603 156.985L494.252 159.672C494.205 159.765 494.093 159.801 494.002 159.755C493.911 159.707 493.875 159.595 493.921 159.503L495.272 156.815C495.302 156.756 495.358 156.72 495.419 156.714L495.418 156.713Z" fill="#E6E1C8"/>
<path d="M493.942 154.994C493.983 154.99 494.025 154.999 494.062 155.023C494.147 155.08 494.172 155.196 494.115 155.283L492.712 157.441C492.655 157.528 492.541 157.552 492.454 157.493C492.369 157.437 492.344 157.321 492.402 157.234L493.805 155.076C493.837 155.027 493.888 154.998 493.942 154.992L493.942 154.994Z" fill="#E6E1C8"/>
</g>
<g clip-path="url(#clip3_32_3)">
<path d="M403.228 162.001L405.537 160.832L406.9 163.033C407.861 164.585 408.133 166.43 407.653 168.143L407.255 169.559C406.791 171.212 405.008 172.157 403.273 171.67L401.832 171.265C400.095 170.778 399.065 169.042 399.528 167.389L399.926 165.973C400.406 164.26 401.599 162.826 403.227 162.002L403.228 162.001Z" fill="#2EAC94"/>
<path d="M401.677 171.47L402.065 171.579L401.477 172.985L402.683 173.323L402.911 171.817L403.299 171.926C405.251 172.473 407.256 171.411 407.778 169.552L408.012 168.718L399.324 166.278L399.089 167.112C398.567 168.97 399.727 170.923 401.678 171.47L401.677 171.47Z" fill="#38372F"/>
<path d="M405.055 170.71C404.545 170.731 404.576 171.525 405.088 171.504C405.6 171.483 405.567 170.689 405.055 170.71Z" fill="#E6E1C8"/>
<path d="M405.957 168.639C405.447 168.66 405.478 169.453 405.989 169.432C406.501 169.411 406.468 168.618 405.957 168.639Z" fill="#E6E1C8"/>
<path d="M404.475 169.563C403.964 169.584 403.996 170.378 404.507 170.357C405.019 170.336 404.986 169.542 404.475 169.563Z" fill="#E6E1C8"/>
<path d="M402.693 170.191C402.183 170.212 402.214 171.006 402.726 170.985C403.237 170.964 403.205 170.17 402.693 170.191Z" fill="#E6E1C8"/>
<path d="M403.327 168.131C402.817 168.152 402.848 168.945 403.36 168.924C403.872 168.903 403.839 168.11 403.327 168.131Z" fill="#E6E1C8"/>
<path d="M401.519 168.616C401.009 168.637 401.04 169.43 401.551 169.409C402.063 169.388 402.03 168.595 401.519 168.616Z" fill="#E6E1C8"/>
<path d="M400.609 169.476C400.098 169.497 400.13 170.29 400.641 170.269C401.153 170.248 401.12 169.455 400.609 169.476Z" fill="#E6E1C8"/>
<path d="M400.989 167.555C400.997 167.015 400.145 167.05 400.196 167.588C400.209 168.103 401.017 168.068 400.989 167.555Z" fill="#E6E1C8"/>
<path d="M403.625 154.489C404.534 154.935 405.579 154.773 405.579 154.773C405.579 154.773 405.276 155.388 405.126 156.309C404.969 157.271 405.233 158.374 405.515 159.148C405.739 159.759 406.315 160.869 407.599 161.856C407.732 161.958 407.951 162.126 408.22 162.3C408.315 162.837 408.419 163.372 408.527 163.897C408.469 163.876 408.412 163.854 408.357 163.837C407.699 163.604 407.014 163.398 406.282 163.266C406.005 163.217 405.722 163.178 405.435 163.154C405.127 162.907 404.733 162.764 404.309 162.782C403.377 162.82 402.652 163.607 402.69 164.54C402.728 165.472 403.515 166.197 404.447 166.159C404.803 166.144 405.128 166.021 405.391 165.822C405.447 165.844 405.502 165.864 405.559 165.887C406.051 166.092 406.545 166.363 407.037 166.667C407.163 166.744 407.272 166.814 407.385 166.886C407.497 166.959 407.606 167.036 407.712 167.115C407.927 167.272 408.132 167.439 408.327 167.614C408.719 167.966 409.075 168.35 409.391 168.76C409.453 168.839 409.529 168.922 409.605 168.993C409.671 169.054 409.741 169.108 409.813 169.158C410.036 169.954 410.183 170.435 410.183 170.435C410.183 170.435 407.119 171.694 405.715 174.196C404.085 177.101 404.059 180.781 404.059 180.781L416.567 180.267C416.597 180.493 416.665 180.722 416.784 180.946C417.338 181.978 418.664 182.314 419.649 182.166C420.851 181.987 421.523 181.095 421.707 180.85C422.414 179.911 422.817 178.392 422.117 177.136C422.012 176.947 421.484 175.998 420.479 175.796C420.393 175.778 420.308 175.768 420.224 175.762C420.72 174.799 421.241 173.698 421.751 172.481C421.978 173.159 422.325 173.936 422.866 174.719C424.23 176.693 425.816 177.779 426.943 178.296C428.391 178.959 430.286 179.496 432.43 179.098C434.587 178.697 435.934 177.341 436.526 176.727C438.087 175.115 438.619 173.305 438.813 172.332C439.036 171.217 439.411 169.338 438.465 167.679C437.411 165.833 435.454 164.604 435.454 164.604C435.454 164.604 436.584 162.98 437.083 160.865C437.598 158.684 436.695 156.739 436.359 156.018C436.154 155.576 435.357 154.078 433.552 152.752C431.872 151.517 430.241 151.257 429.025 151.036C427.97 150.843 425.874 150.9 424.199 150.969L402.454 151.863C402.454 151.863 402.335 152.835 402.641 153.466C402.751 153.692 403.046 154.204 403.625 154.488L403.625 154.489Z" fill="#DF4942"/>
<path d="M412.915 175.436C413.075 175.358 413.226 175.269 413.367 175.164L413.369 175.164C414.104 174.618 414.564 173.732 414.523 172.749C414.459 171.172 413.128 169.945 411.551 170.01C411.325 170.02 410.885 169.993 410.06 170.395C408.464 171.173 406.877 172.241 405.756 174.131C404.056 176.995 404.062 180.779 404.062 180.779L412.915 175.436Z" fill="#E6E1C8"/>
<path d="M407.2 180.65L404.475 177.408C404.475 177.408 404.267 177.972 404.159 178.853C404.051 179.735 404.062 180.778 404.062 180.778L407.2 180.649L407.2 180.65Z" fill="#38372F"/>
<path d="M411.294 176.177C410.777 176.416 410.553 177.029 410.792 177.545C411.031 178.062 411.644 178.287 412.16 178.048C412.677 177.808 412.902 177.195 412.662 176.679C412.423 176.162 411.81 175.937 411.294 176.177Z" fill="#38372F"/>
<path d="M406.287 174.033C406.961 173.898 407.702 174.202 408.099 174.759C408.247 174.966 408.582 174.754 408.433 174.545C407.923 173.831 407.023 173.485 406.167 173.657C406.062 173.678 406.008 173.813 406.038 173.907C406.073 174.018 406.182 174.056 406.289 174.036L406.287 174.033Z" fill="#38372F"/>
<path d="M431.896 163.398C432.389 163.378 433.031 163.412 433.737 163.608C434.285 163.761 434.811 163.991 435.296 164.293C435.388 164.351 435.417 164.473 435.36 164.565C435.301 164.658 435.18 164.687 435.087 164.63C434.633 164.348 434.144 164.132 433.632 163.99C432.486 163.673 431.523 163.808 431.162 163.88C430.815 163.949 429.895 164.134 428.988 164.889C428.522 165.278 427.895 165.957 427.558 166.98C427.393 167.482 427.117 168.323 427.441 169.319C427.764 170.308 428.484 170.851 428.779 171.039C429.725 171.641 430.488 171.616 430.962 171.491C431.164 171.437 431.636 171.312 431.973 170.876C432.223 170.551 432.294 170.198 432.31 169.958C432.317 169.85 432.413 169.766 432.52 169.774C432.629 169.781 432.713 169.876 432.705 169.985C432.686 170.278 432.598 170.715 432.286 171.118C431.867 171.66 431.304 171.81 431.064 171.875C430.514 172.02 429.634 172.054 428.566 171.375C428.234 171.164 427.426 170.555 427.063 169.443C426.698 168.324 427.013 167.371 427.181 166.858C427.547 165.745 428.228 165.008 428.733 164.586C429.717 163.767 430.745 163.56 431.083 163.492C431.248 163.459 431.53 163.414 431.894 163.399L431.896 163.398Z" fill="#E6E1C8"/>
<path d="M435.539 169.258C435.551 169.257 435.563 169.257 435.575 169.26C435.683 169.275 435.759 169.376 435.743 169.485L435.392 171.947C435.376 172.055 435.276 172.132 435.167 172.115C435.059 172.1 434.983 172 434.999 171.89L435.35 169.428C435.364 169.332 435.444 169.261 435.538 169.258L435.539 169.258Z" fill="#E6E1C8"/>
<path d="M437.746 170.013C437.757 170.013 437.767 170.012 437.779 170.015C437.888 170.029 437.965 170.127 437.951 170.237L437.678 172.424C437.664 172.533 437.566 172.61 437.456 172.596C437.347 172.582 437.27 172.483 437.284 172.374L437.557 170.187C437.569 170.089 437.651 170.017 437.746 170.013Z" fill="#E6E1C8"/>
<path d="M436.805 174.313C436.845 174.311 436.886 174.322 436.923 174.345C437.014 174.406 437.039 174.529 436.979 174.62L435.643 176.639C435.583 176.73 435.46 176.755 435.368 176.695C435.277 176.634 435.252 176.512 435.312 176.421L436.649 174.402C436.685 174.346 436.744 174.315 436.806 174.313L436.805 174.313Z" fill="#E6E1C8"/>
<path d="M435.029 173.721C435.075 173.719 435.124 173.733 435.162 173.766C435.247 173.835 435.26 173.961 435.191 174.046L433.695 175.89C433.625 175.975 433.5 175.988 433.415 175.919C433.33 175.849 433.317 175.724 433.387 175.639L434.882 173.795C434.92 173.748 434.974 173.723 435.029 173.721Z" fill="#E6E1C8"/>
<path d="M433.221 173.13C433.279 173.128 433.34 173.152 433.38 173.199C433.451 173.283 433.442 173.407 433.359 173.48L432.104 174.551C432.021 174.622 431.896 174.613 431.824 174.53C431.753 174.446 431.762 174.322 431.845 174.249L433.1 173.178C433.135 173.147 433.178 173.132 433.221 173.13Z" fill="#E6E1C8"/>
<path d="M432.312 177.461C432.403 177.457 432.488 177.517 432.512 177.609C432.54 177.715 432.475 177.823 432.369 177.85L430.306 178.388C430.2 178.416 430.091 178.352 430.064 178.246C430.036 178.14 430.1 178.031 430.207 178.004L432.27 177.466C432.284 177.463 432.298 177.461 432.312 177.461Z" fill="#E6E1C8"/>
<path d="M431.531 175.92C431.63 175.916 431.719 175.987 431.735 176.088C431.752 176.196 431.678 176.299 431.57 176.315L430.032 176.557C429.924 176.575 429.822 176.499 429.805 176.391C429.789 176.283 429.863 176.181 429.971 176.165L431.509 175.923C431.517 175.922 431.525 175.922 431.531 175.922L431.531 175.92Z" fill="#E6E1C8"/>
<path d="M423.162 167.293C423.184 167.292 423.208 167.295 423.231 167.302C423.335 167.336 423.392 167.448 423.358 167.553L422.052 171.544C422.018 171.649 421.905 171.705 421.801 171.671C421.697 171.637 421.641 171.525 421.675 171.421L422.98 167.429C423.008 167.349 423.081 167.295 423.161 167.292L423.162 167.293Z" fill="#E6E1C8"/>
<path d="M424.574 160.777C424.586 160.776 424.598 160.776 424.611 160.779C424.719 160.795 424.795 160.896 424.779 161.004L424.124 165.495C424.109 165.603 424.007 165.678 423.9 165.663C423.792 165.647 423.716 165.546 423.731 165.438L424.386 160.947C424.401 160.851 424.482 160.782 424.574 160.778L424.574 160.777Z" fill="#E6E1C8"/>
<path d="M424.243 155.276C424.345 155.272 424.436 155.348 424.448 155.451L424.845 158.742C424.859 158.851 424.781 158.95 424.672 158.962C424.561 158.975 424.464 158.898 424.451 158.788L424.054 155.497C424.04 155.388 424.118 155.289 424.228 155.277C424.233 155.277 424.238 155.276 424.243 155.276Z" fill="#E6E1C8"/>
<path d="M421.886 165.612C421.906 165.611 421.927 165.613 421.947 165.619C422.053 165.647 422.115 165.757 422.086 165.863L421.125 169.316C421.096 169.422 420.986 169.483 420.88 169.455C420.774 169.426 420.713 169.316 420.742 169.21L421.703 165.757C421.727 165.673 421.802 165.615 421.886 165.612Z" fill="#E6E1C8"/>
<path d="M422.987 158.696C422.998 158.696 423.008 158.695 423.019 158.698C423.128 158.71 423.206 158.809 423.193 158.918L422.777 162.453C422.765 162.562 422.666 162.639 422.557 162.628C422.448 162.615 422.369 162.516 422.382 162.407L422.798 158.872C422.81 158.774 422.892 158.701 422.987 158.698L422.987 158.696Z" fill="#E6E1C8"/>
<path d="M419.521 166.606C419.541 166.605 419.561 166.607 419.582 166.612C419.688 166.641 419.75 166.751 419.721 166.857L418.934 169.715C418.905 169.821 418.795 169.882 418.689 169.853C418.584 169.825 418.522 169.714 418.551 169.609L419.338 166.751C419.361 166.665 419.437 166.609 419.521 166.606Z" fill="#E6E1C8"/>
<path d="M420.878 161.15C420.89 161.149 420.903 161.149 420.915 161.152C421.023 161.169 421.099 161.269 421.082 161.377L420.588 164.705C420.572 164.814 420.471 164.887 420.363 164.872C420.255 164.855 420.18 164.755 420.197 164.647L420.69 161.319C420.705 161.223 420.785 161.154 420.878 161.15Z" fill="#E6E1C8"/>
<path d="M420.925 156.15C420.925 156.15 420.933 156.15 420.936 156.15C421.046 156.152 421.133 156.241 421.131 156.351L421.092 158.975C421.09 159.085 420.998 159.17 420.891 159.17C420.781 159.168 420.694 159.079 420.696 158.969L420.735 156.345C420.736 156.239 420.821 156.153 420.925 156.149L420.925 156.15Z" fill="#E6E1C8"/>
</g>
<g clip-path="url(#clip4_32_3)">
<path d="M350.208 220.939C350.087 222.261 349.298 224.297 347.566 224.68C345.392 225.161 343.709 222.606 343.633 222.486C342.377 220.52 343.093 218.41 343.172 218.191C343.228 218.035 344.169 215.506 345.98 215.311C348.106 215.081 350.463 218.176 350.21 220.939L350.208 220.939Z" fill="#DF4942"/>
<path d="M347.877 217.602C348.644 218.435 348.528 219.547 348.516 219.645C348.399 220.624 347.659 221.882 346.669 221.866C345.648 221.85 345.069 220.494 345.026 220.393C344.963 220.24 344.591 219.295 345.065 218.318C345.358 217.711 346.072 216.9 346.895 216.999C347.373 217.056 347.688 217.397 347.877 217.604L347.877 217.602Z" fill="#E6E1C8"/>
<path d="M365.543 221.225C365.614 222.55 366.328 224.613 368.044 225.061C370.198 225.622 371.976 223.131 372.056 223.015C373.384 221.097 372.747 218.961 372.677 218.74C372.626 218.582 371.78 216.02 369.977 215.757C367.862 215.449 365.391 218.453 365.541 221.225L365.543 221.225Z" fill="#DF4942"/>
<path d="M367.996 217.977C367.199 218.781 367.274 219.896 367.282 219.994C367.363 220.976 368.055 222.261 369.045 222.283C370.066 222.304 370.695 220.971 370.742 220.871C370.811 220.721 371.217 219.791 370.781 218.797C370.51 218.179 369.827 217.342 369.001 217.41C368.52 217.45 368.193 217.779 367.996 217.978L367.996 217.977Z" fill="#E6E1C8"/>
<path d="M338.329 184.102C340.549 194 341.107 195.17 341.965 198.085C342.691 200.553 344.906 204.849 344.906 204.849C344.906 204.849 344.085 207.972 344.188 210.702C344.248 212.29 344.392 215.211 346.183 218.259C346.856 219.404 348.638 222.06 352.082 223.754C354.38 224.885 356.49 225.13 357.735 225.179C358.98 225.176 361.097 225.01 363.437 223.964C366.941 222.399 368.82 219.811 369.535 218.692C371.438 215.713 371.691 212.799 371.81 211.214C372.015 208.49 371.31 205.339 371.31 205.339C371.31 205.339 373.684 201.128 374.501 198.689C375.466 195.807 376.068 194.659 378.654 184.851C380.77 176.825 380.94 174.187 380.512 169.915C380.158 166.398 379.189 163.925 378.518 162.256C376.749 157.845 374.961 156.344 374.366 155.878C374.257 155.793 374.143 155.704 374.025 155.616C374.869 155.236 375.449 154.763 375.658 154.377C376.088 153.578 376.208 151.51 376.208 151.51L365.895 151.318L365.783 157.337C365.31 158.18 365.294 158.823 364.225 159.756C363.063 160.77 361.745 161.177 361.247 161.326C360.315 161.604 359.499 161.678 358.916 161.689C358.334 161.655 357.52 161.552 356.6 161.24C356.107 161.073 354.806 160.617 353.682 159.56C352.649 158.588 352.656 157.945 352.214 157.085L352.326 151.065L342.013 150.873C342.013 150.873 342.058 152.945 342.457 153.759C342.649 154.154 343.212 154.648 344.042 155.058C343.921 155.142 343.805 155.226 343.692 155.308C343.081 155.75 341.238 157.184 339.305 161.527C338.573 163.169 337.511 165.604 337.029 169.106C336.441 173.359 336.513 176.002 338.33 184.101L338.329 184.102Z" fill="#DF4942"/>
<path d="M347.469 194.951C348.389 196.183 349.915 198.171 352.73 199.315C355.022 200.246 357.105 200.7 358.268 200.578C359.426 200.742 361.527 200.367 363.851 199.522C366.709 198.483 368.305 196.553 369.271 195.357C373.376 190.266 373.346 184.136 373.334 181.55C373.319 178.466 373.296 174.056 370.33 169.926C369.454 168.707 367.492 166.053 363.838 164.816C361.851 164.143 360.082 163.784 358.953 163.869C357.826 163.741 356.046 164.035 354.035 164.634C350.338 165.734 348.279 168.313 347.358 169.498C344.239 173.515 344.053 177.921 343.924 181.003C343.815 183.587 343.556 189.711 347.471 194.951L347.469 194.951Z" fill="#E6E1C8"/>
<path d="M357.009 189.454C357.122 189.456 357.214 189.544 357.22 189.656L357.511 194.535C357.517 194.655 357.428 194.757 357.308 194.763C357.188 194.77 357.086 194.68 357.08 194.56L356.789 189.681C356.783 189.562 356.872 189.46 356.992 189.454C356.998 189.454 357.004 189.454 357.009 189.454Z" fill="#DF4942"/>
<path d="M353.452 190.425C353.548 190.427 353.636 190.495 353.659 190.593L354.536 194.444C354.563 194.559 354.49 194.676 354.373 194.703C354.257 194.729 354.141 194.657 354.114 194.54L353.237 190.689C353.21 190.573 353.283 190.456 353.4 190.43C353.417 190.426 353.434 190.425 353.452 190.425Z" fill="#DF4942"/>
<path d="M351.005 192.768C351.093 192.77 351.175 192.826 351.205 192.914L352.145 195.673C352.183 195.786 352.123 195.908 352.01 195.947C351.897 195.985 351.774 195.925 351.736 195.812L350.797 193.053C350.758 192.941 350.818 192.818 350.931 192.78C350.956 192.772 350.98 192.768 351.005 192.768Z" fill="#DF4942"/>
<path d="M359.916 189.508C359.804 189.506 359.708 189.59 359.698 189.702L359.226 194.567C359.215 194.686 359.301 194.792 359.42 194.802C359.539 194.813 359.644 194.727 359.655 194.608L360.127 189.744C360.138 189.624 360.052 189.519 359.933 189.508C359.927 189.508 359.922 189.508 359.916 189.508Z" fill="#DF4942"/>
<path d="M363.435 190.611C363.339 190.609 363.248 190.674 363.222 190.771L362.202 194.586C362.171 194.701 362.239 194.82 362.355 194.851C362.47 194.882 362.589 194.814 362.62 194.698L363.64 190.882C363.671 190.768 363.603 190.648 363.487 190.618C363.47 190.613 363.452 190.611 363.435 190.611Z" fill="#DF4942"/>
<path d="M365.795 193.043C365.707 193.042 365.622 193.095 365.589 193.182L364.548 195.904C364.505 196.015 364.56 196.14 364.672 196.182C364.784 196.224 364.908 196.169 364.951 196.058L365.992 193.336C366.035 193.225 365.979 193.1 365.868 193.058C365.843 193.048 365.819 193.044 365.795 193.043Z" fill="#DF4942"/>
<path d="M342.223 185.812L347.631 197.993C348.321 194.75 349.504 191.612 351.127 188.721C351.437 188.17 351.764 187.622 352.083 187.071C353.954 186.634 355.363 184.976 355.401 182.968C355.445 180.596 353.556 178.637 351.182 178.593C349.655 178.564 348.301 179.336 347.516 180.52C345.343 181.802 343.502 183.64 342.223 185.812Z" fill="#DF4942"/>
<path d="M374.829 186.418L368.971 198.39C368.403 195.123 367.337 191.944 365.822 188.995C365.533 188.433 365.227 187.873 364.929 187.31C363.075 186.804 361.729 185.094 361.766 183.086C361.81 180.714 363.771 178.827 366.145 178.871C367.672 178.899 368.996 179.721 369.737 180.934C371.86 182.295 373.632 184.2 374.829 186.418Z" fill="#DF4942"/>
<path d="M358.223 204.882C354.986 204.822 352.32 207.04 352.268 209.837C352.216 212.633 354.798 214.948 358.035 215.009C361.271 215.069 363.937 212.851 363.989 210.055C364.041 207.258 361.46 204.943 358.223 204.882Z" fill="#E6E1C8"/>
<path d="M351.225 212.221C350.593 212.21 350.072 212.712 350.06 213.342C350.049 213.973 350.551 214.494 351.182 214.506C351.813 214.517 352.335 214.016 352.346 213.385C352.358 212.754 351.856 212.233 351.225 212.221Z" fill="#38372F"/>
<path d="M364.851 212.475C364.22 212.463 363.699 212.965 363.687 213.596C363.675 214.226 364.178 214.747 364.809 214.759C365.44 214.771 365.961 214.269 365.973 213.638C365.985 213.008 365.483 212.487 364.851 212.475Z" fill="#38372F"/>
<path d="M353.739 210.068C353.85 210.111 353.975 210.054 354.016 209.942C354.628 208.315 356.168 207.224 357.893 207.164L357.839 210.035L355.713 212.64L360.326 212.726L358.273 210.01L358.326 207.171C360.056 207.285 361.565 208.434 362.121 210.087C362.159 210.2 362.282 210.262 362.395 210.223C362.508 210.185 362.569 210.063 362.531 209.95C361.896 208.059 360.128 206.764 358.133 206.727C356.137 206.69 354.317 207.921 353.614 209.79C353.572 209.901 353.629 210.026 353.74 210.068L353.739 210.068Z" fill="#38372F"/>
</g>
<g clip-path="url(#clip5_32_3)">
<path d="M279.293 161.701C279.524 157.011 281.522 153.298 283.552 153.399C285.583 153.499 284.616 157.262 284.384 161.952C284.153 166.642 285.229 170.507 283.198 170.406C281.168 170.306 279.063 166.391 279.294 161.701L279.293 161.701Z" fill="#DF4942"/>
<path d="M310.255 163.23C310.487 158.54 308.865 154.649 306.834 154.549C304.804 154.448 305.395 158.289 305.163 162.979C304.932 167.669 303.479 171.408 305.51 171.509C307.541 171.609 310.023 167.92 310.255 163.23Z" fill="#DF4942"/>
<path d="M292.648 148.784L298.626 149.08C304.291 149.359 308.654 154.232 308.371 159.96L308.236 162.688C307.871 170.088 301.643 175.793 294.327 175.431C287.01 175.07 281.376 168.779 281.741 161.379L281.876 158.651C282.159 152.921 286.982 148.504 292.646 148.784L292.648 148.784Z" fill="#2EAC94"/>
<path d="M294.619 165.618C287.211 165.252 280.938 170.385 280.607 177.083C280.276 183.78 286.013 189.506 293.42 189.872C300.828 190.238 307.101 185.106 307.432 178.408C307.763 171.71 302.026 165.984 294.619 165.618Z" fill="#2EAC94"/>
<path d="M295.22 153.447C290.117 153.195 285.745 157.777 285.453 163.68C285.161 169.584 289.061 174.574 294.164 174.826C299.266 175.079 303.639 170.497 303.931 164.593C304.223 158.689 300.323 153.699 295.22 153.447Z" fill="#E6E1C8"/>
<path d="M288.411 186.064C290.432 186.164 292.305 185.386 293.707 184.048C294.97 185.518 296.757 186.477 298.778 186.577C302.851 186.778 306.327 183.42 306.542 179.075C306.756 174.731 303.629 171.047 299.556 170.846C297.534 170.746 295.661 171.524 294.259 172.862C292.996 171.392 291.209 170.433 289.188 170.333C285.115 170.132 281.639 173.49 281.425 177.835C281.21 182.179 284.338 185.863 288.411 186.064Z" fill="#E6E1C8"/>
<path d="M288.512 184.007C290.938 184.127 293.075 182.538 293.895 180.236C294.485 182.607 296.455 184.4 298.88 184.52C301.887 184.668 304.454 182.188 304.613 178.98C304.771 175.772 302.461 173.051 299.454 172.903C297.028 172.783 294.891 174.372 294.071 176.674C293.482 174.303 291.512 172.51 289.086 172.39C286.079 172.242 283.512 174.721 283.353 177.93C283.195 181.138 285.505 183.859 288.512 184.007Z" fill="#DF4942"/>
<path d="M289.913 175.344C288.351 175.267 287.02 176.504 286.941 178.107C286.862 179.71 288.064 181.072 289.626 181.149C291.188 181.227 292.518 179.99 292.597 178.387C292.676 176.783 291.475 175.421 289.913 175.344Z" fill="#E6E1C8"/>
<path d="M298.342 175.761C296.78 175.684 295.449 176.92 295.37 178.524C295.291 180.127 296.493 181.489 298.055 181.566C299.617 181.643 300.947 180.406 301.026 178.803C301.105 177.2 299.903 175.838 298.342 175.761Z" fill="#E6E1C8"/>
<path d="M290.592 176.894C289.833 176.857 289.186 177.448 289.149 178.216C289.111 178.984 289.695 179.637 290.454 179.674C291.213 179.712 291.859 179.12 291.897 178.352C291.935 177.584 291.351 176.932 290.592 176.894Z" fill="#38372F"/>
<path d="M297.515 177.236C296.756 177.199 296.11 177.791 296.072 178.558C296.034 179.326 296.619 179.979 297.378 180.016C298.137 180.054 298.783 179.462 298.821 178.694C298.859 177.926 298.274 177.274 297.515 177.236Z" fill="#38372F"/>
<path d="M291.941 173.984L294.332 171.425L296.459 174.207L294.068 176.766L291.941 173.984Z" fill="#38372F"/>
<path d="M294.658 164.814L295.919 168.002L293.09 167.862L294.658 164.814Z" fill="#2EAC94"/>
<path d="M290.522 164.609L291.783 167.798L288.954 167.658L290.522 164.609Z" fill="#2EAC94"/>
<path d="M292.739 160.1L294.001 163.288L291.17 163.148L292.739 160.1Z" fill="#2EAC94"/>
<path d="M297.032 160.312L295.463 163.36L298.293 163.5L297.032 160.312Z" fill="#2EAC94"/>
<path d="M298.793 165.018L297.224 168.067L300.054 168.206L298.793 165.018Z" fill="#2EAC94"/>
</g>
<g clip-path="url(#clip6_32_3)">
<path d="M250.783 177.355C250.783 177.355 250.708 175.57 250.272 173.274C249.649 174.267 248.615 175.912 247.962 176.95L250.783 177.355Z" fill="#38372F"/>
<path d="M230.58 150.936C231.152 151.018 231.702 150.888 232.193 150.595C232.132 155.682 235.54 161.099 240.503 162.961C240.639 163.012 240.775 163.057 240.91 163.097L241.943 168.589C240.824 168.279 239.582 168.166 238.357 168.517C234.578 169.6 232.755 175.045 232.755 175.045L242.605 171.867C241.3 172.603 239.854 173.752 238.806 175.522C236.376 179.62 237.449 185.469 237.449 185.469L244.75 172.502L253.413 173.744C254.067 172.705 255.1 171.062 255.723 170.069C255.235 167.5 254.219 164.754 252.425 162.689C251.736 161.896 250.372 160.893 249.394 160.479L252.821 142.622C252.821 142.622 253.164 142.69 253.768 142.213C254.372 141.736 254.086 140.429 254.086 140.429L250.754 139.951L249.133 144.877C248.68 143.831 248.121 142.877 247.474 142.047C247.873 142.032 248.198 141.987 248.408 141.898C249.188 141.567 249.422 139.76 249.422 139.76L241.388 138.608L241.389 138.629C236.844 138.219 234.537 140.275 233.348 143.583C232.821 142.725 232.063 142.135 231.193 142.01C229.41 141.754 227.827 143.545 227.657 146.009C227.488 148.473 228.797 150.678 230.58 150.934L230.58 150.936Z" fill="#E6E1C8"/>
<path d="M242.642 172.296C242.492 172.901 242.73 173.563 243.172 173.774C243.615 173.985 244.094 173.666 244.244 173.061C244.393 172.456 244.156 171.794 243.713 171.583C243.271 171.371 242.791 171.691 242.642 172.296Z" fill="#38372F"/>
<path d="M248.74 168.769C248.826 168.782 248.891 168.885 248.887 169.003C248.883 169.126 248.807 169.219 248.717 169.212C248.351 169.183 248.142 169.228 247.941 169.301C247.773 169.363 247.492 169.466 247.277 169.655C247.053 169.85 246.868 170.114 246.728 170.437C246.681 170.542 246.583 170.575 246.506 170.511C246.429 170.446 246.403 170.31 246.45 170.205C246.617 169.824 246.836 169.512 247.101 169.279C247.358 169.054 247.681 168.936 247.854 168.871C248.054 168.797 248.299 168.734 248.733 168.767C248.735 168.767 248.738 168.768 248.74 168.768L248.74 168.769Z" fill="#38372F"/>
</g>
<g clip-path="url(#clip7_32_3)">
<path d="M171.612 191.743C171.849 191.876 172.149 191.791 172.283 191.553L172.284 191.548C172.549 191.078 172.821 190.616 173.11 190.167C173.4 189.72 173.701 189.282 174.02 188.86C174.659 188.017 175.357 187.228 176.111 186.507C176.92 185.734 177.791 185.033 178.715 184.454C178.719 184.462 178.723 184.468 178.726 184.477C178.827 184.71 178.911 185 178.984 185.315C179.135 185.933 179.231 186.567 179.283 187.21C179.337 187.852 179.331 188.502 179.284 189.152C179.234 189.802 179.13 190.45 178.98 191.09L178.978 191.097C178.923 191.334 179.049 191.581 179.282 191.669C179.535 191.764 179.818 191.637 179.915 191.383C180.167 190.719 180.372 190.034 180.521 189.333C180.668 188.632 180.768 187.917 180.804 187.194C180.842 186.472 180.829 185.743 180.752 185.016C180.717 184.657 180.668 184.276 180.555 183.86C180.526 183.758 180.493 183.652 180.454 183.545C180.706 183.44 180.961 183.344 181.218 183.26C181.688 183.109 182.158 182.991 182.637 182.918C183.116 182.847 183.601 182.808 184.083 182.82C185.045 182.836 185.997 183.029 186.857 183.417C188.552 184.179 189.958 185.827 190.246 187.82L190.251 187.85C190.283 188.072 190.466 188.251 190.699 188.269C190.969 188.289 191.205 188.085 191.226 187.814C191.237 187.663 191.249 187.51 191.254 187.357C191.25 187.204 191.253 187.05 191.242 186.896C191.224 186.745 191.214 186.589 191.188 186.438C191.159 186.287 191.14 186.131 191.1 185.983C190.959 185.38 190.719 184.801 190.408 184.262C189.786 183.189 188.858 182.275 187.747 181.661C187.531 181.54 187.307 181.431 187.08 181.332C187.15 181.159 187.238 180.991 187.339 180.828C187.604 180.401 187.968 180.02 188.405 179.738L188.416 179.73C188.606 179.606 188.693 179.363 188.609 179.14C188.513 178.886 188.229 178.758 187.976 178.855C187.348 179.094 186.771 179.481 186.291 179.979C186.037 180.242 185.81 180.538 185.617 180.861C185.14 180.755 184.656 180.688 184.17 180.663C182.937 180.596 181.69 180.78 180.535 181.171C179.957 181.364 179.398 181.602 178.866 181.882C178.332 182.159 177.822 182.474 177.34 182.819C176.371 183.505 175.51 184.311 174.734 185.178C173.965 186.052 173.287 187.002 172.719 188.008C172.437 188.512 172.181 189.028 171.958 189.559C171.734 190.088 171.537 190.627 171.38 191.176C171.319 191.391 171.409 191.629 171.612 191.743Z" fill="#38372F"/>
<path d="M160.666 156.761L160.593 156.722L160.646 156.773C160.659 156.765 160.667 156.76 160.667 156.76L160.666 156.761Z" fill="#DF4942"/>
<path d="M155.004 158.478C153.02 160.473 155.36 164.029 155.36 164.029L155.363 164.025C155.488 163.264 155.825 161.312 156.092 160.743C156.559 159.749 157.844 158.303 158.547 157.82C159.159 157.401 160.476 156.821 160.651 156.746L160.596 156.703L160.238 156.54C159.572 156.556 156.743 156.727 155.002 158.478L155.004 158.478Z" fill="#E6E1C8"/>
<path d="M189.774 181.54C186.869 180.733 185.907 179.314 185.183 176.285C184.459 173.256 183.207 167.254 182.357 166.18C181.507 165.107 178.996 163.257 176.962 162.692L161.175 158.306C159.721 157.903 156.48 154.174 157.938 148.925C159.396 143.676 162.535 142.139 164.473 142.677L186.587 148.821C188.88 149.458 191.682 151.388 191.728 154.229C191.773 157.069 193.015 169.875 193.015 169.875L201.809 175.773L201.327 180.98L196.035 180.034C196.035 180.034 192.486 182.294 189.774 181.54Z" fill="#E6E1C8"/>
<path d="M161.175 158.306L176.962 162.692C178.996 163.257 181.507 165.107 182.357 166.18C183.207 167.254 184.46 173.257 185.183 176.285C185.907 179.314 186.869 180.733 189.774 181.54C192.486 182.294 196.035 180.034 196.035 180.034L201.327 180.98L201.449 179.659L194.616 177.761C194.616 177.761 193.053 179.439 191.27 178.943C189.487 178.448 188.342 177.304 188.08 175.945C187.817 174.588 185.789 164.11 184.744 161.616C183.703 159.132 181.95 155.17 179.373 153.761C179.373 153.761 176.278 151.996 173.559 151.403C170.932 150.655 169.499 150.41 167.589 150.622C165.679 150.835 164.257 151.566 162.765 152.988C161.787 153.919 160.544 156.011 159.873 157.43C160.352 157.906 160.817 158.208 161.176 158.308L161.175 158.306Z" fill="#DF4942"/>
<path d="M201.327 180.98L201.615 177.864L198.264 180.431L201.327 180.98Z" fill="#38372F"/>
<path d="M192.811 176.006C192.294 175.862 191.757 176.166 191.613 176.686C191.469 177.205 191.771 177.743 192.289 177.887C192.806 178.03 193.343 177.726 193.487 177.206C193.631 176.687 193.329 176.149 192.811 176.006Z" fill="#38372F"/>
<path d="M199.371 174.13C198.401 174.018 197.406 174.231 196.562 174.72C196.357 174.84 196.537 175.16 196.742 175.041C197.538 174.58 198.458 174.392 199.37 174.498C199.47 174.509 199.553 174.405 199.554 174.313C199.556 174.204 199.469 174.14 199.371 174.128L199.371 174.13Z" fill="#38372F"/>
<path d="M187.516 177.248C187.516 177.248 184.889 178.93 183.003 178.711C181.118 178.493 179.248 175.148 179.248 175.148C179.248 175.148 181.649 174.171 183.663 174.477C185.677 174.782 187.516 177.248 187.516 177.248Z" fill="#DF4942"/>
<path d="M185.29 176.595C185.29 176.595 184.092 177.362 183.232 177.262C182.372 177.162 181.52 175.637 181.52 175.637C181.52 175.637 182.615 175.192 183.534 175.331C184.452 175.47 185.291 176.594 185.291 176.594L185.29 176.595Z" fill="#E6E1C8"/>
<path d="M175.693 158.843C175.708 158.847 175.721 158.852 175.735 158.861L179.034 160.735C179.121 160.785 179.152 160.898 179.102 160.986C179.052 161.075 178.941 161.106 178.852 161.056L175.554 159.181C175.466 159.131 175.435 159.018 175.485 158.93C175.528 158.855 175.615 158.821 175.693 158.843Z" fill="#E6E1C8"/>
<path d="M176.358 155.468C176.376 155.473 176.393 155.48 176.41 155.491L179.968 157.826C180.052 157.881 180.076 157.994 180.02 158.08C179.965 158.165 179.851 158.19 179.767 158.133L176.209 155.799C176.124 155.743 176.101 155.63 176.156 155.545C176.201 155.475 176.284 155.447 176.359 155.468L176.358 155.468Z" fill="#E6E1C8"/>
<path d="M169.554 157.616C169.565 157.619 169.574 157.622 169.584 157.627L172.997 159.255C173.089 159.298 173.127 159.408 173.083 159.5C173.04 159.593 172.93 159.631 172.838 159.588L169.425 157.961C169.333 157.917 169.295 157.807 169.339 157.715C169.378 157.633 169.469 157.593 169.554 157.616Z" fill="#E6E1C8"/>
<path d="M169.541 154.966C169.551 154.969 169.559 154.971 169.568 154.976L173.343 156.686C173.436 156.728 173.477 156.837 173.434 156.929C173.392 157.022 173.283 157.063 173.192 157.021L169.416 155.311C169.324 155.269 169.283 155.161 169.325 155.068C169.363 154.984 169.455 154.942 169.541 154.966Z" fill="#E6E1C8"/>
<path d="M170.772 153.071C170.781 153.074 170.788 153.076 170.796 153.079L173.581 154.263C173.674 154.303 173.718 154.411 173.678 154.504C173.638 154.598 173.529 154.641 173.437 154.602L170.652 153.418C170.559 153.378 170.515 153.27 170.555 153.177C170.592 153.091 170.685 153.047 170.773 153.072L170.772 153.071Z" fill="#E6E1C8"/>
<path d="M167.098 157.947L164.628 156.941" stroke="#E6E1C8" stroke-width="3" stroke-miterlimit="10" stroke-linecap="round"/>
<path d="M165.266 153.984C165.281 153.988 165.296 153.993 165.308 154.002L167.543 155.284C167.631 155.335 167.662 155.447 167.611 155.535C167.56 155.622 167.448 155.654 167.361 155.603L165.126 154.321C165.038 154.271 165.007 154.158 165.058 154.07C165.101 153.995 165.187 153.962 165.266 153.984Z" fill="#E6E1C8"/>
<path d="M160.388 156.527C160.388 156.527 160.335 156.53 160.241 156.541L160.592 156.724L160.389 156.527L160.388 156.527Z" fill="#DF4942"/>
<path d="M156.093 160.743C155.826 161.313 155.489 163.265 155.364 164.025L161.637 157.511L160.652 156.747C160.477 156.823 159.16 157.401 158.548 157.82C157.844 158.303 156.559 159.749 156.093 160.743Z" fill="#DF4942"/>
<path d="M161.551 143.139L166.03 144.383L169.966 130.215L165.487 128.97L161.551 143.139Z" fill="#E6E1C8"/>
<path d="M165.487 128.972L169.966 130.216L171.075 126.224L166.596 124.98L165.487 128.972Z" fill="#38372F"/>
<path d="M167.004 144.654L171.483 145.898L175.419 131.729L170.94 130.485L167.004 144.654Z" fill="#E6E1C8"/>
<path d="M170.94 130.486L175.418 131.731L176.527 127.739L172.049 126.495L170.94 130.486Z" fill="#38372F"/>
<path d="M183.142 149.137L187.621 150.381L191.557 136.213L187.078 134.968L183.142 149.137Z" fill="#E6E1C8"/>
<path d="M187.078 134.969L191.557 136.214L192.666 132.222L188.187 130.978L187.078 134.969Z" fill="#38372F"/>
<path d="M195.261 148.502L187.896 149.388L188.442 154.019L198.31 152.832C198.955 152.755 199.539 152.41 199.92 151.883C200.301 151.355 200.445 150.692 200.318 150.053L198.993 143.441C197.833 143.655 195.414 144.12 194.423 144.31L195.263 148.502L195.261 148.502Z" fill="#E6E1C8"/>
<path d="M193.595 140.18L194.422 144.308C195.413 144.118 197.832 143.654 198.993 143.439L198.154 139.252L193.595 140.18Z" fill="#38372F"/>
</g>
<g clip-path="url(#clip8_32_3)">
<path d="M105.946 157.483L107.884 157.805L115.294 107.89L113.356 107.568L105.946 157.483Z" fill="#38372F"/>
<path d="M103.243 182.41L119.355 162.647L93.6287 158.374L103.243 182.41Z" fill="#DF4942"/>
<path d="M105.542 166.925L126.98 148.048L90.6018 142.004L105.542 166.925Z" fill="#2EAC94"/>
<path d="M107.746 152.081L135.32 131.276L87.5226 123.335L107.746 152.081Z" fill="#DF4942"/>
</g>
<path d="M57.7948 107.965C46.9372 106.006 35.7337 118.829 32.771 136.608C29.8084 154.387 36.2084 170.389 47.066 172.349C57.9236 174.308 69.1271 161.485 72.0897 143.706C75.0524 125.927 68.6523 109.925 57.7948 107.965Z" fill="#2EAC94"/>
<path d="M41.7404 134.137C42.0976 134.418 42.6142 134.364 42.8927 134.015C43.7532 132.939 44.7313 132.018 45.8001 131.274C47.0042 130.441 48.2917 129.848 49.6323 129.517C50.959 129.19 52.5833 129.26 53.5009 129.344L50.8007 145.548C49.9815 145.495 48.5009 145.483 47.2142 145.952C45.9846 146.398 44.7969 147.133 43.6873 148.141C42.7274 149.012 41.8389 150.077 41.0545 151.297C40.8154 151.67 40.932 152.173 41.3156 152.415C41.6992 152.658 42.2075 152.553 42.4465 152.181C43.1584 151.075 43.9523 150.118 44.8131 149.34C45.7687 148.474 46.7753 147.844 47.8059 147.47C48.726 147.138 49.8279 147.118 50.5337 147.15L48.5942 158.789C48.5211 159.227 48.8248 159.649 49.2722 159.73C49.7195 159.811 50.1419 159.52 50.215 159.081L53.3236 140.426C53.9901 140.655 54.9011 141.039 55.5924 141.619C56.4418 142.332 57.1894 143.276 57.8054 144.428C58.361 145.462 58.8022 146.642 59.1146 147.933C59.2191 148.367 59.6638 148.644 60.1036 148.55C60.5433 148.456 60.8189 148.024 60.7111 147.589C60.368 146.161 59.8785 144.852 59.2533 143.694C58.5347 142.356 57.6543 141.247 56.6408 140.396C55.6626 139.575 54.3997 139.078 53.5879 138.82L56.2892 122.61C57.2008 122.87 58.6159 123.354 59.6813 124.074C60.8366 124.855 61.8576 125.862 62.721 127.072C63.4874 128.144 64.11 129.356 64.5721 130.671C64.7219 131.094 65.1908 131.326 65.6174 131.19C66.0446 131.051 66.271 130.595 66.1244 130.172C65.6133 128.711 64.9162 127.363 64.0609 126.164C63.0809 124.792 61.9164 123.645 60.5961 122.752C59.2758 121.859 57.5662 121.298 56.5611 121.019L61.6637 90.3974C61.7368 89.9587 61.4331 89.5371 60.9858 89.4563C60.5385 89.3756 60.1161 89.6661 60.043 90.1048L53.769 127.755C53.769 127.755 53.7561 127.753 53.7496 127.751C52.7504 127.656 50.8279 127.552 49.2051 127.953C47.6729 128.331 46.2021 129.002 44.8386 129.951C43.6421 130.78 42.5526 131.808 41.5991 133.002C41.321 133.348 41.3864 133.857 41.7469 134.138L41.7404 134.137Z" fill="#38372F"/>
<defs>
<clipPath id="clip0_32_3">
<rect width="48.2342" height="75.8503" fill="white" transform="matrix(-0.992156 0.125003 -0.148359 -0.988934 683.228 180.674)"/>
</clipPath>
<clipPath id="clip1_32_3">
<rect width="77" height="73" fill="white" transform="translate(622.508 193.348) rotate(167.266)"/>
</clipPath>
<clipPath id="clip2_32_3">
<rect width="44" height="44" fill="white" transform="translate(516.016 186.687) rotate(174.398)"/>
</clipPath>
<clipPath id="clip3_32_3">
<rect width="40" height="31" fill="white" transform="translate(439.542 181.365) rotate(177.647)"/>
</clipPath>
<clipPath id="clip4_32_3">
<rect width="44" height="74" fill="white" transform="translate(379.731 225.588) rotate(-178.934)"/>
</clipPath>
<clipPath id="clip5_32_3">
<rect width="31" height="41" fill="white" transform="translate(308.901 190.637) rotate(-177.172)"/>
</clipPath>
<clipPath id="clip6_32_3">
<rect width="30.5207" height="47.0745" fill="white" transform="matrix(-0.989874 -0.141949 0.0684941 -0.997652 249.83 191.232)"/>
</clipPath>
<clipPath id="clip7_32_3">
<rect width="51" height="63" fill="white" transform="translate(196.418 198.649) rotate(-164.474)"/>
</clipPath>
<clipPath id="clip8_32_3">
<rect width="48.4528" height="75.4983" fill="white" transform="matrix(-0.98648 -0.163883 0.146841 -0.98916 127.14 186.38)"/>
</clipPath>
</defs>
</svg>
