<svg width="299" height="1374" viewBox="0 0 299 1374" fill="none" xmlns="http://www.w3.org/2000/svg">
<g filter="url(#filter0_dd_2_2)">
<path d="M3.99994 0L4 1366L107.295 1366C158.009 1212.7 221 868.67 221 703.841C221 539.011 162.813 164.672 107.295 -4.51518e-06L3.99994 0Z" fill="#1C6EB8"/>
<path d="M204.268 337.983C206.945 348.674 225.065 353.748 244.74 349.315C264.415 344.883 278.195 332.623 275.518 321.932C272.841 311.24 254.721 306.167 235.046 310.599C215.37 315.031 201.591 327.292 204.268 337.983Z" fill="#2EAC94"/>
<path d="M238.298 342.125C238.433 341.686 238.153 341.237 237.671 341.123C236.185 340.77 234.809 340.247 233.577 339.57C232.193 338.807 231.022 337.87 230.098 336.78C229.185 335.701 228.554 334.191 228.243 333.32L246.175 329.28C246.476 330.049 247.105 331.404 248.147 332.39C249.141 333.333 250.417 334.121 251.94 334.729C253.258 335.255 254.744 335.638 256.346 335.864C256.835 335.932 257.305 335.624 257.39 335.177C257.475 334.73 257.146 334.308 256.657 334.24C255.204 334.034 253.87 333.694 252.692 333.221C251.383 332.696 250.295 332.031 249.461 331.241C248.72 330.535 248.221 329.538 247.949 328.881L260.829 325.979C261.314 325.87 261.619 325.424 261.508 324.983C261.398 324.543 260.915 324.274 260.429 324.384L239.784 329.034C239.732 328.335 239.734 327.35 240.035 326.486C240.404 325.425 241.057 324.364 241.982 323.34C242.811 322.418 243.84 321.542 245.04 320.739C245.445 320.469 245.538 319.953 245.25 319.589C244.962 319.226 244.396 319.148 243.993 319.421C242.665 320.307 241.522 321.279 240.595 322.314C239.523 323.506 238.757 324.754 238.316 326.02C237.89 327.242 237.924 328.594 238.008 329.438L220.069 333.479C219.943 332.543 219.831 331.058 220.114 329.797C220.422 328.43 221.02 327.094 221.898 325.821C222.675 324.692 223.659 323.637 224.819 322.688C225.192 322.381 225.229 321.861 224.903 321.526C224.575 321.192 224.004 321.169 223.63 321.472C222.34 322.525 221.248 323.701 220.379 324.963C219.384 326.408 218.702 327.93 218.35 329.493C217.998 331.056 218.159 332.841 218.305 333.87L184.418 341.504C183.932 341.613 183.628 342.059 183.738 342.5C183.849 342.94 184.332 343.209 184.818 343.1L226.483 333.713C226.483 333.713 226.487 333.726 226.488 333.732C226.823 334.682 227.547 336.478 228.666 337.797C229.721 339.043 231.052 340.116 232.625 340.978C234.001 341.737 235.536 342.319 237.184 342.71C237.662 342.824 238.161 342.56 238.296 342.119L238.298 342.125Z" fill="#38372F"/>
<g clip-path="url(#clip0_2_2)">
<path d="M246.536 388.753L246.263 386.811L190.306 394.342L190.579 396.285L246.536 388.753Z" fill="#38372F"/>
<path d="M274.162 384.041L247.801 374.452L251.423 400.243L274.162 384.041Z" fill="#DF4942"/>
<path d="M256.803 386.377L229.692 371.449L234.814 407.919L256.803 386.377Z" fill="#2EAC94"/>
<path d="M240.161 388.617L209.023 368.398L215.753 416.317L240.161 388.617Z" fill="#DF4942"/>
</g>
<g clip-path="url(#clip1_2_2)">
<path d="M211.32 501.799L230.153 495.94C230.153 495.94 233.88 496.784 236.229 496.752C238.579 496.721 239.685 495.929 239.685 495.929L239.104 498.616L244.467 495.988L244.259 499.152L249.768 496.505L249.526 498.956L255.395 496.067L272.645 499.549C272.645 499.549 272.279 498.074 271.646 497.161C271.014 496.248 268.598 494.423 268.598 494.423L276.885 494.129L278.161 489.495C278.161 489.495 273.185 489.251 270.58 488.042C269.764 487.664 269.254 485.851 268.346 484.484C267.391 483.044 262.619 481.964 259.175 481.478C255.731 480.992 251.678 480.844 248.034 476.33C244.39 471.816 246.053 459.713 245.165 453.288C245.047 452.431 244.858 451.674 244.612 451C245.276 449.634 245.853 447.862 245.5 446.258C244.796 443.063 241.439 439.07 241.439 439.07L240.868 440.227C240.868 440.227 239.88 438.362 238.822 436.835C237.865 435.45 235.115 433.396 235.115 433.396L234.581 434.898C234.581 434.898 233.255 432.591 230.615 430.879C229.05 429.863 225.712 428.412 225.712 428.412L225.914 430.028C225.914 430.028 224.179 429.219 222.192 428.851C220.205 428.482 216.687 428.92 216.687 428.92C216.687 428.92 217.943 431.635 218.862 432.443C219.78 433.251 220.873 434.654 220.873 434.654L219.163 434.866C219.163 434.866 221.354 437.621 222.403 438.376C224.18 439.655 226.365 440.227 226.365 440.227L223.965 440.628C223.965 440.628 225.764 442.894 227.548 443.976C228.225 444.387 229.502 445.081 230.983 445.87C228.175 446.493 225.85 447.686 224.122 447.537C221.644 447.323 202.057 445.056 202.057 445.056L199.365 447.483L201.024 460.808C201.024 460.808 202.622 460.969 203.866 460.023C204.398 459.618 204.955 458.8 205.314 457.916L218.144 461.358C218.144 461.358 219.378 464.994 220.979 466.887C222.582 468.78 224.743 470.209 224.743 470.209C224.743 470.209 224.649 473.881 224.213 476.288C223.777 478.695 224.458 483.84 224.458 483.84L204.961 492.411L206.664 506.093C206.664 506.093 208.262 506.254 209.506 505.309C210.318 504.69 211.188 503.11 211.319 501.801L211.32 501.799Z" fill="#E6E1C8"/>
<path d="M261.838 481.117C261.035 478.479 257.563 475.816 257.563 475.816L256.55 482.43L262.115 483.344C262.115 483.344 262.372 482.872 261.838 481.117Z" fill="#2EAC94"/>
<path d="M268.339 490.293C269.474 490.648 272.757 491.355 277.553 491.709L278.163 489.495C278.163 489.495 273.187 489.251 270.582 488.042C269.766 487.663 269.256 485.851 268.348 484.484C267.393 483.044 262.621 481.964 259.177 481.478C255.733 480.991 251.68 480.843 248.036 476.329C244.392 471.815 246.055 459.713 245.167 453.288C245.051 452.444 244.865 451.695 244.625 451.028C242.741 452.091 240.244 453.633 238.771 455.072C235.869 457.911 234.274 461.146 234.012 468.048C233.751 474.95 237.702 484.076 244.564 485.533C250.34 486.757 260.913 486.49 264.267 487.31C267.621 488.132 267.055 489.891 268.339 490.294L268.339 490.293Z" fill="#2EAC94"/>
<path d="M264.942 489.018C264.239 489.105 263.599 488.604 263.511 487.899C263.424 487.195 263.922 486.552 264.624 486.464C265.325 486.377 265.966 486.879 266.054 487.583C266.141 488.287 265.643 488.93 264.942 489.018Z" fill="#38372F"/>
<path d="M206.025 500.751C206.008 500.617 206.091 500.489 206.223 500.454C207.011 500.243 207.854 499.954 208.706 499.001C209.206 498.442 210.027 496.834 210.036 496.818L210.071 496.748L210.139 496.708C210.351 496.581 215.515 493.626 229.706 495.312C229.854 495.33 229.96 495.465 229.944 495.614C229.926 495.763 229.792 495.871 229.642 495.853C216.471 494.288 211.116 496.81 210.479 497.141C210.306 497.478 209.596 498.819 209.109 499.363C208.157 500.426 207.192 500.756 206.363 500.978C206.218 501.016 206.069 500.93 206.031 500.785C206.029 500.772 206.026 500.76 206.024 500.747L206.025 500.751Z" fill="#D6AD49"/>
<path d="M200.402 455.346L200.402 455.34C200.387 455.19 200.494 455.055 200.644 455.041C201.188 454.984 201.596 454.828 202.309 454.146C203.299 453.195 203.399 451.885 203.401 451.871L203.424 451.533L203.748 451.628L220.611 456.593L220.652 456.736C220.661 456.766 221.569 459.807 222.929 461.484C224.359 463.248 226.59 464.175 226.613 464.183C226.752 464.239 226.819 464.4 226.763 464.539C226.708 464.678 226.548 464.745 226.41 464.689C226.313 464.65 224.03 463.704 222.508 461.828C221.235 460.261 220.376 457.674 220.176 457.034L203.9 452.242C203.804 452.751 203.52 453.743 202.687 454.542C201.966 455.235 201.447 455.507 200.705 455.587C200.557 455.602 200.425 455.497 200.406 455.349L200.402 455.346Z" fill="#D6AD49"/>
<path d="M243.339 469.106C243.339 469.106 243.337 469.09 243.336 469.083L243.16 464.397C243.154 464.246 243.271 464.119 243.42 464.115C243.571 464.109 243.697 464.228 243.701 464.377L243.878 469.063C243.884 469.214 243.766 469.341 243.617 469.345C243.475 469.35 243.354 469.245 243.337 469.106L243.339 469.106Z" fill="#E6E1C8"/>
<path d="M240.379 470.19L239.665 464.453C239.646 464.303 239.751 464.167 239.901 464.148C240.05 464.13 240.185 464.236 240.204 464.386L240.918 470.123C240.937 470.272 240.832 470.408 240.682 470.427C240.533 470.446 240.398 470.34 240.379 470.19Z" fill="#E6E1C8"/>
<path d="M237.111 470.087C237.111 470.087 237.11 470.081 237.11 470.078L236.765 466.34C236.751 466.189 236.861 466.056 237.011 466.043C237.161 466.03 237.3 466.139 237.306 466.29L237.651 470.029C237.665 470.179 237.555 470.312 237.405 470.325C237.259 470.338 237.129 470.233 237.111 470.087Z" fill="#E6E1C8"/>
<path d="M242.675 472.561C242.659 472.426 242.743 472.298 242.877 472.263C243.023 472.226 243.17 472.314 243.207 472.46L244.16 476.225C244.196 476.373 244.109 476.52 243.963 476.556C243.818 476.592 243.67 476.504 243.634 476.359L242.681 472.593C242.68 472.582 242.677 472.57 242.675 472.559L242.675 472.561Z" fill="#E6E1C8"/>
<path d="M239.385 472.971C239.368 472.835 239.453 472.707 239.587 472.672C239.732 472.636 239.88 472.724 239.918 472.869L240.926 476.839C240.962 476.985 240.875 477.133 240.73 477.171C240.585 477.208 240.437 477.12 240.399 476.974L239.391 473.005C239.39 472.994 239.387 472.981 239.385 472.971Z" fill="#E6E1C8"/>
<path d="M242.425 460.124C242.423 460.104 242.422 460.086 242.423 460.066L242.723 456.757C242.737 456.607 242.87 456.497 243.019 456.509C243.169 456.524 243.279 456.657 243.266 456.807L242.966 460.115C242.952 460.266 242.82 460.376 242.67 460.361C242.541 460.35 242.441 460.249 242.425 460.124Z" fill="#E6E1C8"/>
<path d="M238.361 461.549C238.358 461.524 238.358 461.496 238.362 461.47L238.901 458.234C238.927 458.086 239.066 457.984 239.215 458.01C239.362 458.036 239.464 458.175 239.439 458.325L238.899 461.561C238.874 461.709 238.735 461.811 238.586 461.785C238.465 461.765 238.376 461.666 238.361 461.549Z" fill="#E6E1C8"/>
<path d="M274.398 489.078L278.163 489.493L277.191 493.023L274.398 489.078Z" fill="#38372F"/>
</g>
<g clip-path="url(#clip2_2_2)">
<path d="M221.316 544.033C223.177 543.792 223.587 544.151 227.214 544.092C230.466 544.039 232.091 544.014 234.053 543.421C234.298 543.348 234.535 543.268 234.768 543.185L231.73 542.267L235.256 540.42L231.387 538.768L234.787 535.878L230.89 533.696L232.895 532.905C229.11 531.959 227.153 531.485 225.976 531.459C221.787 531.364 218.577 534.164 218.091 534.601C212.985 539.182 214.24 546.485 214.335 546.995C217.196 544.901 219.644 544.249 221.317 544.033L221.316 544.033Z" fill="#DF4942"/>
<path d="M234.787 535.879L231.387 538.769L235.256 540.421L231.73 542.268L234.768 543.186C237.884 542.068 239.828 540.2 240.317 539.711C241.163 538.867 243.662 536.303 244.204 532.406C244.593 529.61 243.291 526.848 243.291 526.848C243.291 526.848 242.795 528.526 241.274 530.69C240.662 531.56 239.74 532.873 238.23 533.448C236.882 533.962 235.756 533.625 233.59 533.083C233.351 533.023 233.119 532.965 232.894 532.909L230.889 533.7L234.786 535.882L234.787 535.879Z" fill="#E6E1C8"/>
<path d="M226.816 567.33C224.223 566.104 221.55 564.297 221.55 564.297L215.032 564.936C215.032 564.936 214.349 566.1 213.559 566.177L212.536 566.277L212.778 568.741C212.778 568.741 213.611 568.882 214.379 568.584C215.147 568.285 215.373 567.196 215.373 567.196L216.733 567.212L226.816 567.33Z" fill="#DF4942"/>
<path d="M215.362 564.903L221.551 564.296C221.551 564.296 224.224 566.103 226.817 567.329L230.213 567.369L223.68 561.746L216.394 563.745L212.398 564.842L212.538 566.275L213.561 566.174C214.626 565.983 215.363 564.901 215.363 564.901L215.362 564.903Z" fill="#E6E1C8"/>
<path d="M221.725 563.504C221.725 563.504 228.203 567.885 230.77 567.634L241.31 566.6L240.724 556.623C240.724 556.623 238.683 556.82 237.297 556.248C235.911 555.677 232.777 550.824 229.176 546.638C225.575 542.453 221.557 541.466 217.212 541.892C212.868 542.318 210.622 546.748 210.622 546.748L212.462 565.509L213.734 565.384C214.524 565.307 215.207 564.144 215.207 564.144L221.725 563.504Z" fill="#DF4942"/>
<path d="M257.002 569.478C257.442 568.572 254.099 565.815 253.101 565.021C253.278 563.8 253.581 561.456 253.477 560.391C253.373 559.326 252.619 557.085 252.208 555.923C253.032 554.948 255.776 551.596 255.17 550.792C254.543 549.964 247.469 552.542 245.772 553.177C244.63 552.865 243.649 552.66 243.177 552.706C242.783 552.744 242.253 553.154 241.684 553.794C242.431 554.938 242.897 556.041 242.172 557.37C242.134 557.439 242.093 557.509 242.051 557.578C242.038 557.599 242.025 557.619 242.012 557.64C241.979 557.692 241.945 557.742 241.91 557.793C241.896 557.813 241.883 557.834 241.868 557.854C241.82 557.923 241.77 557.991 241.717 558.058C241.716 558.059 241.715 558.062 241.713 558.064C241.662 558.129 241.608 558.196 241.553 558.261C241.536 558.281 241.518 558.301 241.5 558.323C241.458 558.372 241.415 558.42 241.372 558.469C241.354 558.489 241.336 558.509 241.317 558.53C241.256 558.596 241.195 558.66 241.131 558.725C240.006 559.111 238.772 559.646 238.414 559.905C237.808 560.343 237.299 561.23 237.372 561.972C237.445 562.714 238.116 563.485 238.796 563.797C239.197 563.982 240.511 564.267 241.69 564.427C241.766 564.478 241.838 564.529 241.91 564.582C241.933 564.598 241.955 564.615 241.977 564.631C242.028 564.67 242.08 564.71 242.13 564.749C242.152 564.766 242.174 564.782 242.194 564.8C242.261 564.853 242.326 564.908 242.39 564.963C242.391 564.964 242.392 564.966 242.395 564.967C242.46 565.023 242.522 565.08 242.583 565.138C242.601 565.154 242.619 565.173 242.635 565.19C242.68 565.232 242.723 565.277 242.765 565.32C242.782 565.338 242.799 565.355 242.816 565.373C242.87 565.432 242.925 565.493 242.975 565.554C243.945 566.717 243.702 567.889 243.19 569.156C243.873 569.673 244.472 569.972 244.867 569.934C245.338 569.887 246.261 569.494 247.321 568.967C249.109 569.259 256.549 570.415 257.002 569.48L257.002 569.478Z" fill="#DF4942"/>
<path d="M238.191 561.889L240.828 563.367L240.49 559.929L238.191 561.889Z" fill="#38372F"/>
<path d="M244.409 565.314C244.461 565.852 244.945 566.245 245.488 566.191C246.032 566.138 246.43 565.659 246.377 565.121C246.324 564.583 245.841 564.19 245.297 564.244C244.754 564.297 244.356 564.776 244.409 565.314Z" fill="#38372F"/>
<path d="M243.625 557.323C243.678 557.861 244.161 558.254 244.704 558.2C245.248 558.147 245.646 557.668 245.593 557.13C245.54 556.592 245.057 556.199 244.513 556.253C243.97 556.306 243.572 556.785 243.625 557.323Z" fill="#38372F"/>
<path d="M242.974 565.553C242.607 565.117 242.161 564.749 241.689 564.426C240.51 564.266 239.196 563.981 238.795 563.796C239.763 565.788 241.677 568.007 243.189 569.154C243.7 567.887 243.943 566.715 242.974 565.552L242.974 565.553Z" fill="#E6E1C8"/>
<path d="M254.323 568.483C254.571 567.971 252.313 566.234 252.313 566.234L249.479 568.206C249.479 568.206 254.076 568.994 254.324 568.484L254.323 568.483Z" fill="#E6E1C8"/>
<path d="M241.129 558.722C242.665 557.382 242.971 555.372 241.682 553.793C240.422 555.212 238.975 557.76 238.413 559.902C238.77 559.644 240.004 559.109 241.129 558.722Z" fill="#E6E1C8"/>
<path d="M251.2 554.886C251.2 554.886 253.077 552.742 252.735 552.289C252.393 551.836 248.037 553.503 248.037 553.503L251.2 554.887L251.2 554.886Z" fill="#E6E1C8"/>
<path d="M232.191 554.19C232.187 554.141 232.202 554.091 232.236 554.051C232.303 553.974 232.422 553.965 232.5 554.032L234.619 555.836C234.697 555.903 234.706 556.02 234.638 556.098C234.57 556.175 234.452 556.184 234.374 556.117L232.255 554.313C232.217 554.281 232.196 554.237 232.191 554.19Z" fill="#E6E1C8"/>
<path d="M228.816 555.055C228.812 555.022 228.818 554.988 228.834 554.956C228.88 554.864 228.992 554.826 229.085 554.87L232.555 556.556C232.648 556.601 232.686 556.712 232.641 556.804C232.595 556.896 232.483 556.934 232.39 556.89L228.92 555.204C228.859 555.176 228.822 555.118 228.816 555.055Z" fill="#E6E1C8"/>
<path d="M228.272 549.514C228.268 549.469 228.281 549.42 228.311 549.381C228.374 549.3 228.492 549.286 228.574 549.349L231.394 551.532C231.476 551.595 231.49 551.712 231.426 551.793C231.362 551.873 231.245 551.888 231.163 551.825L228.343 549.642C228.3 549.61 228.277 549.562 228.272 549.514Z" fill="#E6E1C8"/>
<path d="M226.665 550.903C226.661 550.858 226.672 550.811 226.703 550.773C226.765 550.691 226.883 550.675 226.965 550.736L230.252 553.181C230.335 553.242 230.351 553.359 230.289 553.441C230.227 553.523 230.109 553.539 230.026 553.478L226.739 551.033C226.696 551 226.67 550.953 226.665 550.903Z" fill="#E6E1C8"/>
<path d="M225.166 552.433C225.162 552.397 225.169 552.359 225.188 552.325C225.238 552.236 225.352 552.202 225.443 552.252L227.103 553.155C227.194 553.205 227.227 553.317 227.177 553.408C227.127 553.497 227.013 553.531 226.922 553.481L225.262 552.578C225.206 552.547 225.172 552.492 225.166 552.433Z" fill="#E6E1C8"/>
<path d="M224.464 545.275C224.46 545.232 224.47 545.188 224.498 545.15C224.558 545.067 224.675 545.047 224.76 545.106L227.449 546.995C227.532 547.054 227.553 547.17 227.493 547.254C227.433 547.337 227.316 547.357 227.231 547.298L224.542 545.409C224.496 545.377 224.469 545.328 224.464 545.277L224.464 545.275Z" fill="#E6E1C8"/>
<path d="M222.816 546.513C222.812 546.479 222.819 546.443 222.836 546.411C222.883 546.319 222.995 546.283 223.088 546.329L225.775 547.68C225.868 547.727 225.904 547.839 225.857 547.929C225.81 548.021 225.698 548.057 225.605 548.011L222.918 546.66C222.858 546.63 222.823 546.574 222.817 546.512L222.816 546.513Z" fill="#E6E1C8"/>
<path d="M221.096 547.989C221.092 547.949 221.102 547.907 221.126 547.87C221.183 547.785 221.299 547.76 221.386 547.817L223.543 549.22C223.63 549.276 223.654 549.39 223.596 549.477C223.539 549.562 223.423 549.587 223.336 549.53L221.179 548.127C221.129 548.094 221.1 548.044 221.095 547.99L221.096 547.989Z" fill="#E6E1C8"/>
</g>
<g clip-path="url(#clip3_2_2)">
<path d="M228.51 637.82L227.282 635.542L229.447 634.122C230.974 633.121 232.811 632.802 234.535 633.238L235.962 633.598C237.627 634.02 238.617 635.778 238.174 637.525L237.807 638.976C237.365 640.724 235.657 641.799 233.992 641.379L232.566 641.018C230.841 640.582 229.376 639.427 228.511 637.821L228.51 637.82Z" fill="#2EAC94"/>
<path d="M238.016 639.125L238.115 638.734L239.535 639.286L239.843 638.072L238.331 637.883L238.429 637.492C238.927 635.527 237.813 633.55 235.941 633.076L235.102 632.863L232.887 641.612L233.726 641.825C235.597 642.299 237.519 641.089 238.016 639.124L238.016 639.125Z" fill="#38372F"/>
<path d="M237.169 635.768C237.204 636.277 237.996 636.226 237.962 635.715C237.927 635.204 237.135 635.257 237.169 635.768Z" fill="#E6E1C8"/>
<path d="M235.075 634.92C235.109 635.43 235.902 635.378 235.868 634.867C235.833 634.356 235.041 634.409 235.075 634.92Z" fill="#E6E1C8"/>
<path d="M236.038 636.378C236.072 636.887 236.864 636.836 236.83 636.325C236.796 635.814 236.003 635.867 236.038 636.378Z" fill="#E6E1C8"/>
<path d="M236.712 638.143C236.746 638.652 237.538 638.601 237.504 638.09C237.47 637.579 236.677 637.632 236.712 638.143Z" fill="#E6E1C8"/>
<path d="M234.635 637.562C234.669 638.071 235.462 638.02 235.428 637.509C235.393 636.998 234.601 637.051 234.635 637.562Z" fill="#E6E1C8"/>
<path d="M235.167 639.357C235.201 639.867 235.993 639.815 235.959 639.304C235.925 638.793 235.133 638.846 235.167 639.357Z" fill="#E6E1C8"/>
<path d="M236.05 640.245C236.084 640.755 236.877 640.703 236.842 640.192C236.808 639.681 236.016 639.734 236.05 640.245Z" fill="#E6E1C8"/>
<path d="M234.12 639.914C233.58 639.92 233.637 640.771 234.173 640.706C234.688 640.68 234.632 639.873 234.12 639.914Z" fill="#E6E1C8"/>
<path d="M220.99 637.617C221.413 636.696 221.224 635.656 221.224 635.656C221.224 635.656 221.847 635.943 222.772 636.069C223.737 636.201 224.833 635.909 225.599 635.607C226.204 635.367 227.299 634.762 228.252 633.453C228.35 633.318 228.513 633.095 228.681 632.821C229.215 632.713 229.746 632.595 230.269 632.473C230.249 632.532 230.229 632.589 230.213 632.644C229.997 633.308 229.809 633.999 229.696 634.734C229.654 635.012 229.622 635.296 229.606 635.584C229.367 635.898 229.234 636.295 229.263 636.719C229.325 637.65 230.131 638.354 231.062 638.292C231.993 638.229 232.697 637.424 232.635 636.493C232.611 636.138 232.48 635.817 232.274 635.559C232.294 635.502 232.313 635.446 232.334 635.389C232.527 634.892 232.785 634.391 233.076 633.891C233.15 633.763 233.217 633.652 233.286 633.538C233.357 633.424 233.43 633.313 233.507 633.205C233.658 632.986 233.82 632.777 233.99 632.577C234.332 632.176 234.706 631.81 235.108 631.484C235.186 631.42 235.267 631.342 235.336 631.264C235.395 631.197 235.447 631.126 235.495 631.052C236.285 630.808 236.761 630.649 236.761 630.649C236.761 630.649 238.1 633.679 240.637 635.018C243.583 636.573 247.262 636.504 247.262 636.504L246.425 624.014C246.651 623.977 246.878 623.904 247.099 623.779C248.116 623.199 248.418 621.865 248.245 620.883C248.035 619.687 247.125 619.038 246.876 618.86C245.919 618.177 244.391 617.814 243.153 618.546C242.967 618.656 242.032 619.208 241.855 620.218C241.84 620.304 241.832 620.39 241.828 620.474C240.853 620.003 239.739 619.51 238.509 619.032C239.181 618.788 239.948 618.421 240.717 617.86C242.656 616.445 243.7 614.832 244.188 613.692C244.814 612.228 245.301 610.319 244.848 608.186C244.391 606.04 243.001 604.729 242.372 604.153C240.72 602.634 238.897 602.149 237.92 601.979C236.799 601.785 234.911 601.46 233.277 602.448C231.459 603.548 230.281 605.537 230.281 605.537C230.281 605.537 228.628 604.449 226.501 604.005C224.307 603.546 222.387 604.5 221.674 604.854C221.238 605.07 219.76 605.906 218.482 607.745C217.291 609.455 217.073 611.093 216.883 612.314C216.718 613.373 216.829 615.468 216.941 617.14L218.395 638.855C218.395 638.855 219.37 638.949 219.993 638.626C220.216 638.51 220.721 638.202 220.989 637.617L220.99 637.617Z" fill="#DF4942"/>
<path d="M241.691 627.789C241.609 627.631 241.515 627.482 241.407 627.344L241.407 627.342C240.842 626.622 239.944 626.185 238.963 626.25C237.388 626.356 236.196 627.718 236.302 629.293C236.317 629.518 236.301 629.958 236.725 630.773C237.544 632.348 238.652 633.908 240.57 634.979C243.478 636.605 247.261 636.501 247.261 636.501L241.691 627.789Z" fill="#E6E1C8"/>
<path d="M247.051 633.368L243.88 636.175C243.88 636.175 244.449 636.369 245.333 636.454C246.217 636.54 247.259 636.502 247.259 636.502L247.049 633.368L247.051 633.368Z" fill="#38372F"/>
<path d="M242.473 629.39C242.725 629.9 243.344 630.109 243.854 629.857C244.365 629.604 244.573 628.986 244.321 628.476C244.068 627.966 243.45 627.757 242.94 628.009C242.429 628.262 242.22 628.88 242.473 629.39Z" fill="#38372F"/>
<path d="M240.46 634.451C240.307 633.781 240.591 633.033 241.138 632.621C241.341 632.468 241.12 632.138 240.916 632.292C240.215 632.82 239.893 633.729 240.086 634.581C240.11 634.685 240.246 634.736 240.34 634.703C240.45 634.665 240.485 634.555 240.462 634.449L240.46 634.451Z" fill="#38372F"/>
<path d="M229.167 609.125C229.134 608.633 229.152 607.99 229.33 607.279C229.468 606.727 229.684 606.196 229.973 605.703C230.03 605.609 230.151 605.577 230.245 605.632C230.339 605.688 230.371 605.809 230.316 605.903C230.046 606.364 229.843 606.859 229.714 607.374C229.427 608.528 229.586 609.487 229.667 609.846C229.746 610.191 229.955 611.106 230.733 611.993C231.134 612.449 231.828 613.059 232.86 613.369C233.366 613.521 234.213 613.775 235.201 613.426C236.182 613.077 236.705 612.344 236.886 612.044C237.463 611.082 237.419 610.32 237.281 609.849C237.223 609.649 237.085 609.181 236.64 608.855C236.31 608.614 235.954 608.551 235.715 608.542C235.606 608.537 235.52 608.444 235.524 608.336C235.529 608.227 235.621 608.141 235.73 608.146C236.024 608.158 236.463 608.235 236.875 608.536C237.427 608.94 237.592 609.5 237.662 609.738C237.822 610.284 237.878 611.163 237.227 612.248C237.025 612.585 236.437 613.409 235.335 613.8C234.226 614.194 233.264 613.904 232.747 613.749C231.625 613.412 230.871 612.75 230.436 612.256C229.592 611.294 229.359 610.271 229.282 609.936C229.245 609.771 229.193 609.491 229.168 609.126L229.167 609.125Z" fill="#E6E1C8"/>
<path d="M234.931 605.331C234.93 605.32 234.929 605.308 234.932 605.296C234.945 605.187 235.043 605.109 235.153 605.122L237.623 605.41C237.731 605.422 237.811 605.52 237.797 605.63C237.784 605.738 237.686 605.817 237.577 605.804L235.106 605.516C235.01 605.505 234.937 605.427 234.931 605.333L234.931 605.331Z" fill="#E6E1C8"/>
<path d="M235.629 603.106C235.628 603.095 235.628 603.085 235.629 603.073C235.641 602.963 235.737 602.884 235.847 602.895L238.041 603.111C238.15 603.123 238.23 603.219 238.218 603.329C238.207 603.438 238.11 603.518 238.001 603.507L235.807 603.29C235.71 603.281 235.635 603.201 235.629 603.106Z" fill="#E6E1C8"/>
<path d="M239.952 603.936C239.949 603.896 239.958 603.854 239.981 603.817C240.04 603.724 240.161 603.696 240.254 603.754L242.307 605.038C242.4 605.095 242.428 605.218 242.37 605.311C242.311 605.403 242.19 605.431 242.097 605.374L240.044 604.09C239.987 604.055 239.956 603.997 239.952 603.934L239.952 603.936Z" fill="#E6E1C8"/>
<path d="M239.406 605.726C239.403 605.68 239.415 605.632 239.447 605.592C239.514 605.506 239.639 605.489 239.726 605.557L241.608 607.004C241.695 607.072 241.711 607.196 241.644 607.283C241.577 607.37 241.452 607.386 241.365 607.319L239.483 605.871C239.436 605.835 239.409 605.782 239.406 605.726Z" fill="#E6E1C8"/>
<path d="M238.862 607.549C238.858 607.491 238.88 607.43 238.927 607.388C239.008 607.315 239.133 607.321 239.208 607.403L240.311 608.629C240.384 608.711 240.378 608.836 240.297 608.91C240.215 608.983 240.09 608.977 240.016 608.896L238.912 607.669C238.881 607.635 238.865 607.593 238.862 607.549Z" fill="#E6E1C8"/>
<path d="M243.214 608.346C243.208 608.255 243.266 608.169 243.357 608.143C243.462 608.112 243.573 608.174 243.602 608.279L244.193 610.328C244.224 610.433 244.162 610.543 244.057 610.573C243.952 610.604 243.841 610.542 243.812 610.437L243.221 608.388C243.217 608.374 243.215 608.361 243.214 608.346Z" fill="#E6E1C8"/>
<path d="M241.695 609.167C241.688 609.068 241.756 608.977 241.857 608.958C241.965 608.939 242.069 609.01 242.088 609.118L242.37 610.649C242.39 610.756 242.318 610.861 242.21 610.88C242.103 610.899 241.998 610.828 241.979 610.72L241.698 609.189C241.697 609.181 241.696 609.173 241.696 609.166L241.695 609.167Z" fill="#E6E1C8"/>
<path d="M233.286 617.756C233.285 617.733 233.287 617.709 233.294 617.686C233.325 617.581 233.435 617.522 233.541 617.553L237.565 618.756C237.67 618.787 237.729 618.898 237.698 619.003C237.666 619.108 237.556 619.167 237.451 619.136L233.427 617.933C233.346 617.908 233.29 617.837 233.285 617.756L233.286 617.756Z" fill="#E6E1C8"/>
<path d="M226.735 616.512C226.735 616.5 226.734 616.488 226.737 616.475C226.75 616.367 226.849 616.288 226.957 616.301L231.463 616.84C231.572 616.852 231.65 616.952 231.637 617.06C231.625 617.168 231.525 617.247 231.417 617.234L226.911 616.695C226.815 616.683 226.743 616.604 226.737 616.512L226.735 616.512Z" fill="#E6E1C8"/>
<path d="M221.245 616.984C221.239 616.883 221.312 616.79 221.414 616.776L224.694 616.293C224.803 616.277 224.904 616.352 224.919 616.461C224.934 616.572 224.86 616.671 224.751 616.686L221.471 617.168C221.362 617.185 221.262 617.109 221.246 617C221.246 616.995 221.246 616.99 221.245 616.984Z" fill="#E6E1C8"/>
<path d="M231.638 619.074C231.637 619.054 231.638 619.033 231.644 619.013C231.67 618.906 231.778 618.842 231.885 618.868L235.361 619.74C235.468 619.766 235.532 619.874 235.506 619.981C235.48 620.087 235.371 620.151 235.265 620.125L231.788 619.254C231.703 619.232 231.644 619.159 231.638 619.074Z" fill="#E6E1C8"/>
<path d="M224.697 618.152C224.696 618.142 224.695 618.131 224.697 618.12C224.707 618.011 224.804 617.93 224.913 617.94L228.458 618.265C228.567 618.275 228.647 618.372 228.638 618.481C228.628 618.59 228.531 618.671 228.422 618.661L224.877 618.336C224.779 618.327 224.704 618.247 224.698 618.152L224.697 618.152Z" fill="#E6E1C8"/>
<path d="M232.693 621.413C232.692 621.393 232.693 621.373 232.698 621.352C232.724 621.245 232.833 621.181 232.939 621.207L235.816 621.92C235.923 621.946 235.987 622.054 235.961 622.161C235.935 622.267 235.826 622.331 235.72 622.305L232.843 621.592C232.757 621.572 232.699 621.497 232.693 621.413Z" fill="#E6E1C8"/>
<path d="M227.204 620.197C227.203 620.185 227.202 620.172 227.205 620.16C227.219 620.052 227.318 619.974 227.426 619.987L230.765 620.395C230.875 620.409 230.95 620.507 230.938 620.615C230.924 620.724 230.826 620.802 230.717 620.788L227.378 620.381C227.282 620.368 227.21 620.29 227.204 620.197Z" fill="#E6E1C8"/>
<path d="M222.205 620.279C222.205 620.279 222.204 620.271 222.204 620.268C222.203 620.158 222.29 620.069 222.4 620.068L225.025 620.04C225.135 620.039 225.222 620.129 225.225 620.236C225.226 620.346 225.139 620.435 225.029 620.436L222.404 620.465C222.298 620.466 222.211 620.383 222.204 620.279L222.205 620.279Z" fill="#E6E1C8"/>
</g>
<g clip-path="url(#clip4_2_2)">
<path d="M290.368 689.291C291.694 689.354 293.762 690.054 294.221 691.768C294.795 693.919 292.316 695.712 292.2 695.792C290.29 697.133 288.151 696.51 287.929 696.44C287.771 696.391 285.203 695.56 284.929 693.76C284.607 691.646 287.596 689.157 290.368 689.289L290.368 689.291Z" fill="#DF4942"/>
<path d="M287.136 691.765C287.935 690.963 289.05 691.03 289.148 691.038C290.132 691.112 291.421 691.796 291.448 692.786C291.477 693.807 290.147 694.445 290.047 694.492C289.898 694.562 288.97 694.974 287.974 694.544C287.354 694.277 286.512 693.599 286.575 692.772C286.612 692.292 286.939 691.963 287.137 691.765L287.136 691.765Z" fill="#E6E1C8"/>
<path d="M289.986 673.959C291.307 673.829 293.338 673.027 293.71 671.292C294.177 669.116 291.611 667.449 291.492 667.374C289.518 666.13 287.412 666.859 287.194 666.939C287.038 666.997 284.515 667.954 284.331 669.766C284.115 671.893 287.224 674.231 289.986 673.96L289.986 673.959Z" fill="#DF4942"/>
<path d="M286.635 671.648C287.473 672.41 288.583 672.287 288.681 672.274C289.659 672.151 290.913 671.404 290.891 670.413C290.868 669.393 289.509 668.822 289.407 668.78C289.254 668.717 288.307 668.352 287.333 668.831C286.727 669.129 285.921 669.847 286.025 670.67C286.086 671.148 286.429 671.461 286.636 671.648L286.635 671.648Z" fill="#E6E1C8"/>
<path d="M254.082 702.76C263.874 700.113 265.019 699.504 267.894 698.521C270.328 697.688 274.524 695.288 274.524 695.288C274.524 695.288 277.68 695.972 280.403 695.75C281.987 695.622 284.898 695.35 287.865 693.429C288.98 692.707 291.556 690.81 293.099 687.297C294.128 684.951 294.281 682.833 294.276 681.587C294.219 680.343 293.961 678.235 292.815 675.943C291.099 672.511 288.431 670.745 287.282 670.08C284.223 668.308 281.302 668.182 279.713 668.132C276.982 668.046 273.865 668.887 273.865 668.887C273.865 668.887 269.555 666.699 267.082 665.989C264.162 665.15 262.988 664.598 253.076 662.442C244.967 660.676 242.323 660.621 238.074 661.235C234.576 661.742 232.147 662.818 230.509 663.56C226.179 665.52 224.758 667.371 224.318 667.986C224.237 668.099 224.154 668.216 224.071 668.338C223.654 667.511 223.157 666.952 222.762 666.76C221.945 666.366 219.873 666.335 219.873 666.335L220.13 676.647L226.149 676.497C227.012 676.933 227.655 676.921 228.633 677.948C229.697 679.065 230.161 680.365 230.332 680.856C230.65 681.774 230.759 682.586 230.795 683.169C230.787 683.751 230.719 684.569 230.447 685.502C230.302 686.001 229.903 687.322 228.896 688.49C227.97 689.565 227.327 689.585 226.487 690.064L220.468 690.214L220.725 700.525C220.725 700.525 222.793 700.39 223.589 699.957C223.975 699.747 224.444 699.164 224.818 698.316C224.907 698.434 224.996 698.547 225.082 698.655C225.55 699.247 227.064 701.026 231.486 702.768C233.159 703.427 235.638 704.382 239.158 704.712C243.432 705.114 246.069 704.928 254.081 702.761L254.082 702.76Z" fill="#DF4942"/>
<path d="M264.524 693.158C265.714 692.185 267.634 690.574 268.655 687.711C269.485 685.382 269.849 683.28 269.676 682.124C269.789 680.96 269.323 678.878 268.378 676.593C267.216 673.783 265.218 672.271 263.981 671.359C258.716 667.479 252.593 667.776 250.011 667.9C246.93 668.049 242.525 668.264 238.528 671.407C237.348 672.335 234.782 674.411 233.706 678.115C233.12 680.13 232.838 681.913 232.972 683.037C232.892 684.168 233.264 685.933 233.95 687.917C235.209 691.562 237.875 693.508 239.1 694.376C243.249 697.317 247.658 697.311 250.743 697.306C253.329 697.302 259.459 697.295 264.524 693.156L264.524 693.158Z" fill="#E6E1C8"/>
<path d="M258.617 683.866C258.614 683.753 258.698 683.658 258.81 683.646L263.672 683.143C263.791 683.132 263.896 683.217 263.908 683.336C263.92 683.455 263.835 683.561 263.715 683.573L258.854 684.076C258.735 684.087 258.629 684.002 258.617 683.883C258.617 683.877 258.617 683.871 258.617 683.866Z" fill="#DF4942"/>
<path d="M259.742 687.378C259.739 687.281 259.803 687.19 259.901 687.163L263.71 686.119C263.824 686.088 263.944 686.155 263.975 686.271C264.007 686.386 263.939 686.505 263.824 686.537L260.015 687.581C259.9 687.613 259.781 687.545 259.749 687.429C259.744 687.412 259.742 687.395 259.742 687.378Z" fill="#DF4942"/>
<path d="M262.189 689.72C262.187 689.633 262.239 689.548 262.326 689.514L265.041 688.455C265.153 688.412 265.278 688.467 265.321 688.578C265.364 688.689 265.309 688.814 265.198 688.858L262.483 689.916C262.372 689.959 262.247 689.905 262.204 689.793C262.195 689.769 262.19 689.745 262.189 689.72Z" fill="#DF4942"/>
<path d="M258.544 680.959C258.547 681.072 258.636 681.163 258.748 681.169L263.629 681.429C263.748 681.435 263.85 681.344 263.855 681.225C263.861 681.105 263.771 681.003 263.651 680.998L258.771 680.738C258.651 680.732 258.55 680.822 258.544 680.942C258.544 680.948 258.544 680.954 258.544 680.959Z" fill="#DF4942"/>
<path d="M259.493 677.396C259.496 677.492 259.564 677.58 259.662 677.602L263.519 678.455C263.635 678.481 263.751 678.407 263.777 678.29C263.802 678.174 263.729 678.058 263.612 678.032L259.755 677.179C259.64 677.153 259.524 677.226 259.498 677.344C259.494 677.361 259.493 677.378 259.493 677.396Z" fill="#DF4942"/>
<path d="M261.821 674.933C261.823 675.02 261.88 675.102 261.968 675.132L264.732 676.054C264.846 676.091 264.968 676.031 265.005 675.917C265.043 675.804 264.982 675.682 264.869 675.644L262.105 674.722C261.991 674.685 261.869 674.745 261.832 674.859C261.824 674.883 261.82 674.908 261.821 674.933Z" fill="#DF4942"/>
<path d="M255.621 698.796L267.556 692.863C264.286 692.315 261.1 691.27 258.141 689.774C257.577 689.488 257.015 689.185 256.451 688.891C255.933 687.04 254.214 685.705 252.207 685.755C249.835 685.814 247.96 687.786 248.019 690.16C248.058 691.687 248.888 693.006 250.105 693.739C251.48 695.853 253.396 697.613 255.621 698.796Z" fill="#DF4942"/>
<path d="M254.809 666.195L267.024 671.526C263.785 672.236 260.655 673.439 257.775 675.081C257.226 675.394 256.68 675.724 256.131 676.046C255.706 677.921 254.056 679.34 252.048 679.39C249.677 679.449 247.706 677.573 247.647 675.199C247.609 673.672 248.372 672.314 249.551 671.521C250.819 669.34 252.645 667.487 254.809 666.195Z" fill="#DF4942"/>
<path d="M273.978 681.982C274.059 685.218 276.39 687.785 279.186 687.715C281.982 687.646 284.183 684.966 284.103 681.73C284.022 678.494 281.69 675.927 278.894 675.996C276.099 676.066 273.897 678.746 273.978 681.982Z" fill="#E6E1C8"/>
<path d="M281.615 688.655C281.63 689.286 282.154 689.785 282.785 689.769C283.416 689.753 283.914 689.229 283.898 688.598C283.883 687.966 283.359 687.468 282.728 687.483C282.097 687.499 281.599 688.023 281.615 688.655Z" fill="#38372F"/>
<path d="M281.275 675.03C281.291 675.661 281.815 676.16 282.445 676.144C283.076 676.128 283.575 675.604 283.559 674.973C283.543 674.341 283.019 673.843 282.388 673.858C281.758 673.874 281.259 674.398 281.275 675.03Z" fill="#38372F"/>
<path d="M279.354 686.237C279.391 686.123 279.329 686.001 279.216 685.965C277.564 685.424 276.407 683.934 276.272 682.213L279.142 682.141L281.838 684.153L281.723 679.54L279.099 681.709L276.26 681.78C276.298 680.046 277.381 678.488 279.008 677.862C279.12 677.818 279.176 677.693 279.132 677.582C279.089 677.471 278.964 677.415 278.853 677.458C276.991 678.174 275.775 679.997 275.825 681.992C275.874 683.987 277.183 685.752 279.081 686.373C279.194 686.41 279.316 686.348 279.354 686.235L279.354 686.237Z" fill="#38372F"/>
</g>
<g clip-path="url(#clip5_2_2)">
<path d="M232.803 762.639C228.113 762.407 224.401 760.41 224.501 758.379C224.601 756.348 228.365 757.315 233.055 757.547C237.745 757.779 241.609 756.702 241.509 758.733C241.409 760.764 237.493 762.869 232.803 762.637L232.803 762.639Z" fill="#DF4942"/>
<path d="M234.333 731.676C229.643 731.445 225.752 733.066 225.651 735.097C225.551 737.128 229.391 736.536 234.081 736.768C238.771 737 242.511 738.452 242.611 736.421C242.711 734.39 239.023 731.908 234.333 731.676Z" fill="#DF4942"/>
<path d="M219.887 749.283L220.182 743.306C220.462 737.64 225.335 733.278 231.063 733.561L233.791 733.695C241.19 734.061 246.895 740.288 246.534 747.605C246.172 754.921 239.881 760.556 232.482 760.19L229.754 760.055C224.024 759.772 219.607 754.949 219.887 749.285L219.887 749.283Z" fill="#2EAC94"/>
<path d="M236.721 747.313C236.355 754.72 241.488 760.993 248.185 761.324C254.883 761.655 260.609 755.918 260.975 748.511C261.341 741.104 256.208 734.83 249.511 734.5C242.813 734.169 237.087 739.905 236.721 747.313Z" fill="#2EAC94"/>
<path d="M224.55 746.711C224.298 751.814 228.879 756.187 234.783 756.479C240.687 756.77 245.677 752.87 245.929 747.768C246.181 742.665 241.6 738.292 235.696 738C229.792 737.709 224.802 741.609 224.55 746.711Z" fill="#E6E1C8"/>
<path d="M257.167 753.521C257.267 751.5 256.489 749.626 255.15 748.225C256.621 746.962 257.58 745.174 257.679 743.153C257.881 739.08 254.523 735.604 250.178 735.39C245.833 735.175 242.149 738.303 241.948 742.376C241.848 744.397 242.626 746.27 243.965 747.672C242.495 748.935 241.536 750.722 241.436 752.744C241.235 756.817 244.592 760.292 248.937 760.507C253.282 760.721 256.966 757.594 257.167 753.521Z" fill="#E6E1C8"/>
<path d="M255.11 753.419C255.23 750.994 253.64 748.857 251.338 748.036C253.71 747.447 255.502 745.477 255.622 743.051C255.771 740.044 253.291 737.477 250.083 737.319C246.874 737.16 244.154 739.47 244.005 742.478C243.886 744.903 245.475 747.04 247.777 747.86C245.405 748.45 243.613 750.42 243.493 752.845C243.345 755.853 245.824 758.419 249.033 758.578C252.241 758.736 254.961 756.427 255.11 753.419Z" fill="#DF4942"/>
<path d="M246.447 752.019C246.37 753.581 247.607 754.911 249.21 754.99C250.813 755.069 252.175 753.867 252.252 752.306C252.329 750.744 251.092 749.413 249.489 749.334C247.886 749.255 246.524 750.457 246.447 752.019Z" fill="#E6E1C8"/>
<path d="M246.863 743.59C246.786 745.152 248.023 746.482 249.626 746.561C251.229 746.64 252.591 745.438 252.669 743.877C252.746 742.315 251.509 740.984 249.906 740.905C248.303 740.826 246.941 742.028 246.863 743.59Z" fill="#E6E1C8"/>
<path d="M247.997 751.34C247.959 752.099 248.551 752.745 249.319 752.783C250.086 752.821 250.739 752.236 250.777 751.477C250.814 750.718 250.222 750.072 249.455 750.034C248.687 749.996 248.034 750.581 247.997 751.34Z" fill="#38372F"/>
<path d="M248.339 744.416C248.301 745.175 248.893 745.821 249.661 745.859C250.429 745.897 251.081 745.313 251.119 744.554C251.156 743.795 250.564 743.148 249.797 743.111C249.029 743.073 248.376 743.657 248.339 744.416Z" fill="#38372F"/>
<path d="M245.087 749.99L242.528 747.599L245.31 745.473L247.869 747.863L245.087 749.99Z" fill="#38372F"/>
<path d="M235.916 747.273L239.105 746.012L238.965 748.842L235.916 747.273Z" fill="#2EAC94"/>
<path d="M235.712 751.409L238.9 750.148L238.761 752.978L235.712 751.409Z" fill="#2EAC94"/>
<path d="M231.202 749.193L234.391 747.93L234.251 750.761L231.202 749.193Z" fill="#2EAC94"/>
<path d="M231.414 744.899L234.463 746.468L234.603 743.639L231.414 744.899Z" fill="#2EAC94"/>
<path d="M236.121 743.138L239.169 744.707L239.309 741.878L236.121 743.138Z" fill="#2EAC94"/>
</g>
<g clip-path="url(#clip6_2_2)">
<path d="M249.881 790.281C249.881 790.281 248.102 790.441 245.829 790.986C246.85 791.562 248.543 792.518 249.61 793.122L249.881 790.281Z" fill="#38372F"/>
<path d="M224.448 811.738C224.503 811.162 224.348 810.618 224.031 810.141C229.116 809.961 234.365 806.296 235.99 801.244C236.035 801.105 236.073 800.967 236.107 800.831L241.544 799.537C241.287 800.671 241.233 801.919 241.641 803.128C242.902 806.856 248.428 808.422 248.428 808.422L244.787 798.72C245.584 799.991 246.8 801.382 248.618 802.347C252.826 804.584 258.618 803.234 258.618 803.234L245.319 796.545L246.15 787.821C245.081 787.217 243.391 786.261 242.369 785.685C239.826 786.295 237.132 787.441 235.154 789.333C234.394 790.06 233.457 791.471 233.09 792.469L215.09 789.886C215.09 789.886 215.142 789.54 214.637 788.959C214.132 788.377 212.84 788.724 212.84 788.724L212.52 792.08L217.518 793.469C216.494 793.971 215.567 794.575 214.769 795.261C214.736 794.863 214.675 794.54 214.576 794.334C214.209 793.569 212.393 793.421 212.393 793.421L211.622 801.511L211.643 801.509C211.45 806.074 213.612 808.284 216.973 809.317C216.141 809.885 215.587 810.67 215.504 811.547C215.333 813.343 217.196 814.841 219.666 814.894C222.135 814.947 224.276 813.533 224.447 811.738L224.448 811.738Z" fill="#E6E1C8"/>
<path d="M245.213 798.663C245.825 798.784 246.475 798.515 246.665 798.063C246.855 797.611 246.513 797.146 245.902 797.025C245.29 796.904 244.64 797.173 244.45 797.626C244.26 798.078 244.602 798.543 245.213 798.663Z" fill="#38372F"/>
<path d="M241.402 792.731C241.41 792.644 241.51 792.575 241.628 792.573C241.751 792.571 241.848 792.643 241.845 792.733C241.834 793.101 241.888 793.308 241.971 793.506C242.041 793.671 242.157 793.946 242.356 794.153C242.562 794.367 242.833 794.54 243.163 794.665C243.27 794.706 243.308 794.803 243.247 794.883C243.186 794.963 243.052 794.995 242.945 794.954C242.555 794.805 242.233 794.601 241.989 794.346C241.752 794.1 241.618 793.783 241.545 793.612C241.462 793.416 241.388 793.174 241.4 792.738C241.4 792.736 241.4 792.733 241.4 792.731L241.402 792.731Z" fill="#38372F"/>
</g>
<g clip-path="url(#clip7_2_2)">
<path d="M271.674 868.951C271.772 868.697 271.645 868.412 271.39 868.314L271.385 868.314C270.881 868.119 270.385 867.916 269.899 867.695C269.415 867.472 268.939 867.237 268.475 866.982C267.549 866.47 266.668 865.893 265.846 865.251C264.965 864.561 264.146 863.799 263.44 862.968C263.448 862.963 263.454 862.959 263.462 862.954C263.678 862.821 263.953 862.696 264.254 862.579C264.844 862.341 265.458 862.154 266.086 862.011C266.714 861.865 267.358 861.777 268.009 861.731C268.659 861.687 269.315 861.696 269.97 861.753L269.977 861.754C270.22 861.775 270.446 861.615 270.499 861.371C270.558 861.107 270.39 860.846 270.126 860.786C269.432 860.632 268.725 860.527 268.01 860.48C267.295 860.436 266.573 860.439 265.852 860.507C265.132 860.573 264.413 860.691 263.704 860.872C263.354 860.958 262.984 861.061 262.588 861.233C262.491 861.276 262.391 861.324 262.292 861.378C262.152 861.144 262.02 860.905 261.9 860.663C261.683 860.22 261.499 859.771 261.357 859.308C261.218 858.843 261.111 858.37 261.053 857.891C260.931 856.936 260.985 855.966 261.246 855.06C261.756 853.273 263.185 851.645 265.116 851.073L265.144 851.064C265.36 851.001 265.51 850.794 265.494 850.56C265.476 850.29 265.241 850.086 264.97 850.105C264.818 850.115 264.665 850.125 264.513 850.143C264.362 850.168 264.209 850.188 264.059 850.221C263.911 850.26 263.759 850.292 263.613 850.34C263.468 850.391 263.316 850.432 263.175 850.493C262.599 850.719 262.06 851.039 261.572 851.424C260.599 852.194 259.827 853.244 259.38 854.431C259.291 854.662 259.215 854.899 259.15 855.139C258.969 855.094 258.79 855.031 258.614 854.955C258.153 854.754 257.724 854.448 257.382 854.056L257.373 854.047C257.223 853.876 256.969 853.825 256.761 853.94C256.523 854.071 256.438 854.371 256.57 854.608C256.896 855.194 257.362 855.71 257.924 856.113C258.221 856.328 258.547 856.51 258.893 856.654C258.857 857.141 258.86 857.63 258.905 858.114C259.017 859.344 259.378 860.552 259.93 861.639C260.205 862.183 260.52 862.702 260.873 863.188C261.225 863.677 261.609 864.137 262.02 864.564C262.839 865.424 263.76 866.161 264.729 866.804C265.705 867.44 266.742 867.974 267.819 868.392C268.358 868.599 268.906 868.778 269.463 868.922C270.019 869.068 270.581 869.185 271.146 869.262C271.368 869.292 271.59 869.169 271.674 868.951Z" fill="#38372F"/>
<path d="M238.627 884.808L238.599 884.886L238.642 884.826C238.632 884.813 238.626 884.806 238.626 884.806L238.627 884.808Z" fill="#DF4942"/>
<path d="M241.139 890.164C243.399 891.841 246.581 889.015 246.581 889.015L246.577 889.012C245.806 888.997 243.826 888.945 243.224 888.762C242.173 888.443 240.558 887.378 239.979 886.752C239.477 886.207 238.714 884.986 238.614 884.824L238.579 884.885L238.469 885.262C238.581 885.919 239.157 888.694 241.139 890.166L241.139 890.164Z" fill="#E6E1C8"/>
<path d="M258.969 852.442C258.587 855.433 257.321 856.589 254.427 857.74C251.534 858.892 245.773 860.994 244.833 861.988C243.893 862.983 242.423 865.735 242.156 867.829L240.083 884.082C239.892 885.578 236.668 889.322 231.264 888.632C225.86 887.943 223.888 885.058 224.142 883.063L227.046 860.296C227.347 857.934 228.855 854.885 231.66 854.431C234.464 853.978 246.959 850.911 246.959 850.911L251.533 841.361L256.755 841.09L256.579 846.462C256.579 846.462 259.325 849.65 258.969 852.442Z" fill="#E6E1C8"/>
<path d="M240.083 884.082L242.156 867.829C242.423 865.735 243.893 862.983 244.833 861.988C245.773 860.994 251.535 858.891 254.427 857.74C257.321 856.589 258.587 855.433 258.969 852.442C259.325 849.65 256.579 846.462 256.579 846.462L256.755 841.09L255.431 841.159L254.533 848.193C254.533 848.193 256.418 849.499 256.184 851.335C255.95 853.171 254.982 854.468 253.675 854.923C252.369 855.378 242.291 858.89 239.973 860.282C237.665 861.669 233.996 863.973 232.971 866.725C232.971 866.725 231.669 870.042 231.472 872.817C231.11 875.525 231.073 876.978 231.557 878.838C232.042 880.697 232.97 882 234.592 883.272C235.654 884.107 237.902 885.036 239.403 885.496C239.805 884.954 240.037 884.45 240.085 884.081L240.083 884.082Z" fill="#DF4942"/>
<path d="M256.755 841.09L253.63 841.252L256.652 844.2L256.755 841.09Z" fill="#38372F"/>
<path d="M253.055 850.232C252.987 850.764 253.366 851.252 253.901 851.32C254.435 851.388 254.924 851.011 254.992 850.479C255.06 849.946 254.682 849.459 254.147 849.39C253.612 849.322 253.123 849.699 253.055 850.232Z" fill="#38372F"/>
<path d="M250.257 844.01C250.286 844.985 250.64 845.939 251.245 846.704C251.392 846.89 251.683 846.665 251.536 846.48C250.966 845.759 250.648 844.875 250.621 843.957C250.618 843.857 250.503 843.789 250.412 843.801C250.304 843.816 250.253 843.911 250.256 844.01L250.257 844.01Z" fill="#38372F"/>
<path d="M255.045 855.294C255.045 855.294 257.088 857.652 257.141 859.549C257.196 861.447 254.155 863.777 254.155 863.777C254.155 863.777 252.843 861.541 252.857 859.505C252.869 857.468 255.045 855.294 255.045 855.294Z" fill="#DF4942"/>
<path d="M254.719 857.59C254.719 857.59 255.65 858.666 255.674 859.531C255.699 860.396 254.312 861.459 254.312 861.459C254.312 861.459 253.714 860.439 253.72 859.51C253.726 858.581 254.718 857.589 254.718 857.589L254.719 857.59Z" fill="#E6E1C8"/>
<path d="M238.529 869.637C238.531 869.622 238.534 869.608 238.541 869.593L239.922 866.059C239.959 865.965 240.066 865.919 240.161 865.955C240.255 865.992 240.302 866.098 240.265 866.193L238.884 869.726C238.847 869.82 238.74 869.867 238.645 869.83C238.565 869.799 238.519 869.718 238.529 869.637Z" fill="#E6E1C8"/>
<path d="M235.094 869.464C235.096 869.445 235.101 869.428 235.109 869.409L236.908 865.553C236.951 865.461 237.06 865.422 237.152 865.464C237.245 865.507 237.285 865.616 237.241 865.708L235.442 869.564C235.4 869.656 235.291 869.695 235.198 869.652C235.124 869.618 235.084 869.54 235.094 869.462L235.094 869.464Z" fill="#E6E1C8"/>
<path d="M238.197 875.889C238.198 875.878 238.2 875.868 238.204 875.857L239.324 872.246C239.354 872.149 239.457 872.096 239.555 872.125C239.652 872.155 239.706 872.258 239.676 872.356L238.556 875.967C238.526 876.064 238.423 876.117 238.325 876.088C238.238 876.06 238.186 875.976 238.197 875.889Z" fill="#E6E1C8"/>
<path d="M235.576 876.282C235.577 876.272 235.578 876.264 235.582 876.254L236.732 872.272C236.761 872.175 236.862 872.119 236.96 872.147C237.058 872.176 237.114 872.278 237.086 872.374L235.935 876.356C235.907 876.454 235.806 876.51 235.708 876.481C235.619 876.455 235.565 876.37 235.576 876.282Z" fill="#E6E1C8"/>
<path d="M233.524 875.336C233.525 875.327 233.526 875.32 233.528 875.312L234.3 872.385C234.326 872.287 234.427 872.228 234.525 872.255C234.623 872.281 234.682 872.382 234.656 872.478L233.884 875.405C233.858 875.503 233.758 875.562 233.66 875.535C233.57 875.512 233.513 875.426 233.524 875.334L233.524 875.336Z" fill="#E6E1C8"/>
<path d="M238.877 878.271L238.236 880.861" stroke="#E6E1C8" stroke-width="3" stroke-miterlimit="10" stroke-linecap="round"/>
<path d="M235.218 880.653C235.219 880.639 235.223 880.623 235.229 880.609L236.177 878.213C236.215 878.119 236.322 878.073 236.416 878.11C236.51 878.148 236.557 878.254 236.519 878.348L235.571 880.744C235.534 880.838 235.427 880.885 235.333 880.847C235.253 880.816 235.207 880.735 235.218 880.653Z" fill="#E6E1C8"/>
<path d="M238.435 885.116C238.435 885.116 238.446 885.168 238.47 885.26L238.6 884.886L238.435 885.115L238.435 885.116Z" fill="#DF4942"/>
<path d="M243.225 888.761C243.826 888.943 245.806 888.996 246.577 889.011L239.229 883.739L238.615 884.823C238.715 884.985 239.477 886.206 239.979 886.751C240.558 887.378 242.173 888.443 243.225 888.761Z" fill="#DF4942"/>
<path d="M225.019 885.887L225.607 881.276L211.02 879.416L210.432 884.027L225.019 885.887Z" fill="#E6E1C8"/>
<path d="M210.433 884.027L211.021 879.416L206.912 878.892L206.324 883.503L210.433 884.027Z" fill="#38372F"/>
<path d="M225.735 880.274L226.323 875.663L211.736 873.802L211.148 878.414L225.735 880.274Z" fill="#E6E1C8"/>
<path d="M211.149 878.414L211.737 873.802L207.628 873.278L207.039 877.889L211.149 878.414Z" fill="#38372F"/>
<path d="M227.854 863.659L228.442 859.048L213.855 857.188L213.267 861.799L227.854 863.659Z" fill="#E6E1C8"/>
<path d="M213.268 861.799L213.856 857.188L209.747 856.664L209.159 861.275L213.268 861.799Z" fill="#38372F"/>
<path d="M225.485 851.757L227.42 858.918L231.925 857.713L229.332 848.117C229.163 847.49 228.738 846.962 228.161 846.661C227.585 846.359 226.907 846.312 226.294 846.53L219.941 848.79C220.319 849.908 221.126 852.235 221.457 853.189L225.485 851.755L225.485 851.757Z" fill="#E6E1C8"/>
<path d="M217.489 854.601L221.455 853.19C221.125 852.236 220.318 849.909 219.939 848.791L215.916 850.223L217.489 854.601Z" fill="#38372F"/>
</g>
<g clip-path="url(#clip8_2_2)">
<path d="M254.035 937.213L254.237 935.255L198.074 931.458L197.872 933.416L254.035 937.213Z" fill="#38372F"/>
<path d="M282.002 938.113L258.703 923.449L256.02 949.451L282.002 938.113Z" fill="#DF4942"/>
<path d="M264.579 936.936L241.835 916.889L238.042 953.655L264.579 936.936Z" fill="#2EAC94"/>
<path d="M247.876 935.806L222.492 909.77L217.509 958.078L247.876 935.806Z" fill="#DF4942"/>
</g>
<path d="M211.969 986.332C209.781 997.203 224.094 1008.42 243.937 1011.39C263.781 1014.35 281.64 1007.95 283.827 997.074C286.015 986.203 271.702 974.985 251.859 972.018C232.016 969.052 214.156 975.46 211.969 986.332Z" fill="#2EAC94"/>
<path d="M241.179 1002.41C241.492 1002.05 241.432 1001.53 241.042 1001.25C239.841 1000.39 238.814 999.412 237.984 998.342C237.053 997.136 236.392 995.847 236.022 994.504C235.657 993.176 235.736 991.55 235.829 990.631L253.915 993.335C253.856 994.155 253.842 995.637 254.365 996.926C254.863 998.157 255.684 999.346 256.809 1000.46C257.782 1001.42 258.97 1002.31 260.332 1003.09C260.748 1003.33 261.309 1003.22 261.58 1002.83C261.851 1002.45 261.734 1001.94 261.318 1001.7C260.083 1000.99 259.015 1000.19 258.147 999.33C257.181 998.373 256.477 997.365 256.06 996.333C255.69 995.412 255.667 994.309 255.703 993.602L268.693 995.544C269.183 995.617 269.653 995.313 269.743 994.865C269.833 994.417 269.509 993.994 269.02 993.921L248.199 990.808C248.453 990.141 248.882 989.229 249.529 988.537C250.325 987.686 251.379 986.938 252.665 986.321C253.819 985.764 255.136 985.323 256.576 985.01C257.062 984.905 257.371 984.46 257.266 984.02C257.16 983.579 256.679 983.303 256.193 983.411C254.6 983.755 253.138 984.245 251.846 984.871C250.352 985.591 249.115 986.472 248.165 987.487C247.248 988.466 246.694 989.731 246.406 990.544L228.314 987.839C228.603 986.926 229.144 985.509 229.947 984.442C230.82 983.286 231.943 982.263 233.294 981.399C234.49 980.631 235.843 980.008 237.311 979.545C237.783 979.395 238.042 978.926 237.89 978.499C237.735 978.071 237.225 977.844 236.753 977.991C235.123 978.503 233.619 979.201 232.281 980.057C230.749 981.038 229.469 982.204 228.472 983.526C227.475 984.848 226.849 986.56 226.537 987.567L192.361 982.457C191.871 982.384 191.401 982.688 191.31 983.136C191.22 983.584 191.545 984.007 192.034 984.08L234.056 990.362C234.056 990.362 234.053 990.375 234.052 990.382C233.946 991.382 233.829 993.307 234.277 994.932C234.699 996.466 235.448 997.939 236.507 999.304C237.432 1000.5 238.58 1001.59 239.912 1002.55C240.298 1002.83 240.867 1002.76 241.181 1002.4L241.179 1002.41Z" fill="#38372F"/>
</g>
<defs>
<filter id="filter0_dd_2_2" x="0" y="0" width="298.824" height="1374" filterUnits="userSpaceOnUse" color-interpolation-filters="sRGB">
<feFlood flood-opacity="0" result="BackgroundImageFix"/>
<feColorMatrix in="SourceAlpha" type="matrix" values="0 0 0 0 0 0 0 0 0 0 0 0 0 0 0 0 0 0 127 0" result="hardAlpha"/>
<feOffset dy="4"/>
<feGaussianBlur stdDeviation="2"/>
<feComposite in2="hardAlpha" operator="out"/>
<feColorMatrix type="matrix" values="0 0 0 0 0 0 0 0 0 0 0 0 0 0 0 0 0 0 0.25 0"/>
<feBlend mode="normal" in2="BackgroundImageFix" result="effect1_dropShadow_2_2"/>
<feColorMatrix in="SourceAlpha" type="matrix" values="0 0 0 0 0 0 0 0 0 0 0 0 0 0 0 0 0 0 127 0" result="hardAlpha"/>
<feOffset dy="4"/>
<feGaussianBlur stdDeviation="2"/>
<feComposite in2="hardAlpha" operator="out"/>
<feColorMatrix type="matrix" values="0 0 0 0 0 0 0 0 0 0 0 0 0 0 0 0 0 0 0.25 0"/>
<feBlend mode="normal" in2="effect1_dropShadow_2_2" result="effect2_dropShadow_2_2"/>
<feBlend mode="normal" in="SourceGraphic" in2="effect2_dropShadow_2_2" result="shape"/>
</filter>
<clipPath id="clip0_2_2">
<rect width="48.3884" height="84.4752" fill="white" transform="matrix(0.139072 0.990282 -0.991064 0.133385 270.797 360.084)"/>
</clipPath>
<clipPath id="clip1_2_2">
<rect width="77" height="73" fill="white" transform="translate(269.798 422.307) rotate(82.9028)"/>
</clipPath>
<clipPath id="clip2_2_2">
<rect width="44" height="44" fill="white" transform="translate(252.79 525.915) rotate(84.3982)"/>
</clipPath>
<clipPath id="clip3_2_2">
<rect width="40" height="31" fill="white" transform="translate(246.931 601.018) rotate(86.1682)"/>
</clipPath>
<clipPath id="clip4_2_2">
<rect width="44" height="74" fill="white" transform="translate(293.728 659.594) rotate(88.5728)"/>
</clipPath>
<clipPath id="clip5_2_2">
<rect width="31" height="41" fill="white" transform="translate(261.74 733.031) rotate(92.8284)"/>
</clipPath>
<clipPath id="clip6_2_2">
<rect width="30.5596" height="47.0748" fill="white" transform="matrix(-0.0947764 0.995499 -0.999773 -0.0213064 263.788 790.578)"/>
</clipPath>
<clipPath id="clip7_2_2">
<rect width="51" height="63" fill="white" transform="translate(274.946 843.41) rotate(97.2685)"/>
</clipPath>
<clipPath id="clip8_2_2">
<rect width="48.5647" height="84.2197" fill="white" transform="matrix(-0.102619 0.994721 -0.997722 -0.0674561 284.493 913.962)"/>
</clipPath>
</defs>
</svg>
