<svg width="1366" height="291" viewBox="0 0 1366 291" fill="none" xmlns="http://www.w3.org/2000/svg">
<path d="M1366 0H0V103.295C153.304 154.009 497.33 217 662.159 217C826.989 217 1201.33 158.813 1366 103.295V0Z" fill="#1C6EB8"/>
<path d="M1030.29 199.168C1019.6 201.567 1014.52 217.802 1018.95 235.431C1023.39 253.059 1035.65 265.405 1046.34 263.006C1057.03 260.608 1062.1 244.373 1057.67 226.744C1053.24 209.116 1040.98 196.77 1030.29 199.168Z" fill="#2EAC94"/>
<path d="M1026.15 229.658C1026.58 229.779 1027.03 229.529 1027.15 229.097C1027.5 227.766 1028.02 226.533 1028.7 225.429C1029.46 224.188 1030.4 223.139 1031.49 222.312C1032.57 221.494 1034.08 220.928 1034.95 220.65L1038.99 236.716C1038.22 236.985 1036.87 237.549 1035.88 238.483C1034.94 239.374 1034.15 240.516 1033.54 241.882C1033.02 243.062 1032.63 244.393 1032.41 245.829C1032.34 246.267 1032.65 246.688 1033.09 246.764C1033.54 246.84 1033.96 246.546 1034.03 246.107C1034.24 244.806 1034.58 243.611 1035.05 242.555C1035.57 241.382 1036.24 240.407 1037.03 239.66C1037.74 238.996 1038.73 238.549 1039.39 238.305L1042.29 249.845C1042.4 250.28 1042.85 250.553 1043.29 250.454C1043.73 250.355 1044 249.922 1043.89 249.487L1039.24 230.99C1039.94 230.943 1040.92 230.945 1041.78 231.214C1042.85 231.546 1043.91 232.13 1044.93 232.959C1045.85 233.702 1046.73 234.624 1047.53 235.699C1047.8 236.062 1048.32 236.145 1048.68 235.887C1049.04 235.629 1049.12 235.122 1048.85 234.761C1047.96 233.571 1046.99 232.547 1045.96 231.717C1044.76 230.756 1043.52 230.07 1042.25 229.675C1041.03 229.293 1039.68 229.323 1038.83 229.399L1034.79 213.326C1035.73 213.213 1037.21 213.113 1038.47 213.366C1039.84 213.642 1041.18 214.178 1042.45 214.965C1043.58 215.66 1044.63 216.543 1045.58 217.582C1045.89 217.916 1046.41 217.949 1046.74 217.657C1047.08 217.363 1047.1 216.851 1046.8 216.516C1045.75 215.361 1044.57 214.383 1043.31 213.603C1041.86 212.712 1040.34 212.101 1038.78 211.786C1037.21 211.47 1035.43 211.614 1034.4 211.745L1026.77 181.384C1026.66 180.949 1026.21 180.676 1025.77 180.775C1025.33 180.873 1025.06 181.307 1025.17 181.742L1034.56 219.073C1034.56 219.073 1034.54 219.076 1034.54 219.077C1033.59 219.377 1031.79 220.026 1030.47 221.028C1029.23 221.974 1028.15 223.167 1027.29 224.576C1026.53 225.808 1025.95 227.184 1025.56 228.66C1025.45 229.089 1025.71 229.536 1026.15 229.657L1026.15 229.658Z" fill="#38372F"/>
<g clip-path="url(#clip0_25_2)">
<path d="M979.517 237.039L981.459 236.794L973.928 186.659L971.986 186.903L979.517 237.039Z" fill="#38372F"/>
<path d="M984.229 261.791L993.818 238.173L968.027 241.418L984.229 261.791Z" fill="#DF4942"/>
<path d="M981.893 246.238L996.822 221.948L960.352 226.537L981.893 246.238Z" fill="#2EAC94"/>
<path d="M979.653 231.328L999.872 203.429L951.954 209.458L979.653 231.328Z" fill="#DF4942"/>
</g>
<g clip-path="url(#clip1_25_2)">
<path d="M864.201 207.32L870.06 226.153C870.06 226.153 869.216 229.88 869.248 232.229C869.279 234.579 870.071 235.685 870.071 235.685L867.384 235.104L870.012 240.467L866.848 240.259L869.495 245.768L867.044 245.526L869.933 251.395L866.451 268.645C866.451 268.645 867.926 268.279 868.839 267.646C869.752 267.014 871.577 264.598 871.577 264.598L871.871 272.885L876.505 274.161C876.505 274.161 876.749 269.185 877.958 266.58C878.337 265.764 880.149 265.254 881.516 264.346C882.956 263.391 884.036 258.619 884.522 255.175C885.008 251.731 885.156 247.678 889.67 244.034C894.184 240.39 906.287 242.053 912.712 241.165C913.569 241.047 914.326 240.858 915 240.612C916.366 241.276 918.138 241.853 919.742 241.5C922.937 240.796 926.93 237.439 926.93 237.439L925.773 236.868C925.773 236.868 927.638 235.88 929.165 234.822C930.55 233.865 932.604 231.115 932.604 231.115L931.102 230.581C931.102 230.581 933.409 229.255 935.121 226.615C936.137 225.05 937.588 221.712 937.588 221.712L935.972 221.914C935.972 221.914 936.781 220.179 937.149 218.192C937.518 216.205 937.08 212.687 937.08 212.687C937.08 212.687 934.365 213.943 933.557 214.862C932.749 215.78 931.346 216.873 931.346 216.873L931.134 215.163C931.134 215.163 928.379 217.354 927.624 218.403C926.345 220.18 925.773 222.365 925.773 222.365L925.372 219.965C925.372 219.965 923.106 221.764 922.024 223.548C921.613 224.225 920.919 225.502 920.13 226.982C919.507 224.175 918.314 221.85 918.463 220.122C918.677 217.644 920.944 198.057 920.944 198.057L918.517 195.365L905.192 197.024C905.192 197.024 905.031 198.622 905.977 199.866C906.382 200.398 907.2 200.955 908.084 201.314L904.642 214.144C904.642 214.144 901.006 215.378 899.113 216.979C897.22 218.582 895.791 220.743 895.791 220.743C895.791 220.743 892.119 220.649 889.712 220.213C887.305 219.777 882.16 220.458 882.16 220.458L873.589 200.961L859.907 202.664C859.907 202.664 859.746 204.262 860.691 205.506C861.31 206.318 862.89 207.188 864.199 207.319L864.201 207.32Z" fill="#E6E1C8"/>
<path d="M884.883 257.838C887.521 257.035 890.184 253.563 890.184 253.563L883.57 252.55L882.656 258.115C882.656 258.115 883.128 258.372 884.883 257.838Z" fill="#2EAC94"/>
<path d="M875.707 264.339C875.352 265.474 874.645 268.757 874.291 273.553L876.505 274.163C876.505 274.163 876.749 269.187 877.958 266.582C878.337 265.766 880.149 265.256 881.516 264.348C882.956 263.393 884.036 258.621 884.522 255.177C885.008 251.733 885.157 247.68 889.671 244.036C894.185 240.392 906.287 242.055 912.712 241.167C913.556 241.051 914.305 240.865 914.972 240.625C913.909 238.741 912.367 236.244 910.928 234.771C908.089 231.869 904.854 230.274 897.952 230.012C891.05 229.751 881.924 233.702 880.467 240.564C879.243 246.34 879.51 256.913 878.69 260.267C877.868 263.621 876.108 263.055 875.705 264.339L875.707 264.339Z" fill="#2EAC94"/>
<path d="M876.982 260.942C876.895 260.239 877.396 259.599 878.101 259.511C878.805 259.424 879.448 259.922 879.536 260.624C879.623 261.325 879.122 261.966 878.417 262.054C877.713 262.141 877.07 261.643 876.982 260.942Z" fill="#38372F"/>
<path d="M865.249 202.025C865.383 202.008 865.511 202.091 865.545 202.223C865.757 203.011 866.046 203.854 866.999 204.706C867.558 205.206 869.166 206.027 869.182 206.036L869.252 206.071L869.292 206.139C869.419 206.351 872.374 211.515 870.688 225.706C870.67 225.854 870.535 225.96 870.386 225.944C870.237 225.926 870.128 225.792 870.146 225.642C871.712 212.471 869.19 207.116 868.859 206.479C868.522 206.306 867.181 205.596 866.636 205.109C865.574 204.157 865.244 203.192 865.022 202.363C864.984 202.218 865.07 202.069 865.215 202.031C865.228 202.029 865.24 202.026 865.253 202.024L865.249 202.025Z" fill="#D6AD49"/>
<path d="M910.654 196.403L910.66 196.402C910.81 196.387 910.944 196.494 910.959 196.644C911.016 197.188 911.171 197.596 911.854 198.309C912.805 199.299 914.115 199.399 914.128 199.401L914.467 199.424L914.372 199.748L909.407 216.611L909.264 216.652C909.234 216.661 906.193 217.57 904.516 218.929C902.752 220.359 901.825 222.59 901.817 222.613C901.76 222.752 901.6 222.819 901.461 222.763C901.322 222.708 901.255 222.548 901.311 222.41C901.35 222.313 902.296 220.03 904.172 218.508C905.739 217.235 908.326 216.376 908.966 216.176L913.758 199.9C913.249 199.804 912.256 199.521 911.458 198.687C910.765 197.966 910.493 197.447 910.413 196.705C910.398 196.557 910.503 196.425 910.651 196.407L910.654 196.403Z" fill="#D6AD49"/>
<path d="M896.894 239.339C896.894 239.339 896.91 239.337 896.917 239.336L901.603 239.16C901.754 239.154 901.881 239.271 901.885 239.42C901.891 239.571 901.772 239.697 901.623 239.701L896.937 239.878C896.786 239.884 896.659 239.766 896.655 239.617C896.65 239.475 896.755 239.354 896.894 239.337L896.894 239.339Z" fill="#E6E1C8"/>
<path d="M895.81 236.379L901.547 235.665C901.697 235.646 901.833 235.751 901.852 235.901C901.87 236.05 901.764 236.185 901.614 236.204L895.877 236.918C895.728 236.937 895.592 236.832 895.573 236.682C895.554 236.533 895.66 236.398 895.81 236.379Z" fill="#E6E1C8"/>
<path d="M895.913 233.111C895.913 233.111 895.919 233.11 895.922 233.11L899.66 232.765C899.811 232.751 899.944 232.861 899.957 233.011C899.97 233.161 899.861 233.3 899.71 233.306L895.971 233.651C895.821 233.665 895.688 233.555 895.675 233.405C895.662 233.259 895.767 233.129 895.913 233.111Z" fill="#E6E1C8"/>
<path d="M893.439 238.675C893.574 238.658 893.702 238.743 893.737 238.877C893.774 239.023 893.686 239.17 893.54 239.207L889.775 240.16C889.627 240.196 889.48 240.109 889.444 239.963C889.408 239.818 889.496 239.67 889.641 239.634L893.407 238.681C893.418 238.68 893.43 238.676 893.441 238.675L893.439 238.675Z" fill="#E6E1C8"/>
<path d="M893.029 235.385C893.165 235.368 893.293 235.453 893.328 235.587C893.364 235.732 893.276 235.88 893.131 235.918L889.161 236.926C889.015 236.962 888.867 236.875 888.829 236.73C888.792 236.585 888.88 236.437 889.026 236.398L892.995 235.391C893.006 235.39 893.019 235.386 893.029 235.385Z" fill="#E6E1C8"/>
<path d="M905.876 238.425C905.896 238.423 905.914 238.422 905.934 238.423L909.243 238.723C909.393 238.738 909.503 238.87 909.491 239.019C909.476 239.169 909.343 239.279 909.193 239.266L905.885 238.966C905.734 238.952 905.624 238.82 905.639 238.67C905.65 238.541 905.751 238.441 905.876 238.425Z" fill="#E6E1C8"/>
<path d="M904.451 234.361C904.476 234.358 904.504 234.358 904.53 234.362L907.766 234.901C907.914 234.927 908.016 235.066 907.99 235.215C907.965 235.362 907.825 235.464 907.675 235.439L904.439 234.899C904.291 234.874 904.19 234.735 904.215 234.586C904.235 234.465 904.334 234.376 904.451 234.361Z" fill="#E6E1C8"/>
<path d="M876.922 270.398L876.507 274.163L872.977 273.191L876.922 270.398Z" fill="#38372F"/>
</g>
<g clip-path="url(#clip2_25_2)">
<path d="M821.967 217.316C822.208 219.177 821.849 219.587 821.908 223.214C821.961 226.466 821.986 228.091 822.579 230.053C822.653 230.298 822.732 230.535 822.816 230.768L823.733 227.73L825.58 231.256L827.232 227.387L830.122 230.787L832.304 226.89L833.095 228.895C834.041 225.11 834.515 223.153 834.542 221.976C834.637 217.787 831.836 214.577 831.399 214.091C826.818 208.985 819.516 210.24 819.005 210.335C821.099 213.196 821.751 215.644 821.967 217.317L821.967 217.316Z" fill="#DF4942"/>
<path d="M830.121 230.787L827.231 227.387L825.579 231.256L823.732 227.731L822.814 230.769C823.932 233.885 825.8 235.828 826.289 236.317C827.133 237.163 829.697 239.662 833.594 240.205C836.39 240.593 839.152 239.291 839.152 239.291C839.152 239.291 837.474 238.795 835.31 237.274C834.44 236.662 833.127 235.74 832.552 234.23C832.038 232.882 832.375 231.756 832.917 229.591C832.977 229.351 833.035 229.119 833.091 228.894L832.3 226.889L830.118 230.786L830.121 230.787Z" fill="#E6E1C8"/>
<path d="M798.67 222.816C799.896 220.223 801.703 217.55 801.703 217.55L801.064 211.032C801.064 211.032 799.9 210.349 799.823 209.559L799.723 208.536L797.259 208.778C797.259 208.778 797.118 209.611 797.416 210.379C797.715 211.147 798.804 211.373 798.804 211.373L798.788 212.733L798.67 222.816Z" fill="#DF4942"/>
<path d="M801.097 211.362L801.704 217.551C801.704 217.551 799.897 220.225 798.671 222.817L798.631 226.213L804.254 219.68L802.255 212.394L801.158 208.398L799.725 208.539L799.826 209.561C800.017 210.626 801.099 211.363 801.099 211.363L801.097 211.362Z" fill="#E6E1C8"/>
<path d="M802.496 217.725C802.496 217.725 798.115 224.203 798.366 226.771L799.4 237.311L809.377 236.724C809.377 236.724 809.18 234.683 809.752 233.297C810.323 231.911 815.176 228.777 819.362 225.176C823.547 221.575 824.534 217.557 824.108 213.212C823.682 208.868 819.252 206.622 819.252 206.622L800.491 208.462L800.616 209.734C800.693 210.524 801.856 211.207 801.856 211.207L802.496 217.725Z" fill="#DF4942"/>
<path d="M796.522 253.002C797.428 253.442 800.185 250.1 800.979 249.101C802.2 249.278 804.544 249.582 805.609 249.477C806.674 249.373 808.915 248.619 810.077 248.209C811.051 249.032 814.404 251.776 815.207 251.17C816.036 250.543 813.458 243.469 812.823 241.772C813.135 240.63 813.34 239.649 813.294 239.177C813.255 238.783 812.845 238.253 812.205 237.684C811.062 238.431 809.959 238.898 808.63 238.173C808.561 238.134 808.491 238.093 808.422 238.051C808.401 238.038 808.381 238.025 808.36 238.012C808.308 237.979 808.257 237.945 808.207 237.91C808.187 237.896 808.166 237.883 808.145 237.868C808.077 237.82 808.009 237.77 807.942 237.718C807.94 237.716 807.938 237.715 807.936 237.713C807.87 237.662 807.804 237.608 807.739 237.553C807.719 237.536 807.698 237.518 807.677 237.5C807.628 237.458 807.58 237.415 807.531 237.372C807.511 237.354 807.49 237.336 807.47 237.317C807.404 237.257 807.34 237.195 807.275 237.131C806.889 236.006 806.354 234.772 806.095 234.414C805.657 233.808 804.77 233.3 804.028 233.372C803.286 233.445 802.515 234.116 802.202 234.796C802.018 235.197 801.733 236.512 801.573 237.69C801.522 237.766 801.47 237.839 801.418 237.91C801.401 237.933 801.385 237.955 801.368 237.977C801.33 238.028 801.29 238.08 801.251 238.13C801.234 238.152 801.217 238.174 801.2 238.194C801.147 238.261 801.092 238.327 801.037 238.39C801.036 238.391 801.034 238.393 801.033 238.395C800.977 238.46 800.92 238.522 800.862 238.583C800.845 238.601 800.827 238.619 800.81 238.636C800.767 238.68 800.723 238.723 800.68 238.765C800.662 238.782 800.645 238.799 800.627 238.816C800.567 238.87 800.507 238.925 800.446 238.975C799.283 239.945 798.111 239.702 796.844 239.19C796.327 239.873 796.028 240.473 796.066 240.867C796.112 241.338 796.506 242.261 797.033 243.321C796.741 245.109 795.585 252.549 796.519 253.003L796.522 253.002Z" fill="#DF4942"/>
<path d="M804.111 234.191L802.633 236.828L806.071 236.49L804.111 234.191Z" fill="#38372F"/>
<path d="M800.686 240.409C800.148 240.462 799.755 240.945 799.809 241.488C799.862 242.032 800.341 242.43 800.879 242.377C801.417 242.324 801.81 241.841 801.756 241.297C801.703 240.754 801.224 240.356 800.686 240.409Z" fill="#38372F"/>
<path d="M808.677 239.625C808.139 239.678 807.746 240.161 807.8 240.705C807.853 241.248 808.332 241.646 808.87 241.593C809.408 241.54 809.801 241.057 809.747 240.514C809.694 239.97 809.215 239.572 808.677 239.625Z" fill="#38372F"/>
<path d="M800.447 238.974C800.883 238.607 801.251 238.162 801.574 237.689C801.734 236.51 802.019 235.196 802.204 234.795C800.212 235.763 797.993 237.677 796.846 239.189C798.113 239.7 799.286 239.943 800.448 238.974L800.447 238.974Z" fill="#E6E1C8"/>
<path d="M797.517 250.324C798.029 250.571 799.766 248.313 799.766 248.313L797.794 245.479C797.794 245.479 797.006 250.076 797.516 250.324L797.517 250.324Z" fill="#E6E1C8"/>
<path d="M807.278 237.13C808.618 238.665 810.628 238.971 812.207 237.682C810.788 236.422 808.24 234.975 806.098 234.413C806.356 234.771 806.891 236.004 807.278 237.13Z" fill="#E6E1C8"/>
<path d="M811.114 247.2C811.114 247.2 813.258 249.077 813.711 248.735C814.164 248.393 812.497 244.037 812.497 244.037L811.113 247.2L811.114 247.2Z" fill="#E6E1C8"/>
<path d="M811.81 228.191C811.859 228.187 811.909 228.202 811.949 228.236C812.026 228.303 812.035 228.422 811.968 228.5L810.164 230.619C810.097 230.697 809.98 230.706 809.902 230.638C809.825 230.571 809.816 230.452 809.883 230.374L811.687 228.255C811.719 228.217 811.763 228.196 811.81 228.191Z" fill="#E6E1C8"/>
<path d="M810.945 224.816C810.978 224.813 811.012 224.818 811.045 224.834C811.136 224.88 811.174 224.992 811.13 225.085L809.445 228.555C809.399 228.648 809.288 228.686 809.196 228.641C809.104 228.595 809.066 228.483 809.11 228.39L810.796 224.92C810.825 224.859 810.882 224.822 810.945 224.816Z" fill="#E6E1C8"/>
<path d="M816.486 224.272C816.531 224.268 816.58 224.281 816.619 224.311C816.7 224.375 816.714 224.492 816.651 224.574L814.468 227.394C814.405 227.476 814.288 227.49 814.207 227.426C814.126 227.363 814.112 227.245 814.175 227.163L816.358 224.343C816.39 224.301 816.438 224.277 816.486 224.272Z" fill="#E6E1C8"/>
<path d="M815.098 222.665C815.142 222.661 815.189 222.673 815.227 222.703C815.309 222.765 815.325 222.883 815.264 222.965L812.819 226.252C812.758 226.335 812.641 226.351 812.56 226.289C812.478 226.227 812.461 226.109 812.523 226.026L814.967 222.74C815 222.696 815.047 222.67 815.098 222.665Z" fill="#E6E1C8"/>
<path d="M813.567 221.166C813.603 221.163 813.641 221.169 813.675 221.188C813.764 221.238 813.798 221.352 813.748 221.443L812.845 223.103C812.795 223.194 812.683 223.227 812.592 223.177C812.503 223.127 812.469 223.013 812.519 222.922L813.422 221.262C813.453 221.206 813.508 221.172 813.567 221.166Z" fill="#E6E1C8"/>
<path d="M820.725 220.464C820.768 220.46 820.812 220.47 820.85 220.498C820.933 220.558 820.953 220.675 820.894 220.76L819.005 223.449C818.946 223.532 818.83 223.553 818.746 223.493C818.663 223.433 818.643 223.316 818.702 223.231L820.591 220.542C820.623 220.497 820.672 220.469 820.723 220.464L820.725 220.464Z" fill="#E6E1C8"/>
<path d="M819.487 218.816C819.521 218.812 819.557 218.819 819.589 218.836C819.681 218.883 819.717 218.995 819.671 219.088L818.32 221.775C818.273 221.868 818.161 221.904 818.071 221.857C817.979 221.81 817.943 221.698 817.989 221.605L819.34 218.918C819.37 218.858 819.426 218.823 819.488 218.817L819.487 218.816Z" fill="#E6E1C8"/>
<path d="M818.01 217.096C818.051 217.092 818.093 217.102 818.13 217.126C818.215 217.183 818.24 217.299 818.183 217.386L816.78 219.543C816.724 219.63 816.609 219.654 816.523 219.596C816.438 219.539 816.413 219.424 816.47 219.336L817.873 217.179C817.906 217.129 817.956 217.1 818.01 217.095L818.01 217.096Z" fill="#E6E1C8"/>
</g>
<g clip-path="url(#clip3_25_2)">
<path d="M728.18 224.51L730.458 223.282L731.878 225.447C732.879 226.974 733.198 228.811 732.762 230.536L732.402 231.962C731.98 233.627 730.222 234.617 728.475 234.174L727.024 233.807C725.276 233.365 724.201 231.657 724.621 229.992L724.982 228.566C725.418 226.841 726.573 225.377 728.179 224.512L728.18 224.51Z" fill="#2EAC94"/>
<path d="M726.875 234.016L727.266 234.115L726.714 235.535L727.928 235.843L728.117 234.331L728.508 234.43C730.473 234.927 732.45 233.813 732.924 231.941L733.137 231.102L724.388 228.887L724.175 229.726C723.701 231.597 724.911 233.519 726.876 234.016L726.875 234.016Z" fill="#38372F"/>
<path d="M730.232 233.169C729.723 233.204 729.774 233.996 730.285 233.962C730.796 233.927 730.743 233.135 730.232 233.169Z" fill="#E6E1C8"/>
<path d="M731.08 231.075C730.57 231.109 730.622 231.902 731.133 231.868C731.644 231.833 731.591 231.041 731.08 231.075Z" fill="#E6E1C8"/>
<path d="M729.622 232.038C729.112 232.072 729.164 232.864 729.675 232.83C730.186 232.796 730.133 232.004 729.622 232.038Z" fill="#E6E1C8"/>
<path d="M727.857 232.712C727.348 232.746 727.399 233.538 727.91 233.504C728.421 233.47 728.368 232.677 727.857 232.712Z" fill="#E6E1C8"/>
<path d="M728.438 230.635C727.929 230.67 727.98 231.462 728.491 231.428C729.002 231.394 728.949 230.601 728.438 230.635Z" fill="#E6E1C8"/>
<path d="M726.643 231.167C726.133 231.201 726.185 231.993 726.696 231.959C727.206 231.925 727.153 231.133 726.643 231.167Z" fill="#E6E1C8"/>
<path d="M725.755 232.05C725.245 232.084 725.297 232.877 725.808 232.842C726.319 232.808 726.266 232.016 725.755 232.05Z" fill="#E6E1C8"/>
<path d="M726.086 230.121C726.08 229.58 725.229 229.637 725.294 230.174C725.32 230.688 726.127 230.632 726.086 230.121Z" fill="#E6E1C8"/>
<path d="M728.383 216.99C729.304 217.413 730.344 217.224 730.344 217.224C730.344 217.224 730.057 217.847 729.931 218.772C729.799 219.737 730.091 220.833 730.393 221.599C730.633 222.204 731.238 223.299 732.547 224.252C732.682 224.351 732.905 224.513 733.179 224.681C733.287 225.215 733.405 225.747 733.527 226.269C733.468 226.249 733.411 226.229 733.356 226.213C732.692 225.997 732.001 225.809 731.266 225.696C730.988 225.654 730.704 225.622 730.416 225.606C730.102 225.367 729.705 225.234 729.281 225.263C728.35 225.325 727.646 226.131 727.708 227.062C727.771 227.993 728.576 228.698 729.507 228.635C729.862 228.611 730.183 228.48 730.441 228.274C730.498 228.294 730.554 228.313 730.611 228.334C731.108 228.527 731.609 228.785 732.109 229.076C732.237 229.15 732.348 229.217 732.462 229.286C732.576 229.357 732.687 229.43 732.795 229.507C733.014 229.658 733.223 229.82 733.423 229.99C733.824 230.332 734.19 230.706 734.516 231.108C734.58 231.186 734.658 231.267 734.736 231.336C734.803 231.395 734.874 231.447 734.948 231.495C735.192 232.285 735.351 232.762 735.351 232.762C735.351 232.762 732.321 234.1 730.982 236.637C729.427 239.583 729.496 243.262 729.496 243.262L741.986 242.426C742.023 242.651 742.096 242.878 742.221 243.1C742.801 244.117 744.135 244.418 745.117 244.245C746.313 244.035 746.962 243.126 747.14 242.876C747.823 241.919 748.186 240.391 747.454 239.153C747.344 238.967 746.792 238.032 745.782 237.855C745.696 237.84 745.61 237.832 745.526 237.829C745.997 236.853 746.49 235.739 746.968 234.509C747.212 235.181 747.579 235.948 748.14 236.717C749.555 238.656 751.168 239.7 752.308 240.188C753.772 240.814 755.681 241.301 757.814 240.848C759.96 240.391 761.271 239.001 761.847 238.372C763.366 236.72 763.851 234.897 764.021 233.92C764.215 232.799 764.54 230.911 763.552 229.277C762.452 227.459 760.463 226.281 760.463 226.281C760.463 226.281 761.551 224.628 761.995 222.501C762.454 220.307 761.5 218.387 761.146 217.674C760.93 217.238 760.094 215.761 758.255 214.482C756.545 213.291 754.907 213.073 753.686 212.883C752.627 212.718 750.532 212.829 748.86 212.941L727.145 214.395C727.145 214.395 727.051 215.37 727.374 215.993C727.49 216.216 727.798 216.721 728.383 216.989L728.383 216.99Z" fill="#DF4942"/>
<path d="M738.211 237.691C738.369 237.609 738.518 237.516 738.656 237.407L738.658 237.407C739.378 236.842 739.815 235.944 739.75 234.963C739.644 233.388 738.282 232.197 736.707 232.302C736.482 232.317 736.042 232.302 735.227 232.725C733.652 233.544 732.092 234.652 731.021 236.571C729.395 239.478 729.499 243.261 729.499 243.261L738.211 237.691Z" fill="#E6E1C8"/>
<path d="M732.632 243.051L729.825 239.88C729.825 239.88 729.631 240.449 729.546 241.333C729.46 242.217 729.498 243.259 729.498 243.259L732.632 243.049L732.632 243.051Z" fill="#38372F"/>
<path d="M736.61 238.473C736.1 238.726 735.891 239.344 736.143 239.854C736.396 240.365 737.014 240.574 737.524 240.321C738.034 240.068 738.243 239.45 737.991 238.94C737.738 238.429 737.12 238.22 736.61 238.473Z" fill="#38372F"/>
<path d="M731.549 236.46C732.219 236.307 732.967 236.591 733.379 237.138C733.532 237.341 733.862 237.12 733.708 236.916C733.18 236.215 732.271 235.893 731.419 236.086C731.315 236.11 731.264 236.247 731.297 236.34C731.335 236.45 731.445 236.485 731.551 236.462L731.549 236.46Z" fill="#38372F"/>
<path d="M756.875 225.167C757.367 225.134 758.01 225.152 758.721 225.33C759.272 225.468 759.804 225.684 760.297 225.974C760.391 226.03 760.423 226.151 760.368 226.245C760.312 226.339 760.191 226.371 760.097 226.316C759.636 226.046 759.141 225.843 758.626 225.714C757.472 225.427 756.513 225.586 756.154 225.667C755.809 225.746 754.893 225.955 754.007 226.733C753.551 227.134 752.941 227.828 752.631 228.86C752.479 229.366 752.224 230.214 752.574 231.201C752.922 232.182 753.656 232.705 753.956 232.886C754.918 233.463 755.68 233.419 756.151 233.281C756.351 233.223 756.819 233.085 757.145 232.64C757.386 232.31 757.449 231.954 757.458 231.715C757.462 231.606 757.556 231.52 757.664 231.524C757.773 231.529 757.859 231.621 757.854 231.731C757.842 232.025 757.765 232.463 757.464 232.875C757.059 233.427 756.5 233.592 756.262 233.662C755.716 233.822 754.837 233.878 753.752 233.227C753.415 233.025 752.591 232.437 752.2 231.335C751.806 230.226 752.096 229.264 752.251 228.747C752.588 227.625 753.25 226.871 753.744 226.436C754.706 225.592 755.729 225.359 756.064 225.282C756.229 225.245 756.509 225.193 756.874 225.168L756.875 225.167Z" fill="#E6E1C8"/>
<path d="M760.669 230.931C760.681 230.93 760.692 230.929 760.705 230.932C760.813 230.945 760.891 231.043 760.878 231.153L760.59 233.623C760.578 233.731 760.48 233.811 760.37 233.797C760.262 233.784 760.184 233.686 760.196 233.577L760.484 231.106C760.495 231.01 760.574 230.937 760.667 230.931L760.669 230.931Z" fill="#E6E1C8"/>
<path d="M762.894 231.629C762.905 231.628 762.915 231.628 762.927 231.63C763.037 231.641 763.116 231.738 763.105 231.847L762.888 234.041C762.877 234.15 762.78 234.23 762.671 234.219C762.561 234.207 762.482 234.111 762.493 234.001L762.71 231.807C762.719 231.71 762.799 231.635 762.894 231.629Z" fill="#E6E1C8"/>
<path d="M762.064 235.952C762.104 235.949 762.146 235.958 762.183 235.981C762.276 236.04 762.304 236.161 762.246 236.254L760.962 238.307C760.905 238.4 760.782 238.428 760.69 238.37C760.597 238.311 760.569 238.19 760.626 238.097L761.91 236.044C761.945 235.988 762.004 235.956 762.066 235.952L762.064 235.952Z" fill="#E6E1C8"/>
<path d="M760.274 235.406C760.32 235.403 760.368 235.415 760.408 235.447C760.494 235.514 760.511 235.639 760.443 235.726L758.996 237.608C758.928 237.695 758.804 237.711 758.717 237.644C758.63 237.577 758.614 237.452 758.681 237.365L760.129 235.483C760.165 235.436 760.218 235.409 760.274 235.406Z" fill="#E6E1C8"/>
<path d="M758.451 234.862C758.509 234.858 758.57 234.881 758.612 234.927C758.685 235.008 758.679 235.133 758.597 235.208L757.371 236.311C757.289 236.384 757.164 236.378 757.09 236.297C757.017 236.215 757.023 236.09 757.104 236.016L758.331 234.912C758.365 234.881 758.407 234.865 758.451 234.862Z" fill="#E6E1C8"/>
<path d="M757.654 239.214C757.745 239.208 757.831 239.266 757.857 239.357C757.888 239.463 757.826 239.573 757.721 239.602L755.672 240.193C755.567 240.224 755.457 240.163 755.427 240.057C755.396 239.952 755.458 239.841 755.563 239.812L757.612 239.221C757.626 239.217 757.639 239.215 757.654 239.214Z" fill="#E6E1C8"/>
<path d="M756.833 237.695C756.932 237.688 757.023 237.756 757.042 237.857C757.061 237.965 756.99 238.069 756.882 238.088L755.351 238.37C755.244 238.39 755.139 238.318 755.12 238.21C755.101 238.103 755.172 237.998 755.28 237.979L756.811 237.698C756.819 237.697 756.827 237.697 756.834 237.696L756.833 237.695Z" fill="#E6E1C8"/>
<path d="M748.244 229.286C748.267 229.285 748.291 229.287 748.314 229.294C748.419 229.325 748.478 229.435 748.447 229.541L747.244 233.565C747.213 233.67 747.102 233.729 746.997 233.698C746.892 233.666 746.833 233.556 746.864 233.451L748.067 229.427C748.092 229.346 748.163 229.29 748.244 229.285L748.244 229.286Z" fill="#E6E1C8"/>
<path d="M749.488 222.736C749.5 222.735 749.512 222.734 749.525 222.737C749.634 222.75 749.712 222.849 749.699 222.958L749.16 227.464C749.148 227.572 749.048 227.65 748.94 227.638C748.832 227.625 748.753 227.525 748.766 227.417L749.305 222.911C749.317 222.815 749.396 222.743 749.488 222.737L749.488 222.736Z" fill="#E6E1C8"/>
<path d="M749.016 217.245C749.117 217.239 749.21 217.312 749.224 217.414L749.707 220.694C749.723 220.803 749.648 220.904 749.539 220.919C749.428 220.934 749.329 220.86 749.314 220.751L748.832 217.471C748.815 217.362 748.891 217.262 749 217.247C749.005 217.246 749.01 217.246 749.016 217.245Z" fill="#E6E1C8"/>
<path d="M746.926 227.638C746.946 227.637 746.967 227.638 746.987 227.644C747.094 227.67 747.158 227.778 747.132 227.885L746.26 231.361C746.234 231.468 746.126 231.532 746.019 231.506C745.913 231.48 745.849 231.371 745.875 231.265L746.746 227.788C746.768 227.703 746.841 227.644 746.926 227.638Z" fill="#E6E1C8"/>
<path d="M747.848 220.697C747.858 220.696 747.869 220.695 747.88 220.697C747.989 220.707 748.07 220.804 748.06 220.913L747.735 224.458C747.725 224.567 747.628 224.647 747.519 224.638C747.41 224.628 747.329 224.532 747.339 224.422L747.664 220.877C747.673 220.779 747.753 220.704 747.848 220.698L747.848 220.697Z" fill="#E6E1C8"/>
<path d="M744.587 228.693C744.607 228.692 744.627 228.693 744.648 228.698C744.755 228.724 744.819 228.833 744.793 228.939L744.08 231.816C744.054 231.923 743.946 231.987 743.839 231.961C743.733 231.935 743.668 231.826 743.695 231.72L744.407 228.843C744.428 228.757 744.503 228.699 744.587 228.693Z" fill="#E6E1C8"/>
<path d="M745.803 223.204C745.815 223.203 745.828 223.202 745.84 223.205C745.948 223.219 746.026 223.318 746.013 223.426L745.605 226.765C745.591 226.875 745.493 226.951 745.385 226.938C745.276 226.924 745.198 226.826 745.212 226.717L745.619 223.378C745.632 223.282 745.71 223.21 745.803 223.204Z" fill="#E6E1C8"/>
<path d="M745.721 218.205C745.721 218.205 745.729 218.204 745.732 218.204C745.842 218.203 745.931 218.29 745.932 218.4L745.96 221.025C745.961 221.135 745.871 221.222 745.764 221.225C745.654 221.226 745.565 221.139 745.564 221.029L745.536 218.404C745.534 218.298 745.617 218.211 745.721 218.204L745.721 218.205Z" fill="#E6E1C8"/>
</g>
<g clip-path="url(#clip4_25_2)">
<path d="M676.71 286.368C676.646 287.694 675.946 289.762 674.232 290.221C672.081 290.795 670.289 288.316 670.208 288.2C668.867 286.29 669.491 284.151 669.56 283.929C669.609 283.771 670.44 281.203 672.24 280.929C674.354 280.607 676.844 283.596 676.711 286.368L676.71 286.368Z" fill="#DF4942"/>
<path d="M674.235 283.136C675.037 283.935 674.97 285.05 674.962 285.148C674.888 286.132 674.204 287.421 673.214 287.448C672.193 287.477 671.555 286.147 671.508 286.047C671.438 285.898 671.026 284.97 671.456 283.974C671.723 283.354 672.401 282.512 673.228 282.575C673.708 282.612 674.037 282.939 674.235 283.137L674.235 283.136Z" fill="#E6E1C8"/>
<path d="M692.041 285.986C692.171 287.307 692.973 289.338 694.708 289.71C696.884 290.177 698.552 287.611 698.626 287.492C699.87 285.518 699.141 283.412 699.061 283.194C699.004 283.038 698.046 280.515 696.234 280.331C694.107 280.115 691.77 283.224 692.04 285.986L692.041 285.986Z" fill="#DF4942"/>
<path d="M694.352 282.635C693.59 283.473 693.713 284.583 693.726 284.681C693.849 285.659 694.596 286.913 695.587 286.891C696.607 286.868 697.178 285.509 697.22 285.407C697.283 285.254 697.648 284.307 697.169 283.333C696.871 282.727 696.153 281.921 695.33 282.025C694.852 282.086 694.539 282.429 694.352 282.636L694.352 282.635Z" fill="#E6E1C8"/>
<path d="M663.24 250.082C665.887 259.874 666.496 261.019 667.479 263.894C668.312 266.328 670.712 270.524 670.712 270.524C670.712 270.524 670.028 273.68 670.25 276.403C670.378 277.987 670.65 280.898 672.571 283.865C673.293 284.98 675.19 287.556 678.703 289.099C681.049 290.128 683.167 290.281 684.413 290.276C685.657 290.219 687.765 289.961 690.057 288.815C693.489 287.099 695.255 284.431 695.92 283.282C697.692 280.223 697.818 277.302 697.868 275.713C697.954 272.982 697.113 269.865 697.113 269.865C697.113 269.865 699.301 265.555 700.011 263.082C700.85 260.161 701.402 258.988 703.558 249.076C705.324 240.966 705.379 238.323 704.765 234.074C704.258 230.576 703.182 228.147 702.44 226.509C700.48 222.179 698.629 220.757 698.014 220.318C697.901 220.237 697.784 220.154 697.662 220.071C698.489 219.654 699.048 219.157 699.24 218.762C699.634 217.945 699.665 215.873 699.665 215.873L689.353 216.13L689.503 222.149C689.067 223.012 689.079 223.655 688.052 224.633C686.935 225.697 685.635 226.161 685.144 226.332C684.226 226.65 683.414 226.759 682.831 226.795C682.249 226.787 681.431 226.719 680.498 226.447C679.999 226.302 678.678 225.903 677.51 224.896C676.435 223.97 676.415 223.327 675.936 222.487L675.786 216.468L665.475 216.725C665.475 216.725 665.61 218.793 666.043 219.589C666.253 219.975 666.836 220.444 667.684 220.818C667.566 220.907 667.453 220.996 667.345 221.082C666.753 221.55 664.974 223.064 663.232 227.486C662.573 229.159 661.618 231.638 661.288 235.158C660.886 239.432 661.072 242.069 663.239 250.081L663.24 250.082Z" fill="#DF4942"/>
<path d="M672.842 260.524C673.815 261.714 675.426 263.634 678.289 264.655C680.618 265.485 682.72 265.849 683.876 265.676C685.04 265.789 687.122 265.323 689.408 264.378C692.217 263.216 693.729 261.218 694.641 259.981C698.521 254.716 698.225 248.593 698.1 246.011C697.951 242.93 697.736 238.525 694.593 234.528C693.665 233.348 691.589 230.782 687.886 229.706C685.87 229.12 684.088 228.837 682.963 228.972C681.832 228.892 680.067 229.264 678.084 229.95C674.438 231.209 672.492 233.875 671.624 235.1C668.683 239.249 668.689 243.658 668.694 246.743C668.698 249.329 668.705 255.459 672.844 260.524L672.842 260.524Z" fill="#E6E1C8"/>
<path d="M682.135 254.617C682.247 254.614 682.343 254.698 682.354 254.81L682.857 259.671C682.868 259.791 682.783 259.896 682.664 259.908C682.545 259.92 682.439 259.834 682.427 259.715L681.924 254.854C681.913 254.735 681.998 254.629 682.117 254.617C682.123 254.617 682.129 254.617 682.135 254.617Z" fill="#DF4942"/>
<path d="M678.622 255.742C678.719 255.739 678.81 255.803 678.837 255.901L679.881 259.71C679.912 259.824 679.845 259.944 679.729 259.975C679.614 260.007 679.495 259.939 679.463 259.824L678.419 256.015C678.387 255.9 678.455 255.781 678.571 255.749C678.588 255.744 678.605 255.742 678.622 255.742Z" fill="#DF4942"/>
<path d="M676.28 258.189C676.368 258.187 676.452 258.239 676.486 258.326L677.545 261.041C677.588 261.153 677.533 261.278 677.422 261.321C677.311 261.364 677.186 261.309 677.143 261.198L676.084 258.483C676.041 258.372 676.095 258.247 676.207 258.204C676.231 258.195 676.255 258.19 676.28 258.189Z" fill="#DF4942"/>
<path d="M685.041 254.544C684.928 254.547 684.837 254.636 684.831 254.748L684.571 259.629C684.565 259.748 684.656 259.85 684.775 259.855C684.895 259.861 684.997 259.771 685.002 259.651L685.262 254.771C685.268 254.651 685.178 254.55 685.058 254.544C685.052 254.544 685.046 254.544 685.041 254.544Z" fill="#DF4942"/>
<path d="M688.604 255.493C688.508 255.496 688.42 255.564 688.398 255.662L687.545 259.519C687.519 259.634 687.593 259.751 687.71 259.777C687.826 259.802 687.942 259.729 687.968 259.612L688.821 255.755C688.847 255.64 688.774 255.523 688.656 255.498C688.639 255.494 688.622 255.493 688.604 255.493Z" fill="#DF4942"/>
<path d="M691.067 257.821C690.98 257.823 690.898 257.88 690.868 257.968L689.946 260.732C689.909 260.846 689.969 260.968 690.083 261.005C690.196 261.043 690.318 260.982 690.356 260.869L691.278 258.105C691.315 257.991 691.255 257.869 691.141 257.832C691.117 257.824 691.092 257.82 691.067 257.821Z" fill="#DF4942"/>
<path d="M667.204 251.621L673.137 263.556C673.685 260.286 674.73 257.099 676.226 254.141C676.512 253.577 676.815 253.015 677.109 252.451C678.96 251.933 680.295 250.214 680.245 248.207C680.186 245.835 678.214 243.96 675.84 244.019C674.313 244.057 672.994 244.888 672.261 246.105C670.147 247.48 668.387 249.396 667.204 251.621Z" fill="#DF4942"/>
<path d="M699.805 250.809L694.474 263.024C693.764 259.785 692.561 256.655 690.919 253.775C690.606 253.226 690.275 252.68 689.954 252.131C688.079 251.706 686.66 250.056 686.61 248.048C686.551 245.677 688.427 243.706 690.801 243.647C692.328 243.609 693.686 244.372 694.479 245.551C696.659 246.819 698.512 248.645 699.805 250.809Z" fill="#DF4942"/>
<path d="M684.018 269.978C680.782 270.059 678.215 272.39 678.285 275.186C678.354 277.982 681.034 280.183 684.27 280.103C687.506 280.022 690.073 277.69 690.004 274.894C689.934 272.099 687.254 269.897 684.018 269.978Z" fill="#E6E1C8"/>
<path d="M677.346 277.614C676.714 277.63 676.215 278.154 676.231 278.785C676.247 279.415 676.771 279.914 677.402 279.898C678.034 279.883 678.533 279.359 678.517 278.728C678.501 278.097 677.977 277.599 677.346 277.614Z" fill="#38372F"/>
<path d="M690.97 277.275C690.339 277.291 689.84 277.815 689.856 278.445C689.872 279.076 690.396 279.575 691.027 279.559C691.658 279.543 692.157 279.019 692.142 278.388C692.126 277.758 691.601 277.259 690.97 277.275Z" fill="#38372F"/>
<path d="M679.764 275.354C679.877 275.391 679.999 275.329 680.035 275.216C680.576 273.564 682.067 272.407 683.787 272.272L683.859 275.142L681.848 277.838L686.461 277.723L684.291 275.099L684.22 272.26C685.954 272.298 687.512 273.381 688.139 275.008C688.182 275.12 688.307 275.176 688.418 275.132C688.529 275.089 688.585 274.964 688.542 274.853C687.826 272.991 686.003 271.775 684.008 271.825C682.013 271.874 680.248 273.183 679.627 275.081C679.59 275.194 679.652 275.316 679.765 275.354L679.764 275.354Z" fill="#38372F"/>
</g>
<g clip-path="url(#clip5_25_2)">
<path d="M603.361 228.803C603.593 224.113 605.59 220.401 607.621 220.501C609.652 220.602 608.685 224.365 608.453 229.055C608.221 233.745 609.298 237.609 607.267 237.509C605.236 237.409 603.131 233.493 603.363 228.803L603.361 228.803Z" fill="#DF4942"/>
<path d="M634.323 230.333C634.555 225.643 632.934 221.752 630.903 221.651C628.872 221.551 629.464 225.392 629.232 230.081C629 234.771 627.548 238.511 629.579 238.611C631.61 238.712 634.092 235.023 634.323 230.333Z" fill="#DF4942"/>
<path d="M616.717 215.887L622.694 216.182C628.36 216.462 632.722 221.335 632.439 227.063L632.305 229.791C631.939 237.19 625.712 242.895 618.395 242.534C611.079 242.172 605.444 235.881 605.81 228.482L605.945 225.754C606.228 220.024 611.051 215.607 616.715 215.887L616.717 215.887Z" fill="#2EAC94"/>
<path d="M618.687 232.721C611.28 232.355 605.007 237.488 604.676 244.185C604.345 250.883 610.082 256.609 617.489 256.975C624.897 257.341 631.17 252.208 631.501 245.511C631.832 238.813 626.095 233.087 618.687 232.721Z" fill="#2EAC94"/>
<path d="M619.289 220.55C614.186 220.298 609.813 224.879 609.522 230.783C609.23 236.687 613.13 241.677 618.233 241.929C623.335 242.181 627.708 237.6 628 231.696C628.291 225.792 624.391 220.802 619.289 220.55Z" fill="#E6E1C8"/>
<path d="M612.479 253.167C614.5 253.267 616.374 252.489 617.775 251.15C619.038 252.621 620.826 253.58 622.847 253.679C626.92 253.881 630.395 250.523 630.61 246.178C630.825 241.833 627.697 238.149 623.624 237.948C621.603 237.848 619.73 238.626 618.328 239.965C617.065 238.495 615.278 237.536 613.256 237.436C609.183 237.235 605.708 240.592 605.493 244.937C605.278 249.282 608.406 252.966 612.479 253.167Z" fill="#E6E1C8"/>
<path d="M612.581 251.11C615.006 251.23 617.143 249.64 617.964 247.338C618.553 249.71 620.523 251.502 622.949 251.622C625.956 251.771 628.523 249.291 628.681 246.083C628.84 242.874 626.53 240.154 623.522 240.005C621.097 239.886 618.96 241.475 618.14 243.777C617.55 241.405 615.58 239.613 613.155 239.493C610.147 239.345 607.581 241.824 607.422 245.033C607.264 248.241 609.573 250.961 612.581 251.11Z" fill="#DF4942"/>
<path d="M613.981 242.447C612.42 242.37 611.089 243.607 611.01 245.21C610.931 246.813 612.133 248.175 613.695 248.252C615.256 248.329 616.587 247.092 616.666 245.489C616.745 243.886 615.543 242.524 613.981 242.447Z" fill="#E6E1C8"/>
<path d="M622.41 242.863C620.849 242.786 619.518 244.023 619.439 245.626C619.36 247.229 620.562 248.591 622.124 248.669C623.685 248.746 625.016 247.509 625.095 245.906C625.174 244.303 623.972 242.941 622.41 242.863Z" fill="#E6E1C8"/>
<path d="M614.66 243.997C613.901 243.959 613.255 244.551 613.217 245.319C613.179 246.086 613.764 246.739 614.523 246.777C615.282 246.814 615.928 246.222 615.966 245.455C616.004 244.687 615.419 244.034 614.66 243.997Z" fill="#38372F"/>
<path d="M621.584 244.339C620.825 244.301 620.179 244.893 620.141 245.661C620.103 246.429 620.687 247.081 621.446 247.119C622.205 247.156 622.852 246.564 622.889 245.797C622.927 245.029 622.343 244.376 621.584 244.339Z" fill="#38372F"/>
<path d="M616.01 241.087L618.401 238.528L620.527 241.31L618.137 243.869L616.01 241.087Z" fill="#38372F"/>
<path d="M618.727 231.916L619.988 235.105L617.158 234.965L618.727 231.916Z" fill="#2EAC94"/>
<path d="M614.591 231.712L615.852 234.9L613.022 234.761L614.591 231.712Z" fill="#2EAC94"/>
<path d="M616.808 227.202L618.07 230.391L615.239 230.251L616.808 227.202Z" fill="#2EAC94"/>
<path d="M621.1 227.414L619.532 230.463L622.361 230.603L621.1 227.414Z" fill="#2EAC94"/>
<path d="M622.862 232.121L621.293 235.169L624.122 235.309L622.862 232.121Z" fill="#2EAC94"/>
</g>
<g clip-path="url(#clip6_25_2)">
<path d="M575.719 249.76C575.719 249.76 575.559 247.981 575.014 245.708C574.438 246.729 573.482 248.422 572.878 249.489L575.719 249.76Z" fill="#38372F"/>
<path d="M554.262 224.327C554.838 224.382 555.382 224.227 555.859 223.91C556.039 228.995 559.704 234.244 564.756 235.87C564.895 235.914 565.032 235.952 565.169 235.986L566.463 241.423C565.329 241.166 564.081 241.112 562.872 241.52C559.144 242.781 557.578 248.307 557.578 248.307L567.28 244.666C566.009 245.463 564.618 246.679 563.653 248.497C561.416 252.705 562.766 258.497 562.766 258.497L569.455 245.198L578.179 246.029C578.783 244.96 579.739 243.27 580.315 242.248C579.705 239.705 578.559 237.011 576.667 235.033C575.94 234.273 574.529 233.336 573.531 232.969L576.114 214.969C576.114 214.969 576.46 215.021 577.041 214.516C577.623 214.011 577.276 212.719 577.276 212.719L573.92 212.399L572.531 217.397C572.029 216.373 571.425 215.447 570.739 214.648C571.137 214.615 571.46 214.554 571.666 214.455C572.431 214.088 572.579 212.272 572.579 212.272L564.489 211.502L564.49 211.522C559.926 211.329 557.715 213.491 556.683 216.852C556.115 216.02 555.329 215.466 554.453 215.383C552.657 215.212 551.158 217.075 551.106 219.545C551.053 222.015 552.467 224.155 554.262 224.326L554.262 224.327Z" fill="#E6E1C8"/>
<path d="M567.337 245.092C567.216 245.704 567.485 246.354 567.937 246.544C568.389 246.734 568.854 246.392 568.975 245.781C569.096 245.169 568.827 244.519 568.374 244.329C567.922 244.139 567.457 244.481 567.337 245.092Z" fill="#38372F"/>
<path d="M573.269 241.281C573.356 241.289 573.425 241.389 573.427 241.507C573.429 241.63 573.357 241.727 573.267 241.724C572.899 241.713 572.692 241.767 572.495 241.85C572.33 241.92 572.054 242.036 571.847 242.235C571.633 242.441 571.46 242.713 571.335 243.042C571.294 243.149 571.197 243.187 571.117 243.126C571.037 243.065 571.005 242.931 571.046 242.824C571.195 242.435 571.399 242.113 571.654 241.868C571.9 241.631 572.217 241.497 572.388 241.425C572.585 241.341 572.827 241.267 573.262 241.279C573.264 241.279 573.267 241.279 573.269 241.279L573.269 241.281Z" fill="#38372F"/>
</g>
<g clip-path="url(#clip7_25_2)">
<path d="M497.049 267.674C497.303 267.772 497.588 267.645 497.686 267.39L497.686 267.385C497.881 266.881 498.084 266.385 498.305 265.899C498.528 265.415 498.763 264.939 499.018 264.475C499.53 263.549 500.107 262.668 500.749 261.846C501.439 260.965 502.201 260.146 503.032 259.44C503.037 259.448 503.041 259.454 503.046 259.462C503.179 259.678 503.304 259.953 503.421 260.254C503.659 260.844 503.846 261.458 503.989 262.086C504.135 262.714 504.223 263.358 504.269 264.009C504.313 264.659 504.304 265.315 504.247 265.97L504.246 265.977C504.225 266.22 504.385 266.446 504.629 266.499C504.893 266.557 505.154 266.39 505.214 266.126C505.368 265.432 505.473 264.725 505.52 264.01C505.564 263.295 505.561 262.573 505.493 261.852C505.427 261.132 505.309 260.413 505.128 259.704C505.042 259.354 504.939 258.984 504.767 258.588C504.724 258.491 504.676 258.391 504.622 258.291C504.856 258.152 505.095 258.02 505.337 257.9C505.78 257.683 506.229 257.499 506.692 257.357C507.157 257.218 507.63 257.11 508.109 257.053C509.064 256.931 510.034 256.985 510.94 257.245C512.727 257.756 514.355 259.185 514.927 261.116L514.936 261.144C514.999 261.36 515.206 261.51 515.44 261.494C515.71 261.476 515.914 261.24 515.895 260.97C515.885 260.818 515.875 260.665 515.857 260.513C515.832 260.362 515.812 260.209 515.779 260.059C515.74 259.911 515.708 259.759 515.66 259.613C515.609 259.467 515.568 259.316 515.507 259.175C515.281 258.599 514.961 258.06 514.576 257.572C513.806 256.598 512.756 255.827 511.569 255.38C511.338 255.291 511.101 255.215 510.861 255.15C510.906 254.969 510.969 254.79 511.045 254.614C511.246 254.153 511.552 253.724 511.944 253.381L511.953 253.373C512.124 253.223 512.175 252.969 512.06 252.761C511.929 252.523 511.629 252.438 511.392 252.57C510.806 252.896 510.29 253.362 509.887 253.924C509.672 254.221 509.49 254.547 509.346 254.893C508.859 254.857 508.37 254.86 507.886 254.905C506.656 255.017 505.448 255.378 504.361 255.93C503.817 256.204 503.298 256.52 502.812 256.873C502.323 257.225 501.863 257.609 501.436 258.02C500.576 258.839 499.839 259.76 499.196 260.729C498.56 261.705 498.026 262.742 497.608 263.819C497.401 264.358 497.222 264.906 497.078 265.463C496.932 266.019 496.815 266.581 496.738 267.146C496.708 267.368 496.831 267.59 497.049 267.674Z" fill="#38372F"/>
<path d="M481.192 234.627L481.114 234.599L481.174 234.642C481.187 234.632 481.194 234.625 481.194 234.625L481.192 234.627Z" fill="#DF4942"/>
<path d="M475.835 237.139C474.159 239.399 476.985 242.581 476.985 242.581L476.988 242.577C477.002 241.806 477.055 239.826 477.238 239.224C477.557 238.173 478.621 236.558 479.248 235.979C479.793 235.477 481.013 234.714 481.175 234.614L481.114 234.579L480.738 234.469C480.081 234.581 477.305 235.157 475.834 237.139L475.835 237.139Z" fill="#E6E1C8"/>
<path d="M513.558 254.969C510.566 254.587 509.411 253.321 508.259 250.427C507.108 247.534 505.006 241.773 504.011 240.833C503.017 239.893 500.265 238.423 498.171 238.156L481.918 236.083C480.422 235.892 476.678 232.668 477.368 227.264C478.057 221.859 480.942 219.888 482.937 220.142L505.704 223.046C508.066 223.347 511.115 224.855 511.569 227.66C512.022 230.464 515.089 242.959 515.089 242.959L524.639 247.533L524.91 252.755L519.538 252.579C519.538 252.579 516.35 255.325 513.558 254.969Z" fill="#E6E1C8"/>
<path d="M481.918 236.083L498.171 238.156C500.265 238.423 503.017 239.893 504.011 240.833C505.006 241.773 507.109 247.535 508.259 250.427C509.411 253.321 510.566 254.587 513.558 254.969C516.35 255.325 519.538 252.579 519.538 252.579L524.91 252.755L524.841 251.431L517.807 250.533C517.807 250.533 516.501 252.418 514.665 252.184C512.829 251.95 511.532 250.982 511.077 249.675C510.622 248.369 507.11 238.291 505.718 235.973C504.331 233.665 502.027 229.995 499.275 228.971C499.275 228.971 495.958 227.669 493.183 227.472C490.475 227.11 489.022 227.073 487.162 227.557C485.303 228.042 484 228.97 482.728 230.591C481.893 231.654 480.964 233.902 480.504 235.403C481.046 235.805 481.55 236.037 481.919 236.084L481.918 236.083Z" fill="#DF4942"/>
<path d="M524.91 252.755L524.748 249.63L521.8 252.652L524.91 252.755Z" fill="#38372F"/>
<path d="M515.768 249.055C515.235 248.987 514.748 249.366 514.68 249.901C514.612 250.435 514.988 250.924 515.521 250.992C516.054 251.06 516.541 250.682 516.609 250.147C516.678 249.612 516.301 249.123 515.768 249.055Z" fill="#38372F"/>
<path d="M521.99 246.257C521.015 246.286 520.061 246.64 519.295 247.245C519.11 247.392 519.334 247.683 519.52 247.536C520.241 246.966 521.125 246.648 522.042 246.621C522.143 246.618 522.21 246.503 522.199 246.412C522.184 246.304 522.089 246.253 521.99 246.256L521.99 246.257Z" fill="#38372F"/>
<path d="M510.706 251.045C510.706 251.045 508.348 253.088 506.451 253.141C504.553 253.196 502.223 250.155 502.223 250.155C502.223 250.155 504.459 248.843 506.495 248.857C508.532 248.869 510.706 251.045 510.706 251.045Z" fill="#DF4942"/>
<path d="M508.41 250.719C508.41 250.719 507.334 251.65 506.469 251.674C505.604 251.699 504.541 250.312 504.541 250.312C504.541 250.312 505.561 249.714 506.49 249.72C507.419 249.726 508.411 250.718 508.411 250.718L508.41 250.719Z" fill="#E6E1C8"/>
<path d="M496.363 234.529C496.378 234.531 496.392 234.534 496.407 234.541L499.941 235.922C500.035 235.959 500.081 236.066 500.045 236.161C500.008 236.255 499.902 236.302 499.807 236.265L496.274 234.884C496.18 234.847 496.133 234.74 496.17 234.645C496.201 234.565 496.282 234.519 496.363 234.529Z" fill="#E6E1C8"/>
<path d="M496.536 231.094C496.554 231.096 496.572 231.101 496.591 231.109L500.447 232.908C500.539 232.951 500.578 233.06 500.536 233.152C500.493 233.245 500.384 233.285 500.292 233.241L496.436 231.442C496.344 231.4 496.305 231.291 496.348 231.198C496.382 231.124 496.46 231.084 496.537 231.094L496.536 231.094Z" fill="#E6E1C8"/>
<path d="M490.111 234.197C490.122 234.198 490.132 234.2 490.143 234.203L493.754 235.324C493.851 235.353 493.904 235.457 493.875 235.555C493.845 235.652 493.742 235.706 493.644 235.676L490.033 234.556C489.936 234.526 489.883 234.423 489.912 234.325C489.94 234.238 490.024 234.186 490.111 234.197Z" fill="#E6E1C8"/>
<path d="M489.718 231.576C489.728 231.577 489.736 231.578 489.746 231.582L493.728 232.732C493.825 232.761 493.881 232.862 493.853 232.96C493.824 233.058 493.722 233.114 493.626 233.086L489.644 231.935C489.546 231.907 489.49 231.805 489.519 231.708C489.545 231.619 489.629 231.565 489.718 231.576Z" fill="#E6E1C8"/>
<path d="M490.664 229.524C490.673 229.525 490.68 229.526 490.688 229.528L493.615 230.3C493.713 230.326 493.771 230.427 493.745 230.525C493.719 230.623 493.618 230.682 493.521 230.656L490.595 229.884C490.497 229.858 490.438 229.758 490.464 229.66C490.488 229.57 490.574 229.513 490.665 229.524L490.664 229.524Z" fill="#E6E1C8"/>
<path d="M487.728 234.877L485.139 234.236" stroke="#E6E1C8" stroke-width="3" stroke-miterlimit="10" stroke-linecap="round"/>
<path d="M485.346 231.218C485.361 231.219 485.377 231.223 485.39 231.229L487.787 232.177C487.88 232.215 487.927 232.322 487.889 232.416C487.851 232.51 487.746 232.557 487.652 232.519L485.256 231.571C485.162 231.534 485.115 231.427 485.153 231.333C485.184 231.253 485.265 231.207 485.346 231.218Z" fill="#E6E1C8"/>
<path d="M480.884 234.435C480.884 234.435 480.832 234.446 480.74 234.47L481.114 234.6L480.885 234.435L480.884 234.435Z" fill="#DF4942"/>
<path d="M477.239 239.225C477.056 239.826 477.004 241.806 476.989 242.577L482.261 235.229L481.177 234.615C481.014 234.715 479.794 235.477 479.249 235.979C478.621 236.558 477.557 238.173 477.239 239.225Z" fill="#DF4942"/>
<path d="M480.113 221.019L484.724 221.607L486.584 207.02L481.973 206.432L480.113 221.019Z" fill="#E6E1C8"/>
<path d="M481.973 206.433L486.584 207.021L487.108 202.912L482.497 202.323L481.973 206.433Z" fill="#38372F"/>
<path d="M485.726 221.735L490.337 222.323L492.197 207.736L487.586 207.148L485.726 221.735Z" fill="#E6E1C8"/>
<path d="M487.586 207.149L492.197 207.737L492.722 203.628L488.11 203.039L487.586 207.149Z" fill="#38372F"/>
<path d="M502.341 223.854L506.952 224.442L508.812 209.855L504.201 209.267L502.341 223.854Z" fill="#E6E1C8"/>
<path d="M504.201 209.268L508.812 209.856L509.336 205.747L504.725 205.159L504.201 209.268Z" fill="#38372F"/>
<path d="M514.243 221.485L507.082 223.42L508.287 227.925L517.883 225.332C518.51 225.163 519.037 224.738 519.339 224.161C519.641 223.585 519.688 222.907 519.47 222.294L517.21 215.941C516.092 216.319 513.765 217.126 512.811 217.457L514.245 221.485L514.243 221.485Z" fill="#E6E1C8"/>
<path d="M511.398 213.489L512.81 217.455C513.764 217.125 516.091 216.318 517.209 215.939L515.777 211.916L511.398 213.489Z" fill="#38372F"/>
</g>
<g clip-path="url(#clip8_25_2)">
<path d="M431.057 243.758L433.015 243.939L436.812 193.619L434.854 193.438L431.057 243.758Z" fill="#38372F"/>
<path d="M430.157 268.815L444.821 247.94L418.819 245.537L430.157 268.815Z" fill="#DF4942"/>
<path d="M431.335 253.205L451.382 232.827L414.615 229.429L431.335 253.205Z" fill="#2EAC94"/>
<path d="M432.464 238.24L458.5 215.497L410.192 211.032L432.464 238.24Z" fill="#DF4942"/>
</g>
<path d="M381.939 206.068C371.067 204.108 359.849 216.932 356.882 234.711C353.916 252.49 360.324 268.491 371.196 270.451C382.068 272.411 393.286 259.587 396.252 241.808C399.219 224.03 392.81 208.028 381.939 206.068Z" fill="#2EAC94"/>
<path d="M365.863 232.24C366.221 232.521 366.738 232.466 367.017 232.117C367.879 231.041 368.858 230.121 369.928 229.377C371.134 228.543 372.423 227.95 373.766 227.619C375.094 227.292 376.72 227.363 377.639 227.447L374.936 243.651C374.115 243.598 372.633 243.586 371.344 244.054C370.113 244.5 368.924 245.236 367.813 246.244C366.852 247.115 365.962 248.179 365.177 249.4C364.937 249.773 365.054 250.275 365.438 250.518C365.822 250.761 366.331 250.656 366.571 250.283C367.283 249.177 368.078 248.22 368.94 247.443C369.897 246.577 370.905 245.946 371.937 245.573C372.858 245.241 373.962 245.22 374.668 245.253L372.726 256.891C372.653 257.33 372.957 257.752 373.405 257.833C373.853 257.913 374.276 257.623 374.349 257.184L377.462 238.529C378.129 238.757 379.041 239.141 379.734 239.721C380.584 240.435 381.333 241.378 381.949 242.531C382.506 243.565 382.947 244.744 383.26 246.035C383.365 246.47 383.81 246.747 384.251 246.653C384.691 246.559 384.967 246.127 384.859 245.692C384.515 244.264 384.025 242.954 383.399 241.797C382.68 240.459 381.798 239.35 380.783 238.499C379.804 237.677 378.539 237.181 377.726 236.923L380.431 220.713C381.344 220.972 382.761 221.457 383.828 222.177C384.985 222.958 386.007 223.964 386.871 225.175C387.639 226.246 388.262 227.459 388.725 228.774C388.875 229.197 389.344 229.429 389.772 229.293C390.199 229.154 390.426 228.697 390.279 228.275C389.767 226.813 389.069 225.466 388.213 224.267C387.232 222.895 386.066 221.748 384.744 220.855C383.422 219.962 381.71 219.401 380.703 219.121L385.813 188.5C385.886 188.061 385.582 187.64 385.134 187.559C384.686 187.478 384.263 187.769 384.19 188.208L377.908 225.858C377.908 225.858 377.895 225.855 377.888 225.854C376.888 225.759 374.963 225.654 373.338 226.056C371.804 226.434 370.331 227.105 368.966 228.054C367.768 228.883 366.677 229.911 365.722 231.104C365.444 231.45 365.509 231.96 365.87 232.241L365.863 232.24Z" fill="#38372F"/>
<defs>
<clipPath id="clip0_25_2">
<rect width="48.2961" height="75.8524" fill="white" transform="matrix(-0.992177 0.124843 -0.148548 -0.988905 1008.19 258.777)"/>
</clipPath>
<clipPath id="clip1_25_2">
<rect width="77" height="73" fill="white" transform="translate(943.693 265.798) rotate(172.903)"/>
</clipPath>
<clipPath id="clip2_25_2">
<rect width="44" height="44" fill="white" transform="translate(840.085 248.79) rotate(174.398)"/>
</clipPath>
<clipPath id="clip3_25_2">
<rect width="40" height="31" fill="white" transform="translate(764.982 242.931) rotate(176.168)"/>
</clipPath>
<clipPath id="clip4_25_2">
<rect width="44" height="74" fill="white" transform="translate(706.406 289.728) rotate(178.573)"/>
</clipPath>
<clipPath id="clip5_25_2">
<rect width="31" height="41" fill="white" transform="translate(632.969 257.74) rotate(-177.172)"/>
</clipPath>
<clipPath id="clip6_25_2">
<rect width="30.5596" height="47.0748" fill="white" transform="matrix(-0.995499 -0.0947764 0.0213065 -0.999773 575.422 263.667)"/>
</clipPath>
<clipPath id="clip7_25_2">
<rect width="51" height="63" fill="white" transform="translate(522.59 270.946) rotate(-172.732)"/>
</clipPath>
<clipPath id="clip8_25_2">
<rect width="48.5142" height="75.5004" fill="white" transform="matrix(-0.995755 -0.092039 0.0752464 -0.997165 454.308 271.048)"/>
</clipPath>
</defs>
</svg>
