<svg width="375" height="148" viewBox="0 0 375 148" fill="none" xmlns="http://www.w3.org/2000/svg">
<path d="M375 0H0V43.7934C42.0856 65.294 136.529 92 181.779 92C227.028 92 329.794 67.3309 375 43.7934V0Z" fill="#1C6EB8"/>
<path d="M340.658 74.3601C332.726 76.7182 328.361 90.7399 330.91 105.678C333.459 120.617 341.956 130.815 349.889 128.457C357.821 126.099 362.186 112.077 359.637 97.1386C357.088 82.2002 348.591 72.0019 340.658 74.3601Z" fill="#2EAC94"/>
<path d="M336.411 100.538C336.727 100.629 337.067 100.402 337.168 100.029C337.479 98.8812 337.912 97.8125 338.451 96.8493C339.061 95.7672 339.789 94.8435 340.621 94.105C341.444 93.3746 342.574 92.848 343.223 92.5848L345.546 106.2C344.972 106.452 343.956 106.973 343.196 107.799C342.47 108.588 341.847 109.587 341.347 110.771C340.915 111.795 340.581 112.944 340.358 114.178C340.29 114.554 340.5 114.905 340.824 114.957C341.149 115.009 341.47 114.745 341.538 114.369C341.74 113.251 342.037 112.219 342.426 111.304C342.857 110.286 343.383 109.433 343.992 108.772C344.536 108.184 345.285 107.774 345.776 107.546L347.445 117.325C347.507 117.694 347.824 117.914 348.151 117.817C348.477 117.72 348.692 117.342 348.629 116.973L345.954 101.299C346.469 101.238 347.191 101.212 347.813 101.417C348.578 101.67 349.332 102.139 350.05 102.818C350.697 103.425 351.302 104.188 351.848 105.084C352.032 105.386 352.407 105.443 352.684 105.212C352.96 104.981 353.038 104.545 352.852 104.244C352.25 103.253 351.578 102.406 350.852 101.726C350.016 100.939 349.128 100.389 348.216 100.088C347.335 99.7965 346.343 99.8612 345.722 99.9506L343.398 86.3302C344.088 86.2063 345.181 86.0779 346.095 86.258C347.087 86.4544 348.044 86.8743 348.947 87.5098C349.747 88.0719 350.485 88.7955 351.139 89.6563C351.351 89.933 351.731 89.9462 351.988 89.6874C352.245 89.4259 352.282 88.9882 352.073 88.7107C351.347 87.7533 350.523 86.9513 349.63 86.3216C348.606 85.6015 347.514 85.1234 346.381 84.8989C345.248 84.6744 343.934 84.8489 343.174 84.9905L338.784 59.2617C338.721 58.8931 338.405 58.6727 338.078 58.7699C337.751 58.867 337.537 59.2451 337.6 59.6137L342.998 91.2485C342.998 91.2485 342.988 91.2513 342.983 91.2527C342.275 91.5362 340.933 92.1429 339.926 93.0373C338.975 93.8813 338.142 94.9318 337.453 96.1609C336.848 97.2362 336.367 98.4288 336.022 99.7018C335.921 100.071 336.097 100.446 336.416 100.536L336.411 100.538Z" fill="#38372F"/>
<g clip-path="url(#clip0_50_2)">
<path d="M304.952 107.621L306.389 107.371L302.444 71.0589L301.006 71.3089L304.952 107.621Z" fill="#38372F"/>
<path d="M307.632 125.511L315.44 107.921L296.358 111.24L307.632 125.511Z" fill="#DF4942"/>
<path d="M306.408 114.247L318.167 95.9692L291.183 100.663L306.408 114.247Z" fill="#2EAC94"/>
<path d="M305.234 103.448L321.001 82.3414L285.547 88.5085L305.234 103.448Z" fill="#DF4942"/>
</g>
<g clip-path="url(#clip1_50_2)">
<path d="M226.846 91.6299L232.308 105.161C232.308 105.161 231.913 107.961 232.079 109.691C232.244 111.422 232.895 112.19 232.895 112.19L230.878 111.924L233.142 115.72L230.796 115.758L233.082 119.66L231.26 119.63L233.747 123.783L232.226 136.713C232.226 136.713 233.291 136.354 233.926 135.832C234.561 135.311 235.76 133.418 235.76 133.418L236.48 139.511L239.974 140.171C239.974 140.171 239.852 136.487 240.585 134.493C240.815 133.868 242.121 133.382 243.074 132.63C244.077 131.838 244.584 128.254 244.734 125.685C244.883 123.116 244.747 120.118 247.854 117.157C250.962 114.196 259.987 114.688 264.671 113.643C265.295 113.505 265.842 113.319 266.324 113.096C267.372 113.503 268.713 113.822 269.875 113.464C272.188 112.75 274.928 110.033 274.928 110.033L274.041 109.682C274.041 109.682 275.356 108.84 276.418 107.968C277.381 107.178 278.729 105.025 278.729 105.025L277.589 104.723C277.589 104.723 279.21 103.605 280.312 101.554C280.966 100.339 281.833 97.7896 281.833 97.7896L280.654 98.036C280.654 98.036 281.145 96.7077 281.297 95.2203C281.448 93.7329 280.912 91.1649 280.912 91.1649C280.912 91.1649 278.986 92.2562 278.445 92.9825C277.905 93.7089 276.938 94.6 276.938 94.6L276.677 93.3521C276.677 93.3521 274.778 95.1346 274.285 95.9539C273.45 97.3418 273.161 98.988 273.161 98.988L272.72 97.2424C272.72 97.2424 271.158 98.7068 270.468 100.087C270.206 100.612 269.772 101.595 269.28 102.735C268.65 100.703 267.629 99.0605 267.635 97.7775C267.642 95.9368 268.125 81.3563 268.125 81.3563L266.172 79.5185L256.447 81.5504C256.447 81.5504 256.426 82.7381 257.198 83.5983C257.529 83.966 258.166 84.3273 258.84 84.5385L257.081 94.2076C257.081 94.2076 254.474 95.3384 253.175 96.6341C251.877 97.9311 250.954 99.6111 250.954 99.6111C250.954 99.6111 248.241 99.7645 246.439 99.5889C244.638 99.4134 240.885 100.228 240.885 100.228L233.382 86.3708L223.396 88.4572C223.396 88.4572 223.375 89.6449 224.148 90.5051C224.653 91.0665 225.871 91.6117 226.844 91.6288L226.846 91.6299Z" fill="#E6E1C8"/>
<path d="M245.161 127.626C247.058 126.874 248.811 124.152 248.811 124.152L243.872 123.806L243.536 127.966C243.536 127.966 243.9 128.127 245.161 127.626Z" fill="#2EAC94"/>
<path d="M238.79 132.977C238.597 133.835 238.275 136.299 238.305 139.857L239.974 140.173C239.974 140.173 239.852 136.488 240.586 134.494C240.816 133.87 242.121 133.383 243.074 132.631C244.078 131.839 244.584 128.255 244.734 125.686C244.884 123.117 244.747 120.119 247.854 117.158C250.962 114.197 259.987 114.689 264.671 113.645C265.286 113.508 265.827 113.325 266.304 113.107C265.406 111.783 264.118 110.035 262.967 109.036C260.698 107.069 258.215 106.089 253.11 106.315C248.005 106.541 241.515 110.008 240.857 115.157C240.305 119.49 241.144 127.27 240.742 129.793C240.34 132.316 239.008 132.006 238.789 132.977L238.79 132.977Z" fill="#2EAC94"/>
<path d="M239.524 130.394C239.417 129.881 239.748 129.379 240.262 129.272C240.776 129.164 241.281 129.493 241.387 130.005C241.494 130.516 241.164 131.02 240.65 131.127C240.136 131.234 239.631 130.906 239.524 130.394Z" fill="#38372F"/>
<path d="M227.297 87.6614C227.395 87.641 227.494 87.6942 227.528 87.7899C227.732 88.3581 227.995 88.9617 228.75 89.5326C229.193 89.8673 230.428 90.3748 230.44 90.3805L230.494 90.402L230.528 90.4498C230.634 90.5987 233.127 94.2274 232.745 104.793C232.74 104.904 232.647 104.991 232.536 104.988C232.425 104.983 232.337 104.891 232.341 104.779C232.697 94.972 230.512 91.1763 230.229 90.7272C229.97 90.6197 228.939 90.1779 228.507 89.8517C227.666 89.2141 227.364 88.5224 227.15 87.9249C227.113 87.8203 227.167 87.7049 227.272 87.6679C227.282 87.666 227.291 87.6627 227.3 87.6608L227.297 87.6614Z" fill="#D6AD49"/>
<path d="M260.437 80.7606L260.441 80.7598C260.551 80.7396 260.657 80.8106 260.677 80.9201C260.752 81.318 260.891 81.6094 261.438 82.0936C262.199 82.7659 263.171 82.7599 263.181 82.7606L263.432 82.7574L263.382 83.0022L260.744 95.7375L260.641 95.7769C260.619 95.7855 258.432 96.6396 257.278 97.7436C256.064 98.9052 255.516 100.607 255.511 100.624C255.478 100.73 255.364 100.789 255.258 100.757C255.152 100.724 255.093 100.61 255.126 100.505C255.149 100.432 255.708 98.6905 256.998 97.4541C258.077 96.4208 259.932 95.6305 260.393 95.4439L262.938 83.151C262.557 83.1115 261.808 82.9626 261.168 82.3964C260.614 81.907 260.382 81.5405 260.278 80.998C260.258 80.8898 260.327 80.7864 260.435 80.7638L260.437 80.7606Z" fill="#D6AD49"/>
<path d="M252.896 113.256C252.896 113.256 252.908 113.254 252.913 113.253L256.357 112.839C256.469 112.825 256.569 112.904 256.581 113.014C256.595 113.124 256.515 113.225 256.405 113.237L252.961 113.651C252.849 113.665 252.749 113.586 252.737 113.476C252.725 113.372 252.794 113.276 252.896 113.255L252.896 113.256Z" fill="#E6E1C8"/>
<path d="M251.917 111.14L256.104 110.265C256.213 110.242 256.32 110.311 256.343 110.42C256.366 110.529 256.296 110.636 256.186 110.658L251.999 111.533C251.89 111.556 251.783 111.487 251.76 111.378C251.738 111.269 251.808 111.162 251.917 111.14Z" fill="#E6E1C8"/>
<path d="M251.795 108.723C251.795 108.723 251.799 108.723 251.801 108.722L254.537 108.241C254.647 108.222 254.752 108.295 254.771 108.404C254.789 108.514 254.717 108.624 254.606 108.637L251.87 109.118C251.76 109.137 251.656 109.065 251.637 108.955C251.619 108.848 251.688 108.746 251.795 108.723Z" fill="#E6E1C8"/>
<path d="M250.308 112.977C250.407 112.956 250.506 113.011 250.54 113.108C250.576 113.212 250.52 113.327 250.415 113.363L247.696 114.293C247.589 114.329 247.476 114.274 247.44 114.169C247.405 114.064 247.46 113.95 247.566 113.914L250.284 112.983C250.292 112.981 250.301 112.978 250.309 112.976L250.308 112.977Z" fill="#E6E1C8"/>
<path d="M249.806 110.575C249.905 110.555 250.004 110.609 250.038 110.706C250.074 110.811 250.018 110.925 249.913 110.962L247.047 111.946C246.942 111.982 246.827 111.926 246.79 111.822C246.755 111.717 246.81 111.603 246.916 111.566L249.781 110.582C249.789 110.58 249.798 110.577 249.806 110.575Z" fill="#E6E1C8"/>
<path d="M259.463 112.037C259.478 112.034 259.491 112.033 259.506 112.033L261.965 112.053C262.076 112.054 262.165 112.145 262.165 112.256C262.164 112.368 262.072 112.457 261.961 112.457L259.503 112.436C259.391 112.435 259.302 112.344 259.303 112.233C259.304 112.137 259.373 112.056 259.463 112.037Z" fill="#E6E1C8"/>
<path d="M258.166 109.127C258.185 109.123 258.205 109.122 258.225 109.123L260.644 109.325C260.754 109.334 260.838 109.431 260.828 109.542C260.818 109.652 260.721 109.736 260.609 109.726L258.19 109.525C258.08 109.515 257.996 109.419 258.006 109.307C258.013 109.217 258.081 109.145 258.166 109.127Z" fill="#E6E1C8"/>
<path d="M240.053 137.371L239.976 140.172L237.314 139.67L240.053 137.371Z" fill="#38372F"/>
</g>
<g clip-path="url(#clip2_50_2)">
<path d="M177.937 144.248C177.89 145.229 177.372 146.759 176.103 147.098C174.512 147.524 173.186 145.689 173.126 145.603C172.134 144.19 172.595 142.607 172.647 142.443C172.683 142.326 173.298 140.426 174.63 140.224C176.194 139.986 178.036 142.197 177.938 144.248L177.937 144.248Z" fill="#DF4942"/>
<path d="M176.106 141.857C176.699 142.448 176.65 143.273 176.644 143.346C176.588 144.073 176.083 145.027 175.35 145.047C174.595 145.068 174.123 144.085 174.088 144.011C174.036 143.9 173.731 143.214 174.05 142.476C174.247 142.018 174.749 141.395 175.36 141.442C175.716 141.469 175.96 141.711 176.106 141.858L176.106 141.857Z" fill="#E6E1C8"/>
<path d="M189.28 143.966C189.376 144.943 189.97 146.445 191.253 146.721C192.863 147.066 194.097 145.168 194.152 145.079C195.073 143.619 194.533 142.061 194.474 141.899C194.431 141.784 193.723 139.918 192.382 139.782C190.809 139.622 189.079 141.922 189.279 143.966L189.28 143.966Z" fill="#DF4942"/>
<path d="M190.99 141.486C190.427 142.106 190.517 142.928 190.527 143C190.618 143.724 191.171 144.651 191.904 144.635C192.659 144.618 193.081 143.612 193.112 143.537C193.159 143.424 193.429 142.723 193.074 142.002C192.854 141.554 192.322 140.958 191.714 141.034C191.36 141.079 191.129 141.333 190.99 141.487L190.99 141.486Z" fill="#E6E1C8"/>
<path d="M167.97 117.401C169.929 124.646 170.38 125.493 171.108 127.62C171.724 129.421 173.499 132.525 173.499 132.525C173.499 132.525 172.993 134.86 173.157 136.875C173.252 138.047 173.453 140.201 174.875 142.396C175.409 143.221 176.812 145.127 179.412 146.269C181.147 147.03 182.715 147.143 183.636 147.14C184.557 147.098 186.116 146.906 187.812 146.058C190.352 144.789 191.658 142.815 192.15 141.965C193.461 139.701 193.554 137.54 193.591 136.365C193.655 134.344 193.033 132.038 193.033 132.038C193.033 132.038 194.652 128.849 195.177 127.019C195.798 124.858 196.206 123.99 197.802 116.657C199.108 110.656 199.148 108.7 198.694 105.557C198.319 102.968 197.523 101.172 196.974 99.9598C195.524 96.7559 194.154 95.704 193.7 95.3789C193.616 95.3192 193.529 95.2575 193.439 95.1958C194.051 94.8878 194.465 94.5197 194.606 94.2277C194.898 93.6231 194.921 92.0903 194.921 92.0903L187.292 92.2804L187.403 96.7336C187.08 97.372 187.088 97.8477 186.328 98.5715C185.502 99.3587 184.541 99.7021 184.177 99.8282C183.498 100.063 182.897 100.144 182.466 100.171C182.035 100.165 181.43 100.115 180.74 99.9139C180.37 99.806 179.393 99.5109 178.529 98.7658C177.734 98.0808 177.719 97.6052 177.364 96.9837L177.253 92.5305L169.624 92.7206C169.624 92.7206 169.724 94.2503 170.045 94.8396C170.2 95.1254 170.632 95.4724 171.259 95.7485C171.172 95.8145 171.088 95.8805 171.008 95.9442C170.57 96.2905 169.254 97.4104 167.965 100.683C167.477 101.92 166.77 103.754 166.526 106.358C166.229 109.521 166.367 111.472 167.97 117.4L167.97 117.401Z" fill="#DF4942"/>
<path d="M175.075 125.126C175.795 126.007 176.987 127.428 179.105 128.183C180.828 128.797 182.383 129.066 183.239 128.938C184.1 129.022 185.641 128.677 187.332 127.978C189.41 127.118 190.529 125.64 191.204 124.725C194.075 120.83 193.855 116.299 193.763 114.388C193.653 112.109 193.494 108.85 191.168 105.892C190.482 105.019 188.946 103.121 186.205 102.325C184.714 101.891 183.395 101.682 182.563 101.782C181.727 101.723 180.421 101.998 178.953 102.505C176.256 103.437 174.816 105.41 174.174 106.316C171.998 109.385 172.002 112.648 172.006 114.93C172.009 116.844 172.014 121.379 175.076 125.126L175.075 125.126Z" fill="#E6E1C8"/>
<path d="M181.95 120.756C182.034 120.754 182.104 120.816 182.113 120.899L182.485 124.496C182.493 124.584 182.43 124.662 182.342 124.671C182.254 124.679 182.176 124.616 182.167 124.528L181.795 120.931C181.786 120.843 181.849 120.765 181.938 120.756C181.942 120.756 181.946 120.756 181.95 120.756Z" fill="#DF4942"/>
<path d="M179.352 121.588C179.423 121.586 179.491 121.634 179.511 121.706L180.283 124.524C180.306 124.609 180.256 124.697 180.171 124.721C180.086 124.744 179.997 124.694 179.974 124.608L179.202 121.79C179.178 121.705 179.228 121.617 179.314 121.593C179.327 121.59 179.339 121.589 179.352 121.588Z" fill="#DF4942"/>
<path d="M177.619 123.399C177.683 123.397 177.746 123.436 177.771 123.501L178.555 125.509C178.586 125.592 178.546 125.684 178.464 125.716C178.381 125.748 178.289 125.708 178.257 125.625L177.474 123.617C177.442 123.534 177.482 123.442 177.564 123.41C177.582 123.403 177.6 123.399 177.619 123.399Z" fill="#DF4942"/>
<path d="M184.1 120.702C184.017 120.704 183.95 120.77 183.945 120.853L183.753 124.464C183.749 124.553 183.816 124.628 183.904 124.632C183.993 124.636 184.068 124.569 184.072 124.481L184.265 120.87C184.269 120.781 184.202 120.706 184.113 120.702C184.109 120.702 184.105 120.702 184.1 120.702Z" fill="#DF4942"/>
<path d="M186.737 121.404C186.666 121.406 186.601 121.457 186.585 121.529L185.954 124.383C185.934 124.468 185.989 124.554 186.076 124.573C186.161 124.593 186.247 124.538 186.266 124.452L186.898 121.598C186.917 121.513 186.862 121.427 186.776 121.408C186.763 121.405 186.75 121.404 186.737 121.404Z" fill="#DF4942"/>
<path d="M188.56 123.126C188.495 123.128 188.434 123.17 188.412 123.235L187.73 125.281C187.702 125.364 187.747 125.455 187.831 125.483C187.915 125.51 188.005 125.466 188.033 125.382L188.715 123.336C188.743 123.253 188.698 123.162 188.614 123.135C188.596 123.129 188.578 123.126 188.56 123.126Z" fill="#DF4942"/>
<path d="M170.904 118.54L175.293 127.37C175.699 124.95 176.472 122.593 177.579 120.404C177.79 119.986 178.014 119.571 178.232 119.153C179.601 118.77 180.59 117.499 180.553 116.013C180.509 114.259 179.05 112.871 177.293 112.915C176.164 112.943 175.188 113.557 174.645 114.458C173.081 115.475 171.779 116.893 170.904 118.54Z" fill="#DF4942"/>
<path d="M195.024 117.939L191.08 126.976C190.555 124.58 189.665 122.264 188.45 120.133C188.218 119.727 187.974 119.323 187.736 118.917C186.349 118.602 185.299 117.381 185.262 115.896C185.218 114.141 186.606 112.683 188.362 112.639C189.492 112.611 190.497 113.176 191.084 114.048C192.697 114.987 194.068 116.338 195.024 117.939Z" fill="#DF4942"/>
<path d="M183.344 132.121C180.95 132.181 179.05 133.906 179.102 135.975C179.153 138.044 181.136 139.672 183.531 139.612C185.925 139.553 187.824 137.827 187.773 135.759C187.721 133.69 185.738 132.062 183.344 132.121Z" fill="#E6E1C8"/>
<path d="M178.407 137.771C177.94 137.783 177.571 138.171 177.583 138.637C177.594 139.104 177.982 139.473 178.449 139.461C178.916 139.45 179.285 139.062 179.274 138.595C179.262 138.129 178.874 137.76 178.407 137.771Z" fill="#38372F"/>
<path d="M188.488 137.52C188.021 137.532 187.652 137.92 187.663 138.386C187.675 138.853 188.063 139.222 188.53 139.21C188.997 139.198 189.366 138.811 189.354 138.344C189.343 137.877 188.955 137.509 188.488 137.52Z" fill="#38372F"/>
<path d="M180.196 136.099C180.28 136.127 180.37 136.081 180.397 135.997C180.797 134.774 181.9 133.918 183.173 133.819L183.226 135.942L181.738 137.936L185.151 137.851L183.546 135.91L183.494 133.809C184.776 133.838 185.929 134.639 186.393 135.843C186.425 135.926 186.517 135.967 186.6 135.935C186.682 135.903 186.723 135.811 186.691 135.728C186.162 134.351 184.812 133.451 183.336 133.488C181.86 133.524 180.555 134.493 180.095 135.897C180.067 135.981 180.113 136.071 180.197 136.099L180.196 136.099Z" fill="#38372F"/>
</g>
<g clip-path="url(#clip3_50_2)">
<path d="M122.196 131.628C122.375 131.719 122.594 131.647 122.686 131.467L122.686 131.464C122.868 131.108 123.055 130.758 123.254 130.417C123.455 130.078 123.664 129.745 123.887 129.423C124.333 128.78 124.825 128.175 125.36 127.619C125.934 127.023 126.557 126.478 127.222 126.021C127.225 126.027 127.228 126.032 127.231 126.038C127.312 126.207 127.384 126.419 127.447 126.649C127.578 127.101 127.669 127.567 127.726 128.041C127.786 128.514 127.802 128.994 127.787 129.477C127.77 129.959 127.714 130.441 127.622 130.919L127.621 130.924C127.587 131.101 127.688 131.279 127.863 131.337C128.053 131.4 128.258 131.297 128.322 131.106C128.488 130.608 128.619 130.095 128.707 129.572C128.794 129.049 128.846 128.518 128.851 127.982C128.857 127.447 128.824 126.909 128.745 126.374C128.708 126.109 128.66 125.829 128.563 125.525C128.539 125.451 128.512 125.373 128.479 125.296C128.662 125.211 128.848 125.132 129.035 125.062C129.378 124.935 129.722 124.834 130.074 124.765C130.426 124.698 130.783 124.654 131.139 124.648C131.851 124.63 132.561 124.744 133.209 125.004C134.485 125.515 135.575 126.69 135.85 128.154L135.854 128.176C135.885 128.339 136.025 128.466 136.199 128.472C136.399 128.478 136.567 128.32 136.574 128.12C136.577 128.008 136.582 127.894 136.58 127.781C136.573 127.668 136.57 127.553 136.557 127.44C136.54 127.329 136.527 127.214 136.503 127.103C136.477 126.993 136.458 126.878 136.424 126.769C136.301 126.328 136.106 125.908 135.86 125.519C135.367 124.745 134.653 124.097 133.813 123.678C133.649 123.595 133.48 123.521 133.309 123.455C133.356 123.325 133.415 123.198 133.485 123.075C133.668 122.751 133.925 122.458 134.239 122.236L134.247 122.23C134.384 122.133 134.441 121.95 134.372 121.788C134.293 121.603 134.079 121.517 133.895 121.597C133.439 121.792 133.024 122.097 132.684 122.479C132.504 122.682 132.346 122.908 132.213 123.152C131.857 123.089 131.497 123.054 131.137 123.05C130.224 123.039 129.307 123.214 128.466 123.538C128.045 123.699 127.639 123.891 127.254 124.115C126.868 124.336 126.5 124.585 126.155 124.855C125.46 125.392 124.848 126.014 124.301 126.679C123.759 127.349 123.288 128.072 122.899 128.833C122.706 129.214 122.532 129.604 122.384 130.003C122.235 130.401 122.106 130.806 122.006 131.216C121.968 131.377 122.042 131.55 122.196 131.628Z" fill="#38372F"/>
<path d="M113.025 106.105L112.968 106.078L113.01 106.115C113.021 106.109 113.026 106.105 113.026 106.105L113.025 106.105Z" fill="#DF4942"/>
<path d="M108.892 107.55C107.487 109.086 109.327 111.642 109.327 111.642L109.329 111.639C109.398 111.073 109.587 109.62 109.767 109.191C110.081 108.441 110.987 107.332 111.492 106.954C111.931 106.625 112.887 106.156 113.014 106.095L112.971 106.065L112.702 105.956C112.211 105.988 110.124 106.202 108.892 107.55L108.892 107.55Z" fill="#E6E1C8"/>
<path d="M135.307 123.526C133.135 123.019 132.38 122 131.751 119.783C131.123 117.566 130.012 113.167 129.351 112.4C128.69 111.633 126.776 110.343 125.255 109.988L113.449 107.233C112.362 106.979 109.851 104.323 110.767 100.397C111.683 96.4718 113.956 95.2391 115.405 95.5773L131.942 99.437C133.657 99.8373 135.788 101.178 135.91 103.276C136.031 105.375 137.343 114.803 137.343 114.803L144.026 118.892L143.83 122.756L139.889 122.22C139.889 122.22 137.335 124 135.307 123.526Z" fill="#E6E1C8"/>
<path d="M113.449 107.233L125.255 109.988C126.776 110.343 128.69 111.633 129.351 112.4C130.012 113.167 131.123 117.567 131.751 119.783C132.38 122 133.135 123.019 135.307 123.526C137.335 124 139.889 122.22 139.889 122.22L143.83 122.756L143.88 121.776L138.77 120.583C138.77 120.583 137.667 121.872 136.333 121.56C134.999 121.249 134.118 120.439 133.882 119.442C133.646 118.447 131.824 110.764 130.974 108.952C130.128 107.149 128.71 104.273 126.762 103.311C126.762 103.311 124.419 102.102 122.391 101.747C120.426 101.276 119.36 101.139 117.954 101.354C116.549 101.57 115.52 102.155 114.461 103.252C113.766 103.97 112.912 105.555 112.46 106.625C112.828 106.962 113.182 107.171 113.45 107.234L113.449 107.233Z" fill="#DF4942"/>
<path d="M143.83 122.756L143.947 120.444L141.549 122.445L143.83 122.756Z" fill="#38372F"/>
<path d="M137.382 119.341C136.995 119.251 136.607 119.493 136.517 119.881C136.426 120.269 136.666 120.658 137.053 120.748C137.44 120.838 137.827 120.597 137.918 120.208C138.009 119.82 137.769 119.432 137.382 119.341Z" fill="#38372F"/>
<path d="M142.173 117.752C141.453 117.7 140.724 117.888 140.115 118.276C139.967 118.37 140.11 118.601 140.258 118.507C140.832 118.142 141.506 117.975 142.184 118.024C142.258 118.029 142.316 117.95 142.314 117.882C142.312 117.801 142.246 117.757 142.173 117.751L142.173 117.752Z" fill="#38372F"/>
<path d="M133.506 120.423C133.506 120.423 131.615 121.748 130.215 121.644C128.814 121.541 127.329 119.126 127.329 119.126C127.329 119.126 129.074 118.329 130.572 118.493C132.07 118.657 133.506 120.423 133.506 120.423Z" fill="#DF4942"/>
<path d="M131.84 120.009C131.84 120.009 130.978 120.613 130.339 120.565C129.701 120.518 129.024 119.417 129.024 119.417C129.024 119.417 129.819 119.054 130.503 119.128C131.186 119.203 131.841 120.008 131.841 120.008L131.84 120.009Z" fill="#E6E1C8"/>
<path d="M124.198 107.182C124.209 107.184 124.219 107.187 124.23 107.194L126.726 108.478C126.792 108.512 126.819 108.594 126.784 108.661C126.75 108.728 126.669 108.754 126.601 108.72L124.106 107.436C124.039 107.402 124.013 107.319 124.047 107.253C124.076 107.196 124.139 107.168 124.198 107.182Z" fill="#E6E1C8"/>
<path d="M124.586 104.666C124.599 104.669 124.612 104.674 124.625 104.682L127.327 106.298C127.391 106.336 127.412 106.419 127.373 106.484C127.335 106.549 127.252 106.57 127.188 106.531L124.486 104.915C124.421 104.877 124.401 104.794 124.439 104.729C124.47 104.677 124.53 104.653 124.587 104.667L124.586 104.666Z" fill="#E6E1C8"/>
<path d="M119.622 106.464C119.63 106.466 119.637 106.468 119.645 106.471L122.217 107.569C122.287 107.598 122.318 107.678 122.289 107.748C122.26 107.818 122.18 107.85 122.111 107.82L119.538 106.723C119.468 106.693 119.437 106.613 119.466 106.543C119.493 106.482 119.559 106.449 119.622 106.464Z" fill="#E6E1C8"/>
<path d="M119.531 104.505C119.538 104.507 119.544 104.508 119.551 104.512L122.395 105.66C122.464 105.688 122.498 105.767 122.47 105.837C122.441 105.907 122.362 105.94 122.293 105.912L119.449 104.764C119.38 104.736 119.346 104.657 119.374 104.587C119.4 104.524 119.467 104.49 119.531 104.505Z" fill="#E6E1C8"/>
<path d="M120.383 103.067C120.389 103.068 120.394 103.07 120.4 103.072L122.496 103.861C122.566 103.888 122.601 103.966 122.575 104.037C122.548 104.107 122.469 104.142 122.4 104.116L120.304 103.327C120.234 103.3 120.199 103.222 120.225 103.151C120.25 103.087 120.317 103.052 120.383 103.067L120.383 103.067Z" fill="#E6E1C8"/>
<path d="M117.817 106.785L115.96 106.117" stroke="#E6E1C8" stroke-width="3" stroke-miterlimit="10" stroke-linecap="round"/>
<path d="M116.341 103.911C116.351 103.913 116.362 103.917 116.372 103.923L118.064 104.802C118.13 104.837 118.157 104.919 118.122 104.985C118.087 105.052 118.005 105.078 117.939 105.043L116.247 104.164C116.181 104.13 116.154 104.047 116.189 103.981C116.218 103.924 116.282 103.897 116.341 103.911Z" fill="#E6E1C8"/>
<path d="M112.813 105.941C112.813 105.941 112.774 105.945 112.704 105.956L112.97 106.08L112.814 105.941L112.813 105.941Z" fill="#DF4942"/>
<path d="M109.768 109.191C109.588 109.62 109.399 111.073 109.33 111.639L113.766 106.63L113.015 106.096C112.888 106.157 111.932 106.626 111.493 106.954C110.987 107.332 110.081 108.441 109.768 109.191Z" fill="#DF4942"/>
<path d="M113.26 96.0085L116.609 96.7903L119.082 86.195L115.733 85.4133L113.26 96.0085Z" fill="#E6E1C8"/>
<path d="M115.733 85.4142L119.082 86.1959L119.779 83.2109L116.429 82.4292L115.733 85.4142Z" fill="#38372F"/>
<path d="M117.337 96.9602L120.687 97.7419L123.16 87.1467L119.81 86.3649L117.337 96.9602Z" fill="#E6E1C8"/>
<path d="M119.81 86.3658L123.159 87.1476L123.856 84.1626L120.507 83.3808L119.81 86.3658Z" fill="#38372F"/>
<path d="M129.406 99.7769L132.755 100.559L135.228 89.9634L131.879 89.1817L129.406 99.7769Z" fill="#E6E1C8"/>
<path d="M131.878 89.1825L135.228 89.9643L135.924 86.9793L132.575 86.1975L131.878 89.1825Z" fill="#38372F"/>
<path d="M138.345 98.9341L132.928 99.8164L133.474 103.223L140.733 102.041C141.207 101.964 141.628 101.691 141.893 101.289C142.159 100.888 142.245 100.393 142.131 99.925L140.948 95.0777C140.097 95.2718 138.323 95.6898 137.596 95.8607L138.346 98.9343L138.345 98.9341Z" fill="#E6E1C8"/>
<path d="M136.856 92.8334L137.595 95.8596C138.322 95.6887 140.096 95.2707 140.947 95.0766L140.198 92.0069L136.856 92.8334Z" fill="#38372F"/>
</g>
<g clip-path="url(#clip4_50_2)">
<path d="M75.9967 116.377L77.4456 116.562L79.7972 73.4804L78.3483 73.2952L75.9967 116.377Z" fill="#38372F"/>
<path d="M75.5579 137.845L86.2068 120.173L66.9689 117.715L75.5579 137.845Z" fill="#DF4942"/>
<path d="M76.2874 124.48L90.9189 107.317L63.7158 103.841L76.2874 124.48Z" fill="#2EAC94"/>
<path d="M76.9868 111.668L96.0234 92.5682L60.281 88.001L76.9868 111.668Z" fill="#DF4942"/>
</g>
<path d="M31.9559 73.4258C23.8932 71.5297 16.0563 81.9931 14.4517 96.7963C12.8472 111.6 18.0826 125.137 26.1453 127.033C34.208 128.929 42.0449 118.466 43.6494 103.663C45.254 88.8593 40.0186 75.3218 31.9559 73.4258Z" fill="#2EAC94"/>
<path d="M20.9794 94.941C21.2517 95.1842 21.6305 95.1511 21.8244 94.8656C22.4233 93.9858 23.1139 93.2388 23.8772 92.642C24.7372 91.9728 25.6664 91.5073 26.6433 91.262C27.61 91.0197 28.809 91.1171 29.4877 91.2089L28.0253 104.701C27.4201 104.637 26.329 104.592 25.3962 104.954C24.5048 105.298 23.6538 105.885 22.8691 106.702C22.1903 107.408 21.5702 108.278 21.0321 109.28C20.868 109.587 20.9703 110.01 21.2608 110.222C21.5513 110.434 21.9223 110.358 22.0863 110.052C22.5748 109.144 23.1286 108.362 23.7375 107.732C24.4134 107.03 25.1344 106.526 25.8815 106.238C26.5486 105.982 27.3597 105.991 27.8807 106.035L26.8304 115.726C26.7908 116.091 27.0282 116.451 27.3604 116.529C27.6926 116.607 27.9943 116.374 28.0339 116.009L29.7175 100.476C30.2159 100.683 30.8996 101.025 31.4277 101.527C32.0767 102.144 32.6582 102.951 33.1494 103.93C33.5924 104.807 33.9558 105.805 34.2279 106.892C34.319 107.258 34.6557 107.5 34.9766 107.432C35.2975 107.364 35.4865 107.009 35.3929 106.642C35.0938 105.44 34.6905 104.333 34.1923 103.35C33.6193 102.213 32.9347 101.265 32.1604 100.529C31.413 99.8186 30.4664 99.3734 29.86 99.1385L31.323 85.6414C32.0031 85.8801 33.0613 86.319 33.8696 86.9461C34.7462 87.6272 35.5311 88.4931 36.2065 89.526C36.8059 90.4406 37.3041 91.4699 37.6873 92.5806C37.8114 92.9382 38.1644 93.1434 38.4743 93.0398C38.7845 92.9336 38.9364 92.5568 38.8146 92.1997C38.3906 90.9653 37.8332 89.8217 37.1641 88.7985C36.3975 87.6274 35.5023 86.6405 34.5006 85.8621C33.4988 85.0836 32.2211 84.5741 31.4715 84.3164L34.2351 58.8204C34.2747 58.4551 34.0372 58.0952 33.705 58.0171C33.3728 57.939 33.0711 58.1721 33.0315 58.5373L29.6336 89.8859C29.6336 89.8859 29.624 89.8837 29.6192 89.8825C28.88 89.7793 27.4602 89.6463 26.2777 89.9437C25.1612 90.224 24.0995 90.7507 23.1258 91.5125C22.2712 92.1774 21.502 93.0118 20.8384 93.9876C20.6448 94.2706 20.7095 94.6984 20.9842 94.9421L20.9794 94.941Z" fill="#38372F"/>
<defs>
<clipPath id="clip0_50_2">
<rect width="35.9862" height="54.6479" fill="white" transform="matrix(-0.985206 0.171374 -0.108024 -0.994148 325.357 122.428)"/>
</clipPath>
<clipPath id="clip1_50_2">
<rect width="56.9708" height="54.0113" fill="white" transform="translate(289.01 129.927) rotate(168.199)"/>
</clipPath>
<clipPath id="clip2_50_2">
<rect width="32.5548" height="54.7512" fill="white" transform="translate(199.908 146.734) rotate(178.573)"/>
</clipPath>
<clipPath id="clip3_50_2">
<rect width="37.7339" height="46.6125" fill="white" transform="translate(140.746 135.969) rotate(-166.862)"/>
</clipPath>
<clipPath id="clip4_50_2">
<rect width="36.033" height="64.553" fill="white" transform="matrix(-0.991935 -0.126749 0.054504 -0.998513 93.4272 140.129)"/>
</clipPath>
</defs>
</svg>
