<svg width="33" height="43" viewBox="0 0 33 43" fill="none" xmlns="http://www.w3.org/2000/svg">
<g clip-path="url(#clip0_22_24)">
<path d="M1.36132 13.8034C1.59302 9.11345 3.59017 5.40087 5.62102 5.50121C7.65186 5.60154 6.68467 9.365 6.45297 14.0549C6.22127 18.7448 7.29786 22.6093 5.26702 22.5089C3.23618 22.4086 1.13123 18.4934 1.36293 13.8034L1.36132 13.8034Z" fill="#DF4942"/>
<path d="M32.3235 15.333C32.5552 10.6431 30.9337 6.75174 28.9028 6.65141C26.872 6.55108 27.4635 10.3915 27.2318 15.0815C27.0001 19.7714 25.5479 23.5109 27.5787 23.6112C29.6095 23.7115 32.0918 20.0229 32.3235 15.333Z" fill="#DF4942"/>
<path d="M14.7166 0.88692L20.6943 1.18224C26.36 1.46215 30.7225 6.33478 30.4395 12.0631L30.3047 14.7907C29.9392 22.1902 23.712 27.8953 16.3955 27.5338C9.07894 27.1724 3.44444 20.8813 3.81001 13.4817L3.94477 10.7541C4.22785 5.02419 9.05093 0.607012 14.715 0.88684L14.7166 0.88692Z" fill="#2EAC94"/>
<path d="M16.6875 17.721C9.28007 17.355 3.00694 22.4878 2.67605 29.1854C2.34516 35.883 8.08181 41.6091 15.4892 41.9751C22.8966 42.3411 29.1697 37.2083 29.5006 30.5107C29.8315 23.8131 24.0949 18.087 16.6875 17.721Z" fill="#2EAC94"/>
<path d="M17.2888 5.54979C12.1862 5.2977 7.81328 9.87926 7.52161 15.783C7.22994 21.6867 11.1299 26.677 16.2325 26.9291C21.3351 27.1812 25.708 22.5996 25.9997 16.6959C26.2913 10.7922 22.3913 5.80188 17.2888 5.54979Z" fill="#E6E1C8"/>
<path d="M10.4792 38.1672C12.5003 38.267 14.3736 37.4891 15.7753 36.1503C17.0382 37.6208 18.8257 38.5795 20.8468 38.6794C24.9198 38.8806 28.3955 35.523 28.6102 31.1781C28.8248 26.8333 25.697 23.1494 21.624 22.9482C19.6029 22.8484 17.7296 23.6262 16.3279 24.9651C15.065 23.4946 13.2775 22.5359 11.2564 22.436C7.18338 22.2348 3.7077 25.5924 3.49305 29.9372C3.27839 34.2821 6.40619 37.9659 10.4792 38.1672Z" fill="#E6E1C8"/>
<path d="M10.5809 36.11C13.0063 36.2298 15.1433 34.6404 15.9637 32.3385C16.5532 34.7101 18.5232 36.5024 20.9485 36.6222C23.956 36.7708 26.5227 34.2912 26.6812 31.0828C26.8398 27.8744 24.5299 25.1539 21.5225 25.0053C19.0971 24.8855 16.9601 26.4749 16.1397 28.7769C15.5501 26.4053 13.5802 24.613 11.1548 24.4931C8.14736 24.3446 5.5806 26.8241 5.42209 30.0325C5.26359 33.2409 7.57344 35.9614 10.5809 36.11Z" fill="#DF4942"/>
<path d="M11.9814 27.4469C10.4196 27.3698 9.08922 28.6067 9.01003 30.2098C8.93083 31.8128 10.1328 33.1749 11.6946 33.2521C13.2565 33.3292 14.5868 32.0923 14.666 30.4892C14.7452 28.8862 13.5433 27.5241 11.9814 27.4469Z" fill="#E6E1C8"/>
<path d="M20.4104 27.8634C18.8485 27.7862 17.5182 29.0232 17.439 30.6262C17.3598 32.2293 18.5617 33.5914 20.1236 33.6685C21.6854 33.7457 23.0157 32.5087 23.0949 30.9056C23.1741 29.3026 21.9722 27.9405 20.4104 27.8634Z" fill="#E6E1C8"/>
<path d="M12.6601 28.9968C11.901 28.9593 11.2549 29.5512 11.217 30.3188C11.1791 31.0865 11.7637 31.7392 12.5227 31.7767C13.2818 31.8142 13.9278 31.2223 13.9658 30.4546C14.0037 29.687 13.4191 29.0343 12.6601 28.9968Z" fill="#38372F"/>
<path d="M19.5838 29.3388C18.8247 29.3013 18.1786 29.8932 18.1407 30.6609C18.1028 31.4285 18.6874 32.0812 19.4464 32.1187C20.2055 32.1562 20.8515 31.5643 20.8895 30.7967C20.9274 30.029 20.3428 29.3763 19.5838 29.3388Z" fill="#38372F"/>
<path d="M14.0098 26.0866L16.4005 23.5278L18.5274 26.3098L16.1367 28.8685L14.0098 26.0866Z" fill="#38372F"/>
<path d="M16.7272 16.9165L17.9879 20.1048L15.1583 19.965L16.7272 16.9165Z" fill="#2EAC94"/>
<path d="M12.5911 16.7121L13.8518 19.9005L11.0222 19.7607L12.5911 16.7121Z" fill="#2EAC94"/>
<path d="M14.8076 12.2022L16.0699 15.3906L13.2387 15.2508L14.8076 12.2022Z" fill="#2EAC94"/>
<path d="M19.1005 12.4143L17.5316 15.4628L20.3612 15.6026L19.1005 12.4143Z" fill="#2EAC94"/>
<path d="M20.8616 17.1207L19.2927 20.1693L22.1223 20.3091L20.8616 17.1207Z" fill="#2EAC94"/>
</g>
<defs>
<clipPath id="clip0_22_24">
<rect width="31" height="41" fill="white" transform="translate(30.9695 42.7399) rotate(-177.172)"/>
</clipPath>
</defs>
</svg>
