<svg width="162" height="170" viewBox="0 0 162 170" fill="none" xmlns="http://www.w3.org/2000/svg">
<g clip-path="url(#clip0_32_60)">
<path d="M36.0538 36.6921C36.0538 36.6921 34.8508 41.6285 34.5812 48.3566C37.7484 46.3471 42.9984 43.0194 46.3161 40.9217L36.0538 36.6921Z" fill="#38372F"/>
<path d="M113.125 128.293C111.044 127.435 108.87 127.177 106.783 127.432C111.243 113.661 102.944 95.1464 85.848 84.5759C85.378 84.2866 84.9054 84.0144 84.4319 83.7555L85.1186 67.6691C89.0646 69.7553 93.6376 71.4397 98.5322 71.8451C113.629 73.0903 125.008 60.2998 125.008 60.2998L85.3588 58.0193C90.8731 57.4643 97.2603 55.9441 102.672 52.2913C115.209 43.8395 116.044 26.7396 116.044 26.7396L77.8276 53.9136L46.3145 40.9255C42.9951 43.0271 37.7468 46.3509 34.5796 48.3604C34.2767 55.8898 35.8095 64.4854 40.8331 72.0928C42.7627 75.0145 47.0501 79.2541 50.3827 81.4654L22.6514 126.239C22.6514 126.239 21.4226 125.673 18.7567 126.3C16.0908 126.927 16.0752 130.8 16.0752 130.8L28.1962 135.796L38.3862 124.195C39.2175 127.543 40.5235 130.759 42.2621 133.734C40.752 133.33 39.4928 133.093 38.6303 133.102C35.4227 133.137 33.0423 137.793 33.0423 137.793L62.2671 149.838L62.2818 149.78C79.0144 155.934 89.3913 152.903 96.6087 145.223C97.8775 148.141 100.232 150.586 103.399 151.891C109.885 154.565 117.322 151.451 120.007 144.935C122.693 138.42 119.609 130.97 113.123 128.297L113.125 128.293Z" fill="#E6E1C8"/>
<path d="M62.4307 59.4831C63.4951 58.003 63.1533 55.9394 61.6673 54.8741C60.1812 53.8087 58.1137 54.1449 57.0492 55.6251C55.9848 57.1053 56.3266 59.1688 57.8127 60.2342C59.2987 61.2995 61.3663 60.9633 62.4307 59.4831Z" fill="#38372F"/>
<path d="M36.587 62.3106C36.2746 62.1819 36.1179 61.8304 36.2306 61.5126C36.3482 61.1831 36.7104 61.0137 37.0409 61.1317C38.3943 61.6166 39.2164 61.7278 40.0339 61.7505C40.7166 61.7678 41.8546 61.7997 42.8223 61.5246C43.8253 61.2413 44.7395 60.7302 45.5357 60.0065C45.7966 59.7726 46.1955 59.7912 46.4306 60.0521C46.6657 60.3129 46.6479 60.7108 46.387 60.9448C45.4414 61.7981 44.3601 62.4043 43.17 62.7425C42.0169 63.0687 40.7064 63.034 40.001 63.0164C39.1874 62.9953 38.2146 62.8949 36.6127 62.3258C36.6049 62.3226 36.5932 62.3177 36.5854 62.3145L36.587 62.3106Z" fill="#38372F"/>
</g>
<defs>
<clipPath id="clip0_32_60">
<rect width="118.866" height="134.303" fill="white" transform="translate(51.1764) rotate(22.3989)"/>
</clipPath>
</defs>
</svg>
