<svg width="114" height="108" viewBox="0 0 114 108" fill="none" xmlns="http://www.w3.org/2000/svg">
<g clip-path="url(#clip0_32_87)">
<path d="M27.4309 79.8494L33.8371 79.4963L34.0412 72.9726C34.1852 68.3711 32.4879 63.9983 29.3369 60.8637L26.7316 58.2706C23.6888 55.2431 18.6938 55.4254 15.5687 58.6753L12.973 61.3738C9.84789 64.6236 9.78069 69.7132 12.8234 72.7406L15.4288 75.3337C18.5804 78.4716 22.9112 80.1007 27.4315 79.8526L27.4309 79.8494Z" fill="#2EAC94"/>
<path d="M12.3861 61.1133L13.0851 60.3875L10.0809 58.0602L12.2523 55.8029L14.6043 58.8055L15.3033 58.0797C18.8161 54.4234 24.4362 54.2216 27.8577 57.624L29.3917 59.1505L13.7506 75.4235L12.2166 73.897C8.79828 70.494 8.87332 64.7696 12.3861 61.1133Z" fill="#38372F"/>
<path d="M20.5824 58.5198C19.46 59.1181 18.5462 57.3451 19.6718 56.7461C20.7941 56.1478 21.7079 57.9209 20.5824 58.5198Z" fill="#E6E1C8"/>
<path d="M25.0784 61.9092C23.9561 62.5075 23.0423 60.7344 24.1678 60.1355C25.2934 59.5365 26.204 61.3102 25.0784 61.9092Z" fill="#E6E1C8"/>
<path d="M20.753 61.7563C19.6307 62.3546 18.7168 60.5816 19.8424 59.9826C20.9679 59.3837 21.8786 61.1574 20.753 61.7563Z" fill="#E6E1C8"/>
<path d="M16.1489 62.6277C15.0265 63.226 14.1127 61.4529 15.2383 60.854C16.3638 60.255 17.2744 62.0287 16.1489 62.6277Z" fill="#E6E1C8"/>
<path d="M20.0617 66.3308C18.9394 66.9291 18.0255 65.1561 19.1511 64.5571C20.2766 63.9581 21.1873 65.7318 20.0617 66.3308Z" fill="#E6E1C8"/>
<path d="M15.5766 67.5486C14.4543 68.1469 13.5404 66.3738 14.666 65.7749C15.7915 65.1759 16.7022 66.9496 15.5766 67.5486Z" fill="#E6E1C8"/>
<path d="M12.5611 66.8169C11.4388 67.4152 10.5249 65.6421 11.6505 65.0432C12.776 64.4442 13.6867 66.2179 12.5611 66.8169Z" fill="#E6E1C8"/>
<path d="M15.7505 70.5323C16.4382 71.705 14.5616 72.7 14.0075 71.459C13.3997 70.3175 15.1767 69.377 15.7505 70.5323Z" fill="#E6E1C8"/>
<path d="M37.5755 95.7562C38.9748 93.6371 41.4199 92.6751 41.4199 92.6751C41.4199 92.6751 40.0079 91.7125 38.5454 89.8888C37.0204 87.986 36.2219 85.2429 35.8728 83.1972C35.5952 81.5793 35.4621 78.4305 36.998 74.6562C37.158 74.2659 37.4186 73.6234 37.7806 72.9022C37.3203 71.6112 36.882 70.3124 36.4629 69.0266C36.366 69.1452 36.2723 69.2632 36.1767 69.3714C35.0499 70.7059 33.8324 72.0216 32.4238 73.2337C31.8921 73.6902 31.3309 74.1323 30.7439 74.5457C30.3894 75.473 29.7201 76.2812 28.7854 76.7797C26.7373 77.8712 24.2053 77.0639 23.1353 74.9757C22.0627 72.8914 22.856 70.3148 24.908 69.2259C25.6885 68.8101 26.5378 68.6731 27.3508 68.7749C27.4445 68.657 27.5395 68.5455 27.6318 68.421C28.4337 67.3541 29.1626 66.1388 29.8413 64.8555C30.0169 64.5266 30.1643 64.241 30.3149 63.9377C30.4622 63.6351 30.6031 63.3338 30.7363 63.0273C31.0027 62.4142 31.2369 61.7908 31.4396 61.1602C31.845 59.899 32.1346 58.6106 32.3065 57.3191C32.3408 57.0703 32.3988 56.7895 32.4768 56.542C32.5439 56.3239 32.6271 56.1196 32.7213 55.9198C32.2134 53.8999 31.9385 52.6662 31.9385 52.6662C31.9385 52.6662 23.7987 53.7739 17.6892 50.0762C10.5947 45.781 5.9892 37.7777 5.9892 37.7777L33.4844 23.1503C33.268 22.616 33.1287 22.0319 33.1121 21.3919C33.025 18.4413 35.4552 16.0389 37.7577 15.1164C40.5594 13.996 43.1067 15.0997 43.8056 15.402C46.4848 16.5638 49.2269 19.3739 49.2804 22.9986C49.2885 23.545 49.3295 26.2804 47.4208 27.9901C47.2591 28.1357 47.0908 28.2656 46.9168 28.3831C49.1715 29.8669 51.6556 31.6135 54.2535 33.6294C53.9023 31.8598 53.6869 29.7288 53.878 27.3372C54.364 21.3071 56.4267 16.9343 58.2098 14.3892C60.4976 11.1173 63.9019 7.55474 69.0019 5.72709C74.1328 3.88629 78.6996 5.15373 80.7309 5.74737C86.0718 7.30849 89.4495 10.5905 91.0702 12.4702C92.9301 14.6276 96.0556 18.2576 96.0779 23.0734C96.1006 28.4305 93.4194 33.5806 93.4194 33.5806C93.4194 33.5806 97.8553 35.7056 101.541 39.6971C105.341 43.8114 105.808 49.1997 105.981 51.1966C106.086 52.4208 106.226 56.6985 103.99 61.8661C101.911 66.6781 98.731 69.2992 96.3914 71.3153C94.3638 73.0664 89.791 75.5789 86.1117 77.5367L38.3109 102.968C38.3109 102.968 36.852 100.994 36.7291 99.2288C36.6843 98.5981 36.686 97.1066 37.5755 95.7562Z" fill="#DF4942"/>
<path d="M31.6126 38.2957C32.0511 38.2634 32.4877 38.2724 32.9193 38.3233L32.9257 38.322C35.1763 38.588 37.2656 39.9459 38.3937 42.1413C40.2046 45.6704 38.8641 50.0241 35.3994 51.8664C34.9002 52.1323 33.9914 52.7446 31.7216 52.9047C27.3339 53.2141 22.6042 52.8788 17.8566 50.1608C10.6602 46.0432 5.99434 37.7697 5.99434 37.7697L31.6151 38.2917L31.6126 38.2957Z" fill="#E6E1C8"/>
<path d="M12.8903 34.1025L11.0491 44.6153C11.0491 44.6153 9.90333 43.6456 8.58176 41.8577C7.2602 40.0697 5.99173 37.7738 5.99173 37.7738L12.8903 34.1025Z" fill="#38372F"/>
<path d="M24.443 36.3628C24.5683 37.7927 25.809 38.8486 27.2142 38.721C28.6193 38.5935 29.6568 37.3309 29.5315 35.9009C29.4062 34.471 28.1655 33.4152 26.7603 33.5427C25.3552 33.6702 24.3177 34.9328 24.443 36.3628Z" fill="#38372F"/>
<path d="M19.1181 49.7078C20.7311 49.155 21.9468 47.5605 22.1109 45.8417C22.1715 45.2028 23.1567 45.2455 23.0936 45.8882C22.8815 48.0901 21.377 49.9822 19.3256 50.6864C19.075 50.7719 18.7923 50.5441 18.741 50.3027C18.6801 50.0122 18.8642 49.794 19.1181 49.7078Z" fill="#38372F"/>
<path d="M87.2642 40.694C88.3473 40.1173 89.6839 39.2333 90.958 37.9161C91.9497 36.8953 92.7893 35.7321 93.4596 34.4574C93.5885 34.213 93.4985 33.9115 93.2584 33.7804C93.0183 33.6494 92.722 33.7409 92.5932 33.9852C91.9658 35.1729 91.1813 36.26 90.2564 37.2127C88.1877 39.3467 85.9554 40.2685 85.0904 40.562C84.26 40.8449 82.0519 41.6017 79.1745 41.0935C77.6904 40.8299 75.506 40.1384 73.5175 38.3275C72.5416 37.4387 70.9081 35.9497 70.3722 33.3671C69.8389 30.7975 70.718 28.7037 71.1184 27.9235C72.4045 25.4192 74.0735 24.5077 75.2478 24.1881C75.7459 24.0517 76.9164 23.7295 78.1758 24.2604C79.1135 24.6533 79.7038 25.3354 80.0346 25.8393C80.1842 26.0707 80.4937 26.1296 80.7178 25.978C80.9452 25.8258 81.0038 25.5142 80.8541 25.2828C80.4472 24.6651 79.7184 23.8243 78.551 23.3357C76.982 22.6777 75.5859 23.0599 74.9927 23.2227C73.6281 23.595 71.7002 24.6346 70.2475 27.4625C69.7958 28.3383 68.8136 30.6882 69.4099 33.575C70.0126 36.4775 71.8632 38.167 72.8597 39.0754C75.0234 41.0444 77.3945 41.7997 79.0065 42.0846C82.1303 42.6375 84.5955 41.7939 85.4034 41.5155C85.798 41.38 86.4631 41.1241 87.2616 40.6979L87.2642 40.694Z" fill="#E6E1C8"/>
<path d="M87.8413 23.3057C87.8683 23.2899 87.8921 23.2748 87.9184 23.2558C88.1322 23.0859 88.1702 22.7717 88.0033 22.5541L84.2001 17.6165C84.0332 17.3989 83.7244 17.3602 83.5106 17.5301C83.2968 17.7 83.2588 18.0142 83.4257 18.2318L87.2289 23.1694C87.3778 23.3635 87.639 23.4153 87.8445 23.305L87.8413 23.3057Z" fill="#E6E1C8"/>
<path d="M91.6459 18.8777C91.6703 18.8659 91.6941 18.8508 91.714 18.8331C91.9317 18.6658 91.9736 18.3542 91.8092 18.1327L88.5169 13.6961C88.3525 13.4746 88.0431 13.4326 87.8286 13.5992C87.6109 13.7665 87.5691 14.0781 87.7335 14.2996L91.0257 18.7362C91.1721 18.9343 91.4371 18.9887 91.6459 18.8777Z" fill="#E6E1C8"/>
<path d="M84.3063 10.667C84.3943 10.6217 84.4694 10.545 84.5169 10.4468C84.6386 10.2005 84.5384 9.89766 84.2963 9.77378L78.9275 7.04391C78.6855 6.92003 78.3911 7.02137 78.2662 7.26832C78.1445 7.51461 78.2447 7.81742 78.4867 7.9413L83.8555 10.6712C84.001 10.7468 84.1669 10.7399 84.3031 10.6677L84.3063 10.667Z" fill="#E6E1C8"/>
<path d="M81.2235 14.1976C81.3263 14.1424 81.409 14.0539 81.4551 13.9321C81.5511 13.674 81.4264 13.3829 81.1729 13.2852L75.6789 11.1386C75.4253 11.0409 75.1394 11.1678 75.0434 11.4259C74.9474 11.6839 75.0721 11.975 75.3257 12.0727L80.8197 14.2193C80.9574 14.2727 81.102 14.26 81.2228 14.1943L81.2235 14.1976Z" fill="#E6E1C8"/>
<path d="M78.0707 17.7629C78.2011 17.6953 78.2993 17.5661 78.3253 17.411C78.375 17.1386 78.1996 16.8784 77.932 16.8278L73.9106 16.0675C73.643 16.0169 73.3874 16.1954 73.3378 16.4678C73.2881 16.7402 73.4635 17.0004 73.7311 17.051L77.7525 17.8113C77.8637 17.8327 77.9769 17.8129 78.0707 17.7629Z" fill="#E6E1C8"/>
<path d="M70.7642 9.44979C70.964 9.34404 71.0736 9.10361 71.0114 8.87462C70.9382 8.60704 70.6698 8.45111 70.4069 8.52556L65.3099 9.94755C65.0464 10.0187 64.8939 10.2952 64.967 10.5628C65.0402 10.8304 65.3087 10.9863 65.5715 10.9119L70.6685 9.4899C70.7039 9.48263 70.7373 9.46555 70.7675 9.44913L70.7642 9.44979Z" fill="#E6E1C8"/>
<path d="M70.9916 13.7982C71.2093 13.682 71.3137 13.4154 71.2226 13.1754C71.1243 12.9165 70.8412 12.7874 70.5867 12.8874L66.9829 14.2986C66.7285 14.3986 66.6017 14.6868 66.6999 14.9457C66.7981 15.2047 67.0813 15.3337 67.3358 15.2338L70.9395 13.8225C70.9588 13.8186 70.9736 13.8087 70.9916 13.7982Z" fill="#E6E1C8"/>
<path d="M63.6932 43.1856C63.7446 43.158 63.7909 43.1212 63.8319 43.0754C64.0123 42.8715 63.9963 42.5548 63.7953 42.368L56.052 35.2921C55.8478 35.1059 55.5372 35.1255 55.3569 35.3294C55.1766 35.5332 55.1926 35.85 55.3936 36.0367L63.1369 43.1127C63.2927 43.2577 63.5172 43.2762 63.6932 43.1856Z" fill="#E6E1C8"/>
<path d="M74.7858 55.643C74.8128 55.6273 74.8398 55.6115 74.8629 55.5932C75.0767 55.4233 75.1141 55.1058 74.9439 54.8889L67.983 45.9058C67.816 45.6882 67.5041 45.6501 67.2909 45.8233C67.077 45.9932 67.0397 46.3107 67.2099 46.5276L74.1708 55.5107C74.3191 55.7015 74.5802 55.7534 74.7858 55.643Z" fill="#E6E1C8"/>
<path d="M80.8785 68.0727C81.1021 67.9518 81.2045 67.6755 81.1031 67.4342L77.8839 59.7417C77.7767 59.488 77.489 59.3701 77.2391 59.4759C76.9872 59.589 76.8739 59.8778 76.9779 60.1321L80.197 67.8246C80.3043 68.0783 80.5919 68.1962 80.8419 68.0904C80.8547 68.0878 80.8663 68.0786 80.8785 68.0727Z" fill="#E6E1C8"/>
<path d="M63.0309 48.4622C63.0765 48.4392 63.117 48.407 63.1529 48.369C63.3448 48.173 63.3417 47.8536 63.1465 47.6622L56.8116 41.3284C56.6196 41.1363 56.309 41.1389 56.1171 41.3349C55.9252 41.5309 55.9283 41.8503 56.1235 42.0417L62.4584 48.3756C62.613 48.531 62.8465 48.5613 63.0309 48.4622Z" fill="#E6E1C8"/>
<path d="M73.9503 62.1874C73.9747 62.1756 73.9952 62.1612 74.0158 62.1467C74.2341 61.9827 74.2785 61.6672 74.1174 61.445L68.8516 54.2446C68.6904 54.0224 68.3804 53.9772 68.1621 54.1412C67.9437 54.3052 67.8993 54.6208 68.0604 54.8429L73.3262 62.0433C73.4732 62.2446 73.7382 62.2991 73.947 62.1881L73.9503 62.1874Z" fill="#E6E1C8"/>
<path d="M56.7251 49.2713C56.7707 49.2483 56.8112 49.2161 56.8471 49.1781C57.039 48.9821 57.0365 48.666 56.8439 48.4707L51.6203 43.2191C51.4277 43.0237 51.1171 43.0263 50.9251 43.2223C50.7332 43.4184 50.7357 43.7345 50.9284 43.9298L56.152 49.1814C56.3066 49.3368 56.5401 49.3671 56.7245 49.268L56.7251 49.2713Z" fill="#E6E1C8"/>
<path d="M66.3848 59.4802C66.4117 59.4644 66.4387 59.4486 66.4618 59.4303C66.675 59.2571 66.7098 58.9436 66.5429 58.726L61.3662 52.0758C61.196 51.8588 60.8879 51.8234 60.6741 51.9933C60.4609 52.1665 60.4261 52.48 60.5931 52.6976L65.7697 59.3478C65.918 59.5386 66.1792 59.5905 66.3815 59.4808L66.3848 59.4802Z" fill="#E6E1C8"/>
<path d="M72.6713 70.3413C72.6713 70.3413 72.6861 70.3315 72.6951 70.3262C72.9276 70.1831 73.0042 69.878 72.8668 69.6407L69.5343 63.9562C69.3937 63.7196 69.0919 63.6488 68.8607 63.7814C68.6281 63.9246 68.5515 64.2297 68.6889 64.4669L72.0214 70.1515C72.1569 70.3789 72.4406 70.4602 72.6706 70.338L72.6713 70.3413Z" fill="#E6E1C8"/>
</g>
<defs>
<clipPath id="clip0_32_87">
<rect width="98.032" height="89.2449" fill="white" transform="matrix(-0.97953 0.201297 -0.194642 -0.980874 113.396 87.5381)"/>
</clipPath>
</defs>
</svg>
