<svg width="65" height="50" viewBox="0 0 65 50" fill="none" xmlns="http://www.w3.org/2000/svg">
<g clip-path="url(#clip0_41_880)">
<path d="M57.6688 33.6108L53.842 35.342L51.7759 31.7047C50.3183 29.1389 50.0001 26.1484 50.8945 23.4204L51.634 21.1642C52.4983 18.5301 55.4566 17.1256 58.2407 18.0264L60.554 18.7735C63.3402 19.6743 64.8968 22.5389 64.0347 25.1729L63.2951 27.4291C62.4007 30.1571 60.3691 32.3899 57.671 33.6087L57.6688 33.6108Z" fill="#2EAC94"/>
<path d="M60.8184 18.4533L60.1949 18.2527L61.2441 16.0263L59.3092 15.4009L58.8383 17.8129L58.2149 17.6123C55.0825 16.6005 51.7566 18.1801 50.7848 21.1407L50.3484 22.4684L64.2926 26.9766L64.729 25.6489C65.7008 22.6883 63.9486 19.4651 60.8162 18.4533H60.8184Z" fill="#38372F"/>
<path d="M55.2825 19.4544C56.1123 19.4544 56.1145 18.1736 55.2825 18.1736C54.4504 18.1736 54.4504 19.4544 55.2825 19.4544Z" fill="#E6E1C8"/>
<path d="M53.6809 22.7331C54.5108 22.7331 54.5129 21.4523 53.6809 21.4523C52.8489 21.4523 52.8489 22.7331 53.6809 22.7331Z" fill="#E6E1C8"/>
<path d="M56.1489 21.3413C56.9788 21.3413 56.9809 20.0606 56.1489 20.0606C55.3169 20.0606 55.3169 21.3413 56.1489 21.3413Z" fill="#E6E1C8"/>
<path d="M59.0835 20.447C59.9133 20.447 59.9155 19.1663 59.0835 19.1663C58.2515 19.1663 58.2515 20.447 59.0835 20.447Z" fill="#E6E1C8"/>
<path d="M57.916 23.7257C58.7459 23.7257 58.748 22.4449 57.916 22.4449C57.084 22.4449 57.084 23.7257 57.916 23.7257Z" fill="#E6E1C8"/>
<path d="M60.885 23.0639C61.7149 23.0639 61.717 21.7832 60.885 21.7832C60.053 21.7832 60.053 23.0639 60.885 23.0639Z" fill="#E6E1C8"/>
<path d="M62.4202 21.7384C63.25 21.7384 63.2522 20.4576 62.4202 20.4576C61.5881 20.4576 61.5881 21.7384 62.4202 21.7384Z" fill="#E6E1C8"/>
<path d="M61.6741 24.8079C61.6247 25.6788 63.0114 25.6788 62.9641 24.8079C62.977 23.9775 61.6634 23.9797 61.6741 24.8079Z" fill="#E6E1C8"/>
<path d="M56.5229 45.6904C55.076 44.9113 53.369 45.1034 53.369 45.1034C53.369 45.1034 53.9022 44.1322 54.2075 42.6572C54.5256 41.1182 54.1709 39.323 53.7646 38.0572C53.4421 37.0582 52.58 35.2311 50.5612 33.5554C50.3527 33.3825 50.0087 33.0965 49.583 32.7977C49.4648 31.9268 49.3315 31.058 49.1918 30.2042C49.2842 30.2426 49.3745 30.281 49.4626 30.313C50.5161 30.7314 51.6147 31.1092 52.795 31.3696C53.24 31.4678 53.6979 31.5489 54.1623 31.6066C54.646 32.025 55.276 32.2811 55.9661 32.2811C57.4818 32.2811 58.7115 31.0601 58.7115 29.5553C58.7115 28.0504 57.4818 26.8294 55.9661 26.8294C55.3878 26.8294 54.8524 27.0066 54.4117 27.3097C54.3214 27.2713 54.2333 27.235 54.143 27.1944C53.3583 26.8316 52.5735 26.362 51.7953 25.839C51.5953 25.7066 51.4233 25.5871 51.2449 25.4633C51.0686 25.3374 50.8966 25.2072 50.7289 25.0727C50.3914 24.8059 50.0689 24.522 49.7636 24.2274C49.1509 23.634 48.5984 22.9915 48.1125 22.3106C48.0179 22.1782 47.8997 22.0395 47.7814 21.9199C47.6782 21.8175 47.5686 21.7257 47.4546 21.6403C47.145 20.3425 46.9387 19.5591 46.9387 19.5591C46.9387 19.5591 51.9974 17.7319 54.444 13.7936C57.284 9.21928 57.5721 3.2916 57.5721 3.2916H37.2297C37.1953 2.92445 37.1007 2.55091 36.9223 2.18163C36.0924 0.482515 33.9619 -0.147181 32.3516 0.0257184C30.3887 0.234906 29.2386 1.62878 28.9225 2.01086C27.7121 3.47731 26.9575 5.8979 28.0088 7.96843C28.1679 8.28007 28.9612 9.84471 30.5801 10.2375C30.7177 10.2716 30.8553 10.293 30.9907 10.3079C30.1222 11.8277 29.202 13.5674 28.2926 15.4949C27.9701 14.3871 27.4584 13.1127 26.6329 11.8149C24.5496 8.54262 22.0471 6.68769 20.252 5.7805C17.9451 4.61503 14.903 3.62459 11.3966 4.12408C7.86642 4.62784 5.58968 6.72398 4.58783 7.67386C1.94561 10.1692 0.960954 13.0508 0.580422 14.6048C0.143993 16.3871 -0.589122 19.3905 0.83626 22.127C2.42288 25.1709 5.51874 27.2819 5.51874 27.2819C5.51874 27.2819 3.57523 29.8242 2.62497 33.199C1.64247 36.6804 2.97971 39.8737 3.47633 41.0584C3.77947 41.7842 4.97481 44.2517 7.81698 46.508C10.4614 48.6084 13.0928 49.1356 15.0514 49.5732C16.752 49.9531 20.1595 50.0001 22.8835 50.0001H58.2493C58.2493 50.0001 58.5073 48.4419 58.0515 47.4045C57.8881 47.0331 57.4431 46.1878 56.5229 45.6926V45.6904Z" fill="#DF4942"/>
<path d="M42.8367 11.3175C42.5723 11.4327 42.3207 11.5672 42.0842 11.7273H42.0821C40.8524 12.5576 40.0461 13.9558 40.0461 15.5418C40.0461 18.0883 42.1251 20.1524 44.6899 20.1524C45.0576 20.1524 45.7692 20.225 47.1365 19.6316C49.7787 18.4832 52.4274 16.8673 54.3731 13.896C57.3249 9.39209 57.5678 3.29364 57.5678 3.29364L42.8367 11.3175Z" fill="#E6E1C8"/>
<path d="M52.4639 3.29364L56.6712 8.69835C56.6712 8.69835 57.0474 7.80397 57.2818 6.39089C57.5161 4.97781 57.5677 3.29577 57.5677 3.29577H52.4639V3.29364Z" fill="#38372F"/>
<path d="M45.5181 10.2319C46.3726 9.8805 46.7784 8.9078 46.4244 8.05936C46.0705 7.21091 45.0908 6.808 44.2363 7.15944C43.3817 7.51088 42.9759 8.48358 43.3299 9.33203C43.6838 10.1805 44.6635 10.5834 45.5181 10.2319Z" fill="#38372F"/>
<path d="M53.5044 14.0177C52.4015 14.1906 51.2191 13.6527 50.6106 12.7284C50.3849 12.3848 49.8259 12.7049 50.0538 13.0507C50.8342 14.2354 52.2725 14.8523 53.6742 14.6324C53.8462 14.6047 53.943 14.3912 53.9 14.2376C53.8505 14.0561 53.6764 13.9878 53.5023 14.0134L53.5044 14.0177Z" fill="#38372F"/>
<path d="M11.216 29.4613C10.4141 29.4613 9.37357 29.3631 8.24058 29.0002C7.36127 28.7184 6.52281 28.3129 5.7553 27.7942C5.6091 27.6938 5.5704 27.4953 5.6693 27.3502C5.77034 27.205 5.97028 27.1666 6.11648 27.2648C6.83454 27.7493 7.61496 28.1293 8.43622 28.3918C10.2765 28.9788 11.8481 28.8252 12.4393 28.7334C13.0069 28.6437 14.514 28.4068 16.0361 27.2499C16.8187 26.6543 17.8829 25.602 18.4977 23.9754C18.7987 23.1771 19.3039 21.8409 18.8439 20.2143C18.3859 18.5985 17.2529 17.6763 16.7864 17.354C15.2901 16.3209 14.0496 16.3102 13.2713 16.481C12.9403 16.5536 12.1663 16.7243 11.5901 17.4052C11.1623 17.9111 11.0225 18.4768 10.9817 18.861C10.9623 19.0361 10.8011 19.1641 10.627 19.1449C10.4507 19.1257 10.3217 18.9677 10.341 18.7927C10.3926 18.321 10.5646 17.623 11.0978 16.9933C11.8137 16.148 12.7382 15.9431 13.1316 15.8556C14.0346 15.657 15.4664 15.6613 17.1541 16.8268C17.6786 17.1875 18.9514 18.2228 19.4652 20.0393C19.9833 21.8665 19.4093 23.382 19.1019 24.1974C18.4332 25.967 17.2787 27.109 16.4295 27.7557C14.7784 29.0109 13.095 29.2756 12.5425 29.3631C12.2716 29.4058 11.8116 29.4591 11.2182 29.4591L11.216 29.4613Z" fill="#E6E1C8"/>
<path d="M5.6908 19.7768C5.67145 19.7768 5.6521 19.7768 5.63275 19.7703C5.45861 19.7383 5.34252 19.5718 5.37476 19.3968L6.11003 15.4521C6.14228 15.2792 6.30997 15.1618 6.48626 15.196C6.6604 15.228 6.7765 15.3945 6.74425 15.5695L6.00898 19.5142C5.98104 19.6679 5.84559 19.7768 5.69295 19.7768H5.6908Z" fill="#E6E1C8"/>
<path d="M2.15856 18.4127C2.14136 18.4127 2.12416 18.4127 2.10481 18.4085C1.92852 18.3786 1.81027 18.2142 1.84037 18.0392L2.42944 14.5321C2.45954 14.3571 2.62508 14.2397 2.80138 14.2695C2.97767 14.2994 3.09591 14.4638 3.06581 14.6388L2.47674 18.1459C2.45094 18.3017 2.31335 18.4127 2.15856 18.4127Z" fill="#E6E1C8"/>
<path d="M3.97302 11.5458C3.90853 11.5458 3.84188 11.5266 3.78383 11.4861C3.63979 11.3815 3.60754 11.1829 3.71074 11.0399L6.01543 7.87437C6.11862 7.73136 6.32071 7.69934 6.46475 7.8018C6.6088 7.90639 6.64105 8.10491 6.53785 8.24792L4.23316 11.4135C4.17081 11.501 4.07192 11.5458 3.97087 11.5458H3.97302Z" fill="#E6E1C8"/>
<path d="M6.81737 12.6174C6.74212 12.6174 6.66472 12.5918 6.60453 12.5363C6.47123 12.4189 6.45833 12.2161 6.57658 12.0837L9.12851 9.21062C9.24675 9.07828 9.45099 9.06547 9.58429 9.18287C9.71758 9.30027 9.73048 9.50306 9.61223 9.6354L7.06031 12.5085C6.99581 12.5811 6.90766 12.6174 6.81737 12.6174Z" fill="#E6E1C8"/>
<path d="M9.7132 13.6889C9.61861 13.6889 9.52186 13.6462 9.45952 13.5673C9.34987 13.4285 9.37352 13.2279 9.51326 13.1169L11.6223 11.4732C11.7621 11.3644 11.9641 11.3879 12.0759 11.5266C12.1856 11.6654 12.1619 11.866 12.0222 11.977L9.91314 13.6206C9.8551 13.6676 9.78415 13.6889 9.7132 13.6889Z" fill="#E6E1C8"/>
<path d="M11.4783 6.77083C11.3299 6.77083 11.1966 6.66837 11.1644 6.51895C11.1257 6.34605 11.2375 6.17528 11.4116 6.139L14.7977 5.40897C14.9719 5.37055 15.1439 5.48155 15.1804 5.65445C15.2191 5.82735 15.1073 5.99811 14.9332 6.0344L11.5471 6.76442C11.5234 6.76869 11.5019 6.77083 11.4783 6.77083Z" fill="#E6E1C8"/>
<path d="M12.6436 9.30458C12.4823 9.30458 12.3426 9.18504 12.3232 9.02068C12.3039 8.84565 12.4307 8.68556 12.607 8.66635L15.1203 8.37818C15.2965 8.35683 15.4578 8.48491 15.4771 8.65994C15.4965 8.83498 15.3696 8.99507 15.1934 9.01428L12.6801 9.30245C12.6672 9.30245 12.6543 9.30245 12.6436 9.30245V9.30458Z" fill="#E6E1C8"/>
<path d="M25.6568 23.762C25.6202 23.762 25.5815 23.7555 25.545 23.7427C25.3773 23.6808 25.2934 23.4973 25.3558 23.3308L27.7422 16.9847C27.8045 16.8182 27.9916 16.735 28.1571 16.7969C28.3248 16.8588 28.4087 17.0423 28.3463 17.2088L25.9599 23.5549C25.9105 23.683 25.7879 23.7641 25.6568 23.7641V23.762Z" fill="#E6E1C8"/>
<path d="M22.9285 34.1701C22.9092 34.1701 22.8898 34.1701 22.8683 34.1637C22.6942 34.1316 22.5781 33.963 22.6104 33.7901L23.9734 26.5966C24.0056 26.4237 24.1755 26.3085 24.3496 26.3405C24.5238 26.3725 24.6399 26.5411 24.6076 26.714L23.2446 33.9075C23.2145 34.0612 23.079 34.1679 22.9285 34.1679V34.1701Z" fill="#E6E1C8"/>
<path d="M23.0985 43.0563C22.9329 43.0563 22.7911 42.9282 22.7782 42.7617L22.3525 37.4317C22.3374 37.2545 22.4707 37.1008 22.6492 37.088C22.8298 37.0752 22.9824 37.2054 22.9953 37.3826L23.421 42.7126C23.436 42.8898 23.3027 43.0435 23.1243 43.0563C23.1157 43.0563 23.1071 43.0563 23.0985 43.0563Z" fill="#E6E1C8"/>
<path d="M27.6154 26.5561C27.5832 26.5561 27.5488 26.5518 27.5165 26.5412C27.3467 26.4878 27.2543 26.3064 27.308 26.1377L29.0989 20.637C29.1526 20.4683 29.3354 20.3765 29.5052 20.4299C29.675 20.4833 29.7675 20.6647 29.7137 20.8333L27.9229 26.3341C27.8777 26.4686 27.753 26.5561 27.6154 26.5561Z" fill="#E6E1C8"/>
<path d="M25.3666 37.6281C25.3494 37.6281 25.3322 37.6281 25.315 37.6238C25.1387 37.5961 25.0183 37.4317 25.0463 37.2567L25.9578 31.5873C25.9858 31.4122 26.1513 31.2948 26.3276 31.3205C26.5039 31.3482 26.6243 31.5126 26.5963 31.6876L25.6848 37.357C25.659 37.515 25.5214 37.626 25.3666 37.626V37.6281Z" fill="#E6E1C8"/>
<path d="M31.5217 25.111C31.4894 25.111 31.4572 25.1067 31.4228 25.096C31.253 25.0427 31.1605 24.8612 31.2143 24.6926L32.6826 20.1396C32.7364 19.9709 32.9191 19.8792 33.089 19.9325C33.2588 19.9859 33.3513 20.1673 33.2975 20.336L31.8291 24.889C31.7861 25.0256 31.6593 25.111 31.5217 25.111Z" fill="#E6E1C8"/>
<path d="M28.9549 33.8136C28.9355 33.8136 28.914 33.8136 28.8947 33.8072C28.7205 33.7731 28.6045 33.6066 28.6389 33.4337L29.6622 28.1037C29.6966 27.9286 29.8643 27.8177 30.0384 27.8497C30.2126 27.8838 30.3287 28.0503 30.2943 28.2232L29.2709 33.5532C29.2408 33.7069 29.1054 33.8136 28.9549 33.8136Z" fill="#E6E1C8"/>
<path d="M28.5441 41.8673C28.5441 41.8673 28.5312 41.8673 28.5269 41.8673C28.3484 41.8567 28.213 41.7072 28.2237 41.5301L28.4624 37.3036C28.4731 37.1265 28.6279 36.9963 28.8021 37.0027C28.9805 37.0133 29.116 37.1628 29.1052 37.3399L28.8666 41.5664C28.858 41.7371 28.7139 41.8695 28.5441 41.8695V41.8673Z" fill="#E6E1C8"/>
</g>
<defs>
<clipPath id="clip0_41_880">
<rect width="65" height="50" fill="white"/>
</clipPath>
</defs>
</svg>
