<svg width="80" height="172" viewBox="0 0 80 172" fill="none" xmlns="http://www.w3.org/2000/svg">
<g clip-path="url(#clip0_32_126)">
<path d="M40 132.789C62.0914 132.789 80 103.063 80 66.3951C80 29.7269 62.0914 0.00146484 40 0.00146484C17.9086 0.00146484 0 29.7269 0 66.3951C0 103.063 17.9086 132.789 40 132.789Z" fill="#2EAC94"/>
<path d="M63.0965 74.5844C62.2985 74.1516 61.296 74.4467 60.8607 75.2466C59.5153 77.712 57.8863 79.9085 56.0198 81.7837C53.916 83.8884 51.568 85.5407 49.0289 86.6882C46.5161 87.8225 43.2845 88.2683 41.4444 88.4322V55.0125C43.08 54.8224 46.0083 54.3109 48.3957 52.9078C50.6777 51.5702 52.7816 49.6687 54.6414 47.2493C56.2507 45.1577 57.6554 42.7055 58.803 39.9779C59.1526 39.1452 58.7568 38.1813 57.9192 37.8338C57.0817 37.4863 56.1122 37.8797 55.7626 38.7124C54.7206 41.1843 53.4675 43.3874 52.0231 45.2561C50.4205 47.3345 48.6398 48.9606 46.7272 50.0818C45.019 51.0784 42.8492 51.5178 41.4444 51.7079V27.7036C41.4444 26.7988 40.7057 26.0645 39.7956 26.0645C38.8854 26.0645 38.1468 26.7988 38.1468 27.7036V66.1786C36.7552 65.9623 34.8294 65.523 33.2729 64.6116C31.3603 63.4904 29.573 61.8709 27.977 59.7858C26.5392 57.9171 25.2795 55.7141 24.2375 53.2422C23.8879 52.4095 22.9184 52.0161 22.0808 52.3636C21.2432 52.7111 20.8409 53.6749 21.1971 54.5076C22.3446 57.2418 23.7428 59.6875 25.3587 61.7791C27.2185 64.1985 29.3224 66.1 31.6043 67.4375C33.8071 68.7292 36.465 69.2669 38.1534 69.4898V102.923C36.2671 102.733 33.3125 102.274 30.9712 101.218C28.432 100.07 26.0841 98.4247 23.9803 96.3135C22.1138 94.4448 20.4848 92.2417 19.1394 89.7764C18.7041 88.983 17.7016 88.688 16.9036 89.1142C16.1056 89.5469 15.8088 90.5435 16.2375 91.3369C17.728 94.0776 19.5483 96.5233 21.6324 98.6149C24.0198 101.008 26.6975 102.883 29.5994 104.195C32.5013 105.506 36.0627 106.011 38.1402 106.208V169.362C38.1402 170.267 38.8789 171.001 39.789 171.001C40.6991 171.001 41.4378 170.267 41.4378 169.362V91.7106C41.4378 91.7106 41.4642 91.7106 41.4774 91.7106C43.4823 91.5401 47.3141 91.0549 50.3875 89.6649C53.2894 88.3536 55.9737 86.4783 58.3545 84.0851C60.4452 81.9935 62.2589 79.5413 63.7494 76.8071C64.1847 76.0138 63.8879 75.0171 63.0833 74.5844H63.0965Z" fill="#38372F"/>
</g>
<defs>
<clipPath id="clip0_32_126">
<rect width="80" height="171" fill="white" transform="translate(0 0.00146484)"/>
</clipPath>
</defs>
</svg>
