<svg width="86" height="83" viewBox="0 0 86 83" fill="none" xmlns="http://www.w3.org/2000/svg">
<g clip-path="url(#clip0_32_145)">
<path d="M79.7985 68.4679L73.9403 49.6356C73.9403 49.6356 74.7837 45.9082 74.7515 43.5587C74.7212 41.209 73.9288 40.1026 73.9288 40.1026L76.6162 40.6846L73.9881 35.3208L77.1517 35.5294L74.5054 30.0199L76.9562 30.2625L74.067 24.3926L77.549 7.14337C77.549 7.14337 76.0744 7.50955 75.1611 8.1418C74.2477 8.77405 72.4232 11.1904 72.4232 11.1904L72.1286 2.90318L67.4953 1.62686C67.4953 1.62686 67.2511 6.60337 66.0424 9.20776C65.6635 10.0236 63.8511 10.5341 62.4843 11.4419C61.0445 12.3971 59.9644 17.1691 59.4781 20.6129C58.9918 24.0567 58.8437 28.1102 54.3297 31.7541C49.8157 35.3981 37.7129 33.7354 31.2879 34.623C30.4314 34.7406 29.6738 34.9299 29.0003 35.1762C27.634 34.5119 25.8622 33.9347 24.2576 34.2878C21.0628 34.9923 17.0705 38.3486 17.0705 38.3486L18.2273 38.9203C18.2273 38.9203 16.3625 39.9084 14.8346 40.9658C13.4501 41.9233 11.3957 44.6732 11.3957 44.6732L12.898 45.2073C12.898 45.2073 10.5912 46.5334 8.87888 49.1731C7.86346 50.7383 6.41221 54.0758 6.41221 54.0758L8.02839 53.8746C8.02839 53.8746 7.21931 55.6094 6.85052 57.5961C6.48174 59.5829 6.91982 63.1014 6.91982 63.1014C6.91982 63.1014 9.63508 61.845 10.4431 60.9264C11.2511 60.0079 12.6536 58.9149 12.6536 58.9149L12.8665 60.6247C12.8665 60.6247 15.6213 58.434 16.3764 57.3851C17.6552 55.6082 18.2266 53.4228 18.2266 53.4228L18.6282 55.823C18.6282 55.823 20.8944 54.0236 21.9762 52.2402C22.387 51.5628 23.0807 50.286 23.8701 48.8056C24.4929 51.6128 25.6864 53.9382 25.5366 55.6658C25.3226 58.1445 23.0558 77.731 23.0558 77.731L25.4833 80.4231L38.8082 78.7641C38.8082 78.7641 38.9687 77.1666 38.0234 75.9222C37.6179 75.3903 36.8004 74.8329 35.9158 74.4738L39.3577 61.6444C39.3577 61.6444 42.9944 60.4102 44.8874 58.8088C46.7801 57.2056 48.2092 55.0448 48.2092 55.0448C48.2092 55.0448 51.8811 55.1391 54.2882 55.5752C56.6952 56.0113 61.8404 55.3305 61.8404 55.3305L70.411 74.8275L84.0935 73.1239C84.0935 73.1239 84.254 71.5264 83.3087 70.2821C82.6905 69.4699 81.1097 68.6004 79.8006 68.4695L79.7985 68.4679Z" fill="#E6E1C8"/>
<path d="M59.1173 17.9499C56.4794 18.753 53.8163 22.225 53.8163 22.225L60.4303 23.2383L61.3438 17.6727C61.3438 17.6727 60.8717 17.4156 59.1173 17.9499Z" fill="#2EAC94"/>
<path d="M68.2928 11.449C68.6485 10.3147 69.3547 7.03159 69.7092 2.23487L67.495 1.62503C67.495 1.62503 67.2509 6.60153 66.0422 9.20592C65.6633 10.0218 63.8509 10.5322 62.4841 11.44C61.0443 12.3953 59.9642 17.1673 59.4779 20.6111C58.9916 24.0548 58.8435 28.1083 54.3295 31.7523C49.8155 35.3963 37.7127 33.7336 31.2876 34.6212C30.4439 34.7372 29.6951 34.9235 29.0281 35.1636C30.0915 37.0469 31.6329 39.5444 33.0724 41.0175C35.9112 43.9195 39.1465 45.5141 46.0484 45.7758C52.9503 46.0375 62.0765 42.0859 63.5327 35.2239C64.7573 29.448 64.4899 18.8751 65.3101 15.5213C66.1321 12.1671 67.8915 12.7332 68.2946 11.4488L68.2928 11.449Z" fill="#2EAC94"/>
<path d="M67.0177 14.8465C67.1052 15.5495 66.6035 16.189 65.8993 16.2766C65.195 16.3643 64.5516 15.8656 64.4643 15.1645C64.377 14.4633 64.8785 13.822 65.5827 13.7344C66.287 13.6467 66.9304 14.1453 67.0177 14.8465Z" fill="#38372F"/>
<path d="M78.7506 73.7634C78.617 73.78 78.4894 73.6973 78.4545 73.5647C78.2427 72.7768 77.9545 71.9345 77.0011 71.0818C76.4419 70.5818 74.8342 69.7613 74.8184 69.7524L74.748 69.7173L74.7084 69.6492C74.5811 69.4368 71.6257 64.2726 73.3119 50.0824C73.3301 49.9341 73.4654 49.8278 73.6142 49.844C73.7631 49.8619 73.8715 49.9963 73.8535 50.1465C72.288 63.3174 74.8105 68.6725 75.1409 69.3087C75.4779 69.4822 76.8187 70.1916 77.3635 70.6789C78.4265 71.631 78.7557 72.5961 78.978 73.4247C79.0163 73.5696 78.9303 73.7191 78.7847 73.7573C78.7721 73.7589 78.7597 73.7623 78.747 73.7638L78.7506 73.7634Z" fill="#D6AD49"/>
<path d="M33.3458 79.3856L33.3403 79.3863C33.19 79.4014 33.0556 79.294 33.0406 79.1443C32.9839 78.5999 32.8286 78.192 32.1457 77.4792C31.1954 76.4892 29.8846 76.3895 29.8715 76.3875L29.533 76.3639L29.6284 76.0398L34.5926 59.1775L34.736 59.136C34.766 59.1267 37.807 58.2186 39.4844 56.8595C41.2484 55.4294 42.1753 53.1979 42.1835 53.1749C42.2396 53.0365 42.3999 52.9691 42.5389 53.0248C42.6778 53.0805 42.7454 53.2401 42.6893 53.3785C42.6499 53.4747 41.7037 55.7579 39.8284 57.2804C38.2613 58.5528 35.6744 59.4117 35.0336 59.6119L30.2422 75.8886C30.751 75.984 31.7436 76.2676 32.5424 77.1012C33.2354 77.8219 33.5073 78.3412 33.5869 79.0836C33.6016 79.2314 33.497 79.3632 33.3489 79.3816L33.3458 79.3856Z" fill="#D6AD49"/>
<path d="M47.1061 36.4493C47.1061 36.4493 47.0898 36.4513 47.0826 36.4522L42.3972 36.6284C42.2458 36.6345 42.1193 36.5169 42.1154 36.3677C42.1094 36.2169 42.2276 36.0908 42.3775 36.0868L47.0628 35.9106C47.2143 35.9045 47.3408 36.022 47.3447 36.1712C47.3495 36.3131 47.2453 36.4337 47.1063 36.4511L47.1061 36.4493Z" fill="#E6E1C8"/>
<path d="M48.1898 39.409L42.4528 40.1233C42.3029 40.142 42.1669 40.0366 42.1483 39.8874C42.1297 39.7381 42.2357 39.6026 42.3856 39.584L48.1226 38.8697C48.2725 38.851 48.4085 38.9564 48.427 39.1056C48.4456 39.2549 48.3396 39.3904 48.1898 39.409Z" fill="#E6E1C8"/>
<path d="M48.0869 42.6772C48.0869 42.6772 48.0815 42.6779 48.0778 42.6783L44.3395 43.0233C44.189 43.0365 44.0562 42.9271 44.043 42.7772C44.0298 42.6273 44.139 42.4877 44.2904 42.4816L48.0287 42.1367C48.1793 42.1234 48.3121 42.2329 48.3253 42.3828C48.338 42.5291 48.2331 42.659 48.0869 42.6772Z" fill="#E6E1C8"/>
<path d="M50.5609 37.1128C50.4255 37.1297 50.2976 37.0452 50.2626 36.9108C50.2261 36.7656 50.3141 36.6177 50.4599 36.5813L54.2253 35.6287C54.3729 35.592 54.5195 35.6797 54.5559 35.8249C54.5923 35.97 54.5044 36.1179 54.3586 36.1543L50.5932 37.107C50.5824 37.1083 50.57 37.1117 50.5591 37.1131L50.5609 37.1128Z" fill="#E6E1C8"/>
<path d="M50.9706 40.4029C50.8352 40.4198 50.7073 40.3353 50.6722 40.2009C50.6358 40.0557 50.7238 39.9078 50.8694 39.8696L54.8388 38.8623C54.9846 38.8259 55.1331 38.9133 55.1713 39.0583C55.2077 39.2035 55.1197 39.3514 54.9741 39.3896L51.0047 40.3968C50.9939 40.3982 50.9815 40.4016 50.9706 40.4029Z" fill="#E6E1C8"/>
<path d="M38.1242 37.3631C38.1043 37.3655 38.0861 37.366 38.0657 37.3649L34.7569 37.0648C34.6066 37.0506 34.4966 36.9182 34.5092 36.7688C34.5236 36.6191 34.6566 36.5094 34.8067 36.5218L38.1155 36.8219C38.2658 36.836 38.3758 36.9684 38.3614 37.1181C38.35 37.2473 38.2488 37.3475 38.1242 37.3631Z" fill="#E6E1C8"/>
<path d="M39.5489 41.4271C39.5236 41.4302 39.4961 41.43 39.4699 41.4259L36.234 40.8867C36.086 40.8613 35.9844 40.7224 36.0098 40.5732C36.0354 40.4258 36.175 40.3244 36.3249 40.3496L39.5608 40.8888C39.7088 40.9142 39.8104 41.0531 39.785 41.2023C39.7653 41.3234 39.6663 41.4124 39.5489 41.4271Z" fill="#E6E1C8"/>
<path d="M67.0781 5.3904L67.4932 1.62503L71.0232 2.59687L67.0781 5.3904Z" fill="#38372F"/>
</g>
<defs>
<clipPath id="clip0_32_145">
<rect width="77" height="73" fill="white" transform="translate(0.307129 9.99023) rotate(-7.09717)"/>
</clipPath>
</defs>
</svg>
